%
M48
M72
T01C0.04000
T02C0.05118
%
T01
X26000Y26000
X26000Y36000
X26000Y46000
X26000Y56000
X26000Y66000
X26000Y76000
X26000Y86000
X26000Y96000
X61000Y76000
X61000Y66000
X61000Y56000
X61000Y46000
X71000Y46000
X71000Y56000
X71000Y66000
X71000Y76000
T02
X11000Y11000
X106000Y11000
X106000Y111000
X11000Y111000
M30
