G75*
%MOIN*%
%OFA0B0*%
%FSLAX25Y25*%
%IPPOS*%
%LPD*%
%AMOC8*
5,1,8,0,0,1.08239X$1,22.5*
%
%ADD10C,0.00000*%
%ADD11OC8,0.06400*%
%ADD12C,0.06400*%
%ADD13C,0.01000*%
D10*
X0001000Y0001000D02*
X0001000Y0120961D01*
X0114701Y0120961D01*
X0114701Y0001000D01*
X0001000Y0001000D01*
X0008441Y0011000D02*
X0008443Y0011101D01*
X0008449Y0011202D01*
X0008459Y0011303D01*
X0008473Y0011403D01*
X0008491Y0011502D01*
X0008513Y0011601D01*
X0008538Y0011699D01*
X0008568Y0011796D01*
X0008601Y0011891D01*
X0008638Y0011985D01*
X0008679Y0012078D01*
X0008723Y0012169D01*
X0008771Y0012258D01*
X0008823Y0012345D01*
X0008878Y0012430D01*
X0008936Y0012512D01*
X0008997Y0012593D01*
X0009062Y0012671D01*
X0009129Y0012746D01*
X0009199Y0012818D01*
X0009273Y0012888D01*
X0009349Y0012955D01*
X0009427Y0013019D01*
X0009508Y0013079D01*
X0009591Y0013136D01*
X0009677Y0013190D01*
X0009765Y0013241D01*
X0009854Y0013288D01*
X0009945Y0013332D01*
X0010038Y0013371D01*
X0010133Y0013408D01*
X0010228Y0013440D01*
X0010325Y0013469D01*
X0010424Y0013493D01*
X0010522Y0013514D01*
X0010622Y0013531D01*
X0010722Y0013544D01*
X0010823Y0013553D01*
X0010924Y0013558D01*
X0011025Y0013559D01*
X0011126Y0013556D01*
X0011227Y0013549D01*
X0011328Y0013538D01*
X0011428Y0013523D01*
X0011527Y0013504D01*
X0011626Y0013481D01*
X0011723Y0013455D01*
X0011820Y0013424D01*
X0011915Y0013390D01*
X0012008Y0013352D01*
X0012101Y0013310D01*
X0012191Y0013265D01*
X0012280Y0013216D01*
X0012366Y0013164D01*
X0012450Y0013108D01*
X0012533Y0013049D01*
X0012612Y0012987D01*
X0012690Y0012922D01*
X0012764Y0012854D01*
X0012836Y0012782D01*
X0012905Y0012709D01*
X0012971Y0012632D01*
X0013034Y0012553D01*
X0013094Y0012471D01*
X0013150Y0012387D01*
X0013203Y0012301D01*
X0013253Y0012213D01*
X0013299Y0012123D01*
X0013342Y0012032D01*
X0013381Y0011938D01*
X0013416Y0011843D01*
X0013447Y0011747D01*
X0013475Y0011650D01*
X0013499Y0011552D01*
X0013519Y0011453D01*
X0013535Y0011353D01*
X0013547Y0011252D01*
X0013555Y0011152D01*
X0013559Y0011051D01*
X0013559Y0010949D01*
X0013555Y0010848D01*
X0013547Y0010748D01*
X0013535Y0010647D01*
X0013519Y0010547D01*
X0013499Y0010448D01*
X0013475Y0010350D01*
X0013447Y0010253D01*
X0013416Y0010157D01*
X0013381Y0010062D01*
X0013342Y0009968D01*
X0013299Y0009877D01*
X0013253Y0009787D01*
X0013203Y0009699D01*
X0013150Y0009613D01*
X0013094Y0009529D01*
X0013034Y0009447D01*
X0012971Y0009368D01*
X0012905Y0009291D01*
X0012836Y0009218D01*
X0012764Y0009146D01*
X0012690Y0009078D01*
X0012612Y0009013D01*
X0012533Y0008951D01*
X0012450Y0008892D01*
X0012366Y0008836D01*
X0012279Y0008784D01*
X0012191Y0008735D01*
X0012101Y0008690D01*
X0012008Y0008648D01*
X0011915Y0008610D01*
X0011820Y0008576D01*
X0011723Y0008545D01*
X0011626Y0008519D01*
X0011527Y0008496D01*
X0011428Y0008477D01*
X0011328Y0008462D01*
X0011227Y0008451D01*
X0011126Y0008444D01*
X0011025Y0008441D01*
X0010924Y0008442D01*
X0010823Y0008447D01*
X0010722Y0008456D01*
X0010622Y0008469D01*
X0010522Y0008486D01*
X0010424Y0008507D01*
X0010325Y0008531D01*
X0010228Y0008560D01*
X0010133Y0008592D01*
X0010038Y0008629D01*
X0009945Y0008668D01*
X0009854Y0008712D01*
X0009765Y0008759D01*
X0009677Y0008810D01*
X0009591Y0008864D01*
X0009508Y0008921D01*
X0009427Y0008981D01*
X0009349Y0009045D01*
X0009273Y0009112D01*
X0009199Y0009182D01*
X0009129Y0009254D01*
X0009062Y0009329D01*
X0008997Y0009407D01*
X0008936Y0009488D01*
X0008878Y0009570D01*
X0008823Y0009655D01*
X0008771Y0009742D01*
X0008723Y0009831D01*
X0008679Y0009922D01*
X0008638Y0010015D01*
X0008601Y0010109D01*
X0008568Y0010204D01*
X0008538Y0010301D01*
X0008513Y0010399D01*
X0008491Y0010498D01*
X0008473Y0010597D01*
X0008459Y0010697D01*
X0008449Y0010798D01*
X0008443Y0010899D01*
X0008441Y0011000D01*
X0008441Y0111000D02*
X0008443Y0111101D01*
X0008449Y0111202D01*
X0008459Y0111303D01*
X0008473Y0111403D01*
X0008491Y0111502D01*
X0008513Y0111601D01*
X0008538Y0111699D01*
X0008568Y0111796D01*
X0008601Y0111891D01*
X0008638Y0111985D01*
X0008679Y0112078D01*
X0008723Y0112169D01*
X0008771Y0112258D01*
X0008823Y0112345D01*
X0008878Y0112430D01*
X0008936Y0112512D01*
X0008997Y0112593D01*
X0009062Y0112671D01*
X0009129Y0112746D01*
X0009199Y0112818D01*
X0009273Y0112888D01*
X0009349Y0112955D01*
X0009427Y0113019D01*
X0009508Y0113079D01*
X0009591Y0113136D01*
X0009677Y0113190D01*
X0009765Y0113241D01*
X0009854Y0113288D01*
X0009945Y0113332D01*
X0010038Y0113371D01*
X0010133Y0113408D01*
X0010228Y0113440D01*
X0010325Y0113469D01*
X0010424Y0113493D01*
X0010522Y0113514D01*
X0010622Y0113531D01*
X0010722Y0113544D01*
X0010823Y0113553D01*
X0010924Y0113558D01*
X0011025Y0113559D01*
X0011126Y0113556D01*
X0011227Y0113549D01*
X0011328Y0113538D01*
X0011428Y0113523D01*
X0011527Y0113504D01*
X0011626Y0113481D01*
X0011723Y0113455D01*
X0011820Y0113424D01*
X0011915Y0113390D01*
X0012008Y0113352D01*
X0012101Y0113310D01*
X0012191Y0113265D01*
X0012280Y0113216D01*
X0012366Y0113164D01*
X0012450Y0113108D01*
X0012533Y0113049D01*
X0012612Y0112987D01*
X0012690Y0112922D01*
X0012764Y0112854D01*
X0012836Y0112782D01*
X0012905Y0112709D01*
X0012971Y0112632D01*
X0013034Y0112553D01*
X0013094Y0112471D01*
X0013150Y0112387D01*
X0013203Y0112301D01*
X0013253Y0112213D01*
X0013299Y0112123D01*
X0013342Y0112032D01*
X0013381Y0111938D01*
X0013416Y0111843D01*
X0013447Y0111747D01*
X0013475Y0111650D01*
X0013499Y0111552D01*
X0013519Y0111453D01*
X0013535Y0111353D01*
X0013547Y0111252D01*
X0013555Y0111152D01*
X0013559Y0111051D01*
X0013559Y0110949D01*
X0013555Y0110848D01*
X0013547Y0110748D01*
X0013535Y0110647D01*
X0013519Y0110547D01*
X0013499Y0110448D01*
X0013475Y0110350D01*
X0013447Y0110253D01*
X0013416Y0110157D01*
X0013381Y0110062D01*
X0013342Y0109968D01*
X0013299Y0109877D01*
X0013253Y0109787D01*
X0013203Y0109699D01*
X0013150Y0109613D01*
X0013094Y0109529D01*
X0013034Y0109447D01*
X0012971Y0109368D01*
X0012905Y0109291D01*
X0012836Y0109218D01*
X0012764Y0109146D01*
X0012690Y0109078D01*
X0012612Y0109013D01*
X0012533Y0108951D01*
X0012450Y0108892D01*
X0012366Y0108836D01*
X0012279Y0108784D01*
X0012191Y0108735D01*
X0012101Y0108690D01*
X0012008Y0108648D01*
X0011915Y0108610D01*
X0011820Y0108576D01*
X0011723Y0108545D01*
X0011626Y0108519D01*
X0011527Y0108496D01*
X0011428Y0108477D01*
X0011328Y0108462D01*
X0011227Y0108451D01*
X0011126Y0108444D01*
X0011025Y0108441D01*
X0010924Y0108442D01*
X0010823Y0108447D01*
X0010722Y0108456D01*
X0010622Y0108469D01*
X0010522Y0108486D01*
X0010424Y0108507D01*
X0010325Y0108531D01*
X0010228Y0108560D01*
X0010133Y0108592D01*
X0010038Y0108629D01*
X0009945Y0108668D01*
X0009854Y0108712D01*
X0009765Y0108759D01*
X0009677Y0108810D01*
X0009591Y0108864D01*
X0009508Y0108921D01*
X0009427Y0108981D01*
X0009349Y0109045D01*
X0009273Y0109112D01*
X0009199Y0109182D01*
X0009129Y0109254D01*
X0009062Y0109329D01*
X0008997Y0109407D01*
X0008936Y0109488D01*
X0008878Y0109570D01*
X0008823Y0109655D01*
X0008771Y0109742D01*
X0008723Y0109831D01*
X0008679Y0109922D01*
X0008638Y0110015D01*
X0008601Y0110109D01*
X0008568Y0110204D01*
X0008538Y0110301D01*
X0008513Y0110399D01*
X0008491Y0110498D01*
X0008473Y0110597D01*
X0008459Y0110697D01*
X0008449Y0110798D01*
X0008443Y0110899D01*
X0008441Y0111000D01*
X0103441Y0111000D02*
X0103443Y0111101D01*
X0103449Y0111202D01*
X0103459Y0111303D01*
X0103473Y0111403D01*
X0103491Y0111502D01*
X0103513Y0111601D01*
X0103538Y0111699D01*
X0103568Y0111796D01*
X0103601Y0111891D01*
X0103638Y0111985D01*
X0103679Y0112078D01*
X0103723Y0112169D01*
X0103771Y0112258D01*
X0103823Y0112345D01*
X0103878Y0112430D01*
X0103936Y0112512D01*
X0103997Y0112593D01*
X0104062Y0112671D01*
X0104129Y0112746D01*
X0104199Y0112818D01*
X0104273Y0112888D01*
X0104349Y0112955D01*
X0104427Y0113019D01*
X0104508Y0113079D01*
X0104591Y0113136D01*
X0104677Y0113190D01*
X0104765Y0113241D01*
X0104854Y0113288D01*
X0104945Y0113332D01*
X0105038Y0113371D01*
X0105133Y0113408D01*
X0105228Y0113440D01*
X0105325Y0113469D01*
X0105424Y0113493D01*
X0105522Y0113514D01*
X0105622Y0113531D01*
X0105722Y0113544D01*
X0105823Y0113553D01*
X0105924Y0113558D01*
X0106025Y0113559D01*
X0106126Y0113556D01*
X0106227Y0113549D01*
X0106328Y0113538D01*
X0106428Y0113523D01*
X0106527Y0113504D01*
X0106626Y0113481D01*
X0106723Y0113455D01*
X0106820Y0113424D01*
X0106915Y0113390D01*
X0107008Y0113352D01*
X0107101Y0113310D01*
X0107191Y0113265D01*
X0107280Y0113216D01*
X0107366Y0113164D01*
X0107450Y0113108D01*
X0107533Y0113049D01*
X0107612Y0112987D01*
X0107690Y0112922D01*
X0107764Y0112854D01*
X0107836Y0112782D01*
X0107905Y0112709D01*
X0107971Y0112632D01*
X0108034Y0112553D01*
X0108094Y0112471D01*
X0108150Y0112387D01*
X0108203Y0112301D01*
X0108253Y0112213D01*
X0108299Y0112123D01*
X0108342Y0112032D01*
X0108381Y0111938D01*
X0108416Y0111843D01*
X0108447Y0111747D01*
X0108475Y0111650D01*
X0108499Y0111552D01*
X0108519Y0111453D01*
X0108535Y0111353D01*
X0108547Y0111252D01*
X0108555Y0111152D01*
X0108559Y0111051D01*
X0108559Y0110949D01*
X0108555Y0110848D01*
X0108547Y0110748D01*
X0108535Y0110647D01*
X0108519Y0110547D01*
X0108499Y0110448D01*
X0108475Y0110350D01*
X0108447Y0110253D01*
X0108416Y0110157D01*
X0108381Y0110062D01*
X0108342Y0109968D01*
X0108299Y0109877D01*
X0108253Y0109787D01*
X0108203Y0109699D01*
X0108150Y0109613D01*
X0108094Y0109529D01*
X0108034Y0109447D01*
X0107971Y0109368D01*
X0107905Y0109291D01*
X0107836Y0109218D01*
X0107764Y0109146D01*
X0107690Y0109078D01*
X0107612Y0109013D01*
X0107533Y0108951D01*
X0107450Y0108892D01*
X0107366Y0108836D01*
X0107279Y0108784D01*
X0107191Y0108735D01*
X0107101Y0108690D01*
X0107008Y0108648D01*
X0106915Y0108610D01*
X0106820Y0108576D01*
X0106723Y0108545D01*
X0106626Y0108519D01*
X0106527Y0108496D01*
X0106428Y0108477D01*
X0106328Y0108462D01*
X0106227Y0108451D01*
X0106126Y0108444D01*
X0106025Y0108441D01*
X0105924Y0108442D01*
X0105823Y0108447D01*
X0105722Y0108456D01*
X0105622Y0108469D01*
X0105522Y0108486D01*
X0105424Y0108507D01*
X0105325Y0108531D01*
X0105228Y0108560D01*
X0105133Y0108592D01*
X0105038Y0108629D01*
X0104945Y0108668D01*
X0104854Y0108712D01*
X0104765Y0108759D01*
X0104677Y0108810D01*
X0104591Y0108864D01*
X0104508Y0108921D01*
X0104427Y0108981D01*
X0104349Y0109045D01*
X0104273Y0109112D01*
X0104199Y0109182D01*
X0104129Y0109254D01*
X0104062Y0109329D01*
X0103997Y0109407D01*
X0103936Y0109488D01*
X0103878Y0109570D01*
X0103823Y0109655D01*
X0103771Y0109742D01*
X0103723Y0109831D01*
X0103679Y0109922D01*
X0103638Y0110015D01*
X0103601Y0110109D01*
X0103568Y0110204D01*
X0103538Y0110301D01*
X0103513Y0110399D01*
X0103491Y0110498D01*
X0103473Y0110597D01*
X0103459Y0110697D01*
X0103449Y0110798D01*
X0103443Y0110899D01*
X0103441Y0111000D01*
X0103441Y0011000D02*
X0103443Y0011101D01*
X0103449Y0011202D01*
X0103459Y0011303D01*
X0103473Y0011403D01*
X0103491Y0011502D01*
X0103513Y0011601D01*
X0103538Y0011699D01*
X0103568Y0011796D01*
X0103601Y0011891D01*
X0103638Y0011985D01*
X0103679Y0012078D01*
X0103723Y0012169D01*
X0103771Y0012258D01*
X0103823Y0012345D01*
X0103878Y0012430D01*
X0103936Y0012512D01*
X0103997Y0012593D01*
X0104062Y0012671D01*
X0104129Y0012746D01*
X0104199Y0012818D01*
X0104273Y0012888D01*
X0104349Y0012955D01*
X0104427Y0013019D01*
X0104508Y0013079D01*
X0104591Y0013136D01*
X0104677Y0013190D01*
X0104765Y0013241D01*
X0104854Y0013288D01*
X0104945Y0013332D01*
X0105038Y0013371D01*
X0105133Y0013408D01*
X0105228Y0013440D01*
X0105325Y0013469D01*
X0105424Y0013493D01*
X0105522Y0013514D01*
X0105622Y0013531D01*
X0105722Y0013544D01*
X0105823Y0013553D01*
X0105924Y0013558D01*
X0106025Y0013559D01*
X0106126Y0013556D01*
X0106227Y0013549D01*
X0106328Y0013538D01*
X0106428Y0013523D01*
X0106527Y0013504D01*
X0106626Y0013481D01*
X0106723Y0013455D01*
X0106820Y0013424D01*
X0106915Y0013390D01*
X0107008Y0013352D01*
X0107101Y0013310D01*
X0107191Y0013265D01*
X0107280Y0013216D01*
X0107366Y0013164D01*
X0107450Y0013108D01*
X0107533Y0013049D01*
X0107612Y0012987D01*
X0107690Y0012922D01*
X0107764Y0012854D01*
X0107836Y0012782D01*
X0107905Y0012709D01*
X0107971Y0012632D01*
X0108034Y0012553D01*
X0108094Y0012471D01*
X0108150Y0012387D01*
X0108203Y0012301D01*
X0108253Y0012213D01*
X0108299Y0012123D01*
X0108342Y0012032D01*
X0108381Y0011938D01*
X0108416Y0011843D01*
X0108447Y0011747D01*
X0108475Y0011650D01*
X0108499Y0011552D01*
X0108519Y0011453D01*
X0108535Y0011353D01*
X0108547Y0011252D01*
X0108555Y0011152D01*
X0108559Y0011051D01*
X0108559Y0010949D01*
X0108555Y0010848D01*
X0108547Y0010748D01*
X0108535Y0010647D01*
X0108519Y0010547D01*
X0108499Y0010448D01*
X0108475Y0010350D01*
X0108447Y0010253D01*
X0108416Y0010157D01*
X0108381Y0010062D01*
X0108342Y0009968D01*
X0108299Y0009877D01*
X0108253Y0009787D01*
X0108203Y0009699D01*
X0108150Y0009613D01*
X0108094Y0009529D01*
X0108034Y0009447D01*
X0107971Y0009368D01*
X0107905Y0009291D01*
X0107836Y0009218D01*
X0107764Y0009146D01*
X0107690Y0009078D01*
X0107612Y0009013D01*
X0107533Y0008951D01*
X0107450Y0008892D01*
X0107366Y0008836D01*
X0107279Y0008784D01*
X0107191Y0008735D01*
X0107101Y0008690D01*
X0107008Y0008648D01*
X0106915Y0008610D01*
X0106820Y0008576D01*
X0106723Y0008545D01*
X0106626Y0008519D01*
X0106527Y0008496D01*
X0106428Y0008477D01*
X0106328Y0008462D01*
X0106227Y0008451D01*
X0106126Y0008444D01*
X0106025Y0008441D01*
X0105924Y0008442D01*
X0105823Y0008447D01*
X0105722Y0008456D01*
X0105622Y0008469D01*
X0105522Y0008486D01*
X0105424Y0008507D01*
X0105325Y0008531D01*
X0105228Y0008560D01*
X0105133Y0008592D01*
X0105038Y0008629D01*
X0104945Y0008668D01*
X0104854Y0008712D01*
X0104765Y0008759D01*
X0104677Y0008810D01*
X0104591Y0008864D01*
X0104508Y0008921D01*
X0104427Y0008981D01*
X0104349Y0009045D01*
X0104273Y0009112D01*
X0104199Y0009182D01*
X0104129Y0009254D01*
X0104062Y0009329D01*
X0103997Y0009407D01*
X0103936Y0009488D01*
X0103878Y0009570D01*
X0103823Y0009655D01*
X0103771Y0009742D01*
X0103723Y0009831D01*
X0103679Y0009922D01*
X0103638Y0010015D01*
X0103601Y0010109D01*
X0103568Y0010204D01*
X0103538Y0010301D01*
X0103513Y0010399D01*
X0103491Y0010498D01*
X0103473Y0010597D01*
X0103459Y0010697D01*
X0103449Y0010798D01*
X0103443Y0010899D01*
X0103441Y0011000D01*
D11*
X0071000Y0046000D03*
X0071000Y0056000D03*
X0071000Y0066000D03*
X0071000Y0076000D03*
X0061000Y0076000D03*
X0061000Y0066000D03*
X0061000Y0056000D03*
X0061000Y0046000D03*
D12*
X0029200Y0046000D02*
X0022800Y0046000D01*
X0022800Y0036000D02*
X0029200Y0036000D01*
X0029200Y0026000D02*
X0022800Y0026000D01*
X0022800Y0056000D02*
X0029200Y0056000D01*
X0029200Y0066000D02*
X0022800Y0066000D01*
X0022800Y0076000D02*
X0029200Y0076000D01*
X0029200Y0086000D02*
X0022800Y0086000D01*
X0022800Y0096000D02*
X0029200Y0096000D01*
D13*
X0026700Y0096000D02*
X0026000Y0096000D01*
X0026700Y0096000D02*
X0046500Y0076200D01*
X0060900Y0076200D01*
X0061000Y0076000D01*
X0060900Y0066300D02*
X0061000Y0066000D01*
X0060900Y0066300D02*
X0035700Y0066300D01*
X0026000Y0076000D01*
X0026700Y0056400D02*
X0026000Y0056000D01*
X0026700Y0056400D02*
X0060900Y0056400D01*
X0061000Y0056000D01*
X0059100Y0051000D02*
X0066300Y0051000D01*
X0070800Y0055500D01*
X0071000Y0056000D01*
X0071000Y0046000D02*
X0070800Y0045600D01*
X0051900Y0026700D01*
X0026700Y0026700D01*
X0026000Y0026000D01*
X0026000Y0036000D02*
X0026700Y0036600D01*
X0051900Y0036600D01*
X0060900Y0045600D01*
X0061000Y0046000D01*
X0059100Y0051000D02*
X0054600Y0046500D01*
X0026700Y0046500D01*
X0026000Y0046000D01*
M02*
