G75*
%MOIN*%
%OFA0B0*%
%FSLAX25Y25*%
%IPPOS*%
%LPD*%
%AMOC8*
5,1,8,0,0,1.08239X$1,22.5*
%
%ADD10C,0.00600*%
%ADD11C,0.00500*%
D10*
X0021000Y0023500D02*
X0023500Y0021000D01*
X0028500Y0021000D01*
X0031000Y0023500D01*
X0031000Y0028500D01*
X0028500Y0031000D01*
X0031000Y0033500D01*
X0031000Y0038500D01*
X0028500Y0041000D01*
X0031000Y0043500D01*
X0031000Y0048500D01*
X0028500Y0051000D01*
X0031000Y0053500D01*
X0031000Y0058500D01*
X0028500Y0061000D01*
X0031000Y0063500D01*
X0031000Y0068500D01*
X0028500Y0071000D01*
X0031000Y0073500D01*
X0031000Y0078500D01*
X0028500Y0081000D01*
X0031000Y0083500D01*
X0031000Y0088500D01*
X0028500Y0091000D01*
X0031000Y0093500D01*
X0031000Y0098500D01*
X0028500Y0101000D01*
X0023500Y0101000D01*
X0021000Y0098500D01*
X0021000Y0093500D01*
X0023500Y0091000D01*
X0021000Y0088500D01*
X0021000Y0083500D01*
X0023500Y0081000D01*
X0021000Y0078500D01*
X0021000Y0073500D01*
X0023500Y0071000D01*
X0021000Y0068500D01*
X0021000Y0063500D01*
X0023500Y0061000D01*
X0021000Y0058500D01*
X0021000Y0053500D01*
X0023500Y0051000D01*
X0021000Y0048500D01*
X0021000Y0043500D01*
X0023500Y0041000D01*
X0021000Y0038500D01*
X0021000Y0033500D01*
X0023500Y0031000D01*
X0021000Y0028500D01*
X0021000Y0023500D01*
X0056000Y0043500D02*
X0058500Y0041000D01*
X0073500Y0041000D01*
X0076000Y0043500D01*
X0076000Y0048500D01*
X0073500Y0051000D01*
X0076000Y0053500D01*
X0076000Y0058500D01*
X0073500Y0061000D01*
X0076000Y0063500D01*
X0076000Y0068500D01*
X0073500Y0071000D01*
X0076000Y0073500D01*
X0076000Y0078500D01*
X0073500Y0081000D01*
X0058500Y0081000D01*
X0056000Y0078500D01*
X0056000Y0073500D01*
X0058500Y0071000D01*
X0056000Y0068500D01*
X0056000Y0063500D01*
X0058500Y0061000D01*
X0056000Y0058500D01*
X0056000Y0053500D01*
X0058500Y0051000D01*
X0056000Y0048500D01*
X0056000Y0043500D01*
X0089295Y0042394D02*
X0089295Y0040259D01*
X0090362Y0039191D01*
X0091430Y0037016D02*
X0095700Y0032745D01*
X0095700Y0029503D02*
X0089295Y0029503D01*
X0092497Y0026300D01*
X0092497Y0030570D01*
X0091430Y0032745D02*
X0095700Y0037016D01*
X0095700Y0039191D02*
X0091430Y0043461D01*
X0090362Y0043461D01*
X0089295Y0042394D01*
X0095700Y0043461D02*
X0095700Y0039191D01*
X0095700Y0052082D02*
X0089295Y0052082D01*
X0089295Y0055285D01*
X0090362Y0056352D01*
X0091430Y0056352D01*
X0092497Y0055285D01*
X0092497Y0052082D01*
X0092497Y0055285D02*
X0093565Y0056352D01*
X0094632Y0056352D01*
X0095700Y0055285D01*
X0095700Y0052082D01*
X0095700Y0058527D02*
X0091430Y0058527D01*
X0093565Y0058527D02*
X0091430Y0060663D01*
X0091430Y0061730D01*
X0093565Y0063899D02*
X0091430Y0067101D01*
X0092497Y0069270D02*
X0092497Y0073540D01*
X0090362Y0075715D02*
X0089295Y0076783D01*
X0089295Y0078918D01*
X0090362Y0079986D01*
X0094632Y0079986D01*
X0095700Y0078918D01*
X0095700Y0076783D01*
X0094632Y0075715D01*
X0090362Y0075715D01*
X0091430Y0082161D02*
X0094632Y0082161D01*
X0095700Y0083229D01*
X0095700Y0086431D01*
X0091430Y0086431D01*
X0091430Y0088606D02*
X0091430Y0090742D01*
X0090362Y0089674D02*
X0094632Y0089674D01*
X0095700Y0090742D01*
X0095700Y0099349D02*
X0089295Y0099349D01*
X0089295Y0102552D01*
X0090362Y0103619D01*
X0092497Y0103619D01*
X0093565Y0102552D01*
X0093565Y0099349D01*
X0093565Y0101484D02*
X0095700Y0103619D01*
X0095700Y0105794D02*
X0095700Y0110065D01*
X0095700Y0107930D02*
X0089295Y0107930D01*
X0091430Y0105794D01*
X0094632Y0112240D02*
X0094632Y0113308D01*
X0095700Y0113308D01*
X0095700Y0112240D01*
X0094632Y0112240D01*
X0094632Y0115463D02*
X0090362Y0119733D01*
X0094632Y0119733D01*
X0095700Y0118665D01*
X0095700Y0116530D01*
X0094632Y0115463D01*
X0090362Y0115463D01*
X0089295Y0116530D01*
X0089295Y0118665D01*
X0090362Y0119733D01*
X0095700Y0067101D02*
X0093565Y0063899D01*
X0095700Y0063899D02*
X0089295Y0063899D01*
D11*
X0082250Y0047253D02*
X0082250Y0044250D01*
X0082250Y0045751D02*
X0077746Y0045751D01*
X0079247Y0044250D01*
X0053499Y0076250D02*
X0052749Y0076250D01*
X0051998Y0077001D01*
X0051998Y0078502D01*
X0052749Y0079253D01*
X0053499Y0079253D01*
X0054250Y0078502D01*
X0054250Y0077001D01*
X0053499Y0076250D01*
X0051998Y0077001D02*
X0051247Y0076250D01*
X0050497Y0076250D01*
X0049746Y0077001D01*
X0049746Y0078502D01*
X0050497Y0079253D01*
X0051247Y0079253D01*
X0051998Y0078502D01*
X0019250Y0094501D02*
X0018499Y0093750D01*
X0017749Y0093750D01*
X0016998Y0094501D01*
X0016998Y0096002D01*
X0017749Y0096753D01*
X0018499Y0096753D01*
X0019250Y0096002D01*
X0019250Y0094501D01*
X0016998Y0094501D02*
X0016247Y0093750D01*
X0015497Y0093750D01*
X0014746Y0094501D01*
X0014746Y0096002D01*
X0015497Y0096753D01*
X0016247Y0096753D01*
X0016998Y0096002D01*
X0037250Y0027253D02*
X0037250Y0024250D01*
X0037250Y0025751D02*
X0032746Y0025751D01*
X0034247Y0024250D01*
M02*
