%
M48
M72
T01C0.02756
T02C0.03200
T03C0.03600
T04C0.03937
T05C0.04000
T06C0.04400
T07C0.05118
T08C0.09000
T09C0.11800
T10C0.12598
T11C0.13000
%
T01
X56800Y101800
X66800Y101800
X81800Y101800
X91800Y101800
X251800Y76800
X251800Y66800
X276800Y31800
X286800Y31800
X301800Y31800
X311800Y31800
X326800Y31800
X336800Y31800
X213611Y251800
X207706Y251800
X201800Y251800
X195894Y251800
X189989Y251800
T02
X176800Y251800
X176800Y221800
X186800Y221800
X186800Y211800
X186800Y201800
X186800Y191800
X186800Y181800
X186800Y171800
X186800Y161800
X186800Y151800
X186800Y141800
X186800Y131800
X186800Y121800
X186800Y111800
X186800Y101800
X186800Y91800
X216800Y91800
X216800Y101800
X216800Y111800
X216800Y121800
X216800Y131800
X216800Y141800
X216800Y151800
X216800Y161800
X216800Y171800
X216800Y181800
X216800Y191800
X216800Y201800
X216800Y211800
X216800Y221800
X161800Y146300
X146800Y146800
X136800Y146800
X136800Y126800
X146800Y126800
X161800Y127300
X231800Y131800
X231800Y141800
X271800Y86800
X281800Y86800
X291800Y86800
X301800Y86800
X311800Y86800
X321800Y86800
X331800Y86800
X341800Y86800
X341800Y56800
X331800Y56800
X321800Y56800
X311800Y56800
X301800Y56800
X291800Y56800
X281800Y56800
X271800Y56800
X251800Y51800
X251800Y41800
X91800Y191800
X61800Y191800
X41800Y191800
X31800Y191800
T03
X111879Y69600
X111879Y61800
X121721Y61800
X121721Y69600
T04
X116800Y231800
X136800Y241800
X116800Y251800
T05
X96800Y236800
X86800Y236800
X76800Y236800
X66800Y236800
X56800Y236800
X46800Y236800
X36800Y236800
X26800Y236800
X26800Y216800
X36800Y216800
X46800Y216800
X56800Y216800
X66800Y216800
X76800Y216800
X86800Y216800
X96800Y216800
X124300Y211800
X124300Y201800
X124300Y191800
X124300Y181800
X124300Y171800
X124300Y161800
X141500Y202900
X141500Y220700
X167100Y220700
X167100Y202900
X156800Y241800
X251800Y221800
X251800Y211800
X251800Y201800
X251800Y191800
X251800Y181800
X251800Y171800
X251800Y161800
X251800Y151800
X251800Y131800
X251800Y121800
X251800Y111800
X226800Y66800
X216800Y66800
X206800Y66800
X196800Y66800
X186800Y66800
X176800Y66800
X166800Y66800
X341209Y145461
X352391Y150894
X341209Y156367
X341209Y167233
X352391Y161800
X352391Y172706
X341209Y178139
X352391Y183611
X352391Y139989
T06
X91800Y141800
X91800Y151800
X91800Y161800
X34300Y121800
X34300Y81800
T07
X21800Y16800
X21800Y261800
X351800Y261800
X351800Y16800
T08
X140500Y51100
X93100Y51100
T09
X71609Y56426
X56900Y40115
T10
X56800Y68937
T11
X32800Y151800
X346800Y112587
X346800Y211013
M30
