G75*
%MOIN*%
%OFA0B0*%
%FSLAX25Y25*%
%IPPOS*%
%LPD*%
%AMOC8*
5,1,8,0,0,1.08239X$1,22.5*
%
%ADD10OC8,0.05600*%
%ADD11R,0.06500X0.06500*%
%ADD12C,0.06500*%
%ADD13C,0.06800*%
%ADD14C,0.16598*%
%ADD15C,0.16200*%
%ADD16C,0.06400*%
%ADD17C,0.05600*%
%ADD18C,0.06800*%
%ADD19R,0.05156X0.05156*%
%ADD20C,0.05156*%
%ADD21OC8,0.06400*%
%ADD22R,0.07400X0.07400*%
%ADD23C,0.07400*%
%ADD24C,0.20000*%
%ADD25C,0.06600*%
%ADD26C,0.13000*%
%ADD27C,0.05600*%
%ADD28C,0.01000*%
%ADD29C,0.01600*%
D10*
X0136800Y0126800D03*
X0146800Y0126800D03*
X0146800Y0146800D03*
X0136800Y0146800D03*
X0091800Y0191800D03*
X0061800Y0191800D03*
X0041800Y0191800D03*
X0031800Y0191800D03*
X0176800Y0221800D03*
X0176800Y0251800D03*
X0231800Y0141800D03*
X0231800Y0131800D03*
X0251800Y0051800D03*
X0251800Y0041800D03*
D11*
X0276800Y0031800D03*
X0301800Y0031800D03*
X0326800Y0031800D03*
X0251800Y0066800D03*
X0091800Y0101800D03*
X0066800Y0101800D03*
D12*
X0056800Y0101800D03*
X0081800Y0101800D03*
X0251800Y0076800D03*
X0286800Y0031800D03*
X0311800Y0031800D03*
X0336800Y0031800D03*
D13*
X0034300Y0081800D03*
X0034300Y0121800D03*
D14*
X0056800Y0068937D03*
D15*
X0071609Y0056426D03*
X0056900Y0040115D03*
D16*
X0166800Y0063600D02*
X0166800Y0070000D01*
X0176800Y0070000D02*
X0176800Y0063600D01*
X0186800Y0063600D02*
X0186800Y0070000D01*
X0196800Y0070000D02*
X0196800Y0063600D01*
X0206800Y0063600D02*
X0206800Y0070000D01*
X0216800Y0070000D02*
X0216800Y0063600D01*
X0226800Y0063600D02*
X0226800Y0070000D01*
X0248600Y0111800D02*
X0255000Y0111800D01*
X0255000Y0121800D02*
X0248600Y0121800D01*
X0248600Y0131800D02*
X0255000Y0131800D01*
X0255000Y0151800D02*
X0248600Y0151800D01*
X0248600Y0161800D02*
X0255000Y0161800D01*
X0255000Y0171800D02*
X0248600Y0171800D01*
X0248600Y0181800D02*
X0255000Y0181800D01*
X0255000Y0191800D02*
X0248600Y0191800D01*
X0248600Y0201800D02*
X0255000Y0201800D01*
X0255000Y0211800D02*
X0248600Y0211800D01*
X0248600Y0221800D02*
X0255000Y0221800D01*
X0127500Y0211800D02*
X0121100Y0211800D01*
X0121100Y0201800D02*
X0127500Y0201800D01*
X0127500Y0191800D02*
X0121100Y0191800D01*
X0121100Y0181800D02*
X0127500Y0181800D01*
X0127500Y0171800D02*
X0121100Y0171800D01*
X0121100Y0161800D02*
X0127500Y0161800D01*
X0096800Y0213600D02*
X0096800Y0220000D01*
X0086800Y0220000D02*
X0086800Y0213600D01*
X0076800Y0213600D02*
X0076800Y0220000D01*
X0066800Y0220000D02*
X0066800Y0213600D01*
X0056800Y0213600D02*
X0056800Y0220000D01*
X0046800Y0220000D02*
X0046800Y0213600D01*
X0036800Y0213600D02*
X0036800Y0220000D01*
X0026800Y0220000D02*
X0026800Y0213600D01*
X0026800Y0233600D02*
X0026800Y0240000D01*
X0036800Y0240000D02*
X0036800Y0233600D01*
X0046800Y0233600D02*
X0046800Y0240000D01*
X0056800Y0240000D02*
X0056800Y0233600D01*
X0066800Y0233600D02*
X0066800Y0240000D01*
X0076800Y0240000D02*
X0076800Y0233600D01*
X0086800Y0233600D02*
X0086800Y0240000D01*
X0096800Y0240000D02*
X0096800Y0233600D01*
D17*
X0184000Y0221800D02*
X0189600Y0221800D01*
X0189600Y0211800D02*
X0184000Y0211800D01*
X0184000Y0201800D02*
X0189600Y0201800D01*
X0189600Y0191800D02*
X0184000Y0191800D01*
X0184000Y0181800D02*
X0189600Y0181800D01*
X0189600Y0171800D02*
X0184000Y0171800D01*
X0184000Y0161800D02*
X0189600Y0161800D01*
X0189600Y0151800D02*
X0184000Y0151800D01*
X0184000Y0141800D02*
X0189600Y0141800D01*
X0189600Y0131800D02*
X0184000Y0131800D01*
X0184000Y0121800D02*
X0189600Y0121800D01*
X0189600Y0111800D02*
X0184000Y0111800D01*
X0184000Y0101800D02*
X0189600Y0101800D01*
X0189600Y0091800D02*
X0184000Y0091800D01*
X0214000Y0091800D02*
X0219600Y0091800D01*
X0219600Y0101800D02*
X0214000Y0101800D01*
X0214000Y0111800D02*
X0219600Y0111800D01*
X0219600Y0121800D02*
X0214000Y0121800D01*
X0214000Y0131800D02*
X0219600Y0131800D01*
X0219600Y0141800D02*
X0214000Y0141800D01*
X0214000Y0151800D02*
X0219600Y0151800D01*
X0219600Y0161800D02*
X0214000Y0161800D01*
X0214000Y0171800D02*
X0219600Y0171800D01*
X0219600Y0181800D02*
X0214000Y0181800D01*
X0214000Y0191800D02*
X0219600Y0191800D01*
X0219600Y0201800D02*
X0214000Y0201800D01*
X0214000Y0211800D02*
X0219600Y0211800D01*
X0219600Y0221800D02*
X0214000Y0221800D01*
X0271800Y0089600D02*
X0271800Y0084000D01*
X0281800Y0084000D02*
X0281800Y0089600D01*
X0291800Y0089600D02*
X0291800Y0084000D01*
X0301800Y0084000D02*
X0301800Y0089600D01*
X0311800Y0089600D02*
X0311800Y0084000D01*
X0321800Y0084000D02*
X0321800Y0089600D01*
X0331800Y0089600D02*
X0331800Y0084000D01*
X0341800Y0084000D02*
X0341800Y0089600D01*
X0341800Y0059600D02*
X0341800Y0054000D01*
X0331800Y0054000D02*
X0331800Y0059600D01*
X0321800Y0059600D02*
X0321800Y0054000D01*
X0311800Y0054000D02*
X0311800Y0059600D01*
X0301800Y0059600D02*
X0301800Y0054000D01*
X0291800Y0054000D02*
X0291800Y0059600D01*
X0281800Y0059600D02*
X0281800Y0054000D01*
X0271800Y0054000D02*
X0271800Y0059600D01*
D18*
X0095200Y0141800D02*
X0088400Y0141800D01*
X0088400Y0151800D02*
X0095200Y0151800D01*
X0095200Y0161800D02*
X0088400Y0161800D01*
D19*
X0189989Y0251800D03*
D20*
X0195894Y0251800D03*
X0201800Y0251800D03*
X0207706Y0251800D03*
X0213611Y0251800D03*
D21*
X0156800Y0241800D03*
D22*
X0352391Y0139989D03*
D23*
X0341209Y0145461D03*
X0352391Y0150894D03*
X0341209Y0156367D03*
X0341209Y0167233D03*
X0352391Y0161800D03*
X0352391Y0172706D03*
X0341209Y0178139D03*
X0352391Y0183611D03*
X0167100Y0202900D03*
X0167100Y0220700D03*
X0141500Y0220700D03*
X0141500Y0202900D03*
X0116800Y0231800D03*
X0136800Y0241800D03*
X0116800Y0251800D03*
D24*
X0346800Y0211013D03*
X0346800Y0112587D03*
D25*
X0121721Y0069600D03*
X0121721Y0061800D03*
X0111879Y0061800D03*
X0111879Y0069600D03*
D26*
X0093100Y0051100D03*
X0140500Y0051100D03*
D27*
X0161800Y0127300D03*
X0161800Y0146300D03*
D28*
X0146800Y0146800D02*
X0146800Y0126800D01*
X0167500Y0102200D02*
X0167500Y0067100D01*
X0166800Y0066800D01*
X0176800Y0066800D02*
X0177400Y0067100D01*
X0177400Y0102200D01*
X0186400Y0111200D01*
X0186800Y0111800D01*
X0186400Y0121100D02*
X0186800Y0121800D01*
X0186400Y0121100D02*
X0167500Y0102200D01*
X0186800Y0101800D02*
X0191800Y0101800D01*
X0196800Y0096800D01*
X0196800Y0076800D01*
X0186800Y0066800D01*
X0196800Y0066800D02*
X0196800Y0056800D01*
X0191800Y0051800D01*
X0166800Y0051800D01*
X0146800Y0071800D01*
X0136800Y0071800D01*
X0126800Y0081800D01*
X0124079Y0081800D01*
X0111879Y0069600D01*
X0118900Y0061700D02*
X0114400Y0057200D01*
X0098200Y0057200D01*
X0096400Y0059000D01*
X0082000Y0059000D01*
X0082000Y0101300D01*
X0081800Y0101800D01*
X0081100Y0102200D01*
X0076600Y0106700D01*
X0063100Y0106700D01*
X0058600Y0102200D01*
X0056800Y0102200D01*
X0056800Y0101800D01*
X0068500Y0059000D02*
X0066700Y0057200D01*
X0071609Y0056426D01*
X0068500Y0059000D02*
X0082000Y0059000D01*
X0118900Y0061700D02*
X0121600Y0061700D01*
X0121721Y0061800D01*
X0206800Y0066800D02*
X0206800Y0096800D01*
X0211800Y0101800D01*
X0216800Y0101800D01*
X0226800Y0101800D02*
X0226800Y0076800D01*
X0216800Y0066800D01*
X0236800Y0061800D02*
X0236800Y0071800D01*
X0241800Y0076800D01*
X0251800Y0076800D01*
X0251800Y0091800D02*
X0271800Y0071800D01*
X0316800Y0071800D01*
X0321800Y0076800D01*
X0321800Y0086800D01*
X0311800Y0086800D02*
X0311500Y0086000D01*
X0309700Y0086000D01*
X0303400Y0079700D01*
X0280000Y0079700D01*
X0276400Y0083300D01*
X0276400Y0096800D01*
X0252100Y0121100D01*
X0251800Y0121800D01*
X0251800Y0111800D02*
X0251800Y0091800D01*
X0251800Y0111800D02*
X0216800Y0111800D01*
X0226800Y0101800D01*
X0252100Y0131000D02*
X0251800Y0131800D01*
X0252100Y0131900D01*
X0303400Y0183200D01*
X0352000Y0183200D01*
X0352391Y0183611D01*
X0352391Y0161800D02*
X0352000Y0161600D01*
X0346600Y0156200D01*
X0346600Y0143600D01*
X0292600Y0089600D01*
X0292600Y0086900D01*
X0291800Y0086800D01*
X0281800Y0086800D02*
X0281800Y0101300D01*
X0252100Y0131000D01*
X0186800Y0181800D02*
X0124300Y0181800D01*
X0032500Y0192200D02*
X0031800Y0191800D01*
X0195894Y0251800D02*
X0196800Y0250894D01*
X0213611Y0251800D02*
X0221800Y0251800D01*
X0231800Y0241800D01*
X0231800Y0216800D01*
X0226800Y0211800D01*
X0216800Y0211800D01*
X0236800Y0061800D02*
X0246800Y0051800D01*
X0251800Y0051800D01*
X0251800Y0041800D02*
X0252100Y0041000D01*
X0309700Y0041000D01*
X0318700Y0032000D01*
X0326800Y0032000D01*
X0326800Y0031800D01*
D29*
X0013600Y0008600D02*
X0013600Y0269961D01*
X0358701Y0269961D01*
X0358701Y0008600D01*
X0013600Y0008600D01*
X0013600Y0009997D02*
X0358701Y0009997D01*
X0358701Y0011596D02*
X0013600Y0011596D01*
X0013600Y0013194D02*
X0019241Y0013194D01*
X0019331Y0013105D02*
X0020933Y0012441D01*
X0022667Y0012441D01*
X0024269Y0013105D01*
X0025495Y0014331D01*
X0026159Y0015933D01*
X0026159Y0017667D01*
X0025495Y0019269D01*
X0024269Y0020495D01*
X0022667Y0021159D01*
X0020933Y0021159D01*
X0019331Y0020495D01*
X0018105Y0019269D01*
X0017441Y0017667D01*
X0017441Y0015933D01*
X0018105Y0014331D01*
X0019331Y0013105D01*
X0017913Y0014793D02*
X0013600Y0014793D01*
X0013600Y0016391D02*
X0017441Y0016391D01*
X0017575Y0017990D02*
X0013600Y0017990D01*
X0013600Y0019588D02*
X0018423Y0019588D01*
X0013600Y0021187D02*
X0358701Y0021187D01*
X0358701Y0022785D02*
X0013600Y0022785D01*
X0013600Y0024384D02*
X0358701Y0024384D01*
X0358701Y0025982D02*
X0013600Y0025982D01*
X0013600Y0027581D02*
X0272257Y0027581D01*
X0271950Y0027887D02*
X0272887Y0026950D01*
X0280713Y0026950D01*
X0281650Y0027887D01*
X0281650Y0035713D01*
X0280713Y0036650D01*
X0272887Y0036650D01*
X0271950Y0035713D01*
X0271950Y0027887D01*
X0271950Y0029179D02*
X0013600Y0029179D01*
X0013600Y0030778D02*
X0053610Y0030778D01*
X0053105Y0030954D02*
X0054155Y0030587D01*
X0055239Y0030339D01*
X0056100Y0030242D01*
X0056100Y0039315D01*
X0047027Y0039315D01*
X0047124Y0038454D01*
X0047372Y0037370D01*
X0047739Y0036320D01*
X0048222Y0035319D01*
X0048813Y0034377D01*
X0049507Y0033508D01*
X0050293Y0032721D01*
X0051162Y0032028D01*
X0052104Y0031437D01*
X0053105Y0030954D01*
X0050726Y0032376D02*
X0013600Y0032376D01*
X0013600Y0033975D02*
X0049134Y0033975D01*
X0048099Y0035573D02*
X0013600Y0035573D01*
X0013600Y0037172D02*
X0047441Y0037172D01*
X0047089Y0038770D02*
X0013600Y0038770D01*
X0013600Y0040369D02*
X0056100Y0040369D01*
X0056100Y0040915D02*
X0056100Y0039315D01*
X0057700Y0039315D01*
X0057700Y0040915D01*
X0056100Y0040915D01*
X0056100Y0049987D01*
X0055239Y0049890D01*
X0054155Y0049643D01*
X0053105Y0049276D01*
X0052104Y0048793D01*
X0051162Y0048202D01*
X0050293Y0047508D01*
X0049507Y0046722D01*
X0048813Y0045853D01*
X0048222Y0044911D01*
X0047739Y0043909D01*
X0047372Y0042860D01*
X0047124Y0041776D01*
X0047027Y0040915D01*
X0056100Y0040915D01*
X0056100Y0041967D02*
X0057700Y0041967D01*
X0057700Y0040915D02*
X0057700Y0049987D01*
X0058561Y0049890D01*
X0059645Y0049643D01*
X0060695Y0049276D01*
X0061696Y0048793D01*
X0062638Y0048202D01*
X0063507Y0047508D01*
X0064293Y0046722D01*
X0064987Y0045853D01*
X0065578Y0044911D01*
X0066061Y0043909D01*
X0066428Y0042860D01*
X0066675Y0041776D01*
X0066772Y0040915D01*
X0057700Y0040915D01*
X0057700Y0040369D02*
X0247200Y0040369D01*
X0247200Y0039895D02*
X0249895Y0037200D01*
X0251800Y0037200D01*
X0253705Y0037200D01*
X0256400Y0039895D01*
X0256400Y0041800D01*
X0256400Y0043705D01*
X0253705Y0046400D01*
X0251800Y0046400D01*
X0251800Y0041800D01*
X0251800Y0041800D01*
X0256400Y0041800D01*
X0251800Y0041800D01*
X0251800Y0041800D01*
X0251800Y0041800D01*
X0247200Y0041800D01*
X0247200Y0043705D01*
X0249895Y0046400D01*
X0251800Y0046400D01*
X0251800Y0041800D01*
X0251800Y0037200D01*
X0251800Y0041800D01*
X0251800Y0041800D01*
X0247200Y0041800D01*
X0247200Y0039895D01*
X0248324Y0038770D02*
X0066711Y0038770D01*
X0066675Y0038454D02*
X0066772Y0039315D01*
X0057700Y0039315D01*
X0057700Y0030242D01*
X0058561Y0030339D01*
X0059645Y0030587D01*
X0060695Y0030954D01*
X0061696Y0031437D01*
X0062638Y0032028D01*
X0063507Y0032721D01*
X0064293Y0033508D01*
X0064987Y0034377D01*
X0065578Y0035319D01*
X0066061Y0036320D01*
X0066428Y0037370D01*
X0066675Y0038454D01*
X0066359Y0037172D02*
X0358701Y0037172D01*
X0358701Y0038770D02*
X0255276Y0038770D01*
X0256400Y0040369D02*
X0358701Y0040369D01*
X0358701Y0041967D02*
X0256400Y0041967D01*
X0256400Y0043566D02*
X0358701Y0043566D01*
X0358701Y0045164D02*
X0254941Y0045164D01*
X0253623Y0047400D02*
X0256200Y0049977D01*
X0256200Y0053623D01*
X0253623Y0056200D01*
X0249977Y0056200D01*
X0247677Y0053900D01*
X0247670Y0053900D01*
X0238900Y0062670D01*
X0238900Y0070930D01*
X0242670Y0074700D01*
X0247420Y0074700D01*
X0247688Y0074053D01*
X0249053Y0072688D01*
X0250835Y0071950D01*
X0252765Y0071950D01*
X0254547Y0072688D01*
X0255912Y0074053D01*
X0256650Y0075835D01*
X0256650Y0077765D01*
X0255912Y0079547D01*
X0254547Y0080912D01*
X0252765Y0081650D01*
X0250835Y0081650D01*
X0249053Y0080912D01*
X0247688Y0079547D01*
X0247420Y0078900D01*
X0240930Y0078900D01*
X0239700Y0077670D01*
X0234700Y0072670D01*
X0234700Y0060930D01*
X0235930Y0059700D01*
X0245930Y0049700D01*
X0247677Y0049700D01*
X0249977Y0047400D01*
X0253623Y0047400D01*
X0254584Y0048361D02*
X0358701Y0048361D01*
X0358701Y0046763D02*
X0147471Y0046763D01*
X0147367Y0046512D02*
X0148600Y0049489D01*
X0148600Y0052711D01*
X0147367Y0055688D01*
X0145088Y0057967D01*
X0142111Y0059200D01*
X0138889Y0059200D01*
X0135912Y0057967D01*
X0133633Y0055688D01*
X0132400Y0052711D01*
X0132400Y0049489D01*
X0133633Y0046512D01*
X0135912Y0044233D01*
X0138889Y0043000D01*
X0142111Y0043000D01*
X0145088Y0044233D01*
X0147367Y0046512D01*
X0146019Y0045164D02*
X0248659Y0045164D01*
X0247200Y0043566D02*
X0143477Y0043566D01*
X0137523Y0043566D02*
X0096077Y0043566D01*
X0094711Y0043000D02*
X0097688Y0044233D01*
X0099967Y0046512D01*
X0101200Y0049489D01*
X0101200Y0052711D01*
X0099967Y0055688D01*
X0097688Y0057967D01*
X0094711Y0059200D01*
X0091489Y0059200D01*
X0088512Y0057967D01*
X0086233Y0055688D01*
X0085000Y0052711D01*
X0085000Y0049489D01*
X0086233Y0046512D01*
X0088512Y0044233D01*
X0091489Y0043000D01*
X0094711Y0043000D01*
X0098619Y0045164D02*
X0134981Y0045164D01*
X0133529Y0046763D02*
X0100071Y0046763D01*
X0100733Y0048361D02*
X0132867Y0048361D01*
X0132400Y0049960D02*
X0101200Y0049960D01*
X0101200Y0051558D02*
X0132400Y0051558D01*
X0132585Y0053157D02*
X0101015Y0053157D01*
X0100353Y0054755D02*
X0133247Y0054755D01*
X0134299Y0056354D02*
X0099301Y0056354D01*
X0097703Y0057952D02*
X0108797Y0057952D01*
X0109103Y0057646D02*
X0110904Y0056900D01*
X0112853Y0056900D01*
X0114654Y0057646D01*
X0116033Y0059024D01*
X0116730Y0060709D01*
X0116747Y0060606D01*
X0116995Y0059842D01*
X0117359Y0059127D01*
X0117831Y0058478D01*
X0118399Y0057910D01*
X0119048Y0057438D01*
X0119764Y0057074D01*
X0120527Y0056826D01*
X0121320Y0056700D01*
X0121621Y0056700D01*
X0121621Y0061700D01*
X0116779Y0061700D01*
X0116779Y0061900D01*
X0121621Y0061900D01*
X0121621Y0061700D01*
X0121821Y0061700D01*
X0121821Y0056700D01*
X0122123Y0056700D01*
X0122916Y0056826D01*
X0123679Y0057074D01*
X0124394Y0057438D01*
X0125044Y0057910D01*
X0125611Y0058478D01*
X0126083Y0059127D01*
X0126448Y0059842D01*
X0126696Y0060606D01*
X0126821Y0061399D01*
X0126821Y0061700D01*
X0121821Y0061700D01*
X0121821Y0061900D01*
X0126821Y0061900D01*
X0126821Y0062201D01*
X0126696Y0062994D01*
X0126448Y0063758D01*
X0126083Y0064473D01*
X0125611Y0065122D01*
X0125044Y0065690D01*
X0124868Y0065817D01*
X0125875Y0066824D01*
X0126621Y0068625D01*
X0126621Y0070575D01*
X0125875Y0072376D01*
X0124497Y0073754D01*
X0122696Y0074500D01*
X0120747Y0074500D01*
X0119043Y0073794D01*
X0124949Y0079700D01*
X0125930Y0079700D01*
X0135930Y0069700D01*
X0145930Y0069700D01*
X0165930Y0049700D01*
X0192670Y0049700D01*
X0193900Y0050930D01*
X0198900Y0055930D01*
X0198900Y0059274D01*
X0199519Y0059531D01*
X0200869Y0060881D01*
X0201600Y0062645D01*
X0201600Y0070955D01*
X0200869Y0072719D01*
X0199519Y0074069D01*
X0197765Y0074796D01*
X0198900Y0075930D01*
X0198900Y0097670D01*
X0197670Y0098900D01*
X0194000Y0102570D01*
X0194000Y0102675D01*
X0193330Y0104292D01*
X0192092Y0105530D01*
X0190475Y0106200D01*
X0184370Y0106200D01*
X0185570Y0107400D01*
X0190475Y0107400D01*
X0192092Y0108070D01*
X0193330Y0109308D01*
X0194000Y0110925D01*
X0194000Y0112675D01*
X0193330Y0114292D01*
X0192092Y0115530D01*
X0190475Y0116200D01*
X0184470Y0116200D01*
X0185670Y0117400D01*
X0190475Y0117400D01*
X0192092Y0118070D01*
X0193330Y0119308D01*
X0194000Y0120925D01*
X0194000Y0122675D01*
X0193330Y0124292D01*
X0192092Y0125530D01*
X0190475Y0126200D01*
X0183125Y0126200D01*
X0181508Y0125530D01*
X0180270Y0124292D01*
X0179600Y0122675D01*
X0179600Y0120925D01*
X0180270Y0119308D01*
X0180954Y0118624D01*
X0166630Y0104300D01*
X0165400Y0103070D01*
X0165400Y0074616D01*
X0164081Y0074069D01*
X0162731Y0072719D01*
X0162000Y0070955D01*
X0162000Y0062645D01*
X0162731Y0060881D01*
X0164081Y0059531D01*
X0165845Y0058800D01*
X0167755Y0058800D01*
X0169519Y0059531D01*
X0170869Y0060881D01*
X0171600Y0062645D01*
X0171600Y0070955D01*
X0170869Y0072719D01*
X0169600Y0073988D01*
X0169600Y0101330D01*
X0179600Y0111330D01*
X0179600Y0110925D01*
X0180270Y0109308D01*
X0180904Y0108674D01*
X0176530Y0104300D01*
X0175300Y0103070D01*
X0175300Y0074574D01*
X0174081Y0074069D01*
X0172731Y0072719D01*
X0172000Y0070955D01*
X0172000Y0062645D01*
X0172731Y0060881D01*
X0174081Y0059531D01*
X0175845Y0058800D01*
X0177755Y0058800D01*
X0179519Y0059531D01*
X0180869Y0060881D01*
X0181600Y0062645D01*
X0181600Y0070955D01*
X0180869Y0072719D01*
X0179519Y0074069D01*
X0179500Y0074077D01*
X0179500Y0101330D01*
X0179600Y0101430D01*
X0179600Y0100925D01*
X0180270Y0099308D01*
X0181508Y0098070D01*
X0183125Y0097400D01*
X0190475Y0097400D01*
X0192092Y0098070D01*
X0192326Y0098304D01*
X0194700Y0095930D01*
X0194700Y0077670D01*
X0190309Y0073279D01*
X0189519Y0074069D01*
X0187755Y0074800D01*
X0185845Y0074800D01*
X0184081Y0074069D01*
X0182731Y0072719D01*
X0182000Y0070955D01*
X0182000Y0062645D01*
X0182731Y0060881D01*
X0184081Y0059531D01*
X0185845Y0058800D01*
X0187755Y0058800D01*
X0189519Y0059531D01*
X0190869Y0060881D01*
X0191600Y0062645D01*
X0191600Y0068630D01*
X0192000Y0069030D01*
X0192000Y0062645D01*
X0192731Y0060881D01*
X0194081Y0059531D01*
X0194700Y0059274D01*
X0194700Y0057670D01*
X0190930Y0053900D01*
X0167670Y0053900D01*
X0148900Y0072670D01*
X0147670Y0073900D01*
X0137670Y0073900D01*
X0128900Y0082670D01*
X0127670Y0083900D01*
X0123209Y0083900D01*
X0113529Y0074220D01*
X0112853Y0074500D01*
X0110904Y0074500D01*
X0109103Y0073754D01*
X0107725Y0072376D01*
X0106979Y0070575D01*
X0106979Y0068625D01*
X0107725Y0066824D01*
X0108849Y0065700D01*
X0107725Y0064576D01*
X0106979Y0062775D01*
X0106979Y0060825D01*
X0107725Y0059024D01*
X0109103Y0057646D01*
X0107507Y0059551D02*
X0081005Y0059551D01*
X0081138Y0059171D02*
X0080770Y0060221D01*
X0080288Y0061222D01*
X0079696Y0062164D01*
X0079003Y0063033D01*
X0078217Y0063819D01*
X0077347Y0064513D01*
X0076406Y0065104D01*
X0075404Y0065587D01*
X0074354Y0065954D01*
X0073270Y0066201D01*
X0072409Y0066298D01*
X0072409Y0057226D01*
X0070809Y0057226D01*
X0070809Y0055626D01*
X0061737Y0055626D01*
X0061834Y0054765D01*
X0062081Y0053681D01*
X0062449Y0052631D01*
X0062931Y0051630D01*
X0063523Y0050688D01*
X0064216Y0049819D01*
X0065002Y0049032D01*
X0065872Y0048339D01*
X0066813Y0047748D01*
X0067815Y0047265D01*
X0068864Y0046898D01*
X0069949Y0046650D01*
X0070809Y0046553D01*
X0070809Y0055626D01*
X0072409Y0055626D01*
X0072409Y0046553D01*
X0073270Y0046650D01*
X0074354Y0046898D01*
X0075404Y0047265D01*
X0076406Y0047748D01*
X0077347Y0048339D01*
X0078217Y0049032D01*
X0079003Y0049819D01*
X0079696Y0050688D01*
X0080288Y0051630D01*
X0080770Y0052631D01*
X0081138Y0053681D01*
X0081385Y0054765D01*
X0081482Y0055626D01*
X0072409Y0055626D01*
X0072409Y0057226D01*
X0081482Y0057226D01*
X0081385Y0058087D01*
X0081138Y0059171D01*
X0081400Y0057952D02*
X0088497Y0057952D01*
X0086899Y0056354D02*
X0072409Y0056354D01*
X0072409Y0057952D02*
X0070809Y0057952D01*
X0070809Y0057226D02*
X0070809Y0066298D01*
X0069949Y0066201D01*
X0068864Y0065954D01*
X0067815Y0065587D01*
X0066813Y0065104D01*
X0065872Y0064513D01*
X0065589Y0064287D01*
X0066699Y0066968D01*
X0066699Y0070906D01*
X0065192Y0074544D01*
X0062407Y0077329D01*
X0058769Y0078836D01*
X0054831Y0078836D01*
X0051193Y0077329D01*
X0048408Y0074544D01*
X0046901Y0070906D01*
X0046901Y0066968D01*
X0048408Y0063330D01*
X0051193Y0060545D01*
X0054831Y0059038D01*
X0058769Y0059038D01*
X0062407Y0060545D01*
X0062788Y0060926D01*
X0062449Y0060221D01*
X0062081Y0059171D01*
X0061834Y0058087D01*
X0061737Y0057226D01*
X0070809Y0057226D01*
X0070809Y0056354D02*
X0013600Y0056354D01*
X0013600Y0057952D02*
X0061819Y0057952D01*
X0062214Y0059551D02*
X0060008Y0059551D01*
X0061836Y0054755D02*
X0013600Y0054755D01*
X0013600Y0053157D02*
X0062265Y0053157D01*
X0062976Y0051558D02*
X0013600Y0051558D01*
X0013600Y0049960D02*
X0055855Y0049960D01*
X0056100Y0049960D02*
X0057700Y0049960D01*
X0057945Y0049960D02*
X0064103Y0049960D01*
X0062384Y0048361D02*
X0065844Y0048361D01*
X0064253Y0046763D02*
X0069456Y0046763D01*
X0070809Y0046763D02*
X0072409Y0046763D01*
X0073762Y0046763D02*
X0086129Y0046763D01*
X0085467Y0048361D02*
X0077375Y0048361D01*
X0079115Y0049960D02*
X0085000Y0049960D01*
X0085000Y0051558D02*
X0080243Y0051558D01*
X0080954Y0053157D02*
X0085185Y0053157D01*
X0085847Y0054755D02*
X0081383Y0054755D01*
X0080323Y0061149D02*
X0106979Y0061149D01*
X0106979Y0062748D02*
X0079230Y0062748D01*
X0077556Y0064346D02*
X0107630Y0064346D01*
X0108604Y0065945D02*
X0074381Y0065945D01*
X0072409Y0065945D02*
X0070809Y0065945D01*
X0070809Y0064346D02*
X0072409Y0064346D01*
X0072409Y0062748D02*
X0070809Y0062748D01*
X0070809Y0061149D02*
X0072409Y0061149D01*
X0072409Y0059551D02*
X0070809Y0059551D01*
X0070809Y0054755D02*
X0072409Y0054755D01*
X0072409Y0053157D02*
X0070809Y0053157D01*
X0070809Y0051558D02*
X0072409Y0051558D01*
X0072409Y0049960D02*
X0070809Y0049960D01*
X0070809Y0048361D02*
X0072409Y0048361D01*
X0065419Y0045164D02*
X0087581Y0045164D01*
X0090123Y0043566D02*
X0066181Y0043566D01*
X0066632Y0041967D02*
X0247200Y0041967D01*
X0251800Y0041967D02*
X0251800Y0041967D01*
X0251800Y0040369D02*
X0251800Y0040369D01*
X0251800Y0038770D02*
X0251800Y0038770D01*
X0251800Y0043566D02*
X0251800Y0043566D01*
X0251800Y0045164D02*
X0251800Y0045164D01*
X0249016Y0048361D02*
X0148133Y0048361D01*
X0148600Y0049960D02*
X0165670Y0049960D01*
X0164072Y0051558D02*
X0148600Y0051558D01*
X0148415Y0053157D02*
X0162473Y0053157D01*
X0160875Y0054755D02*
X0147753Y0054755D01*
X0146701Y0056354D02*
X0159276Y0056354D01*
X0157678Y0057952D02*
X0145103Y0057952D01*
X0151284Y0064346D02*
X0126148Y0064346D01*
X0126735Y0062748D02*
X0152882Y0062748D01*
X0154481Y0061149D02*
X0126782Y0061149D01*
X0126299Y0059551D02*
X0156079Y0059551D01*
X0160420Y0061149D02*
X0162620Y0061149D01*
X0162019Y0059551D02*
X0164061Y0059551D01*
X0163617Y0057952D02*
X0194700Y0057952D01*
X0194061Y0059551D02*
X0189539Y0059551D01*
X0190980Y0061149D02*
X0192620Y0061149D01*
X0192000Y0062748D02*
X0191600Y0062748D01*
X0191600Y0064346D02*
X0192000Y0064346D01*
X0192000Y0065945D02*
X0191600Y0065945D01*
X0191600Y0067543D02*
X0192000Y0067543D01*
X0182000Y0067543D02*
X0181600Y0067543D01*
X0181600Y0065945D02*
X0182000Y0065945D01*
X0182000Y0064346D02*
X0181600Y0064346D01*
X0181600Y0062748D02*
X0182000Y0062748D01*
X0182620Y0061149D02*
X0180980Y0061149D01*
X0179539Y0059551D02*
X0184061Y0059551D01*
X0191785Y0054755D02*
X0166814Y0054755D01*
X0165216Y0056354D02*
X0193384Y0056354D01*
X0196127Y0053157D02*
X0242473Y0053157D01*
X0240875Y0054755D02*
X0197725Y0054755D01*
X0198900Y0056354D02*
X0239276Y0056354D01*
X0237678Y0057952D02*
X0198900Y0057952D01*
X0199539Y0059551D02*
X0204061Y0059551D01*
X0204081Y0059531D02*
X0205845Y0058800D01*
X0207755Y0058800D01*
X0209519Y0059531D01*
X0210869Y0060881D01*
X0211600Y0062645D01*
X0211600Y0070955D01*
X0210869Y0072719D01*
X0209519Y0074069D01*
X0208900Y0074326D01*
X0208900Y0095930D01*
X0211274Y0098304D01*
X0211508Y0098070D01*
X0213125Y0097400D01*
X0220475Y0097400D01*
X0222092Y0098070D01*
X0223330Y0099308D01*
X0224000Y0100925D01*
X0224000Y0101630D01*
X0224700Y0100930D01*
X0224700Y0077670D01*
X0220309Y0073279D01*
X0219519Y0074069D01*
X0217755Y0074800D01*
X0215845Y0074800D01*
X0214081Y0074069D01*
X0212731Y0072719D01*
X0212000Y0070955D01*
X0212000Y0062645D01*
X0212731Y0060881D01*
X0214081Y0059531D01*
X0215845Y0058800D01*
X0217755Y0058800D01*
X0219519Y0059531D01*
X0220869Y0060881D01*
X0221600Y0062645D01*
X0221600Y0068630D01*
X0222000Y0069030D01*
X0222000Y0062645D01*
X0222731Y0060881D01*
X0224081Y0059531D01*
X0225845Y0058800D01*
X0227755Y0058800D01*
X0229519Y0059531D01*
X0230869Y0060881D01*
X0231600Y0062645D01*
X0231600Y0070955D01*
X0230869Y0072719D01*
X0229519Y0074069D01*
X0227765Y0074796D01*
X0228900Y0075930D01*
X0228900Y0102670D01*
X0227670Y0103900D01*
X0222796Y0108774D01*
X0223330Y0109308D01*
X0223493Y0109700D01*
X0244274Y0109700D01*
X0244531Y0109081D01*
X0245881Y0107731D01*
X0247645Y0107000D01*
X0249700Y0107000D01*
X0249700Y0090930D01*
X0269700Y0070930D01*
X0270930Y0069700D01*
X0317670Y0069700D01*
X0322670Y0074700D01*
X0323900Y0075930D01*
X0323900Y0080107D01*
X0324292Y0080270D01*
X0325530Y0081508D01*
X0326200Y0083125D01*
X0326200Y0090475D01*
X0325530Y0092092D01*
X0324292Y0093330D01*
X0322675Y0094000D01*
X0320925Y0094000D01*
X0319308Y0093330D01*
X0318070Y0092092D01*
X0317400Y0090475D01*
X0317400Y0083125D01*
X0318070Y0081508D01*
X0319308Y0080270D01*
X0319700Y0080107D01*
X0319700Y0077670D01*
X0315930Y0073900D01*
X0272670Y0073900D01*
X0253900Y0092670D01*
X0253900Y0107000D01*
X0255955Y0107000D01*
X0257719Y0107731D01*
X0259069Y0109081D01*
X0259678Y0110552D01*
X0274300Y0095930D01*
X0274300Y0093323D01*
X0274292Y0093330D01*
X0272675Y0094000D01*
X0270925Y0094000D01*
X0269308Y0093330D01*
X0268070Y0092092D01*
X0267400Y0090475D01*
X0267400Y0083125D01*
X0268070Y0081508D01*
X0269308Y0080270D01*
X0270925Y0079600D01*
X0272675Y0079600D01*
X0274292Y0080270D01*
X0275376Y0081354D01*
X0275530Y0081200D01*
X0279130Y0077600D01*
X0304270Y0077600D01*
X0305500Y0078830D01*
X0308124Y0081454D01*
X0309308Y0080270D01*
X0310925Y0079600D01*
X0312675Y0079600D01*
X0314292Y0080270D01*
X0315530Y0081508D01*
X0316200Y0083125D01*
X0316200Y0090475D01*
X0315530Y0092092D01*
X0314292Y0093330D01*
X0312675Y0094000D01*
X0310925Y0094000D01*
X0309308Y0093330D01*
X0308070Y0092092D01*
X0307400Y0090475D01*
X0307400Y0086670D01*
X0306200Y0085470D01*
X0306200Y0090475D01*
X0305530Y0092092D01*
X0304292Y0093330D01*
X0302675Y0094000D01*
X0300925Y0094000D01*
X0299308Y0093330D01*
X0298070Y0092092D01*
X0297400Y0090475D01*
X0297400Y0083125D01*
X0297949Y0081800D01*
X0295651Y0081800D01*
X0296200Y0083125D01*
X0296200Y0090230D01*
X0347091Y0141121D01*
X0347091Y0135626D01*
X0348028Y0134689D01*
X0356753Y0134689D01*
X0357691Y0135626D01*
X0357691Y0144352D01*
X0356753Y0145289D01*
X0348700Y0145289D01*
X0348700Y0147090D01*
X0349388Y0146401D01*
X0351336Y0145594D01*
X0353445Y0145594D01*
X0355393Y0146401D01*
X0356884Y0147892D01*
X0357691Y0149840D01*
X0357691Y0151949D01*
X0356884Y0153897D01*
X0355393Y0155388D01*
X0353445Y0156194D01*
X0351336Y0156194D01*
X0349388Y0155388D01*
X0348700Y0154699D01*
X0348700Y0155330D01*
X0350299Y0156930D01*
X0351336Y0156500D01*
X0353445Y0156500D01*
X0355393Y0157307D01*
X0356884Y0158798D01*
X0357691Y0160746D01*
X0357691Y0162854D01*
X0356884Y0164802D01*
X0355393Y0166293D01*
X0353445Y0167100D01*
X0351336Y0167100D01*
X0349388Y0166293D01*
X0347897Y0164802D01*
X0347091Y0162854D01*
X0347091Y0160746D01*
X0347408Y0159978D01*
X0346024Y0158594D01*
X0345703Y0159369D01*
X0344212Y0160860D01*
X0342264Y0161667D01*
X0340155Y0161667D01*
X0338207Y0160860D01*
X0336716Y0159369D01*
X0335909Y0157421D01*
X0335909Y0155313D01*
X0336716Y0153365D01*
X0338207Y0151874D01*
X0340155Y0151067D01*
X0342264Y0151067D01*
X0344212Y0151874D01*
X0344500Y0152162D01*
X0344500Y0149666D01*
X0344212Y0149955D01*
X0342264Y0150761D01*
X0340155Y0150761D01*
X0338207Y0149955D01*
X0336716Y0148464D01*
X0335909Y0146516D01*
X0335909Y0144407D01*
X0336716Y0142459D01*
X0338207Y0140968D01*
X0340155Y0140161D01*
X0340192Y0140161D01*
X0293633Y0093603D01*
X0292675Y0094000D01*
X0290925Y0094000D01*
X0289308Y0093330D01*
X0288070Y0092092D01*
X0287400Y0090475D01*
X0287400Y0083125D01*
X0287949Y0081800D01*
X0285842Y0081800D01*
X0286063Y0082234D01*
X0286287Y0082923D01*
X0286400Y0083638D01*
X0286400Y0086800D01*
X0286400Y0089962D01*
X0286287Y0090677D01*
X0286063Y0091366D01*
X0285734Y0092011D01*
X0285309Y0092597D01*
X0284797Y0093109D01*
X0284211Y0093534D01*
X0283566Y0093863D01*
X0282877Y0094087D01*
X0282162Y0094200D01*
X0281800Y0094200D01*
X0281800Y0086800D01*
X0281800Y0086800D01*
X0286400Y0086800D01*
X0281800Y0086800D01*
X0281800Y0086800D01*
X0281800Y0094200D01*
X0281438Y0094200D01*
X0280723Y0094087D01*
X0280034Y0093863D01*
X0279389Y0093534D01*
X0278803Y0093109D01*
X0278500Y0092805D01*
X0278500Y0097670D01*
X0258079Y0118091D01*
X0259069Y0119081D01*
X0259800Y0120845D01*
X0259800Y0122755D01*
X0259069Y0124519D01*
X0257719Y0125869D01*
X0255955Y0126600D01*
X0247645Y0126600D01*
X0245881Y0125869D01*
X0244531Y0124519D01*
X0243800Y0122755D01*
X0243800Y0120845D01*
X0244531Y0119081D01*
X0245881Y0117731D01*
X0247645Y0117000D01*
X0253230Y0117000D01*
X0253630Y0116600D01*
X0247645Y0116600D01*
X0245881Y0115869D01*
X0244531Y0114519D01*
X0244274Y0113900D01*
X0223493Y0113900D01*
X0223330Y0114292D01*
X0222092Y0115530D01*
X0220475Y0116200D01*
X0213125Y0116200D01*
X0211508Y0115530D01*
X0210270Y0114292D01*
X0209600Y0112675D01*
X0209600Y0110925D01*
X0210270Y0109308D01*
X0211508Y0108070D01*
X0213125Y0107400D01*
X0218230Y0107400D01*
X0219430Y0106200D01*
X0213125Y0106200D01*
X0211508Y0105530D01*
X0210270Y0104292D01*
X0209600Y0102675D01*
X0209600Y0102570D01*
X0204700Y0097670D01*
X0204700Y0074326D01*
X0204081Y0074069D01*
X0202731Y0072719D01*
X0202000Y0070955D01*
X0202000Y0062645D01*
X0202731Y0060881D01*
X0204081Y0059531D01*
X0202620Y0061149D02*
X0200980Y0061149D01*
X0201600Y0062748D02*
X0202000Y0062748D01*
X0202000Y0064346D02*
X0201600Y0064346D01*
X0201600Y0065945D02*
X0202000Y0065945D01*
X0202000Y0067543D02*
X0201600Y0067543D01*
X0201600Y0069142D02*
X0202000Y0069142D01*
X0202000Y0070740D02*
X0201600Y0070740D01*
X0201027Y0072339D02*
X0202573Y0072339D01*
X0203949Y0073937D02*
X0199651Y0073937D01*
X0198506Y0075536D02*
X0204700Y0075536D01*
X0204700Y0077134D02*
X0198900Y0077134D01*
X0198900Y0078733D02*
X0204700Y0078733D01*
X0204700Y0080332D02*
X0198900Y0080332D01*
X0198900Y0081930D02*
X0204700Y0081930D01*
X0204700Y0083529D02*
X0198900Y0083529D01*
X0198900Y0085127D02*
X0204700Y0085127D01*
X0204700Y0086726D02*
X0198900Y0086726D01*
X0198900Y0088324D02*
X0204700Y0088324D01*
X0204700Y0089923D02*
X0198900Y0089923D01*
X0198900Y0091521D02*
X0204700Y0091521D01*
X0204700Y0093120D02*
X0198900Y0093120D01*
X0198900Y0094718D02*
X0204700Y0094718D01*
X0204700Y0096317D02*
X0198900Y0096317D01*
X0198655Y0097915D02*
X0204945Y0097915D01*
X0206544Y0099514D02*
X0197056Y0099514D01*
X0195458Y0101112D02*
X0208142Y0101112D01*
X0209615Y0102711D02*
X0193985Y0102711D01*
X0193313Y0104309D02*
X0210287Y0104309D01*
X0212419Y0105908D02*
X0191181Y0105908D01*
X0190732Y0107506D02*
X0212868Y0107506D01*
X0210473Y0109105D02*
X0193127Y0109105D01*
X0193908Y0110703D02*
X0209692Y0110703D01*
X0209600Y0112302D02*
X0194000Y0112302D01*
X0193493Y0113900D02*
X0210107Y0113900D01*
X0211476Y0115499D02*
X0192124Y0115499D01*
X0192718Y0118696D02*
X0210882Y0118696D01*
X0210270Y0119308D02*
X0211508Y0118070D01*
X0213125Y0117400D01*
X0220475Y0117400D01*
X0222092Y0118070D01*
X0223330Y0119308D01*
X0224000Y0120925D01*
X0224000Y0122675D01*
X0223330Y0124292D01*
X0222092Y0125530D01*
X0220475Y0126200D01*
X0213125Y0126200D01*
X0211508Y0125530D01*
X0210270Y0124292D01*
X0209600Y0122675D01*
X0209600Y0120925D01*
X0210270Y0119308D01*
X0209861Y0120294D02*
X0193739Y0120294D01*
X0194000Y0121893D02*
X0209600Y0121893D01*
X0209938Y0123491D02*
X0193662Y0123491D01*
X0192533Y0125090D02*
X0211067Y0125090D01*
X0212234Y0127537D02*
X0211589Y0127866D01*
X0211003Y0128291D01*
X0210491Y0128803D01*
X0210066Y0129389D01*
X0209737Y0130034D01*
X0209513Y0130723D01*
X0209400Y0131438D01*
X0209400Y0131800D01*
X0216800Y0131800D01*
X0216800Y0131800D01*
X0216800Y0136400D01*
X0219962Y0136400D01*
X0220677Y0136287D01*
X0221366Y0136063D01*
X0222011Y0135734D01*
X0222597Y0135309D01*
X0223109Y0134797D01*
X0223534Y0134211D01*
X0223863Y0133566D01*
X0224087Y0132877D01*
X0224200Y0132162D01*
X0224200Y0131800D01*
X0216800Y0131800D01*
X0216800Y0131800D01*
X0216800Y0127200D01*
X0219962Y0127200D01*
X0220677Y0127313D01*
X0221366Y0127537D01*
X0222011Y0127866D01*
X0222597Y0128291D01*
X0223109Y0128803D01*
X0223534Y0129389D01*
X0223863Y0130034D01*
X0224087Y0130723D01*
X0224200Y0131438D01*
X0224200Y0131800D01*
X0216800Y0131800D01*
X0216800Y0131800D01*
X0216800Y0131800D01*
X0216800Y0136400D01*
X0213638Y0136400D01*
X0212923Y0136287D01*
X0212234Y0136063D01*
X0211589Y0135734D01*
X0211003Y0135309D01*
X0210491Y0134797D01*
X0210066Y0134211D01*
X0209737Y0133566D01*
X0209513Y0132877D01*
X0209400Y0132162D01*
X0209400Y0131800D01*
X0216800Y0131800D01*
X0216800Y0127200D01*
X0213638Y0127200D01*
X0212923Y0127313D01*
X0212234Y0127537D01*
X0211009Y0128287D02*
X0192309Y0128287D01*
X0192092Y0128070D02*
X0193330Y0129308D01*
X0194000Y0130925D01*
X0194000Y0132675D01*
X0193330Y0134292D01*
X0192092Y0135530D01*
X0190475Y0136200D01*
X0183125Y0136200D01*
X0181508Y0135530D01*
X0180270Y0134292D01*
X0179600Y0132675D01*
X0179600Y0130925D01*
X0180270Y0129308D01*
X0181508Y0128070D01*
X0183125Y0127400D01*
X0190475Y0127400D01*
X0192092Y0128070D01*
X0193569Y0129885D02*
X0209813Y0129885D01*
X0209400Y0131484D02*
X0194000Y0131484D01*
X0193831Y0133082D02*
X0209580Y0133082D01*
X0210407Y0134681D02*
X0192942Y0134681D01*
X0191629Y0137878D02*
X0211971Y0137878D01*
X0211508Y0138070D02*
X0213125Y0137400D01*
X0220475Y0137400D01*
X0222092Y0138070D01*
X0223330Y0139308D01*
X0224000Y0140925D01*
X0224000Y0142675D01*
X0223330Y0144292D01*
X0222092Y0145530D01*
X0220475Y0146200D01*
X0213125Y0146200D01*
X0211508Y0145530D01*
X0210270Y0144292D01*
X0210232Y0144200D01*
X0207794Y0144200D01*
X0204200Y0147794D01*
X0204200Y0232277D01*
X0203835Y0233159D01*
X0199200Y0237794D01*
X0199200Y0248278D01*
X0199505Y0248056D01*
X0200119Y0247743D01*
X0200775Y0247530D01*
X0201455Y0247422D01*
X0201800Y0247422D01*
X0202145Y0247422D01*
X0202825Y0247530D01*
X0203481Y0247743D01*
X0204095Y0248056D01*
X0204652Y0248461D01*
X0204894Y0248703D01*
X0205339Y0248258D01*
X0206874Y0247622D01*
X0208537Y0247622D01*
X0210072Y0248258D01*
X0210658Y0248844D01*
X0211244Y0248258D01*
X0212780Y0247622D01*
X0214442Y0247622D01*
X0215978Y0248258D01*
X0217153Y0249433D01*
X0217263Y0249700D01*
X0220930Y0249700D01*
X0229700Y0240930D01*
X0229700Y0217670D01*
X0225930Y0213900D01*
X0223493Y0213900D01*
X0223330Y0214292D01*
X0222092Y0215530D01*
X0220475Y0216200D01*
X0213125Y0216200D01*
X0211508Y0215530D01*
X0210270Y0214292D01*
X0209600Y0212675D01*
X0209600Y0210925D01*
X0210270Y0209308D01*
X0211508Y0208070D01*
X0213125Y0207400D01*
X0220475Y0207400D01*
X0222092Y0208070D01*
X0223330Y0209308D01*
X0223493Y0209700D01*
X0227670Y0209700D01*
X0228900Y0210930D01*
X0233900Y0215930D01*
X0233900Y0242670D01*
X0232670Y0243900D01*
X0222670Y0253900D01*
X0217263Y0253900D01*
X0217153Y0254167D01*
X0215978Y0255342D01*
X0214442Y0255978D01*
X0212780Y0255978D01*
X0211244Y0255342D01*
X0210658Y0254756D01*
X0210072Y0255342D01*
X0208537Y0255978D01*
X0206874Y0255978D01*
X0205339Y0255342D01*
X0204894Y0254897D01*
X0204652Y0255139D01*
X0204095Y0255544D01*
X0203481Y0255857D01*
X0202825Y0256070D01*
X0202145Y0256178D01*
X0201800Y0256178D01*
X0201455Y0256178D01*
X0200775Y0256070D01*
X0200119Y0255857D01*
X0199505Y0255544D01*
X0198948Y0255139D01*
X0198706Y0254897D01*
X0198261Y0255342D01*
X0196726Y0255978D01*
X0195063Y0255978D01*
X0193767Y0255441D01*
X0193230Y0255978D01*
X0186748Y0255978D01*
X0185811Y0255041D01*
X0185811Y0248559D01*
X0186748Y0247622D01*
X0193230Y0247622D01*
X0193767Y0248159D01*
X0194400Y0247897D01*
X0194400Y0236323D01*
X0194765Y0235441D01*
X0195441Y0234765D01*
X0199400Y0230806D01*
X0199400Y0146323D01*
X0199765Y0145441D01*
X0205441Y0139765D01*
X0206323Y0139400D01*
X0210232Y0139400D01*
X0210270Y0139308D01*
X0211508Y0138070D01*
X0212900Y0136279D02*
X0074200Y0136279D01*
X0074200Y0134681D02*
X0180658Y0134681D01*
X0179769Y0133082D02*
X0074200Y0133082D01*
X0074200Y0131484D02*
X0160403Y0131484D01*
X0160925Y0131700D02*
X0159308Y0131030D01*
X0158070Y0129792D01*
X0157400Y0128175D01*
X0157400Y0126425D01*
X0158070Y0124808D01*
X0159308Y0123570D01*
X0160925Y0122900D01*
X0162675Y0122900D01*
X0164292Y0123570D01*
X0165530Y0124808D01*
X0166200Y0126425D01*
X0166200Y0128175D01*
X0165530Y0129792D01*
X0164292Y0131030D01*
X0162675Y0131700D01*
X0160925Y0131700D01*
X0163197Y0131484D02*
X0179600Y0131484D01*
X0180031Y0129885D02*
X0165437Y0129885D01*
X0166154Y0128287D02*
X0181291Y0128287D01*
X0181067Y0125090D02*
X0165647Y0125090D01*
X0166200Y0126688D02*
X0326719Y0126688D01*
X0328317Y0128287D02*
X0258558Y0128287D01*
X0258814Y0128543D02*
X0259276Y0129179D01*
X0259634Y0129881D01*
X0259877Y0130629D01*
X0260000Y0131406D01*
X0260000Y0131600D01*
X0252000Y0131600D01*
X0252000Y0132000D01*
X0251600Y0132000D01*
X0251600Y0136800D01*
X0248206Y0136800D01*
X0247429Y0136677D01*
X0246681Y0136434D01*
X0245979Y0136076D01*
X0245343Y0135614D01*
X0244786Y0135057D01*
X0244324Y0134421D01*
X0243966Y0133719D01*
X0243723Y0132971D01*
X0243600Y0132194D01*
X0243600Y0132000D01*
X0251600Y0132000D01*
X0251600Y0131600D01*
X0252000Y0131600D01*
X0252000Y0126800D01*
X0255394Y0126800D01*
X0256171Y0126923D01*
X0256919Y0127166D01*
X0257621Y0127524D01*
X0258257Y0127986D01*
X0258814Y0128543D01*
X0259635Y0129885D02*
X0329916Y0129885D01*
X0331514Y0131484D02*
X0260000Y0131484D01*
X0260000Y0132000D02*
X0260000Y0132194D01*
X0259877Y0132971D01*
X0259634Y0133719D01*
X0259276Y0134421D01*
X0258814Y0135057D01*
X0258257Y0135614D01*
X0257621Y0136076D01*
X0256919Y0136434D01*
X0256171Y0136677D01*
X0255394Y0136800D01*
X0252000Y0136800D01*
X0252000Y0132000D01*
X0260000Y0132000D01*
X0259841Y0133082D02*
X0333113Y0133082D01*
X0334711Y0134681D02*
X0259087Y0134681D01*
X0257222Y0136279D02*
X0336310Y0136279D01*
X0337908Y0137878D02*
X0234100Y0137878D01*
X0233623Y0137400D02*
X0236200Y0139977D01*
X0236200Y0143623D01*
X0233623Y0146200D01*
X0229977Y0146200D01*
X0227400Y0143623D01*
X0227400Y0139977D01*
X0229977Y0137400D01*
X0233623Y0137400D01*
X0233705Y0136400D02*
X0231800Y0136400D01*
X0231800Y0131800D01*
X0231800Y0131800D01*
X0236400Y0131800D01*
X0236400Y0133705D01*
X0233705Y0136400D01*
X0233826Y0136279D02*
X0246378Y0136279D01*
X0244513Y0134681D02*
X0235424Y0134681D01*
X0236400Y0133082D02*
X0243759Y0133082D01*
X0243600Y0131600D02*
X0243600Y0131406D01*
X0243723Y0130629D01*
X0243966Y0129881D01*
X0244324Y0129179D01*
X0244786Y0128543D01*
X0245343Y0127986D01*
X0245979Y0127524D01*
X0246681Y0127166D01*
X0247429Y0126923D01*
X0248206Y0126800D01*
X0251600Y0126800D01*
X0251600Y0131600D01*
X0243600Y0131600D01*
X0243600Y0131484D02*
X0236400Y0131484D01*
X0236400Y0131800D02*
X0231800Y0131800D01*
X0231800Y0131800D01*
X0231800Y0131800D01*
X0227200Y0131800D01*
X0227200Y0133705D01*
X0229895Y0136400D01*
X0231800Y0136400D01*
X0231800Y0131800D01*
X0231800Y0127200D01*
X0233705Y0127200D01*
X0236400Y0129895D01*
X0236400Y0131800D01*
X0236391Y0129885D02*
X0243965Y0129885D01*
X0245042Y0128287D02*
X0234792Y0128287D01*
X0231800Y0128287D02*
X0231800Y0128287D01*
X0231800Y0127200D02*
X0229895Y0127200D01*
X0227200Y0129895D01*
X0227200Y0131800D01*
X0231800Y0131800D01*
X0231800Y0131800D01*
X0231800Y0127200D01*
X0231800Y0129885D02*
X0231800Y0129885D01*
X0231800Y0131484D02*
X0231800Y0131484D01*
X0231800Y0133082D02*
X0231800Y0133082D01*
X0231800Y0134681D02*
X0231800Y0134681D01*
X0231800Y0136279D02*
X0231800Y0136279D01*
X0229774Y0136279D02*
X0220700Y0136279D01*
X0221629Y0137878D02*
X0229500Y0137878D01*
X0227901Y0139476D02*
X0223400Y0139476D01*
X0224000Y0141075D02*
X0227400Y0141075D01*
X0227400Y0142673D02*
X0224000Y0142673D01*
X0223339Y0144272D02*
X0228049Y0144272D01*
X0229648Y0145870D02*
X0221271Y0145870D01*
X0220642Y0147469D02*
X0246513Y0147469D01*
X0245881Y0147731D02*
X0247645Y0147000D01*
X0255955Y0147000D01*
X0257719Y0147731D01*
X0259069Y0149081D01*
X0259800Y0150845D01*
X0259800Y0152755D01*
X0259069Y0154519D01*
X0257719Y0155869D01*
X0255955Y0156600D01*
X0247645Y0156600D01*
X0245881Y0155869D01*
X0244531Y0154519D01*
X0243800Y0152755D01*
X0243800Y0150845D01*
X0244531Y0149081D01*
X0245881Y0147731D01*
X0244544Y0149068D02*
X0223090Y0149068D01*
X0223330Y0149308D02*
X0224000Y0150925D01*
X0224000Y0152675D01*
X0223330Y0154292D01*
X0222092Y0155530D01*
X0220475Y0156200D01*
X0213125Y0156200D01*
X0211508Y0155530D01*
X0210270Y0154292D01*
X0209600Y0152675D01*
X0209600Y0150925D01*
X0210270Y0149308D01*
X0211508Y0148070D01*
X0213125Y0147400D01*
X0220475Y0147400D01*
X0222092Y0148070D01*
X0223330Y0149308D01*
X0223893Y0150666D02*
X0243874Y0150666D01*
X0243800Y0152265D02*
X0224000Y0152265D01*
X0223508Y0153863D02*
X0244259Y0153863D01*
X0245473Y0155462D02*
X0222161Y0155462D01*
X0220475Y0157400D02*
X0222092Y0158070D01*
X0223330Y0159308D01*
X0224000Y0160925D01*
X0224000Y0162675D01*
X0223330Y0164292D01*
X0222092Y0165530D01*
X0220475Y0166200D01*
X0213125Y0166200D01*
X0211508Y0165530D01*
X0210270Y0164292D01*
X0209600Y0162675D01*
X0209600Y0160925D01*
X0210270Y0159308D01*
X0211508Y0158070D01*
X0213125Y0157400D01*
X0220475Y0157400D01*
X0222681Y0158659D02*
X0244953Y0158659D01*
X0244531Y0159081D02*
X0245881Y0157731D01*
X0247645Y0157000D01*
X0255955Y0157000D01*
X0257719Y0157731D01*
X0259069Y0159081D01*
X0259800Y0160845D01*
X0259800Y0162755D01*
X0259069Y0164519D01*
X0257719Y0165869D01*
X0255955Y0166600D01*
X0247645Y0166600D01*
X0245881Y0165869D01*
X0244531Y0164519D01*
X0243800Y0162755D01*
X0243800Y0160845D01*
X0244531Y0159081D01*
X0244044Y0160257D02*
X0223723Y0160257D01*
X0224000Y0161856D02*
X0243800Y0161856D01*
X0244090Y0163454D02*
X0223677Y0163454D01*
X0222570Y0165053D02*
X0245064Y0165053D01*
X0245881Y0167731D02*
X0247645Y0167000D01*
X0255955Y0167000D01*
X0257719Y0167731D01*
X0259069Y0169081D01*
X0259800Y0170845D01*
X0259800Y0172755D01*
X0259069Y0174519D01*
X0257719Y0175869D01*
X0255955Y0176600D01*
X0247645Y0176600D01*
X0245881Y0175869D01*
X0244531Y0174519D01*
X0243800Y0172755D01*
X0243800Y0170845D01*
X0244531Y0169081D01*
X0245881Y0167731D01*
X0245362Y0168250D02*
X0222272Y0168250D01*
X0222092Y0168070D02*
X0223330Y0169308D01*
X0224000Y0170925D01*
X0224000Y0172675D01*
X0223330Y0174292D01*
X0222092Y0175530D01*
X0220475Y0176200D01*
X0213125Y0176200D01*
X0211508Y0175530D01*
X0210270Y0174292D01*
X0209600Y0172675D01*
X0209600Y0170925D01*
X0210270Y0169308D01*
X0211508Y0168070D01*
X0213125Y0167400D01*
X0220475Y0167400D01*
X0222092Y0168070D01*
X0223554Y0169848D02*
X0244213Y0169848D01*
X0243800Y0171447D02*
X0224000Y0171447D01*
X0223847Y0173045D02*
X0243920Y0173045D01*
X0244655Y0174644D02*
X0222979Y0174644D01*
X0221539Y0177841D02*
X0245771Y0177841D01*
X0245881Y0177731D02*
X0247645Y0177000D01*
X0255955Y0177000D01*
X0257719Y0177731D01*
X0259069Y0179081D01*
X0259800Y0180845D01*
X0259800Y0182755D01*
X0259069Y0184519D01*
X0257719Y0185869D01*
X0255955Y0186600D01*
X0247645Y0186600D01*
X0245881Y0185869D01*
X0244531Y0184519D01*
X0243800Y0182755D01*
X0243800Y0180845D01*
X0244531Y0179081D01*
X0245881Y0177731D01*
X0246781Y0176242D02*
X0204200Y0176242D01*
X0204200Y0174644D02*
X0210621Y0174644D01*
X0209753Y0173045D02*
X0204200Y0173045D01*
X0204200Y0171447D02*
X0209600Y0171447D01*
X0210046Y0169848D02*
X0204200Y0169848D01*
X0204200Y0168250D02*
X0211328Y0168250D01*
X0211030Y0165053D02*
X0204200Y0165053D01*
X0204200Y0166651D02*
X0335909Y0166651D01*
X0335909Y0166179D02*
X0336716Y0164231D01*
X0338207Y0162740D01*
X0340155Y0161933D01*
X0342264Y0161933D01*
X0344212Y0162740D01*
X0345703Y0164231D01*
X0346509Y0166179D01*
X0346509Y0168287D01*
X0345703Y0170235D01*
X0344212Y0171726D01*
X0342264Y0172533D01*
X0340155Y0172533D01*
X0338207Y0171726D01*
X0336716Y0170235D01*
X0335909Y0168287D01*
X0335909Y0166179D01*
X0336376Y0165053D02*
X0258536Y0165053D01*
X0259510Y0163454D02*
X0337493Y0163454D01*
X0337604Y0160257D02*
X0259556Y0160257D01*
X0259800Y0161856D02*
X0347091Y0161856D01*
X0347293Y0160257D02*
X0344815Y0160257D01*
X0345997Y0158659D02*
X0346089Y0158659D01*
X0348831Y0155462D02*
X0349567Y0155462D01*
X0354797Y0157060D02*
X0358701Y0157060D01*
X0358701Y0155462D02*
X0355214Y0155462D01*
X0356898Y0153863D02*
X0358701Y0153863D01*
X0358701Y0152265D02*
X0357560Y0152265D01*
X0357691Y0150666D02*
X0358701Y0150666D01*
X0358701Y0149068D02*
X0357370Y0149068D01*
X0356460Y0147469D02*
X0358701Y0147469D01*
X0358701Y0145870D02*
X0354111Y0145870D01*
X0350670Y0145870D02*
X0348700Y0145870D01*
X0347091Y0141075D02*
X0347045Y0141075D01*
X0347091Y0139476D02*
X0345446Y0139476D01*
X0343848Y0137878D02*
X0347091Y0137878D01*
X0347091Y0136279D02*
X0342249Y0136279D01*
X0340651Y0134681D02*
X0358701Y0134681D01*
X0358701Y0136279D02*
X0357691Y0136279D01*
X0357691Y0137878D02*
X0358701Y0137878D01*
X0358701Y0139476D02*
X0357691Y0139476D01*
X0357691Y0141075D02*
X0358701Y0141075D01*
X0358701Y0142673D02*
X0357691Y0142673D01*
X0357691Y0144272D02*
X0358701Y0144272D01*
X0358701Y0133082D02*
X0339052Y0133082D01*
X0337454Y0131484D02*
X0358701Y0131484D01*
X0358701Y0129885D02*
X0335855Y0129885D01*
X0334257Y0128287D02*
X0358701Y0128287D01*
X0358701Y0126688D02*
X0332658Y0126688D01*
X0331060Y0125090D02*
X0358701Y0125090D01*
X0358701Y0123491D02*
X0350925Y0123491D01*
X0351277Y0123397D02*
X0348327Y0124187D01*
X0345273Y0124187D01*
X0342323Y0123397D01*
X0339677Y0121870D01*
X0337518Y0119710D01*
X0335991Y0117065D01*
X0335200Y0114115D01*
X0335200Y0111060D01*
X0335991Y0108110D01*
X0337518Y0105465D01*
X0339677Y0103305D01*
X0342323Y0101778D01*
X0345273Y0100987D01*
X0348327Y0100987D01*
X0351277Y0101778D01*
X0353923Y0103305D01*
X0356082Y0105465D01*
X0357609Y0108110D01*
X0358400Y0111060D01*
X0358400Y0114115D01*
X0357609Y0117065D01*
X0356082Y0119710D01*
X0353923Y0121870D01*
X0351277Y0123397D01*
X0353883Y0121893D02*
X0358701Y0121893D01*
X0358701Y0120294D02*
X0355498Y0120294D01*
X0356668Y0118696D02*
X0358701Y0118696D01*
X0358701Y0117097D02*
X0357591Y0117097D01*
X0358029Y0115499D02*
X0358701Y0115499D01*
X0358701Y0113900D02*
X0358400Y0113900D01*
X0358400Y0112302D02*
X0358701Y0112302D01*
X0358701Y0110703D02*
X0358304Y0110703D01*
X0358701Y0109105D02*
X0357876Y0109105D01*
X0357261Y0107506D02*
X0358701Y0107506D01*
X0358701Y0105908D02*
X0356338Y0105908D01*
X0354927Y0104309D02*
X0358701Y0104309D01*
X0358701Y0102711D02*
X0352893Y0102711D01*
X0348793Y0101112D02*
X0358701Y0101112D01*
X0358701Y0099514D02*
X0305483Y0099514D01*
X0303885Y0097915D02*
X0358701Y0097915D01*
X0358701Y0096317D02*
X0302286Y0096317D01*
X0300688Y0094718D02*
X0358701Y0094718D01*
X0358701Y0093120D02*
X0344503Y0093120D01*
X0344292Y0093330D02*
X0342675Y0094000D01*
X0340925Y0094000D01*
X0339308Y0093330D01*
X0338070Y0092092D01*
X0337400Y0090475D01*
X0337400Y0083125D01*
X0338070Y0081508D01*
X0339308Y0080270D01*
X0340925Y0079600D01*
X0342675Y0079600D01*
X0344292Y0080270D01*
X0345530Y0081508D01*
X0346200Y0083125D01*
X0346200Y0090475D01*
X0345530Y0092092D01*
X0344292Y0093330D01*
X0345767Y0091521D02*
X0358701Y0091521D01*
X0358701Y0089923D02*
X0346200Y0089923D01*
X0346200Y0088324D02*
X0358701Y0088324D01*
X0358701Y0086726D02*
X0346200Y0086726D01*
X0346200Y0085127D02*
X0358701Y0085127D01*
X0358701Y0083529D02*
X0346200Y0083529D01*
X0345705Y0081930D02*
X0358701Y0081930D01*
X0358701Y0080332D02*
X0344354Y0080332D01*
X0339246Y0080332D02*
X0334354Y0080332D01*
X0334292Y0080270D02*
X0335530Y0081508D01*
X0336200Y0083125D01*
X0336200Y0090475D01*
X0335530Y0092092D01*
X0334292Y0093330D01*
X0332675Y0094000D01*
X0330925Y0094000D01*
X0329308Y0093330D01*
X0328070Y0092092D01*
X0327400Y0090475D01*
X0327400Y0083125D01*
X0328070Y0081508D01*
X0329308Y0080270D01*
X0330925Y0079600D01*
X0332675Y0079600D01*
X0334292Y0080270D01*
X0335705Y0081930D02*
X0337895Y0081930D01*
X0337400Y0083529D02*
X0336200Y0083529D01*
X0336200Y0085127D02*
X0337400Y0085127D01*
X0337400Y0086726D02*
X0336200Y0086726D01*
X0336200Y0088324D02*
X0337400Y0088324D01*
X0337400Y0089923D02*
X0336200Y0089923D01*
X0335767Y0091521D02*
X0337833Y0091521D01*
X0339097Y0093120D02*
X0334503Y0093120D01*
X0329097Y0093120D02*
X0324503Y0093120D01*
X0325767Y0091521D02*
X0327833Y0091521D01*
X0327400Y0089923D02*
X0326200Y0089923D01*
X0326200Y0088324D02*
X0327400Y0088324D01*
X0327400Y0086726D02*
X0326200Y0086726D01*
X0326200Y0085127D02*
X0327400Y0085127D01*
X0327400Y0083529D02*
X0326200Y0083529D01*
X0325705Y0081930D02*
X0327895Y0081930D01*
X0329246Y0080332D02*
X0324354Y0080332D01*
X0323900Y0078733D02*
X0358701Y0078733D01*
X0358701Y0077134D02*
X0323900Y0077134D01*
X0323506Y0075536D02*
X0358701Y0075536D01*
X0358701Y0073937D02*
X0321907Y0073937D01*
X0320309Y0072339D02*
X0358701Y0072339D01*
X0358701Y0070740D02*
X0318710Y0070740D01*
X0315968Y0073937D02*
X0272632Y0073937D01*
X0271034Y0075536D02*
X0317566Y0075536D01*
X0319165Y0077134D02*
X0269435Y0077134D01*
X0267837Y0078733D02*
X0277997Y0078733D01*
X0276399Y0080332D02*
X0274354Y0080332D01*
X0269246Y0080332D02*
X0266238Y0080332D01*
X0264640Y0081930D02*
X0267895Y0081930D01*
X0267400Y0083529D02*
X0263041Y0083529D01*
X0261443Y0085127D02*
X0267400Y0085127D01*
X0267400Y0086726D02*
X0259844Y0086726D01*
X0258246Y0088324D02*
X0267400Y0088324D01*
X0267400Y0089923D02*
X0256647Y0089923D01*
X0255049Y0091521D02*
X0267833Y0091521D01*
X0269097Y0093120D02*
X0253900Y0093120D01*
X0253900Y0094718D02*
X0274300Y0094718D01*
X0273914Y0096317D02*
X0253900Y0096317D01*
X0253900Y0097915D02*
X0272315Y0097915D01*
X0270716Y0099514D02*
X0253900Y0099514D01*
X0253900Y0101112D02*
X0269118Y0101112D01*
X0267519Y0102711D02*
X0253900Y0102711D01*
X0253900Y0104309D02*
X0265921Y0104309D01*
X0264322Y0105908D02*
X0253900Y0105908D01*
X0257177Y0107506D02*
X0262724Y0107506D01*
X0261125Y0109105D02*
X0259079Y0109105D01*
X0263868Y0112302D02*
X0312332Y0112302D01*
X0313930Y0113900D02*
X0262270Y0113900D01*
X0260671Y0115499D02*
X0315529Y0115499D01*
X0317127Y0117097D02*
X0259073Y0117097D01*
X0258684Y0118696D02*
X0318726Y0118696D01*
X0320324Y0120294D02*
X0259572Y0120294D01*
X0259800Y0121893D02*
X0321923Y0121893D01*
X0323521Y0123491D02*
X0259495Y0123491D01*
X0258498Y0125090D02*
X0325120Y0125090D01*
X0327863Y0121893D02*
X0339717Y0121893D01*
X0338102Y0120294D02*
X0326264Y0120294D01*
X0324666Y0118696D02*
X0336932Y0118696D01*
X0336009Y0117097D02*
X0323067Y0117097D01*
X0321469Y0115499D02*
X0335571Y0115499D01*
X0335200Y0113900D02*
X0319870Y0113900D01*
X0318272Y0112302D02*
X0335200Y0112302D01*
X0335296Y0110703D02*
X0316673Y0110703D01*
X0315075Y0109105D02*
X0335724Y0109105D01*
X0336339Y0107506D02*
X0313476Y0107506D01*
X0311878Y0105908D02*
X0337262Y0105908D01*
X0338673Y0104309D02*
X0310279Y0104309D01*
X0308681Y0102711D02*
X0340707Y0102711D01*
X0344807Y0101112D02*
X0307082Y0101112D01*
X0304339Y0104309D02*
X0271861Y0104309D01*
X0273459Y0102711D02*
X0302741Y0102711D01*
X0301142Y0101112D02*
X0275058Y0101112D01*
X0276656Y0099514D02*
X0299544Y0099514D01*
X0297945Y0097915D02*
X0278255Y0097915D01*
X0278500Y0096317D02*
X0296347Y0096317D01*
X0294748Y0094718D02*
X0278500Y0094718D01*
X0278500Y0093120D02*
X0278818Y0093120D01*
X0281800Y0093120D02*
X0281800Y0093120D01*
X0281800Y0091521D02*
X0281800Y0091521D01*
X0281800Y0089923D02*
X0281800Y0089923D01*
X0281800Y0088324D02*
X0281800Y0088324D01*
X0286400Y0088324D02*
X0287400Y0088324D01*
X0287400Y0086726D02*
X0286400Y0086726D01*
X0286400Y0085127D02*
X0287400Y0085127D01*
X0287400Y0083529D02*
X0286383Y0083529D01*
X0285908Y0081930D02*
X0287895Y0081930D01*
X0295705Y0081930D02*
X0297895Y0081930D01*
X0297400Y0083529D02*
X0296200Y0083529D01*
X0296200Y0085127D02*
X0297400Y0085127D01*
X0297400Y0086726D02*
X0296200Y0086726D01*
X0296200Y0088324D02*
X0297400Y0088324D01*
X0297400Y0089923D02*
X0296200Y0089923D01*
X0297491Y0091521D02*
X0297833Y0091521D01*
X0299089Y0093120D02*
X0299097Y0093120D01*
X0304503Y0093120D02*
X0309097Y0093120D01*
X0307833Y0091521D02*
X0305767Y0091521D01*
X0306200Y0089923D02*
X0307400Y0089923D01*
X0307400Y0088324D02*
X0306200Y0088324D01*
X0306200Y0086726D02*
X0307400Y0086726D01*
X0307001Y0080332D02*
X0309246Y0080332D01*
X0305403Y0078733D02*
X0319700Y0078733D01*
X0319246Y0080332D02*
X0314354Y0080332D01*
X0315705Y0081930D02*
X0317895Y0081930D01*
X0317400Y0083529D02*
X0316200Y0083529D01*
X0316200Y0085127D02*
X0317400Y0085127D01*
X0317400Y0086726D02*
X0316200Y0086726D01*
X0316200Y0088324D02*
X0317400Y0088324D01*
X0317400Y0089923D02*
X0316200Y0089923D01*
X0315767Y0091521D02*
X0317833Y0091521D01*
X0319097Y0093120D02*
X0314503Y0093120D01*
X0305938Y0105908D02*
X0270262Y0105908D01*
X0268664Y0107506D02*
X0307536Y0107506D01*
X0309135Y0109105D02*
X0267065Y0109105D01*
X0265467Y0110703D02*
X0310733Y0110703D01*
X0329461Y0123491D02*
X0342675Y0123491D01*
X0339507Y0139476D02*
X0235699Y0139476D01*
X0236200Y0141075D02*
X0338101Y0141075D01*
X0336628Y0142673D02*
X0236200Y0142673D01*
X0235551Y0144272D02*
X0335965Y0144272D01*
X0335909Y0145870D02*
X0233952Y0145870D01*
X0228176Y0134681D02*
X0223193Y0134681D01*
X0224020Y0133082D02*
X0227200Y0133082D01*
X0227200Y0131484D02*
X0224200Y0131484D01*
X0223787Y0129885D02*
X0227209Y0129885D01*
X0228808Y0128287D02*
X0222591Y0128287D01*
X0222533Y0125090D02*
X0245102Y0125090D01*
X0244105Y0123491D02*
X0223662Y0123491D01*
X0224000Y0121893D02*
X0243800Y0121893D01*
X0244028Y0120294D02*
X0223739Y0120294D01*
X0222718Y0118696D02*
X0244916Y0118696D01*
X0247410Y0117097D02*
X0185367Y0117097D01*
X0180882Y0118696D02*
X0083298Y0118696D01*
X0081700Y0120294D02*
X0179861Y0120294D01*
X0179600Y0121893D02*
X0080101Y0121893D01*
X0078503Y0123491D02*
X0133886Y0123491D01*
X0134977Y0122400D02*
X0138623Y0122400D01*
X0141200Y0124977D01*
X0141200Y0128623D01*
X0138623Y0131200D01*
X0134977Y0131200D01*
X0132400Y0128623D01*
X0132400Y0124977D01*
X0134977Y0122400D01*
X0132400Y0125090D02*
X0076904Y0125090D01*
X0075306Y0126688D02*
X0132400Y0126688D01*
X0132400Y0128287D02*
X0074200Y0128287D01*
X0074200Y0127794D02*
X0074200Y0150806D01*
X0082794Y0159400D01*
X0083982Y0159400D01*
X0084161Y0158968D01*
X0085568Y0157561D01*
X0087218Y0156878D01*
X0087182Y0156872D01*
X0086404Y0156619D01*
X0085675Y0156247D01*
X0085012Y0155766D01*
X0084434Y0155188D01*
X0083953Y0154525D01*
X0083581Y0153796D01*
X0083328Y0153018D01*
X0083200Y0152209D01*
X0083200Y0152100D01*
X0091500Y0152100D01*
X0091500Y0151500D01*
X0083200Y0151500D01*
X0083200Y0151391D01*
X0083328Y0150582D01*
X0083581Y0149804D01*
X0083953Y0149075D01*
X0084434Y0148412D01*
X0085012Y0147834D01*
X0085675Y0147353D01*
X0086404Y0146981D01*
X0087182Y0146728D01*
X0087218Y0146722D01*
X0085568Y0146039D01*
X0084161Y0144632D01*
X0083400Y0142795D01*
X0083400Y0140805D01*
X0084161Y0138968D01*
X0085568Y0137561D01*
X0087405Y0136800D01*
X0096195Y0136800D01*
X0098032Y0137561D01*
X0099439Y0138968D01*
X0100200Y0140805D01*
X0100200Y0142795D01*
X0099439Y0144632D01*
X0098032Y0146039D01*
X0096382Y0146722D01*
X0096418Y0146728D01*
X0097196Y0146981D01*
X0097925Y0147353D01*
X0098588Y0147834D01*
X0099166Y0148412D01*
X0099647Y0149075D01*
X0100019Y0149804D01*
X0100272Y0150582D01*
X0100400Y0151391D01*
X0100400Y0151500D01*
X0092100Y0151500D01*
X0092100Y0152100D01*
X0100400Y0152100D01*
X0100400Y0152209D01*
X0100272Y0153018D01*
X0100019Y0153796D01*
X0099647Y0154525D01*
X0099166Y0155188D01*
X0098588Y0155766D01*
X0097925Y0156247D01*
X0097196Y0156619D01*
X0096418Y0156872D01*
X0096382Y0156878D01*
X0098032Y0157561D01*
X0099439Y0158968D01*
X0100200Y0160805D01*
X0100200Y0162795D01*
X0099439Y0164632D01*
X0098032Y0166039D01*
X0096195Y0166800D01*
X0087405Y0166800D01*
X0085568Y0166039D01*
X0084161Y0164632D01*
X0083982Y0164200D01*
X0062794Y0164200D01*
X0036200Y0190794D01*
X0036200Y0193623D01*
X0033623Y0196200D01*
X0030794Y0196200D01*
X0021700Y0205294D01*
X0021700Y0228306D01*
X0023503Y0230109D01*
X0024081Y0229531D01*
X0025845Y0228800D01*
X0027755Y0228800D01*
X0029519Y0229531D01*
X0030869Y0230881D01*
X0031600Y0232645D01*
X0031600Y0233900D01*
X0032000Y0233900D01*
X0032000Y0232645D01*
X0032731Y0230881D01*
X0034081Y0229531D01*
X0035845Y0228800D01*
X0037755Y0228800D01*
X0039519Y0229531D01*
X0040869Y0230881D01*
X0041600Y0232645D01*
X0041600Y0240955D01*
X0040869Y0242719D01*
X0039519Y0244069D01*
X0037755Y0244800D01*
X0035845Y0244800D01*
X0034081Y0244069D01*
X0032731Y0242719D01*
X0032000Y0240955D01*
X0032000Y0238700D01*
X0031600Y0238700D01*
X0031600Y0240955D01*
X0030869Y0242719D01*
X0029519Y0244069D01*
X0027755Y0244800D01*
X0025845Y0244800D01*
X0024081Y0244069D01*
X0022731Y0242719D01*
X0022000Y0240955D01*
X0022000Y0235394D01*
X0017265Y0230659D01*
X0016900Y0229777D01*
X0016900Y0203823D01*
X0017265Y0202941D01*
X0017941Y0202265D01*
X0027400Y0192806D01*
X0027400Y0189977D01*
X0029977Y0187400D01*
X0032806Y0187400D01*
X0059765Y0160441D01*
X0060441Y0159765D01*
X0061323Y0159400D01*
X0076006Y0159400D01*
X0069765Y0153159D01*
X0069400Y0152277D01*
X0069400Y0126323D01*
X0069765Y0125441D01*
X0070441Y0124765D01*
X0088556Y0106650D01*
X0087887Y0106650D01*
X0086950Y0105713D01*
X0086950Y0097887D01*
X0087887Y0096950D01*
X0095713Y0096950D01*
X0096650Y0097887D01*
X0096650Y0105713D01*
X0095713Y0106650D01*
X0094200Y0106650D01*
X0094200Y0107277D01*
X0093835Y0108159D01*
X0074200Y0127794D01*
X0074200Y0129885D02*
X0133663Y0129885D01*
X0139937Y0129885D02*
X0143380Y0129885D01*
X0142200Y0128705D02*
X0142200Y0126800D01*
X0146800Y0126800D01*
X0151400Y0126800D01*
X0151400Y0128705D01*
X0148705Y0131400D01*
X0146800Y0131400D01*
X0146800Y0126800D01*
X0146800Y0126800D01*
X0146800Y0126800D01*
X0151400Y0126800D01*
X0151400Y0124895D01*
X0148705Y0122200D01*
X0146800Y0122200D01*
X0146800Y0126800D01*
X0146800Y0126800D01*
X0146800Y0126800D01*
X0146800Y0131400D01*
X0144895Y0131400D01*
X0142200Y0128705D01*
X0142200Y0128287D02*
X0141200Y0128287D01*
X0141200Y0126688D02*
X0142200Y0126688D01*
X0142200Y0126800D02*
X0142200Y0124895D01*
X0144895Y0122200D01*
X0146800Y0122200D01*
X0146800Y0126800D01*
X0142200Y0126800D01*
X0142200Y0125090D02*
X0141200Y0125090D01*
X0139714Y0123491D02*
X0143603Y0123491D01*
X0146800Y0123491D02*
X0146800Y0123491D01*
X0146800Y0125090D02*
X0146800Y0125090D01*
X0146800Y0126688D02*
X0146800Y0126688D01*
X0146800Y0128287D02*
X0146800Y0128287D01*
X0146800Y0129885D02*
X0146800Y0129885D01*
X0150220Y0129885D02*
X0158163Y0129885D01*
X0157446Y0128287D02*
X0151400Y0128287D01*
X0151400Y0126688D02*
X0157400Y0126688D01*
X0157953Y0125090D02*
X0151400Y0125090D01*
X0149997Y0123491D02*
X0159497Y0123491D01*
X0164103Y0123491D02*
X0179938Y0123491D01*
X0179427Y0117097D02*
X0084897Y0117097D01*
X0086495Y0115499D02*
X0177829Y0115499D01*
X0176230Y0113900D02*
X0088094Y0113900D01*
X0089692Y0112302D02*
X0174632Y0112302D01*
X0173033Y0110703D02*
X0091291Y0110703D01*
X0092889Y0109105D02*
X0171435Y0109105D01*
X0169836Y0107506D02*
X0094105Y0107506D01*
X0091800Y0106800D02*
X0071800Y0126800D01*
X0071800Y0151800D01*
X0081800Y0161800D01*
X0061800Y0161800D01*
X0032500Y0191100D01*
X0032500Y0192200D01*
X0031400Y0192200D01*
X0019300Y0204300D01*
X0019300Y0229300D01*
X0026800Y0236800D01*
X0027100Y0236300D01*
X0036800Y0236300D01*
X0036800Y0236800D01*
X0041600Y0236986D02*
X0042000Y0236986D01*
X0042000Y0238584D02*
X0041600Y0238584D01*
X0041600Y0240183D02*
X0042000Y0240183D01*
X0042000Y0240955D02*
X0042731Y0242719D01*
X0044081Y0244069D01*
X0045845Y0244800D01*
X0047755Y0244800D01*
X0049519Y0244069D01*
X0050869Y0242719D01*
X0051600Y0240955D01*
X0051600Y0232645D01*
X0050869Y0230881D01*
X0049519Y0229531D01*
X0047755Y0228800D01*
X0045845Y0228800D01*
X0044081Y0229531D01*
X0042731Y0230881D01*
X0042000Y0232645D01*
X0042000Y0240955D01*
X0042342Y0241781D02*
X0041258Y0241781D01*
X0040209Y0243380D02*
X0043391Y0243380D01*
X0050209Y0243380D02*
X0053391Y0243380D01*
X0052731Y0242719D02*
X0052000Y0240955D01*
X0052000Y0232645D01*
X0052731Y0230881D01*
X0054081Y0229531D01*
X0055845Y0228800D01*
X0057755Y0228800D01*
X0059519Y0229531D01*
X0060869Y0230881D01*
X0061600Y0232645D01*
X0061600Y0240955D01*
X0060869Y0242719D01*
X0059519Y0244069D01*
X0057755Y0244800D01*
X0055845Y0244800D01*
X0054081Y0244069D01*
X0052731Y0242719D01*
X0052342Y0241781D02*
X0051258Y0241781D01*
X0051600Y0240183D02*
X0052000Y0240183D01*
X0052000Y0238584D02*
X0051600Y0238584D01*
X0051600Y0236986D02*
X0052000Y0236986D01*
X0052000Y0235387D02*
X0051600Y0235387D01*
X0051600Y0233789D02*
X0052000Y0233789D01*
X0052189Y0232190D02*
X0051411Y0232190D01*
X0050580Y0230592D02*
X0053020Y0230592D01*
X0055379Y0228993D02*
X0048221Y0228993D01*
X0045379Y0228993D02*
X0038221Y0228993D01*
X0035379Y0228993D02*
X0028221Y0228993D01*
X0025379Y0228993D02*
X0022387Y0228993D01*
X0021700Y0227395D02*
X0113506Y0227395D01*
X0113217Y0227605D02*
X0113917Y0227096D01*
X0114689Y0226703D01*
X0115512Y0226435D01*
X0116367Y0226300D01*
X0116616Y0226300D01*
X0116616Y0231616D01*
X0116984Y0231616D01*
X0116984Y0226300D01*
X0117233Y0226300D01*
X0118088Y0226435D01*
X0118911Y0226703D01*
X0119683Y0227096D01*
X0120383Y0227605D01*
X0120995Y0228217D01*
X0121504Y0228917D01*
X0121897Y0229689D01*
X0122165Y0230512D01*
X0122300Y0231367D01*
X0122300Y0231616D01*
X0116984Y0231616D01*
X0116984Y0231984D01*
X0122300Y0231984D01*
X0122300Y0232233D01*
X0122165Y0233088D01*
X0121897Y0233911D01*
X0121504Y0234683D01*
X0120995Y0235383D01*
X0120383Y0235995D01*
X0119683Y0236504D01*
X0118911Y0236897D01*
X0118088Y0237165D01*
X0117233Y0237300D01*
X0116984Y0237300D01*
X0116984Y0231984D01*
X0116616Y0231984D01*
X0116616Y0231616D01*
X0111300Y0231616D01*
X0111300Y0231367D01*
X0111435Y0230512D01*
X0111703Y0229689D01*
X0112096Y0228917D01*
X0112605Y0228217D01*
X0113217Y0227605D01*
X0112057Y0228993D02*
X0098221Y0228993D01*
X0097755Y0228800D02*
X0099519Y0229531D01*
X0100869Y0230881D01*
X0101600Y0232645D01*
X0101600Y0240955D01*
X0100869Y0242719D01*
X0099519Y0244069D01*
X0097755Y0244800D01*
X0095845Y0244800D01*
X0094081Y0244069D01*
X0092731Y0242719D01*
X0092000Y0240955D01*
X0092000Y0232645D01*
X0092731Y0230881D01*
X0094081Y0229531D01*
X0095845Y0228800D01*
X0097755Y0228800D01*
X0095379Y0228993D02*
X0088221Y0228993D01*
X0087755Y0228800D02*
X0089519Y0229531D01*
X0090869Y0230881D01*
X0091600Y0232645D01*
X0091600Y0240955D01*
X0090869Y0242719D01*
X0089519Y0244069D01*
X0087755Y0244800D01*
X0085845Y0244800D01*
X0084081Y0244069D01*
X0082731Y0242719D01*
X0082000Y0240955D01*
X0082000Y0232645D01*
X0082731Y0230881D01*
X0084081Y0229531D01*
X0085845Y0228800D01*
X0087755Y0228800D01*
X0085379Y0228993D02*
X0078221Y0228993D01*
X0077755Y0228800D02*
X0079519Y0229531D01*
X0080869Y0230881D01*
X0081600Y0232645D01*
X0081600Y0240955D01*
X0080869Y0242719D01*
X0079519Y0244069D01*
X0077755Y0244800D01*
X0075845Y0244800D01*
X0074081Y0244069D01*
X0072731Y0242719D01*
X0072000Y0240955D01*
X0072000Y0232645D01*
X0072731Y0230881D01*
X0074081Y0229531D01*
X0075845Y0228800D01*
X0077755Y0228800D01*
X0075379Y0228993D02*
X0068221Y0228993D01*
X0067755Y0228800D02*
X0069519Y0229531D01*
X0070869Y0230881D01*
X0071600Y0232645D01*
X0071600Y0240955D01*
X0070869Y0242719D01*
X0069519Y0244069D01*
X0067755Y0244800D01*
X0065845Y0244800D01*
X0064081Y0244069D01*
X0062731Y0242719D01*
X0062000Y0240955D01*
X0062000Y0232645D01*
X0062731Y0230881D01*
X0064081Y0229531D01*
X0065845Y0228800D01*
X0067755Y0228800D01*
X0065379Y0228993D02*
X0058221Y0228993D01*
X0060580Y0230592D02*
X0063020Y0230592D01*
X0062189Y0232190D02*
X0061411Y0232190D01*
X0061600Y0233789D02*
X0062000Y0233789D01*
X0062000Y0235387D02*
X0061600Y0235387D01*
X0061600Y0236986D02*
X0062000Y0236986D01*
X0062000Y0238584D02*
X0061600Y0238584D01*
X0061600Y0240183D02*
X0062000Y0240183D01*
X0062342Y0241781D02*
X0061258Y0241781D01*
X0060209Y0243380D02*
X0063391Y0243380D01*
X0070209Y0243380D02*
X0073391Y0243380D01*
X0072342Y0241781D02*
X0071258Y0241781D01*
X0071600Y0240183D02*
X0072000Y0240183D01*
X0072000Y0238584D02*
X0071600Y0238584D01*
X0071600Y0236986D02*
X0072000Y0236986D01*
X0072000Y0235387D02*
X0071600Y0235387D01*
X0071600Y0233789D02*
X0072000Y0233789D01*
X0072189Y0232190D02*
X0071411Y0232190D01*
X0070580Y0230592D02*
X0073020Y0230592D01*
X0074881Y0224634D02*
X0074179Y0224276D01*
X0073543Y0223814D01*
X0072986Y0223257D01*
X0072524Y0222621D01*
X0072166Y0221919D01*
X0071923Y0221171D01*
X0071800Y0220394D01*
X0071800Y0217000D01*
X0076600Y0217000D01*
X0076600Y0225000D01*
X0076406Y0225000D01*
X0075629Y0224877D01*
X0074881Y0224634D01*
X0074071Y0224198D02*
X0069529Y0224198D01*
X0069421Y0224276D02*
X0068719Y0224634D01*
X0067971Y0224877D01*
X0067194Y0225000D01*
X0067000Y0225000D01*
X0067000Y0217000D01*
X0066600Y0217000D01*
X0066600Y0225000D01*
X0066406Y0225000D01*
X0065629Y0224877D01*
X0064881Y0224634D01*
X0064179Y0224276D01*
X0063543Y0223814D01*
X0062986Y0223257D01*
X0062524Y0222621D01*
X0062166Y0221919D01*
X0061923Y0221171D01*
X0061800Y0220394D01*
X0061677Y0221171D01*
X0061434Y0221919D01*
X0061076Y0222621D01*
X0060614Y0223257D01*
X0060057Y0223814D01*
X0059421Y0224276D01*
X0058719Y0224634D01*
X0057971Y0224877D01*
X0057194Y0225000D01*
X0057000Y0225000D01*
X0057000Y0217000D01*
X0056600Y0217000D01*
X0056600Y0225000D01*
X0056406Y0225000D01*
X0055629Y0224877D01*
X0054881Y0224634D01*
X0054179Y0224276D01*
X0053543Y0223814D01*
X0052986Y0223257D01*
X0052524Y0222621D01*
X0052166Y0221919D01*
X0051923Y0221171D01*
X0051800Y0220394D01*
X0051800Y0217000D01*
X0056600Y0217000D01*
X0056600Y0216600D01*
X0051800Y0216600D01*
X0051800Y0213206D01*
X0051923Y0212429D01*
X0052166Y0211681D01*
X0052524Y0210979D01*
X0052986Y0210343D01*
X0053543Y0209786D01*
X0054179Y0209324D01*
X0054881Y0208966D01*
X0055629Y0208723D01*
X0056406Y0208600D01*
X0056600Y0208600D01*
X0056600Y0216600D01*
X0057000Y0216600D01*
X0057000Y0217000D01*
X0061800Y0217000D01*
X0066600Y0217000D01*
X0066600Y0216600D01*
X0061800Y0216600D01*
X0057000Y0216600D01*
X0057000Y0208600D01*
X0057194Y0208600D01*
X0057971Y0208723D01*
X0058719Y0208966D01*
X0059421Y0209324D01*
X0060057Y0209786D01*
X0060614Y0210343D01*
X0061076Y0210979D01*
X0061434Y0211681D01*
X0061677Y0212429D01*
X0061800Y0213206D01*
X0061800Y0216600D01*
X0061800Y0213206D01*
X0061923Y0212429D01*
X0062166Y0211681D01*
X0062524Y0210979D01*
X0062986Y0210343D01*
X0063543Y0209786D01*
X0064179Y0209324D01*
X0064881Y0208966D01*
X0065629Y0208723D01*
X0066406Y0208600D01*
X0066600Y0208600D01*
X0066600Y0216600D01*
X0067000Y0216600D01*
X0067000Y0217000D01*
X0071800Y0217000D01*
X0071800Y0220394D01*
X0071677Y0221171D01*
X0071434Y0221919D01*
X0071076Y0222621D01*
X0070614Y0223257D01*
X0070057Y0223814D01*
X0069421Y0224276D01*
X0071087Y0222599D02*
X0072513Y0222599D01*
X0071896Y0221001D02*
X0071704Y0221001D01*
X0071800Y0219402D02*
X0071800Y0219402D01*
X0071800Y0217803D02*
X0071800Y0217803D01*
X0071800Y0216600D02*
X0071800Y0213206D01*
X0071923Y0212429D01*
X0072166Y0211681D01*
X0072524Y0210979D01*
X0072986Y0210343D01*
X0073543Y0209786D01*
X0074179Y0209324D01*
X0074881Y0208966D01*
X0075629Y0208723D01*
X0076406Y0208600D01*
X0076600Y0208600D01*
X0076600Y0216600D01*
X0071800Y0216600D01*
X0067000Y0216600D01*
X0067000Y0208600D01*
X0067194Y0208600D01*
X0067971Y0208723D01*
X0068719Y0208966D01*
X0069421Y0209324D01*
X0070057Y0209786D01*
X0070614Y0210343D01*
X0071076Y0210979D01*
X0071434Y0211681D01*
X0071677Y0212429D01*
X0071800Y0213206D01*
X0071800Y0216600D01*
X0071800Y0216205D02*
X0071800Y0216205D01*
X0071800Y0214606D02*
X0071800Y0214606D01*
X0071769Y0213008D02*
X0071831Y0213008D01*
X0072304Y0211409D02*
X0071295Y0211409D01*
X0070082Y0209811D02*
X0073518Y0209811D01*
X0076600Y0209811D02*
X0077000Y0209811D01*
X0077000Y0208600D02*
X0077194Y0208600D01*
X0077971Y0208723D01*
X0078719Y0208966D01*
X0079421Y0209324D01*
X0080057Y0209786D01*
X0080614Y0210343D01*
X0081076Y0210979D01*
X0081434Y0211681D01*
X0081677Y0212429D01*
X0081800Y0213206D01*
X0081800Y0216600D01*
X0077000Y0216600D01*
X0077000Y0217000D01*
X0076600Y0217000D01*
X0076600Y0216600D01*
X0077000Y0216600D01*
X0077000Y0208600D01*
X0077000Y0211409D02*
X0076600Y0211409D01*
X0076600Y0213008D02*
X0077000Y0213008D01*
X0077000Y0214606D02*
X0076600Y0214606D01*
X0076600Y0216205D02*
X0077000Y0216205D01*
X0077000Y0217000D02*
X0081800Y0217000D01*
X0086600Y0217000D01*
X0086600Y0225000D01*
X0086406Y0225000D01*
X0085629Y0224877D01*
X0084881Y0224634D01*
X0084179Y0224276D01*
X0083543Y0223814D01*
X0082986Y0223257D01*
X0082524Y0222621D01*
X0082166Y0221919D01*
X0081923Y0221171D01*
X0081800Y0220394D01*
X0081677Y0221171D01*
X0081434Y0221919D01*
X0081076Y0222621D01*
X0080614Y0223257D01*
X0080057Y0223814D01*
X0079421Y0224276D01*
X0078719Y0224634D01*
X0077971Y0224877D01*
X0077194Y0225000D01*
X0077000Y0225000D01*
X0077000Y0217000D01*
X0077000Y0217803D02*
X0076600Y0217803D01*
X0076600Y0219402D02*
X0077000Y0219402D01*
X0077000Y0221001D02*
X0076600Y0221001D01*
X0076600Y0222599D02*
X0077000Y0222599D01*
X0077000Y0224198D02*
X0076600Y0224198D01*
X0079529Y0224198D02*
X0084071Y0224198D01*
X0082513Y0222599D02*
X0081087Y0222599D01*
X0081704Y0221001D02*
X0081896Y0221001D01*
X0081800Y0220394D02*
X0081800Y0217000D01*
X0081800Y0220394D01*
X0081800Y0219402D02*
X0081800Y0219402D01*
X0081800Y0217803D02*
X0081800Y0217803D01*
X0081800Y0216600D02*
X0081800Y0213206D01*
X0081923Y0212429D01*
X0082166Y0211681D01*
X0082524Y0210979D01*
X0082986Y0210343D01*
X0083543Y0209786D01*
X0084179Y0209324D01*
X0084881Y0208966D01*
X0085629Y0208723D01*
X0086406Y0208600D01*
X0086600Y0208600D01*
X0086600Y0216600D01*
X0081800Y0216600D01*
X0081800Y0216205D02*
X0081800Y0216205D01*
X0081800Y0214606D02*
X0081800Y0214606D01*
X0081769Y0213008D02*
X0081831Y0213008D01*
X0082304Y0211409D02*
X0081295Y0211409D01*
X0080082Y0209811D02*
X0083518Y0209811D01*
X0086600Y0209811D02*
X0087000Y0209811D01*
X0087000Y0208600D02*
X0087194Y0208600D01*
X0087971Y0208723D01*
X0088719Y0208966D01*
X0089421Y0209324D01*
X0090057Y0209786D01*
X0090614Y0210343D01*
X0091076Y0210979D01*
X0091434Y0211681D01*
X0091677Y0212429D01*
X0091800Y0213206D01*
X0091923Y0212429D01*
X0092166Y0211681D01*
X0092524Y0210979D01*
X0092986Y0210343D01*
X0093543Y0209786D01*
X0094179Y0209324D01*
X0094881Y0208966D01*
X0095629Y0208723D01*
X0096406Y0208600D01*
X0096600Y0208600D01*
X0096600Y0216600D01*
X0091800Y0216600D01*
X0091800Y0213206D01*
X0091800Y0216600D01*
X0087000Y0216600D01*
X0087000Y0217000D01*
X0086600Y0217000D01*
X0086600Y0216600D01*
X0087000Y0216600D01*
X0087000Y0208600D01*
X0087000Y0211409D02*
X0086600Y0211409D01*
X0086600Y0213008D02*
X0087000Y0213008D01*
X0087000Y0214606D02*
X0086600Y0214606D01*
X0086600Y0216205D02*
X0087000Y0216205D01*
X0087000Y0217000D02*
X0091800Y0217000D01*
X0096600Y0217000D01*
X0096600Y0225000D01*
X0096406Y0225000D01*
X0095629Y0224877D01*
X0094881Y0224634D01*
X0094179Y0224276D01*
X0093543Y0223814D01*
X0092986Y0223257D01*
X0092524Y0222621D01*
X0092166Y0221919D01*
X0091923Y0221171D01*
X0091800Y0220394D01*
X0091800Y0217000D01*
X0091800Y0220394D01*
X0091677Y0221171D01*
X0091434Y0221919D01*
X0091076Y0222621D01*
X0090614Y0223257D01*
X0090057Y0223814D01*
X0089421Y0224276D01*
X0088719Y0224634D01*
X0087971Y0224877D01*
X0087194Y0225000D01*
X0087000Y0225000D01*
X0087000Y0217000D01*
X0087000Y0217803D02*
X0086600Y0217803D01*
X0086600Y0219402D02*
X0087000Y0219402D01*
X0087000Y0221001D02*
X0086600Y0221001D01*
X0086600Y0222599D02*
X0087000Y0222599D01*
X0087000Y0224198D02*
X0086600Y0224198D01*
X0089529Y0224198D02*
X0094071Y0224198D01*
X0092513Y0222599D02*
X0091087Y0222599D01*
X0091704Y0221001D02*
X0091896Y0221001D01*
X0091800Y0219402D02*
X0091800Y0219402D01*
X0091800Y0217803D02*
X0091800Y0217803D01*
X0091800Y0216205D02*
X0091800Y0216205D01*
X0091800Y0214606D02*
X0091800Y0214606D01*
X0091769Y0213008D02*
X0091831Y0213008D01*
X0092304Y0211409D02*
X0091295Y0211409D01*
X0090082Y0209811D02*
X0093518Y0209811D01*
X0096600Y0209811D02*
X0097000Y0209811D01*
X0097000Y0208600D02*
X0097194Y0208600D01*
X0097971Y0208723D01*
X0098719Y0208966D01*
X0099421Y0209324D01*
X0100057Y0209786D01*
X0100614Y0210343D01*
X0101076Y0210979D01*
X0101434Y0211681D01*
X0101677Y0212429D01*
X0101800Y0213206D01*
X0101800Y0216600D01*
X0097000Y0216600D01*
X0097000Y0217000D01*
X0096600Y0217000D01*
X0096600Y0216600D01*
X0097000Y0216600D01*
X0097000Y0208600D01*
X0097000Y0211409D02*
X0096600Y0211409D01*
X0096600Y0213008D02*
X0097000Y0213008D01*
X0097000Y0214606D02*
X0096600Y0214606D01*
X0096600Y0216205D02*
X0097000Y0216205D01*
X0097000Y0217000D02*
X0101800Y0217000D01*
X0101800Y0220394D01*
X0101677Y0221171D01*
X0101434Y0221919D01*
X0101076Y0222621D01*
X0100614Y0223257D01*
X0100057Y0223814D01*
X0099421Y0224276D01*
X0098719Y0224634D01*
X0097971Y0224877D01*
X0097194Y0225000D01*
X0097000Y0225000D01*
X0097000Y0217000D01*
X0097000Y0217803D02*
X0096600Y0217803D01*
X0096600Y0219402D02*
X0097000Y0219402D01*
X0097000Y0221001D02*
X0096600Y0221001D01*
X0096600Y0222599D02*
X0097000Y0222599D01*
X0097000Y0224198D02*
X0096600Y0224198D01*
X0099529Y0224198D02*
X0137502Y0224198D01*
X0137007Y0223702D02*
X0138498Y0225193D01*
X0140446Y0226000D01*
X0142554Y0226000D01*
X0144502Y0225193D01*
X0145993Y0223702D01*
X0146800Y0221754D01*
X0146800Y0219646D01*
X0145993Y0217698D01*
X0144502Y0216207D01*
X0142554Y0215400D01*
X0140446Y0215400D01*
X0138498Y0216207D01*
X0137007Y0217698D01*
X0136200Y0219646D01*
X0136200Y0221754D01*
X0137007Y0223702D01*
X0136550Y0222599D02*
X0101087Y0222599D01*
X0101704Y0221001D02*
X0136200Y0221001D01*
X0136301Y0219402D02*
X0101800Y0219402D01*
X0101800Y0217803D02*
X0136963Y0217803D01*
X0138502Y0216205D02*
X0129408Y0216205D01*
X0130219Y0215869D02*
X0128455Y0216600D01*
X0120145Y0216600D01*
X0118381Y0215869D01*
X0117031Y0214519D01*
X0116300Y0212755D01*
X0116300Y0210845D01*
X0117031Y0209081D01*
X0118381Y0207731D01*
X0120145Y0207000D01*
X0128455Y0207000D01*
X0130219Y0207731D01*
X0131569Y0209081D01*
X0132300Y0210845D01*
X0132300Y0212755D01*
X0131569Y0214519D01*
X0130219Y0215869D01*
X0131482Y0214606D02*
X0180584Y0214606D01*
X0180270Y0214292D02*
X0179600Y0212675D01*
X0179600Y0210925D01*
X0180270Y0209308D01*
X0181508Y0208070D01*
X0183125Y0207400D01*
X0190475Y0207400D01*
X0192092Y0208070D01*
X0193330Y0209308D01*
X0194000Y0210925D01*
X0194000Y0212675D01*
X0193330Y0214292D01*
X0192092Y0215530D01*
X0190475Y0216200D01*
X0183125Y0216200D01*
X0181508Y0215530D01*
X0180270Y0214292D01*
X0179738Y0213008D02*
X0132195Y0213008D01*
X0132300Y0211409D02*
X0179600Y0211409D01*
X0180061Y0209811D02*
X0131872Y0209811D01*
X0130701Y0208212D02*
X0165652Y0208212D01*
X0165812Y0208265D02*
X0164989Y0207997D01*
X0164217Y0207604D01*
X0163517Y0207095D01*
X0162905Y0206483D01*
X0162396Y0205783D01*
X0162003Y0205011D01*
X0161735Y0204188D01*
X0161600Y0203333D01*
X0161600Y0203100D01*
X0166900Y0203100D01*
X0166900Y0208400D01*
X0166667Y0208400D01*
X0165812Y0208265D01*
X0166900Y0208212D02*
X0167300Y0208212D01*
X0167300Y0208400D02*
X0167533Y0208400D01*
X0168388Y0208265D01*
X0169211Y0207997D01*
X0169983Y0207604D01*
X0170683Y0207095D01*
X0171295Y0206483D01*
X0171804Y0205783D01*
X0172197Y0205011D01*
X0172465Y0204188D01*
X0172600Y0203333D01*
X0172600Y0203100D01*
X0167300Y0203100D01*
X0167300Y0202700D01*
X0172600Y0202700D01*
X0172600Y0202467D01*
X0172465Y0201612D01*
X0172197Y0200789D01*
X0171804Y0200017D01*
X0171295Y0199317D01*
X0170683Y0198705D01*
X0169983Y0198196D01*
X0169211Y0197803D01*
X0168388Y0197535D01*
X0167533Y0197400D01*
X0167300Y0197400D01*
X0167300Y0202700D01*
X0166900Y0202700D01*
X0166900Y0197400D01*
X0166667Y0197400D01*
X0165812Y0197535D01*
X0164989Y0197803D01*
X0164217Y0198196D01*
X0163517Y0198705D01*
X0162905Y0199317D01*
X0162396Y0200017D01*
X0162003Y0200789D01*
X0161735Y0201612D01*
X0161600Y0202467D01*
X0161600Y0202700D01*
X0166900Y0202700D01*
X0166900Y0203100D01*
X0167300Y0203100D01*
X0167300Y0208400D01*
X0168548Y0208212D02*
X0181365Y0208212D01*
X0183125Y0206200D02*
X0181508Y0205530D01*
X0180270Y0204292D01*
X0179600Y0202675D01*
X0179600Y0200925D01*
X0180270Y0199308D01*
X0181508Y0198070D01*
X0183125Y0197400D01*
X0190475Y0197400D01*
X0192092Y0198070D01*
X0193330Y0199308D01*
X0194000Y0200925D01*
X0194000Y0202675D01*
X0193330Y0204292D01*
X0192092Y0205530D01*
X0190475Y0206200D01*
X0183125Y0206200D01*
X0180993Y0205015D02*
X0172195Y0205015D01*
X0172587Y0203417D02*
X0179907Y0203417D01*
X0179600Y0201818D02*
X0172497Y0201818D01*
X0171907Y0200220D02*
X0179892Y0200220D01*
X0180956Y0198621D02*
X0170568Y0198621D01*
X0167300Y0198621D02*
X0166900Y0198621D01*
X0166900Y0200220D02*
X0167300Y0200220D01*
X0167300Y0201818D02*
X0166900Y0201818D01*
X0166900Y0203417D02*
X0167300Y0203417D01*
X0167300Y0205015D02*
X0166900Y0205015D01*
X0166900Y0206614D02*
X0167300Y0206614D01*
X0171164Y0206614D02*
X0199400Y0206614D01*
X0199400Y0208212D02*
X0192235Y0208212D01*
X0193539Y0209811D02*
X0199400Y0209811D01*
X0199400Y0211409D02*
X0194000Y0211409D01*
X0193862Y0213008D02*
X0199400Y0213008D01*
X0199400Y0214606D02*
X0193016Y0214606D01*
X0191449Y0217803D02*
X0199400Y0217803D01*
X0199400Y0216205D02*
X0170098Y0216205D01*
X0170102Y0216207D02*
X0171593Y0217698D01*
X0172400Y0219646D01*
X0172400Y0221754D01*
X0171593Y0223702D01*
X0170102Y0225193D01*
X0168154Y0226000D01*
X0166046Y0226000D01*
X0164098Y0225193D01*
X0162607Y0223702D01*
X0161800Y0221754D01*
X0161800Y0219646D01*
X0162607Y0217698D01*
X0164098Y0216207D01*
X0166046Y0215400D01*
X0168154Y0215400D01*
X0170102Y0216207D01*
X0171637Y0217803D02*
X0174574Y0217803D01*
X0174977Y0217400D02*
X0178623Y0217400D01*
X0180400Y0219177D01*
X0181508Y0218070D01*
X0183125Y0217400D01*
X0190475Y0217400D01*
X0192092Y0218070D01*
X0193330Y0219308D01*
X0194000Y0220925D01*
X0194000Y0222675D01*
X0193330Y0224292D01*
X0192092Y0225530D01*
X0190475Y0226200D01*
X0183125Y0226200D01*
X0181508Y0225530D01*
X0180400Y0224423D01*
X0178623Y0226200D01*
X0174977Y0226200D01*
X0172400Y0223623D01*
X0172400Y0219977D01*
X0174977Y0217400D01*
X0172975Y0219402D02*
X0172299Y0219402D01*
X0172400Y0221001D02*
X0172400Y0221001D01*
X0172400Y0222599D02*
X0172050Y0222599D01*
X0172975Y0224198D02*
X0171098Y0224198D01*
X0168647Y0225796D02*
X0174574Y0225796D01*
X0179026Y0225796D02*
X0182150Y0225796D01*
X0191450Y0225796D02*
X0199400Y0225796D01*
X0199400Y0224198D02*
X0193369Y0224198D01*
X0194000Y0222599D02*
X0199400Y0222599D01*
X0199400Y0221001D02*
X0194000Y0221001D01*
X0193369Y0219402D02*
X0199400Y0219402D01*
X0204200Y0219402D02*
X0210231Y0219402D01*
X0210270Y0219308D02*
X0211508Y0218070D01*
X0213125Y0217400D01*
X0220475Y0217400D01*
X0222092Y0218070D01*
X0223330Y0219308D01*
X0224000Y0220925D01*
X0224000Y0222675D01*
X0223330Y0224292D01*
X0222092Y0225530D01*
X0220475Y0226200D01*
X0213125Y0226200D01*
X0211508Y0225530D01*
X0210270Y0224292D01*
X0209600Y0222675D01*
X0209600Y0220925D01*
X0210270Y0219308D01*
X0209600Y0221001D02*
X0204200Y0221001D01*
X0204200Y0222599D02*
X0209600Y0222599D01*
X0210231Y0224198D02*
X0204200Y0224198D01*
X0204200Y0225796D02*
X0212150Y0225796D01*
X0221450Y0225796D02*
X0229700Y0225796D01*
X0229700Y0224198D02*
X0223369Y0224198D01*
X0224000Y0222599D02*
X0229700Y0222599D01*
X0229700Y0221001D02*
X0224000Y0221001D01*
X0223369Y0219402D02*
X0229700Y0219402D01*
X0229700Y0217803D02*
X0221449Y0217803D01*
X0223016Y0214606D02*
X0226637Y0214606D01*
X0228235Y0216205D02*
X0204200Y0216205D01*
X0204200Y0217803D02*
X0212151Y0217803D01*
X0210584Y0214606D02*
X0204200Y0214606D01*
X0204200Y0213008D02*
X0209738Y0213008D01*
X0209600Y0211409D02*
X0204200Y0211409D01*
X0204200Y0209811D02*
X0210061Y0209811D01*
X0211365Y0208212D02*
X0204200Y0208212D01*
X0204200Y0206614D02*
X0335969Y0206614D01*
X0335991Y0206535D02*
X0337518Y0203890D01*
X0339677Y0201730D01*
X0342323Y0200203D01*
X0345273Y0199413D01*
X0348327Y0199413D01*
X0351277Y0200203D01*
X0353923Y0201730D01*
X0356082Y0203890D01*
X0357609Y0206535D01*
X0358400Y0209485D01*
X0358400Y0212540D01*
X0357609Y0215490D01*
X0356082Y0218135D01*
X0353923Y0220295D01*
X0351277Y0221822D01*
X0348327Y0222613D01*
X0345273Y0222613D01*
X0342323Y0221822D01*
X0339677Y0220295D01*
X0337518Y0218135D01*
X0335991Y0215490D01*
X0335200Y0212540D01*
X0335200Y0209485D01*
X0335991Y0206535D01*
X0335541Y0208212D02*
X0258201Y0208212D01*
X0257719Y0207731D02*
X0259069Y0209081D01*
X0259800Y0210845D01*
X0259800Y0212755D01*
X0259069Y0214519D01*
X0257719Y0215869D01*
X0255955Y0216600D01*
X0247645Y0216600D01*
X0245881Y0215869D01*
X0244531Y0214519D01*
X0243800Y0212755D01*
X0243800Y0210845D01*
X0244531Y0209081D01*
X0245881Y0207731D01*
X0247645Y0207000D01*
X0255955Y0207000D01*
X0257719Y0207731D01*
X0257719Y0205869D02*
X0255955Y0206600D01*
X0247645Y0206600D01*
X0245881Y0205869D01*
X0244531Y0204519D01*
X0243800Y0202755D01*
X0243800Y0200845D01*
X0244531Y0199081D01*
X0245881Y0197731D01*
X0247645Y0197000D01*
X0255955Y0197000D01*
X0257719Y0197731D01*
X0259069Y0199081D01*
X0259800Y0200845D01*
X0259800Y0202755D01*
X0259069Y0204519D01*
X0257719Y0205869D01*
X0258573Y0205015D02*
X0336868Y0205015D01*
X0337991Y0203417D02*
X0259526Y0203417D01*
X0259800Y0201818D02*
X0339589Y0201818D01*
X0342294Y0200220D02*
X0259541Y0200220D01*
X0258610Y0198621D02*
X0358701Y0198621D01*
X0358701Y0197023D02*
X0256010Y0197023D01*
X0255955Y0196600D02*
X0247645Y0196600D01*
X0245881Y0195869D01*
X0244531Y0194519D01*
X0243800Y0192755D01*
X0243800Y0190845D01*
X0244531Y0189081D01*
X0245881Y0187731D01*
X0247645Y0187000D01*
X0255955Y0187000D01*
X0257719Y0187731D01*
X0259069Y0189081D01*
X0259800Y0190845D01*
X0259800Y0192755D01*
X0259069Y0194519D01*
X0257719Y0195869D01*
X0255955Y0196600D01*
X0258164Y0195424D02*
X0358701Y0195424D01*
X0358701Y0193826D02*
X0259356Y0193826D01*
X0259800Y0192227D02*
X0358701Y0192227D01*
X0358701Y0190629D02*
X0259710Y0190629D01*
X0259019Y0189030D02*
X0351448Y0189030D01*
X0351103Y0188976D02*
X0350279Y0188708D01*
X0349508Y0188315D01*
X0348808Y0187806D01*
X0348195Y0187194D01*
X0347687Y0186494D01*
X0347294Y0185722D01*
X0347026Y0184899D01*
X0346891Y0184044D01*
X0346891Y0183811D01*
X0352190Y0183811D01*
X0352190Y0183411D01*
X0346891Y0183411D01*
X0346891Y0183178D01*
X0347026Y0182323D01*
X0347294Y0181500D01*
X0347687Y0180728D01*
X0348195Y0180028D01*
X0348808Y0179416D01*
X0349508Y0178907D01*
X0350279Y0178514D01*
X0351103Y0178246D01*
X0351958Y0178111D01*
X0352191Y0178111D01*
X0352191Y0183411D01*
X0352591Y0183411D01*
X0352591Y0183811D01*
X0357891Y0183811D01*
X0357891Y0184044D01*
X0357755Y0184899D01*
X0357488Y0185722D01*
X0357095Y0186494D01*
X0356586Y0187194D01*
X0355974Y0187806D01*
X0355273Y0188315D01*
X0354502Y0188708D01*
X0353678Y0188976D01*
X0352823Y0189111D01*
X0352591Y0189111D01*
X0352591Y0183811D01*
X0352191Y0183811D01*
X0352191Y0189111D01*
X0351958Y0189111D01*
X0351103Y0188976D01*
X0352191Y0189030D02*
X0352591Y0189030D01*
X0353333Y0189030D02*
X0358701Y0189030D01*
X0358701Y0187432D02*
X0356348Y0187432D01*
X0357431Y0185833D02*
X0358701Y0185833D01*
X0358701Y0184235D02*
X0357860Y0184235D01*
X0357891Y0183411D02*
X0352591Y0183411D01*
X0352591Y0178111D01*
X0352823Y0178111D01*
X0353678Y0178246D01*
X0354502Y0178514D01*
X0355273Y0178907D01*
X0355974Y0179416D01*
X0356586Y0180028D01*
X0357095Y0180728D01*
X0357488Y0181500D01*
X0357755Y0182323D01*
X0357891Y0183178D01*
X0357891Y0183411D01*
X0357805Y0182636D02*
X0358701Y0182636D01*
X0358701Y0181038D02*
X0357252Y0181038D01*
X0355997Y0179439D02*
X0358701Y0179439D01*
X0358701Y0177841D02*
X0353843Y0177841D01*
X0353445Y0178005D02*
X0351336Y0178005D01*
X0349388Y0177199D01*
X0347897Y0175708D01*
X0347091Y0173760D01*
X0347091Y0171651D01*
X0347897Y0169703D01*
X0349388Y0168212D01*
X0351336Y0167406D01*
X0353445Y0167406D01*
X0355393Y0168212D01*
X0356884Y0169703D01*
X0357691Y0171651D01*
X0357691Y0173760D01*
X0356884Y0175708D01*
X0355393Y0177199D01*
X0353445Y0178005D01*
X0352591Y0179439D02*
X0352191Y0179439D01*
X0352191Y0181038D02*
X0352591Y0181038D01*
X0352591Y0182636D02*
X0352191Y0182636D01*
X0352191Y0184235D02*
X0352591Y0184235D01*
X0352591Y0185833D02*
X0352191Y0185833D01*
X0352191Y0187432D02*
X0352591Y0187432D01*
X0348433Y0187432D02*
X0256997Y0187432D01*
X0257755Y0185833D02*
X0347350Y0185833D01*
X0346921Y0184235D02*
X0259187Y0184235D01*
X0259800Y0182636D02*
X0338218Y0182636D01*
X0338207Y0182632D02*
X0336716Y0181141D01*
X0335909Y0179193D01*
X0335909Y0177084D01*
X0336716Y0175136D01*
X0338207Y0173645D01*
X0340155Y0172839D01*
X0342264Y0172839D01*
X0344212Y0173645D01*
X0345703Y0175136D01*
X0346509Y0177084D01*
X0346509Y0179193D01*
X0345703Y0181141D01*
X0344212Y0182632D01*
X0342264Y0183439D01*
X0340155Y0183439D01*
X0338207Y0182632D01*
X0336674Y0181038D02*
X0259800Y0181038D01*
X0259218Y0179439D02*
X0336012Y0179439D01*
X0335909Y0177841D02*
X0257829Y0177841D01*
X0256819Y0176242D02*
X0336258Y0176242D01*
X0337209Y0174644D02*
X0258945Y0174644D01*
X0259680Y0173045D02*
X0339656Y0173045D01*
X0337928Y0171447D02*
X0259800Y0171447D01*
X0259387Y0169848D02*
X0336556Y0169848D01*
X0335909Y0168250D02*
X0258238Y0168250D01*
X0258647Y0158659D02*
X0336422Y0158659D01*
X0335909Y0157060D02*
X0256100Y0157060D01*
X0258127Y0155462D02*
X0335909Y0155462D01*
X0336510Y0153863D02*
X0259341Y0153863D01*
X0259800Y0152265D02*
X0337817Y0152265D01*
X0339925Y0150666D02*
X0259726Y0150666D01*
X0259056Y0149068D02*
X0337320Y0149068D01*
X0336304Y0147469D02*
X0257087Y0147469D01*
X0252000Y0136279D02*
X0251600Y0136279D01*
X0251600Y0134681D02*
X0252000Y0134681D01*
X0252000Y0133082D02*
X0251600Y0133082D01*
X0251600Y0131484D02*
X0252000Y0131484D01*
X0252000Y0129885D02*
X0251600Y0129885D01*
X0251600Y0128287D02*
X0252000Y0128287D01*
X0245511Y0115499D02*
X0222124Y0115499D01*
X0223493Y0113900D02*
X0244274Y0113900D01*
X0244521Y0109105D02*
X0223127Y0109105D01*
X0224064Y0107506D02*
X0246423Y0107506D01*
X0249700Y0105908D02*
X0225662Y0105908D01*
X0227261Y0104309D02*
X0249700Y0104309D01*
X0249700Y0102711D02*
X0228859Y0102711D01*
X0228900Y0101112D02*
X0249700Y0101112D01*
X0249700Y0099514D02*
X0228900Y0099514D01*
X0228900Y0097915D02*
X0249700Y0097915D01*
X0249700Y0096317D02*
X0228900Y0096317D01*
X0228900Y0094718D02*
X0249700Y0094718D01*
X0249700Y0093120D02*
X0228900Y0093120D01*
X0228900Y0091521D02*
X0249700Y0091521D01*
X0250708Y0089923D02*
X0228900Y0089923D01*
X0228900Y0088324D02*
X0252306Y0088324D01*
X0253905Y0086726D02*
X0228900Y0086726D01*
X0228900Y0085127D02*
X0255503Y0085127D01*
X0257102Y0083529D02*
X0228900Y0083529D01*
X0228900Y0081930D02*
X0258700Y0081930D01*
X0260299Y0080332D02*
X0255127Y0080332D01*
X0256249Y0078733D02*
X0261897Y0078733D01*
X0263496Y0077134D02*
X0256650Y0077134D01*
X0256526Y0075536D02*
X0265094Y0075536D01*
X0266693Y0073937D02*
X0255796Y0073937D01*
X0255713Y0071650D02*
X0247887Y0071650D01*
X0246950Y0070713D01*
X0246950Y0062887D01*
X0247887Y0061950D01*
X0255713Y0061950D01*
X0256650Y0062887D01*
X0256650Y0070713D01*
X0255713Y0071650D01*
X0256622Y0070740D02*
X0269890Y0070740D01*
X0268291Y0072339D02*
X0253704Y0072339D01*
X0249896Y0072339D02*
X0240309Y0072339D01*
X0238900Y0070740D02*
X0246978Y0070740D01*
X0246950Y0069142D02*
X0238900Y0069142D01*
X0238900Y0067543D02*
X0246950Y0067543D01*
X0246950Y0065945D02*
X0238900Y0065945D01*
X0238900Y0064346D02*
X0246950Y0064346D01*
X0247089Y0062748D02*
X0238900Y0062748D01*
X0240420Y0061149D02*
X0267679Y0061149D01*
X0267400Y0060475D02*
X0268070Y0062092D01*
X0269308Y0063330D01*
X0270925Y0064000D01*
X0272675Y0064000D01*
X0274292Y0063330D01*
X0275530Y0062092D01*
X0276200Y0060475D01*
X0276200Y0053125D01*
X0275530Y0051508D01*
X0274292Y0050270D01*
X0272675Y0049600D01*
X0270925Y0049600D01*
X0269308Y0050270D01*
X0268070Y0051508D01*
X0267400Y0053125D01*
X0267400Y0060475D01*
X0267400Y0059551D02*
X0242019Y0059551D01*
X0243617Y0057952D02*
X0267400Y0057952D01*
X0267400Y0056354D02*
X0245216Y0056354D01*
X0246814Y0054755D02*
X0248533Y0054755D01*
X0244072Y0051558D02*
X0194528Y0051558D01*
X0192930Y0049960D02*
X0245670Y0049960D01*
X0256182Y0049960D02*
X0270056Y0049960D01*
X0268049Y0051558D02*
X0256200Y0051558D01*
X0256200Y0053157D02*
X0267400Y0053157D01*
X0267400Y0054755D02*
X0255067Y0054755D01*
X0256511Y0062748D02*
X0268725Y0062748D01*
X0274875Y0062748D02*
X0278725Y0062748D01*
X0279308Y0063330D02*
X0278070Y0062092D01*
X0277400Y0060475D01*
X0277400Y0053125D01*
X0278070Y0051508D01*
X0279308Y0050270D01*
X0280925Y0049600D01*
X0282675Y0049600D01*
X0284292Y0050270D01*
X0285530Y0051508D01*
X0286200Y0053125D01*
X0286200Y0060475D01*
X0285530Y0062092D01*
X0284292Y0063330D01*
X0282675Y0064000D01*
X0280925Y0064000D01*
X0279308Y0063330D01*
X0277679Y0061149D02*
X0275921Y0061149D01*
X0276200Y0059551D02*
X0277400Y0059551D01*
X0277400Y0057952D02*
X0276200Y0057952D01*
X0276200Y0056354D02*
X0277400Y0056354D01*
X0277400Y0054755D02*
X0276200Y0054755D01*
X0276200Y0053157D02*
X0277400Y0053157D01*
X0278049Y0051558D02*
X0275551Y0051558D01*
X0273544Y0049960D02*
X0280056Y0049960D01*
X0283544Y0049960D02*
X0290056Y0049960D01*
X0289308Y0050270D02*
X0290925Y0049600D01*
X0292675Y0049600D01*
X0294292Y0050270D01*
X0295530Y0051508D01*
X0296200Y0053125D01*
X0296200Y0060475D01*
X0295530Y0062092D01*
X0294292Y0063330D01*
X0292675Y0064000D01*
X0290925Y0064000D01*
X0289308Y0063330D01*
X0288070Y0062092D01*
X0287400Y0060475D01*
X0287400Y0053125D01*
X0288070Y0051508D01*
X0289308Y0050270D01*
X0288049Y0051558D02*
X0285551Y0051558D01*
X0286200Y0053157D02*
X0287400Y0053157D01*
X0287400Y0054755D02*
X0286200Y0054755D01*
X0286200Y0056354D02*
X0287400Y0056354D01*
X0287400Y0057952D02*
X0286200Y0057952D01*
X0286200Y0059551D02*
X0287400Y0059551D01*
X0287679Y0061149D02*
X0285921Y0061149D01*
X0284875Y0062748D02*
X0288725Y0062748D01*
X0294875Y0062748D02*
X0298725Y0062748D01*
X0299308Y0063330D02*
X0298070Y0062092D01*
X0297400Y0060475D01*
X0297400Y0053125D01*
X0298070Y0051508D01*
X0299308Y0050270D01*
X0300925Y0049600D01*
X0302675Y0049600D01*
X0304292Y0050270D01*
X0305530Y0051508D01*
X0306200Y0053125D01*
X0306200Y0060475D01*
X0305530Y0062092D01*
X0304292Y0063330D01*
X0302675Y0064000D01*
X0300925Y0064000D01*
X0299308Y0063330D01*
X0297679Y0061149D02*
X0295921Y0061149D01*
X0296200Y0059551D02*
X0297400Y0059551D01*
X0297400Y0057952D02*
X0296200Y0057952D01*
X0296200Y0056354D02*
X0297400Y0056354D01*
X0297400Y0054755D02*
X0296200Y0054755D01*
X0296200Y0053157D02*
X0297400Y0053157D01*
X0298049Y0051558D02*
X0295551Y0051558D01*
X0293544Y0049960D02*
X0300056Y0049960D01*
X0303544Y0049960D02*
X0310056Y0049960D01*
X0309308Y0050270D02*
X0310925Y0049600D01*
X0312675Y0049600D01*
X0314292Y0050270D01*
X0315530Y0051508D01*
X0316200Y0053125D01*
X0316200Y0060475D01*
X0315530Y0062092D01*
X0314292Y0063330D01*
X0312675Y0064000D01*
X0310925Y0064000D01*
X0309308Y0063330D01*
X0308070Y0062092D01*
X0307400Y0060475D01*
X0307400Y0053125D01*
X0308070Y0051508D01*
X0309308Y0050270D01*
X0308049Y0051558D02*
X0305551Y0051558D01*
X0306200Y0053157D02*
X0307400Y0053157D01*
X0307400Y0054755D02*
X0306200Y0054755D01*
X0306200Y0056354D02*
X0307400Y0056354D01*
X0307400Y0057952D02*
X0306200Y0057952D01*
X0306200Y0059551D02*
X0307400Y0059551D01*
X0307679Y0061149D02*
X0305921Y0061149D01*
X0304875Y0062748D02*
X0308725Y0062748D01*
X0314875Y0062748D02*
X0318725Y0062748D01*
X0319308Y0063330D02*
X0318070Y0062092D01*
X0317400Y0060475D01*
X0317400Y0053125D01*
X0318070Y0051508D01*
X0319308Y0050270D01*
X0320925Y0049600D01*
X0322675Y0049600D01*
X0324292Y0050270D01*
X0325530Y0051508D01*
X0326200Y0053125D01*
X0326200Y0060475D01*
X0325530Y0062092D01*
X0324292Y0063330D01*
X0322675Y0064000D01*
X0320925Y0064000D01*
X0319308Y0063330D01*
X0317679Y0061149D02*
X0315921Y0061149D01*
X0316200Y0059551D02*
X0317400Y0059551D01*
X0317400Y0057952D02*
X0316200Y0057952D01*
X0316200Y0056354D02*
X0317400Y0056354D01*
X0317400Y0054755D02*
X0316200Y0054755D01*
X0316200Y0053157D02*
X0317400Y0053157D01*
X0318049Y0051558D02*
X0315551Y0051558D01*
X0313544Y0049960D02*
X0320056Y0049960D01*
X0323544Y0049960D02*
X0330056Y0049960D01*
X0329308Y0050270D02*
X0330925Y0049600D01*
X0332675Y0049600D01*
X0334292Y0050270D01*
X0335530Y0051508D01*
X0336200Y0053125D01*
X0336200Y0060475D01*
X0335530Y0062092D01*
X0334292Y0063330D01*
X0332675Y0064000D01*
X0330925Y0064000D01*
X0329308Y0063330D01*
X0328070Y0062092D01*
X0327400Y0060475D01*
X0327400Y0053125D01*
X0328070Y0051508D01*
X0329308Y0050270D01*
X0328049Y0051558D02*
X0325551Y0051558D01*
X0326200Y0053157D02*
X0327400Y0053157D01*
X0327400Y0054755D02*
X0326200Y0054755D01*
X0326200Y0056354D02*
X0327400Y0056354D01*
X0327400Y0057952D02*
X0326200Y0057952D01*
X0326200Y0059551D02*
X0327400Y0059551D01*
X0327679Y0061149D02*
X0325921Y0061149D01*
X0324875Y0062748D02*
X0328725Y0062748D01*
X0334875Y0062748D02*
X0338725Y0062748D01*
X0339308Y0063330D02*
X0338070Y0062092D01*
X0337400Y0060475D01*
X0337400Y0053125D01*
X0338070Y0051508D01*
X0339308Y0050270D01*
X0340925Y0049600D01*
X0342675Y0049600D01*
X0344292Y0050270D01*
X0345530Y0051508D01*
X0346200Y0053125D01*
X0346200Y0060475D01*
X0345530Y0062092D01*
X0344292Y0063330D01*
X0342675Y0064000D01*
X0340925Y0064000D01*
X0339308Y0063330D01*
X0337679Y0061149D02*
X0335921Y0061149D01*
X0336200Y0059551D02*
X0337400Y0059551D01*
X0337400Y0057952D02*
X0336200Y0057952D01*
X0336200Y0056354D02*
X0337400Y0056354D01*
X0337400Y0054755D02*
X0336200Y0054755D01*
X0336200Y0053157D02*
X0337400Y0053157D01*
X0338049Y0051558D02*
X0335551Y0051558D01*
X0333544Y0049960D02*
X0340056Y0049960D01*
X0343544Y0049960D02*
X0358701Y0049960D01*
X0358701Y0051558D02*
X0345551Y0051558D01*
X0346200Y0053157D02*
X0358701Y0053157D01*
X0358701Y0054755D02*
X0346200Y0054755D01*
X0346200Y0056354D02*
X0358701Y0056354D01*
X0358701Y0057952D02*
X0346200Y0057952D01*
X0346200Y0059551D02*
X0358701Y0059551D01*
X0358701Y0061149D02*
X0345921Y0061149D01*
X0344875Y0062748D02*
X0358701Y0062748D01*
X0358701Y0064346D02*
X0256650Y0064346D01*
X0256650Y0065945D02*
X0358701Y0065945D01*
X0358701Y0067543D02*
X0256650Y0067543D01*
X0256650Y0069142D02*
X0358701Y0069142D01*
X0358701Y0035573D02*
X0339886Y0035573D01*
X0339547Y0035912D02*
X0337765Y0036650D01*
X0335835Y0036650D01*
X0334053Y0035912D01*
X0332688Y0034547D01*
X0331950Y0032765D01*
X0331950Y0030835D01*
X0332688Y0029053D01*
X0334053Y0027688D01*
X0335835Y0026950D01*
X0337765Y0026950D01*
X0339547Y0027688D01*
X0340912Y0029053D01*
X0341650Y0030835D01*
X0341650Y0032765D01*
X0340912Y0034547D01*
X0339547Y0035912D01*
X0341149Y0033975D02*
X0358701Y0033975D01*
X0358701Y0032376D02*
X0341650Y0032376D01*
X0341626Y0030778D02*
X0358701Y0030778D01*
X0358701Y0029179D02*
X0340964Y0029179D01*
X0339287Y0027581D02*
X0358701Y0027581D01*
X0354269Y0020495D02*
X0352667Y0021159D01*
X0350933Y0021159D01*
X0349331Y0020495D01*
X0348105Y0019269D01*
X0347441Y0017667D01*
X0347441Y0015933D01*
X0348105Y0014331D01*
X0349331Y0013105D01*
X0350933Y0012441D01*
X0352667Y0012441D01*
X0354269Y0013105D01*
X0355495Y0014331D01*
X0356159Y0015933D01*
X0356159Y0017667D01*
X0355495Y0019269D01*
X0354269Y0020495D01*
X0355177Y0019588D02*
X0358701Y0019588D01*
X0358701Y0017990D02*
X0356025Y0017990D01*
X0356159Y0016391D02*
X0358701Y0016391D01*
X0358701Y0014793D02*
X0355687Y0014793D01*
X0354359Y0013194D02*
X0358701Y0013194D01*
X0349241Y0013194D02*
X0024359Y0013194D01*
X0025687Y0014793D02*
X0347913Y0014793D01*
X0347441Y0016391D02*
X0026159Y0016391D01*
X0026025Y0017990D02*
X0347575Y0017990D01*
X0348423Y0019588D02*
X0025177Y0019588D01*
X0013600Y0041967D02*
X0047168Y0041967D01*
X0047619Y0043566D02*
X0013600Y0043566D01*
X0013600Y0045164D02*
X0048381Y0045164D01*
X0049547Y0046763D02*
X0013600Y0046763D01*
X0013600Y0048361D02*
X0051416Y0048361D01*
X0056100Y0048361D02*
X0057700Y0048361D01*
X0057700Y0046763D02*
X0056100Y0046763D01*
X0056100Y0045164D02*
X0057700Y0045164D01*
X0057700Y0043566D02*
X0056100Y0043566D01*
X0056100Y0038770D02*
X0057700Y0038770D01*
X0057700Y0037172D02*
X0056100Y0037172D01*
X0056100Y0035573D02*
X0057700Y0035573D01*
X0057700Y0033975D02*
X0056100Y0033975D01*
X0056100Y0032376D02*
X0057700Y0032376D01*
X0057700Y0030778D02*
X0056100Y0030778D01*
X0060190Y0030778D02*
X0271950Y0030778D01*
X0271950Y0032376D02*
X0063074Y0032376D01*
X0064666Y0033975D02*
X0271950Y0033975D01*
X0271950Y0035573D02*
X0065701Y0035573D01*
X0053592Y0059551D02*
X0013600Y0059551D01*
X0013600Y0061149D02*
X0050588Y0061149D01*
X0048990Y0062748D02*
X0013600Y0062748D01*
X0013600Y0064346D02*
X0047987Y0064346D01*
X0047325Y0065945D02*
X0013600Y0065945D01*
X0013600Y0067543D02*
X0046901Y0067543D01*
X0046901Y0069142D02*
X0013600Y0069142D01*
X0013600Y0070740D02*
X0046901Y0070740D01*
X0047494Y0072339D02*
X0013600Y0072339D01*
X0013600Y0073937D02*
X0048156Y0073937D01*
X0049399Y0075536D02*
X0013600Y0075536D01*
X0013600Y0077134D02*
X0032498Y0077134D01*
X0033305Y0076800D02*
X0035295Y0076800D01*
X0037132Y0077561D01*
X0038539Y0078968D01*
X0039300Y0080805D01*
X0039300Y0082795D01*
X0038539Y0084632D01*
X0037132Y0086039D01*
X0035295Y0086800D01*
X0033305Y0086800D01*
X0031468Y0086039D01*
X0030061Y0084632D01*
X0029300Y0082795D01*
X0029300Y0080805D01*
X0030061Y0078968D01*
X0031468Y0077561D01*
X0033305Y0076800D01*
X0036102Y0077134D02*
X0050998Y0077134D01*
X0054582Y0078733D02*
X0038304Y0078733D01*
X0039104Y0080332D02*
X0119640Y0080332D01*
X0121239Y0081930D02*
X0039300Y0081930D01*
X0038996Y0083529D02*
X0122837Y0083529D01*
X0128041Y0083529D02*
X0165400Y0083529D01*
X0165400Y0085127D02*
X0038044Y0085127D01*
X0035474Y0086726D02*
X0165400Y0086726D01*
X0165400Y0088324D02*
X0013600Y0088324D01*
X0013600Y0086726D02*
X0033126Y0086726D01*
X0030556Y0085127D02*
X0013600Y0085127D01*
X0013600Y0083529D02*
X0029604Y0083529D01*
X0029300Y0081930D02*
X0013600Y0081930D01*
X0013600Y0080332D02*
X0029496Y0080332D01*
X0030296Y0078733D02*
X0013600Y0078733D01*
X0013600Y0089923D02*
X0165400Y0089923D01*
X0165400Y0091521D02*
X0013600Y0091521D01*
X0013600Y0093120D02*
X0165400Y0093120D01*
X0165400Y0094718D02*
X0013600Y0094718D01*
X0013600Y0096317D02*
X0165400Y0096317D01*
X0165400Y0097915D02*
X0096650Y0097915D01*
X0096650Y0099514D02*
X0165400Y0099514D01*
X0165400Y0101112D02*
X0096650Y0101112D01*
X0096650Y0102711D02*
X0165400Y0102711D01*
X0166639Y0104309D02*
X0096650Y0104309D01*
X0096455Y0105908D02*
X0168238Y0105908D01*
X0170981Y0102711D02*
X0175300Y0102711D01*
X0175300Y0101112D02*
X0169600Y0101112D01*
X0169600Y0099514D02*
X0175300Y0099514D01*
X0175300Y0097915D02*
X0169600Y0097915D01*
X0169600Y0096317D02*
X0175300Y0096317D01*
X0175300Y0094718D02*
X0169600Y0094718D01*
X0169600Y0093120D02*
X0175300Y0093120D01*
X0175300Y0091521D02*
X0169600Y0091521D01*
X0169600Y0089923D02*
X0175300Y0089923D01*
X0175300Y0088324D02*
X0169600Y0088324D01*
X0169600Y0086726D02*
X0175300Y0086726D01*
X0175300Y0085127D02*
X0169600Y0085127D01*
X0169600Y0083529D02*
X0175300Y0083529D01*
X0175300Y0081930D02*
X0169600Y0081930D01*
X0169600Y0080332D02*
X0175300Y0080332D01*
X0175300Y0078733D02*
X0169600Y0078733D01*
X0169600Y0077134D02*
X0175300Y0077134D01*
X0175300Y0075536D02*
X0169600Y0075536D01*
X0169651Y0073937D02*
X0173949Y0073937D01*
X0172573Y0072339D02*
X0171027Y0072339D01*
X0171600Y0070740D02*
X0172000Y0070740D01*
X0172000Y0069142D02*
X0171600Y0069142D01*
X0171600Y0067543D02*
X0172000Y0067543D01*
X0172000Y0065945D02*
X0171600Y0065945D01*
X0171600Y0064346D02*
X0172000Y0064346D01*
X0172000Y0062748D02*
X0171600Y0062748D01*
X0170980Y0061149D02*
X0172620Y0061149D01*
X0174061Y0059551D02*
X0169539Y0059551D01*
X0162000Y0062748D02*
X0158822Y0062748D01*
X0157223Y0064346D02*
X0162000Y0064346D01*
X0162000Y0065945D02*
X0155625Y0065945D01*
X0154026Y0067543D02*
X0162000Y0067543D01*
X0162000Y0069142D02*
X0152428Y0069142D01*
X0150829Y0070740D02*
X0162000Y0070740D01*
X0162573Y0072339D02*
X0149231Y0072339D01*
X0146488Y0069142D02*
X0126621Y0069142D01*
X0126553Y0070740D02*
X0134890Y0070740D01*
X0133291Y0072339D02*
X0125890Y0072339D01*
X0124054Y0073937D02*
X0131693Y0073937D01*
X0130094Y0075536D02*
X0120785Y0075536D01*
X0119389Y0073937D02*
X0119186Y0073937D01*
X0116443Y0077134D02*
X0062602Y0077134D01*
X0064201Y0075536D02*
X0114845Y0075536D01*
X0118042Y0078733D02*
X0059018Y0078733D01*
X0065444Y0073937D02*
X0109546Y0073937D01*
X0107710Y0072339D02*
X0066106Y0072339D01*
X0066699Y0070740D02*
X0107047Y0070740D01*
X0106979Y0069142D02*
X0066699Y0069142D01*
X0066699Y0067543D02*
X0107427Y0067543D01*
X0116251Y0059551D02*
X0117143Y0059551D01*
X0118356Y0057952D02*
X0114961Y0057952D01*
X0121621Y0057952D02*
X0121821Y0057952D01*
X0121821Y0059551D02*
X0121621Y0059551D01*
X0121621Y0061149D02*
X0121821Y0061149D01*
X0125086Y0057952D02*
X0135897Y0057952D01*
X0124996Y0065945D02*
X0149685Y0065945D01*
X0148087Y0067543D02*
X0126173Y0067543D01*
X0136034Y0075536D02*
X0165400Y0075536D01*
X0165400Y0077134D02*
X0134435Y0077134D01*
X0132837Y0078733D02*
X0165400Y0078733D01*
X0165400Y0080332D02*
X0131238Y0080332D01*
X0129640Y0081930D02*
X0165400Y0081930D01*
X0163949Y0073937D02*
X0137632Y0073937D01*
X0128496Y0077134D02*
X0122383Y0077134D01*
X0123982Y0078733D02*
X0126897Y0078733D01*
X0091800Y0101800D02*
X0091800Y0106800D01*
X0087700Y0107506D02*
X0013600Y0107506D01*
X0013600Y0105908D02*
X0053862Y0105908D01*
X0054153Y0106119D02*
X0053510Y0105652D01*
X0052948Y0105090D01*
X0052481Y0104447D01*
X0052120Y0103739D01*
X0051874Y0102983D01*
X0051750Y0102197D01*
X0051750Y0101800D01*
X0056800Y0101800D01*
X0061850Y0101800D01*
X0061850Y0102197D01*
X0061726Y0102983D01*
X0061480Y0103739D01*
X0061119Y0104447D01*
X0060652Y0105090D01*
X0060090Y0105652D01*
X0059447Y0106119D01*
X0058739Y0106480D01*
X0057983Y0106726D01*
X0057197Y0106850D01*
X0056800Y0106850D01*
X0056800Y0101800D01*
X0056800Y0101800D01*
X0056800Y0101800D01*
X0061850Y0101800D01*
X0061850Y0101403D01*
X0061726Y0100617D01*
X0061480Y0099861D01*
X0061119Y0099153D01*
X0060652Y0098510D01*
X0060090Y0097948D01*
X0059447Y0097481D01*
X0058739Y0097120D01*
X0057983Y0096874D01*
X0057197Y0096750D01*
X0056800Y0096750D01*
X0056800Y0101800D01*
X0056800Y0101800D01*
X0056800Y0101800D01*
X0056800Y0106850D01*
X0056403Y0106850D01*
X0055617Y0106726D01*
X0054861Y0106480D01*
X0054153Y0106119D01*
X0052411Y0104309D02*
X0013600Y0104309D01*
X0013600Y0102711D02*
X0051831Y0102711D01*
X0051750Y0101800D02*
X0051750Y0101403D01*
X0051874Y0100617D01*
X0052120Y0099861D01*
X0052481Y0099153D01*
X0052948Y0098510D01*
X0053510Y0097948D01*
X0054153Y0097481D01*
X0054861Y0097120D01*
X0055617Y0096874D01*
X0056403Y0096750D01*
X0056800Y0096750D01*
X0056800Y0101800D01*
X0051750Y0101800D01*
X0051796Y0101112D02*
X0013600Y0101112D01*
X0013600Y0099514D02*
X0052297Y0099514D01*
X0053555Y0097915D02*
X0013600Y0097915D01*
X0013600Y0109105D02*
X0086101Y0109105D01*
X0084503Y0110703D02*
X0013600Y0110703D01*
X0013600Y0112302D02*
X0082904Y0112302D01*
X0081306Y0113900D02*
X0013600Y0113900D01*
X0013600Y0115499D02*
X0079707Y0115499D01*
X0078109Y0117097D02*
X0036012Y0117097D01*
X0035295Y0116800D02*
X0037132Y0117561D01*
X0038539Y0118968D01*
X0039300Y0120805D01*
X0039300Y0122795D01*
X0038539Y0124632D01*
X0037132Y0126039D01*
X0035295Y0126800D01*
X0033305Y0126800D01*
X0031468Y0126039D01*
X0030061Y0124632D01*
X0029300Y0122795D01*
X0029300Y0120805D01*
X0030061Y0118968D01*
X0031468Y0117561D01*
X0033305Y0116800D01*
X0035295Y0116800D01*
X0032588Y0117097D02*
X0013600Y0117097D01*
X0013600Y0118696D02*
X0030333Y0118696D01*
X0029512Y0120294D02*
X0013600Y0120294D01*
X0013600Y0121893D02*
X0029300Y0121893D01*
X0029589Y0123491D02*
X0013600Y0123491D01*
X0013600Y0125090D02*
X0030519Y0125090D01*
X0033036Y0126688D02*
X0013600Y0126688D01*
X0013600Y0128287D02*
X0069400Y0128287D01*
X0069400Y0129885D02*
X0013600Y0129885D01*
X0013600Y0131484D02*
X0069400Y0131484D01*
X0069400Y0133082D02*
X0013600Y0133082D01*
X0013600Y0134681D02*
X0069400Y0134681D01*
X0069400Y0136279D02*
X0013600Y0136279D01*
X0013600Y0137878D02*
X0069400Y0137878D01*
X0069400Y0139476D02*
X0013600Y0139476D01*
X0013600Y0141075D02*
X0031098Y0141075D01*
X0031378Y0141000D02*
X0034222Y0141000D01*
X0036969Y0141736D01*
X0039431Y0143158D01*
X0041442Y0145169D01*
X0042864Y0147631D01*
X0043600Y0150378D01*
X0043600Y0153222D01*
X0042864Y0155969D01*
X0041442Y0158431D01*
X0039431Y0160442D01*
X0036969Y0161864D01*
X0034222Y0162600D01*
X0031378Y0162600D01*
X0028631Y0161864D01*
X0026169Y0160442D01*
X0024158Y0158431D01*
X0022736Y0155969D01*
X0022000Y0153222D01*
X0022000Y0150378D01*
X0022736Y0147631D01*
X0024158Y0145169D01*
X0026169Y0143158D01*
X0028631Y0141736D01*
X0031378Y0141000D01*
X0034502Y0141075D02*
X0069400Y0141075D01*
X0069400Y0142673D02*
X0038592Y0142673D01*
X0040545Y0144272D02*
X0069400Y0144272D01*
X0069400Y0145870D02*
X0041847Y0145870D01*
X0042770Y0147469D02*
X0069400Y0147469D01*
X0069400Y0149068D02*
X0043249Y0149068D01*
X0043600Y0150666D02*
X0069400Y0150666D01*
X0069400Y0152265D02*
X0043600Y0152265D01*
X0043428Y0153863D02*
X0070469Y0153863D01*
X0072067Y0155462D02*
X0043000Y0155462D01*
X0042234Y0157060D02*
X0073666Y0157060D01*
X0075264Y0158659D02*
X0041215Y0158659D01*
X0039616Y0160257D02*
X0059949Y0160257D01*
X0058350Y0161856D02*
X0036983Y0161856D01*
X0028617Y0161856D02*
X0013600Y0161856D01*
X0013600Y0163454D02*
X0056752Y0163454D01*
X0055153Y0165053D02*
X0013600Y0165053D01*
X0013600Y0166651D02*
X0053555Y0166651D01*
X0051956Y0168250D02*
X0013600Y0168250D01*
X0013600Y0169848D02*
X0050358Y0169848D01*
X0048759Y0171447D02*
X0013600Y0171447D01*
X0013600Y0173045D02*
X0047161Y0173045D01*
X0045562Y0174644D02*
X0013600Y0174644D01*
X0013600Y0176242D02*
X0043964Y0176242D01*
X0042365Y0177841D02*
X0013600Y0177841D01*
X0013600Y0179439D02*
X0040767Y0179439D01*
X0039168Y0181038D02*
X0013600Y0181038D01*
X0013600Y0182636D02*
X0037570Y0182636D01*
X0035971Y0184235D02*
X0013600Y0184235D01*
X0013600Y0185833D02*
X0034373Y0185833D01*
X0037964Y0189030D02*
X0038347Y0189030D01*
X0037400Y0189977D02*
X0039977Y0187400D01*
X0043623Y0187400D01*
X0046200Y0189977D01*
X0046200Y0193623D01*
X0043623Y0196200D01*
X0039977Y0196200D01*
X0037400Y0193623D01*
X0037400Y0189977D01*
X0037400Y0190629D02*
X0036365Y0190629D01*
X0036200Y0192227D02*
X0037400Y0192227D01*
X0037603Y0193826D02*
X0035997Y0193826D01*
X0034398Y0195424D02*
X0039202Y0195424D01*
X0044398Y0195424D02*
X0059202Y0195424D01*
X0059977Y0196200D02*
X0057400Y0193623D01*
X0057400Y0189977D01*
X0059977Y0187400D01*
X0063623Y0187400D01*
X0066200Y0189977D01*
X0066200Y0193623D01*
X0063623Y0196200D01*
X0059977Y0196200D01*
X0057603Y0193826D02*
X0045997Y0193826D01*
X0046200Y0192227D02*
X0057400Y0192227D01*
X0057400Y0190629D02*
X0046200Y0190629D01*
X0045253Y0189030D02*
X0058347Y0189030D01*
X0059946Y0187432D02*
X0043654Y0187432D01*
X0041161Y0185833D02*
X0118345Y0185833D01*
X0118381Y0185869D02*
X0117031Y0184519D01*
X0116300Y0182755D01*
X0116300Y0180845D01*
X0117031Y0179081D01*
X0118381Y0177731D01*
X0120145Y0177000D01*
X0128455Y0177000D01*
X0130219Y0177731D01*
X0131569Y0179081D01*
X0131826Y0179700D01*
X0180107Y0179700D01*
X0180270Y0179308D01*
X0181508Y0178070D01*
X0183125Y0177400D01*
X0190475Y0177400D01*
X0192092Y0178070D01*
X0193330Y0179308D01*
X0194000Y0180925D01*
X0194000Y0182675D01*
X0193330Y0184292D01*
X0192092Y0185530D01*
X0190475Y0186200D01*
X0183125Y0186200D01*
X0181508Y0185530D01*
X0180270Y0184292D01*
X0180107Y0183900D01*
X0131826Y0183900D01*
X0131569Y0184519D01*
X0130219Y0185869D01*
X0128455Y0186600D01*
X0120145Y0186600D01*
X0118381Y0185869D01*
X0119103Y0187432D02*
X0093937Y0187432D01*
X0093705Y0187200D02*
X0096400Y0189895D01*
X0096400Y0191800D01*
X0096400Y0193705D01*
X0093705Y0196400D01*
X0091800Y0196400D01*
X0091800Y0191800D01*
X0096400Y0191800D01*
X0091800Y0191800D01*
X0091800Y0191800D01*
X0091800Y0191800D01*
X0091800Y0187200D01*
X0093705Y0187200D01*
X0091800Y0187200D02*
X0091800Y0191800D01*
X0091800Y0191800D01*
X0091800Y0191800D01*
X0087200Y0191800D01*
X0087200Y0193705D01*
X0089895Y0196400D01*
X0091800Y0196400D01*
X0091800Y0191800D01*
X0087200Y0191800D01*
X0087200Y0189895D01*
X0089895Y0187200D01*
X0091800Y0187200D01*
X0091800Y0187432D02*
X0091800Y0187432D01*
X0091800Y0189030D02*
X0091800Y0189030D01*
X0091800Y0190629D02*
X0091800Y0190629D01*
X0091800Y0192227D02*
X0091800Y0192227D01*
X0091800Y0193826D02*
X0091800Y0193826D01*
X0091800Y0195424D02*
X0091800Y0195424D01*
X0094681Y0195424D02*
X0117936Y0195424D01*
X0118381Y0195869D02*
X0117031Y0194519D01*
X0116300Y0192755D01*
X0116300Y0190845D01*
X0117031Y0189081D01*
X0118381Y0187731D01*
X0120145Y0187000D01*
X0128455Y0187000D01*
X0130219Y0187731D01*
X0131569Y0189081D01*
X0132300Y0190845D01*
X0132300Y0192755D01*
X0131569Y0194519D01*
X0130219Y0195869D01*
X0128455Y0196600D01*
X0120145Y0196600D01*
X0118381Y0195869D01*
X0118381Y0197731D02*
X0120145Y0197000D01*
X0128455Y0197000D01*
X0130219Y0197731D01*
X0131569Y0199081D01*
X0132300Y0200845D01*
X0132300Y0202755D01*
X0131569Y0204519D01*
X0130219Y0205869D01*
X0128455Y0206600D01*
X0120145Y0206600D01*
X0118381Y0205869D01*
X0117031Y0204519D01*
X0116300Y0202755D01*
X0116300Y0200845D01*
X0117031Y0199081D01*
X0118381Y0197731D01*
X0117490Y0198621D02*
X0028373Y0198621D01*
X0029971Y0197023D02*
X0120090Y0197023D01*
X0116744Y0193826D02*
X0096280Y0193826D01*
X0096400Y0192227D02*
X0116300Y0192227D01*
X0116390Y0190629D02*
X0096400Y0190629D01*
X0095536Y0189030D02*
X0117081Y0189030D01*
X0116913Y0184235D02*
X0042759Y0184235D01*
X0044358Y0182636D02*
X0116300Y0182636D01*
X0116300Y0181038D02*
X0045956Y0181038D01*
X0047555Y0179439D02*
X0116882Y0179439D01*
X0118271Y0177841D02*
X0049153Y0177841D01*
X0050752Y0176242D02*
X0119281Y0176242D01*
X0120145Y0176600D02*
X0118381Y0175869D01*
X0117031Y0174519D01*
X0116300Y0172755D01*
X0116300Y0170845D01*
X0117031Y0169081D01*
X0118381Y0167731D01*
X0120145Y0167000D01*
X0128455Y0167000D01*
X0130219Y0167731D01*
X0131569Y0169081D01*
X0132300Y0170845D01*
X0132300Y0172755D01*
X0131569Y0174519D01*
X0130219Y0175869D01*
X0128455Y0176600D01*
X0120145Y0176600D01*
X0117155Y0174644D02*
X0052350Y0174644D01*
X0053949Y0173045D02*
X0116420Y0173045D01*
X0116300Y0171447D02*
X0055547Y0171447D01*
X0057146Y0169848D02*
X0116713Y0169848D01*
X0117862Y0168250D02*
X0058744Y0168250D01*
X0060343Y0166651D02*
X0087046Y0166651D01*
X0084582Y0165053D02*
X0061941Y0165053D01*
X0077257Y0153863D02*
X0083615Y0153863D01*
X0083209Y0152265D02*
X0075659Y0152265D01*
X0074200Y0150666D02*
X0083315Y0150666D01*
X0083958Y0149068D02*
X0074200Y0149068D01*
X0074200Y0147469D02*
X0085514Y0147469D01*
X0085399Y0145870D02*
X0074200Y0145870D01*
X0074200Y0144272D02*
X0084012Y0144272D01*
X0083400Y0142673D02*
X0074200Y0142673D01*
X0074200Y0141075D02*
X0083400Y0141075D01*
X0083950Y0139476D02*
X0074200Y0139476D01*
X0074200Y0137878D02*
X0085251Y0137878D01*
X0098349Y0137878D02*
X0181971Y0137878D01*
X0181508Y0138070D02*
X0183125Y0137400D01*
X0190475Y0137400D01*
X0192092Y0138070D01*
X0193330Y0139308D01*
X0194000Y0140925D01*
X0194000Y0142675D01*
X0193330Y0144292D01*
X0192092Y0145530D01*
X0190475Y0146200D01*
X0183125Y0146200D01*
X0181508Y0145530D01*
X0180270Y0144292D01*
X0179600Y0142675D01*
X0179600Y0140925D01*
X0180270Y0139308D01*
X0181508Y0138070D01*
X0180200Y0139476D02*
X0099649Y0139476D01*
X0100200Y0141075D02*
X0179600Y0141075D01*
X0179600Y0142673D02*
X0164396Y0142673D01*
X0164292Y0142570D02*
X0165530Y0143808D01*
X0166200Y0145425D01*
X0166200Y0147175D01*
X0165530Y0148792D01*
X0164292Y0150030D01*
X0162675Y0150700D01*
X0160925Y0150700D01*
X0159308Y0150030D01*
X0158070Y0148792D01*
X0157400Y0147175D01*
X0157400Y0145425D01*
X0158070Y0143808D01*
X0159308Y0142570D01*
X0160925Y0141900D01*
X0162675Y0141900D01*
X0164292Y0142570D01*
X0165722Y0144272D02*
X0180261Y0144272D01*
X0182329Y0145870D02*
X0166200Y0145870D01*
X0166078Y0147469D02*
X0182444Y0147469D01*
X0182234Y0147537D02*
X0182923Y0147313D01*
X0183638Y0147200D01*
X0186800Y0147200D01*
X0189962Y0147200D01*
X0190677Y0147313D01*
X0191366Y0147537D01*
X0192011Y0147866D01*
X0192597Y0148291D01*
X0193109Y0148803D01*
X0193534Y0149389D01*
X0193863Y0150034D01*
X0194087Y0150723D01*
X0194200Y0151438D01*
X0194200Y0151800D01*
X0194200Y0152162D01*
X0194087Y0152877D01*
X0193863Y0153566D01*
X0193534Y0154211D01*
X0193109Y0154797D01*
X0192597Y0155309D01*
X0192011Y0155734D01*
X0191366Y0156063D01*
X0190677Y0156287D01*
X0189962Y0156400D01*
X0186800Y0156400D01*
X0186800Y0151800D01*
X0186800Y0151800D01*
X0194200Y0151800D01*
X0186800Y0151800D01*
X0186800Y0151800D01*
X0186800Y0147200D01*
X0186800Y0151800D01*
X0186800Y0151800D01*
X0186800Y0151800D01*
X0179400Y0151800D01*
X0179400Y0152162D01*
X0179513Y0152877D01*
X0179737Y0153566D01*
X0180066Y0154211D01*
X0180491Y0154797D01*
X0181003Y0155309D01*
X0181589Y0155734D01*
X0182234Y0156063D01*
X0182923Y0156287D01*
X0183638Y0156400D01*
X0186800Y0156400D01*
X0186800Y0151800D01*
X0179400Y0151800D01*
X0179400Y0151438D01*
X0179513Y0150723D01*
X0179737Y0150034D01*
X0180066Y0149389D01*
X0180491Y0148803D01*
X0181003Y0148291D01*
X0181589Y0147866D01*
X0182234Y0147537D01*
X0180299Y0149068D02*
X0165255Y0149068D01*
X0162757Y0150666D02*
X0179532Y0150666D01*
X0179416Y0152265D02*
X0100391Y0152265D01*
X0100285Y0150666D02*
X0134443Y0150666D01*
X0134977Y0151200D02*
X0132400Y0148623D01*
X0132400Y0144977D01*
X0134977Y0142400D01*
X0138623Y0142400D01*
X0141200Y0144977D01*
X0141200Y0148623D01*
X0138623Y0151200D01*
X0134977Y0151200D01*
X0132845Y0149068D02*
X0099642Y0149068D01*
X0098086Y0147469D02*
X0132400Y0147469D01*
X0132400Y0145870D02*
X0098201Y0145870D01*
X0099588Y0144272D02*
X0133105Y0144272D01*
X0134704Y0142673D02*
X0100200Y0142673D01*
X0099985Y0153863D02*
X0179888Y0153863D01*
X0181214Y0155462D02*
X0098892Y0155462D01*
X0096822Y0157060D02*
X0120000Y0157060D01*
X0120145Y0157000D02*
X0128455Y0157000D01*
X0130219Y0157731D01*
X0131569Y0159081D01*
X0132300Y0160845D01*
X0132300Y0162755D01*
X0131569Y0164519D01*
X0130219Y0165869D01*
X0128455Y0166600D01*
X0120145Y0166600D01*
X0118381Y0165869D01*
X0117031Y0164519D01*
X0116300Y0162755D01*
X0116300Y0160845D01*
X0117031Y0159081D01*
X0118381Y0157731D01*
X0120145Y0157000D01*
X0117453Y0158659D02*
X0099130Y0158659D01*
X0099973Y0160257D02*
X0116544Y0160257D01*
X0116300Y0161856D02*
X0100200Y0161856D01*
X0099927Y0163454D02*
X0116590Y0163454D01*
X0117564Y0165053D02*
X0099018Y0165053D01*
X0096554Y0166651D02*
X0199400Y0166651D01*
X0199400Y0165053D02*
X0192570Y0165053D01*
X0192092Y0165530D02*
X0190475Y0166200D01*
X0183125Y0166200D01*
X0181508Y0165530D01*
X0180270Y0164292D01*
X0179600Y0162675D01*
X0179600Y0160925D01*
X0180270Y0159308D01*
X0181508Y0158070D01*
X0183125Y0157400D01*
X0190475Y0157400D01*
X0192092Y0158070D01*
X0193330Y0159308D01*
X0194000Y0160925D01*
X0194000Y0162675D01*
X0193330Y0164292D01*
X0192092Y0165530D01*
X0190475Y0167400D02*
X0192092Y0168070D01*
X0193330Y0169308D01*
X0194000Y0170925D01*
X0194000Y0172675D01*
X0193330Y0174292D01*
X0192092Y0175530D01*
X0190475Y0176200D01*
X0183125Y0176200D01*
X0181508Y0175530D01*
X0180270Y0174292D01*
X0179600Y0172675D01*
X0179600Y0170925D01*
X0180270Y0169308D01*
X0181508Y0168070D01*
X0183125Y0167400D01*
X0190475Y0167400D01*
X0192272Y0168250D02*
X0199400Y0168250D01*
X0199400Y0169848D02*
X0193554Y0169848D01*
X0194000Y0171447D02*
X0199400Y0171447D01*
X0199400Y0173045D02*
X0193847Y0173045D01*
X0192979Y0174644D02*
X0199400Y0174644D01*
X0199400Y0176242D02*
X0129319Y0176242D01*
X0130329Y0177841D02*
X0182061Y0177841D01*
X0180215Y0179439D02*
X0131718Y0179439D01*
X0131687Y0184235D02*
X0180246Y0184235D01*
X0182239Y0185833D02*
X0130255Y0185833D01*
X0129497Y0187432D02*
X0183048Y0187432D01*
X0183125Y0187400D02*
X0190475Y0187400D01*
X0192092Y0188070D01*
X0193330Y0189308D01*
X0194000Y0190925D01*
X0194000Y0192675D01*
X0193330Y0194292D01*
X0192092Y0195530D01*
X0190475Y0196200D01*
X0183125Y0196200D01*
X0181508Y0195530D01*
X0180270Y0194292D01*
X0179600Y0192675D01*
X0179600Y0190925D01*
X0180270Y0189308D01*
X0181508Y0188070D01*
X0183125Y0187400D01*
X0180547Y0189030D02*
X0131519Y0189030D01*
X0132210Y0190629D02*
X0179723Y0190629D01*
X0179600Y0192227D02*
X0132300Y0192227D01*
X0131856Y0193826D02*
X0180077Y0193826D01*
X0181402Y0195424D02*
X0130664Y0195424D01*
X0128510Y0197023D02*
X0199400Y0197023D01*
X0199400Y0198621D02*
X0192644Y0198621D01*
X0193708Y0200220D02*
X0199400Y0200220D01*
X0199400Y0201818D02*
X0194000Y0201818D01*
X0193693Y0203417D02*
X0199400Y0203417D01*
X0199400Y0205015D02*
X0192607Y0205015D01*
X0204200Y0205015D02*
X0210993Y0205015D01*
X0211508Y0205530D02*
X0210270Y0204292D01*
X0209600Y0202675D01*
X0209600Y0200925D01*
X0210270Y0199308D01*
X0211508Y0198070D01*
X0213125Y0197400D01*
X0220475Y0197400D01*
X0222092Y0198070D01*
X0223330Y0199308D01*
X0224000Y0200925D01*
X0224000Y0202675D01*
X0223330Y0204292D01*
X0222092Y0205530D01*
X0220475Y0206200D01*
X0213125Y0206200D01*
X0211508Y0205530D01*
X0209907Y0203417D02*
X0204200Y0203417D01*
X0204200Y0201818D02*
X0209600Y0201818D01*
X0209892Y0200220D02*
X0204200Y0200220D01*
X0204200Y0198621D02*
X0210956Y0198621D01*
X0211508Y0195530D02*
X0213125Y0196200D01*
X0220475Y0196200D01*
X0222092Y0195530D01*
X0223330Y0194292D01*
X0224000Y0192675D01*
X0224000Y0190925D01*
X0223330Y0189308D01*
X0222092Y0188070D01*
X0220475Y0187400D01*
X0213125Y0187400D01*
X0211508Y0188070D01*
X0210270Y0189308D01*
X0209600Y0190925D01*
X0209600Y0192675D01*
X0210270Y0194292D01*
X0211508Y0195530D01*
X0211402Y0195424D02*
X0204200Y0195424D01*
X0204200Y0193826D02*
X0210077Y0193826D01*
X0209600Y0192227D02*
X0204200Y0192227D01*
X0204200Y0190629D02*
X0209723Y0190629D01*
X0210547Y0189030D02*
X0204200Y0189030D01*
X0204200Y0187432D02*
X0213048Y0187432D01*
X0213125Y0186200D02*
X0211508Y0185530D01*
X0210270Y0184292D01*
X0209600Y0182675D01*
X0209600Y0180925D01*
X0210270Y0179308D01*
X0211508Y0178070D01*
X0213125Y0177400D01*
X0220475Y0177400D01*
X0222092Y0178070D01*
X0223330Y0179308D01*
X0224000Y0180925D01*
X0224000Y0182675D01*
X0223330Y0184292D01*
X0222092Y0185530D01*
X0220475Y0186200D01*
X0213125Y0186200D01*
X0212239Y0185833D02*
X0204200Y0185833D01*
X0204200Y0184235D02*
X0210246Y0184235D01*
X0209600Y0182636D02*
X0204200Y0182636D01*
X0204200Y0181038D02*
X0209600Y0181038D01*
X0210215Y0179439D02*
X0204200Y0179439D01*
X0204200Y0177841D02*
X0212061Y0177841D01*
X0223354Y0184235D02*
X0244413Y0184235D01*
X0243800Y0182636D02*
X0224000Y0182636D01*
X0224000Y0181038D02*
X0243800Y0181038D01*
X0244382Y0179439D02*
X0223385Y0179439D01*
X0221361Y0185833D02*
X0245845Y0185833D01*
X0246603Y0187432D02*
X0220552Y0187432D01*
X0223053Y0189030D02*
X0244581Y0189030D01*
X0243890Y0190629D02*
X0223877Y0190629D01*
X0224000Y0192227D02*
X0243800Y0192227D01*
X0244244Y0193826D02*
X0223523Y0193826D01*
X0222198Y0195424D02*
X0245436Y0195424D01*
X0247590Y0197023D02*
X0204200Y0197023D01*
X0199400Y0195424D02*
X0192198Y0195424D01*
X0193523Y0193826D02*
X0199400Y0193826D01*
X0199400Y0192227D02*
X0194000Y0192227D01*
X0193877Y0190629D02*
X0199400Y0190629D01*
X0199400Y0189030D02*
X0193053Y0189030D01*
X0190552Y0187432D02*
X0199400Y0187432D01*
X0199400Y0185833D02*
X0191361Y0185833D01*
X0193354Y0184235D02*
X0199400Y0184235D01*
X0199400Y0182636D02*
X0194000Y0182636D01*
X0194000Y0181038D02*
X0199400Y0181038D01*
X0199400Y0179439D02*
X0193385Y0179439D01*
X0191539Y0177841D02*
X0199400Y0177841D01*
X0199400Y0163454D02*
X0193677Y0163454D01*
X0194000Y0161856D02*
X0199400Y0161856D01*
X0199400Y0160257D02*
X0193723Y0160257D01*
X0192681Y0158659D02*
X0199400Y0158659D01*
X0199400Y0157060D02*
X0128600Y0157060D01*
X0131147Y0158659D02*
X0180919Y0158659D01*
X0179877Y0160257D02*
X0132056Y0160257D01*
X0132300Y0161856D02*
X0179600Y0161856D01*
X0179923Y0163454D02*
X0132010Y0163454D01*
X0131036Y0165053D02*
X0181030Y0165053D01*
X0181328Y0168250D02*
X0130738Y0168250D01*
X0131887Y0169848D02*
X0180046Y0169848D01*
X0179600Y0171447D02*
X0132300Y0171447D01*
X0132180Y0173045D02*
X0179753Y0173045D01*
X0180621Y0174644D02*
X0131445Y0174644D01*
X0140446Y0197600D02*
X0138498Y0198407D01*
X0137007Y0199898D01*
X0136200Y0201846D01*
X0136200Y0203954D01*
X0137007Y0205902D01*
X0138498Y0207393D01*
X0140446Y0208200D01*
X0142554Y0208200D01*
X0144502Y0207393D01*
X0145993Y0205902D01*
X0146800Y0203954D01*
X0146800Y0201846D01*
X0145993Y0199898D01*
X0144502Y0198407D01*
X0142554Y0197600D01*
X0140446Y0197600D01*
X0138283Y0198621D02*
X0131110Y0198621D01*
X0132041Y0200220D02*
X0136873Y0200220D01*
X0136211Y0201818D02*
X0132300Y0201818D01*
X0132026Y0203417D02*
X0136200Y0203417D01*
X0136640Y0205015D02*
X0131073Y0205015D01*
X0137719Y0206614D02*
X0021700Y0206614D01*
X0021700Y0208212D02*
X0117899Y0208212D01*
X0116728Y0209811D02*
X0100082Y0209811D01*
X0101295Y0211409D02*
X0116300Y0211409D01*
X0116405Y0213008D02*
X0101769Y0213008D01*
X0101800Y0214606D02*
X0117118Y0214606D01*
X0119192Y0216205D02*
X0101800Y0216205D01*
X0116616Y0227395D02*
X0116984Y0227395D01*
X0116984Y0228993D02*
X0116616Y0228993D01*
X0116616Y0230592D02*
X0116984Y0230592D01*
X0116616Y0231984D02*
X0111300Y0231984D01*
X0111300Y0232233D01*
X0111435Y0233088D01*
X0111703Y0233911D01*
X0112096Y0234683D01*
X0112605Y0235383D01*
X0113217Y0235995D01*
X0113917Y0236504D01*
X0114689Y0236897D01*
X0115512Y0237165D01*
X0116367Y0237300D01*
X0116616Y0237300D01*
X0116616Y0231984D01*
X0116616Y0232190D02*
X0116984Y0232190D01*
X0116984Y0233789D02*
X0116616Y0233789D01*
X0116616Y0235387D02*
X0116984Y0235387D01*
X0116984Y0236986D02*
X0116616Y0236986D01*
X0114961Y0236986D02*
X0101600Y0236986D01*
X0101600Y0238584D02*
X0132521Y0238584D01*
X0132307Y0238798D02*
X0133798Y0237307D01*
X0135746Y0236500D01*
X0137854Y0236500D01*
X0139802Y0237307D01*
X0141293Y0238798D01*
X0142100Y0240746D01*
X0142100Y0242854D01*
X0141293Y0244802D01*
X0139802Y0246293D01*
X0137854Y0247100D01*
X0135746Y0247100D01*
X0133798Y0246293D01*
X0132307Y0244802D01*
X0131500Y0242854D01*
X0131500Y0240746D01*
X0132307Y0238798D01*
X0131733Y0240183D02*
X0101600Y0240183D01*
X0101258Y0241781D02*
X0131500Y0241781D01*
X0131718Y0243380D02*
X0100209Y0243380D01*
X0093391Y0243380D02*
X0090209Y0243380D01*
X0091258Y0241781D02*
X0092342Y0241781D01*
X0092000Y0240183D02*
X0091600Y0240183D01*
X0091600Y0238584D02*
X0092000Y0238584D01*
X0092000Y0236986D02*
X0091600Y0236986D01*
X0091600Y0235387D02*
X0092000Y0235387D01*
X0092000Y0233789D02*
X0091600Y0233789D01*
X0091411Y0232190D02*
X0092189Y0232190D01*
X0093020Y0230592D02*
X0090580Y0230592D01*
X0083020Y0230592D02*
X0080580Y0230592D01*
X0081411Y0232190D02*
X0082189Y0232190D01*
X0082000Y0233789D02*
X0081600Y0233789D01*
X0081600Y0235387D02*
X0082000Y0235387D01*
X0082000Y0236986D02*
X0081600Y0236986D01*
X0081600Y0238584D02*
X0082000Y0238584D01*
X0082000Y0240183D02*
X0081600Y0240183D01*
X0081258Y0241781D02*
X0082342Y0241781D01*
X0083391Y0243380D02*
X0080209Y0243380D01*
X0101600Y0235387D02*
X0112609Y0235387D01*
X0111663Y0233789D02*
X0101600Y0233789D01*
X0101411Y0232190D02*
X0111300Y0232190D01*
X0111423Y0230592D02*
X0100580Y0230592D01*
X0118639Y0236986D02*
X0134573Y0236986D01*
X0139027Y0236986D02*
X0194400Y0236986D01*
X0194400Y0238584D02*
X0160372Y0238584D01*
X0161600Y0239812D02*
X0158788Y0237000D01*
X0154812Y0237000D01*
X0152000Y0239812D01*
X0152000Y0243788D01*
X0154812Y0246600D01*
X0158788Y0246600D01*
X0161600Y0243788D01*
X0161600Y0239812D01*
X0161600Y0240183D02*
X0194400Y0240183D01*
X0194400Y0241781D02*
X0161600Y0241781D01*
X0161600Y0243380D02*
X0194400Y0243380D01*
X0194400Y0244978D02*
X0160410Y0244978D01*
X0158812Y0246577D02*
X0194400Y0246577D01*
X0199200Y0246577D02*
X0224053Y0246577D01*
X0222455Y0248175D02*
X0215778Y0248175D01*
X0211445Y0248175D02*
X0209872Y0248175D01*
X0205539Y0248175D02*
X0204259Y0248175D01*
X0201800Y0248175D02*
X0201800Y0248175D01*
X0201800Y0247422D02*
X0201800Y0251800D01*
X0201800Y0251800D01*
X0201800Y0256178D01*
X0201800Y0251800D01*
X0201800Y0251800D01*
X0201800Y0247422D01*
X0201800Y0249774D02*
X0201800Y0249774D01*
X0201800Y0251372D02*
X0201800Y0251372D01*
X0201800Y0252971D02*
X0201800Y0252971D01*
X0201800Y0254569D02*
X0201800Y0254569D01*
X0201800Y0256168D02*
X0201800Y0256168D01*
X0202209Y0256168D02*
X0358701Y0256168D01*
X0358701Y0257766D02*
X0353452Y0257766D01*
X0352667Y0257441D02*
X0354269Y0258105D01*
X0355495Y0259331D01*
X0356159Y0260933D01*
X0356159Y0262667D01*
X0355495Y0264269D01*
X0354269Y0265495D01*
X0352667Y0266159D01*
X0350933Y0266159D01*
X0349331Y0265495D01*
X0348105Y0264269D01*
X0347441Y0262667D01*
X0347441Y0260933D01*
X0348105Y0259331D01*
X0349331Y0258105D01*
X0350933Y0257441D01*
X0352667Y0257441D01*
X0350147Y0257766D02*
X0023452Y0257766D01*
X0022667Y0257441D02*
X0024269Y0258105D01*
X0025495Y0259331D01*
X0026159Y0260933D01*
X0026159Y0262667D01*
X0025495Y0264269D01*
X0024269Y0265495D01*
X0022667Y0266159D01*
X0020933Y0266159D01*
X0019331Y0265495D01*
X0018105Y0264269D01*
X0017441Y0262667D01*
X0017441Y0260933D01*
X0018105Y0259331D01*
X0019331Y0258105D01*
X0020933Y0257441D01*
X0022667Y0257441D01*
X0020147Y0257766D02*
X0013600Y0257766D01*
X0013600Y0256168D02*
X0113672Y0256168D01*
X0113798Y0256293D02*
X0112307Y0254802D01*
X0111500Y0252854D01*
X0111500Y0250746D01*
X0112307Y0248798D01*
X0113798Y0247307D01*
X0115746Y0246500D01*
X0117854Y0246500D01*
X0119802Y0247307D01*
X0121293Y0248798D01*
X0122100Y0250746D01*
X0122100Y0252854D01*
X0121293Y0254802D01*
X0119802Y0256293D01*
X0117854Y0257100D01*
X0115746Y0257100D01*
X0113798Y0256293D01*
X0112210Y0254569D02*
X0013600Y0254569D01*
X0013600Y0252971D02*
X0111548Y0252971D01*
X0111500Y0251372D02*
X0013600Y0251372D01*
X0013600Y0249774D02*
X0111903Y0249774D01*
X0112929Y0248175D02*
X0013600Y0248175D01*
X0013600Y0246577D02*
X0115561Y0246577D01*
X0118039Y0246577D02*
X0134482Y0246577D01*
X0132483Y0244978D02*
X0013600Y0244978D01*
X0013600Y0243380D02*
X0023391Y0243380D01*
X0022342Y0241781D02*
X0013600Y0241781D01*
X0013600Y0240183D02*
X0022000Y0240183D01*
X0022000Y0238584D02*
X0013600Y0238584D01*
X0013600Y0236986D02*
X0022000Y0236986D01*
X0021993Y0235387D02*
X0013600Y0235387D01*
X0013600Y0233789D02*
X0020395Y0233789D01*
X0018796Y0232190D02*
X0013600Y0232190D01*
X0013600Y0230592D02*
X0017237Y0230592D01*
X0016900Y0228993D02*
X0013600Y0228993D01*
X0013600Y0227395D02*
X0016900Y0227395D01*
X0016900Y0225796D02*
X0013600Y0225796D01*
X0013600Y0224198D02*
X0016900Y0224198D01*
X0016900Y0222599D02*
X0013600Y0222599D01*
X0013600Y0221001D02*
X0016900Y0221001D01*
X0016900Y0219402D02*
X0013600Y0219402D01*
X0013600Y0217803D02*
X0016900Y0217803D01*
X0016900Y0216205D02*
X0013600Y0216205D01*
X0013600Y0214606D02*
X0016900Y0214606D01*
X0016900Y0213008D02*
X0013600Y0213008D01*
X0013600Y0211409D02*
X0016900Y0211409D01*
X0016900Y0209811D02*
X0013600Y0209811D01*
X0013600Y0208212D02*
X0016900Y0208212D01*
X0016900Y0206614D02*
X0013600Y0206614D01*
X0013600Y0205015D02*
X0016900Y0205015D01*
X0017068Y0203417D02*
X0013600Y0203417D01*
X0013600Y0201818D02*
X0018388Y0201818D01*
X0019986Y0200220D02*
X0013600Y0200220D01*
X0013600Y0198621D02*
X0021585Y0198621D01*
X0023183Y0197023D02*
X0013600Y0197023D01*
X0013600Y0195424D02*
X0024782Y0195424D01*
X0026380Y0193826D02*
X0013600Y0193826D01*
X0013600Y0192227D02*
X0027400Y0192227D01*
X0027400Y0190629D02*
X0013600Y0190629D01*
X0013600Y0189030D02*
X0028347Y0189030D01*
X0029946Y0187432D02*
X0013600Y0187432D01*
X0026774Y0200220D02*
X0116559Y0200220D01*
X0116300Y0201818D02*
X0025176Y0201818D01*
X0023577Y0203417D02*
X0116574Y0203417D01*
X0117527Y0205015D02*
X0021979Y0205015D01*
X0021700Y0209811D02*
X0023518Y0209811D01*
X0023543Y0209786D02*
X0024179Y0209324D01*
X0024881Y0208966D01*
X0025629Y0208723D01*
X0026406Y0208600D01*
X0026600Y0208600D01*
X0026600Y0216600D01*
X0021800Y0216600D01*
X0021800Y0213206D01*
X0021923Y0212429D01*
X0022166Y0211681D01*
X0022524Y0210979D01*
X0022986Y0210343D01*
X0023543Y0209786D01*
X0022304Y0211409D02*
X0021700Y0211409D01*
X0021700Y0213008D02*
X0021831Y0213008D01*
X0021800Y0214606D02*
X0021700Y0214606D01*
X0021700Y0216205D02*
X0021800Y0216205D01*
X0021800Y0217000D02*
X0026600Y0217000D01*
X0026600Y0225000D01*
X0026406Y0225000D01*
X0025629Y0224877D01*
X0024881Y0224634D01*
X0024179Y0224276D01*
X0023543Y0223814D01*
X0022986Y0223257D01*
X0022524Y0222621D01*
X0022166Y0221919D01*
X0021923Y0221171D01*
X0021800Y0220394D01*
X0021800Y0217000D01*
X0021800Y0217803D02*
X0021700Y0217803D01*
X0021700Y0219402D02*
X0021800Y0219402D01*
X0021896Y0221001D02*
X0021700Y0221001D01*
X0021700Y0222599D02*
X0022513Y0222599D01*
X0021700Y0224198D02*
X0024071Y0224198D01*
X0026600Y0224198D02*
X0027000Y0224198D01*
X0027000Y0225000D02*
X0027000Y0217000D01*
X0026600Y0217000D01*
X0026600Y0216600D01*
X0027000Y0216600D01*
X0027000Y0217000D01*
X0031800Y0217000D01*
X0036600Y0217000D01*
X0036600Y0225000D01*
X0036406Y0225000D01*
X0035629Y0224877D01*
X0034881Y0224634D01*
X0034179Y0224276D01*
X0033543Y0223814D01*
X0032986Y0223257D01*
X0032524Y0222621D01*
X0032166Y0221919D01*
X0031923Y0221171D01*
X0031800Y0220394D01*
X0031800Y0217000D01*
X0031800Y0220394D01*
X0031677Y0221171D01*
X0031434Y0221919D01*
X0031076Y0222621D01*
X0030614Y0223257D01*
X0030057Y0223814D01*
X0029421Y0224276D01*
X0028719Y0224634D01*
X0027971Y0224877D01*
X0027194Y0225000D01*
X0027000Y0225000D01*
X0027000Y0222599D02*
X0026600Y0222599D01*
X0026600Y0221001D02*
X0027000Y0221001D01*
X0027000Y0219402D02*
X0026600Y0219402D01*
X0026600Y0217803D02*
X0027000Y0217803D01*
X0027000Y0216600D02*
X0031800Y0216600D01*
X0031800Y0213206D01*
X0031923Y0212429D01*
X0032166Y0211681D01*
X0032524Y0210979D01*
X0032986Y0210343D01*
X0033543Y0209786D01*
X0034179Y0209324D01*
X0034881Y0208966D01*
X0035629Y0208723D01*
X0036406Y0208600D01*
X0036600Y0208600D01*
X0036600Y0216600D01*
X0031800Y0216600D01*
X0031800Y0213206D01*
X0031677Y0212429D01*
X0031434Y0211681D01*
X0031076Y0210979D01*
X0030614Y0210343D01*
X0030057Y0209786D01*
X0029421Y0209324D01*
X0028719Y0208966D01*
X0027971Y0208723D01*
X0027194Y0208600D01*
X0027000Y0208600D01*
X0027000Y0216600D01*
X0027000Y0216205D02*
X0026600Y0216205D01*
X0026600Y0214606D02*
X0027000Y0214606D01*
X0027000Y0213008D02*
X0026600Y0213008D01*
X0026600Y0211409D02*
X0027000Y0211409D01*
X0027000Y0209811D02*
X0026600Y0209811D01*
X0030082Y0209811D02*
X0033518Y0209811D01*
X0032304Y0211409D02*
X0031295Y0211409D01*
X0031769Y0213008D02*
X0031831Y0213008D01*
X0031800Y0214606D02*
X0031800Y0214606D01*
X0031800Y0216205D02*
X0031800Y0216205D01*
X0031800Y0217803D02*
X0031800Y0217803D01*
X0031800Y0219402D02*
X0031800Y0219402D01*
X0031704Y0221001D02*
X0031896Y0221001D01*
X0032513Y0222599D02*
X0031087Y0222599D01*
X0029529Y0224198D02*
X0034071Y0224198D01*
X0036600Y0224198D02*
X0037000Y0224198D01*
X0037000Y0225000D02*
X0037000Y0217000D01*
X0036600Y0217000D01*
X0036600Y0216600D01*
X0037000Y0216600D01*
X0037000Y0217000D01*
X0041800Y0217000D01*
X0046600Y0217000D01*
X0046600Y0225000D01*
X0046406Y0225000D01*
X0045629Y0224877D01*
X0044881Y0224634D01*
X0044179Y0224276D01*
X0043543Y0223814D01*
X0042986Y0223257D01*
X0042524Y0222621D01*
X0042166Y0221919D01*
X0041923Y0221171D01*
X0041800Y0220394D01*
X0041677Y0221171D01*
X0041434Y0221919D01*
X0041076Y0222621D01*
X0040614Y0223257D01*
X0040057Y0223814D01*
X0039421Y0224276D01*
X0038719Y0224634D01*
X0037971Y0224877D01*
X0037194Y0225000D01*
X0037000Y0225000D01*
X0037000Y0222599D02*
X0036600Y0222599D01*
X0036600Y0221001D02*
X0037000Y0221001D01*
X0037000Y0219402D02*
X0036600Y0219402D01*
X0036600Y0217803D02*
X0037000Y0217803D01*
X0037000Y0216600D02*
X0041800Y0216600D01*
X0041800Y0213206D01*
X0041677Y0212429D01*
X0041434Y0211681D01*
X0041076Y0210979D01*
X0040614Y0210343D01*
X0040057Y0209786D01*
X0039421Y0209324D01*
X0038719Y0208966D01*
X0037971Y0208723D01*
X0037194Y0208600D01*
X0037000Y0208600D01*
X0037000Y0216600D01*
X0037000Y0216205D02*
X0036600Y0216205D01*
X0036600Y0214606D02*
X0037000Y0214606D01*
X0037000Y0213008D02*
X0036600Y0213008D01*
X0036600Y0211409D02*
X0037000Y0211409D01*
X0037000Y0209811D02*
X0036600Y0209811D01*
X0040082Y0209811D02*
X0043518Y0209811D01*
X0043543Y0209786D02*
X0044179Y0209324D01*
X0044881Y0208966D01*
X0045629Y0208723D01*
X0046406Y0208600D01*
X0046600Y0208600D01*
X0046600Y0216600D01*
X0041800Y0216600D01*
X0041800Y0213206D01*
X0041923Y0212429D01*
X0042166Y0211681D01*
X0042524Y0210979D01*
X0042986Y0210343D01*
X0043543Y0209786D01*
X0042304Y0211409D02*
X0041295Y0211409D01*
X0041769Y0213008D02*
X0041831Y0213008D01*
X0041800Y0214606D02*
X0041800Y0214606D01*
X0041800Y0216205D02*
X0041800Y0216205D01*
X0041800Y0217000D02*
X0041800Y0220394D01*
X0041800Y0217000D01*
X0041800Y0217803D02*
X0041800Y0217803D01*
X0041800Y0219402D02*
X0041800Y0219402D01*
X0041704Y0221001D02*
X0041896Y0221001D01*
X0042513Y0222599D02*
X0041087Y0222599D01*
X0039529Y0224198D02*
X0044071Y0224198D01*
X0046600Y0224198D02*
X0047000Y0224198D01*
X0047000Y0225000D02*
X0047000Y0217000D01*
X0046600Y0217000D01*
X0046600Y0216600D01*
X0047000Y0216600D01*
X0047000Y0217000D01*
X0051800Y0217000D01*
X0051800Y0220394D01*
X0051677Y0221171D01*
X0051434Y0221919D01*
X0051076Y0222621D01*
X0050614Y0223257D01*
X0050057Y0223814D01*
X0049421Y0224276D01*
X0048719Y0224634D01*
X0047971Y0224877D01*
X0047194Y0225000D01*
X0047000Y0225000D01*
X0047000Y0222599D02*
X0046600Y0222599D01*
X0046600Y0221001D02*
X0047000Y0221001D01*
X0047000Y0219402D02*
X0046600Y0219402D01*
X0046600Y0217803D02*
X0047000Y0217803D01*
X0047000Y0216600D02*
X0051800Y0216600D01*
X0051800Y0213206D01*
X0051677Y0212429D01*
X0051434Y0211681D01*
X0051076Y0210979D01*
X0050614Y0210343D01*
X0050057Y0209786D01*
X0049421Y0209324D01*
X0048719Y0208966D01*
X0047971Y0208723D01*
X0047194Y0208600D01*
X0047000Y0208600D01*
X0047000Y0216600D01*
X0047000Y0216205D02*
X0046600Y0216205D01*
X0046600Y0214606D02*
X0047000Y0214606D01*
X0047000Y0213008D02*
X0046600Y0213008D01*
X0046600Y0211409D02*
X0047000Y0211409D01*
X0047000Y0209811D02*
X0046600Y0209811D01*
X0050082Y0209811D02*
X0053518Y0209811D01*
X0052304Y0211409D02*
X0051295Y0211409D01*
X0051769Y0213008D02*
X0051831Y0213008D01*
X0051800Y0214606D02*
X0051800Y0214606D01*
X0051800Y0216205D02*
X0051800Y0216205D01*
X0051800Y0217803D02*
X0051800Y0217803D01*
X0051800Y0219402D02*
X0051800Y0219402D01*
X0051704Y0221001D02*
X0051896Y0221001D01*
X0052513Y0222599D02*
X0051087Y0222599D01*
X0049529Y0224198D02*
X0054071Y0224198D01*
X0056600Y0224198D02*
X0057000Y0224198D01*
X0057000Y0222599D02*
X0056600Y0222599D01*
X0056600Y0221001D02*
X0057000Y0221001D01*
X0057000Y0219402D02*
X0056600Y0219402D01*
X0056600Y0217803D02*
X0057000Y0217803D01*
X0057000Y0216205D02*
X0056600Y0216205D01*
X0056600Y0214606D02*
X0057000Y0214606D01*
X0057000Y0213008D02*
X0056600Y0213008D01*
X0056600Y0211409D02*
X0057000Y0211409D01*
X0057000Y0209811D02*
X0056600Y0209811D01*
X0060082Y0209811D02*
X0063518Y0209811D01*
X0062304Y0211409D02*
X0061295Y0211409D01*
X0061769Y0213008D02*
X0061831Y0213008D01*
X0061800Y0214606D02*
X0061800Y0214606D01*
X0061800Y0216205D02*
X0061800Y0216205D01*
X0061800Y0217000D02*
X0061800Y0220394D01*
X0061800Y0217000D01*
X0061800Y0217803D02*
X0061800Y0217803D01*
X0061800Y0219402D02*
X0061800Y0219402D01*
X0061704Y0221001D02*
X0061896Y0221001D01*
X0062513Y0222599D02*
X0061087Y0222599D01*
X0059529Y0224198D02*
X0064071Y0224198D01*
X0066600Y0224198D02*
X0067000Y0224198D01*
X0067000Y0222599D02*
X0066600Y0222599D01*
X0066600Y0221001D02*
X0067000Y0221001D01*
X0067000Y0219402D02*
X0066600Y0219402D01*
X0066600Y0217803D02*
X0067000Y0217803D01*
X0067000Y0216205D02*
X0066600Y0216205D01*
X0066600Y0214606D02*
X0067000Y0214606D01*
X0067000Y0213008D02*
X0066600Y0213008D01*
X0066600Y0211409D02*
X0067000Y0211409D01*
X0067000Y0209811D02*
X0066600Y0209811D01*
X0064398Y0195424D02*
X0088919Y0195424D01*
X0087320Y0193826D02*
X0065997Y0193826D01*
X0066200Y0192227D02*
X0087200Y0192227D01*
X0087200Y0190629D02*
X0066200Y0190629D01*
X0065253Y0189030D02*
X0088064Y0189030D01*
X0089663Y0187432D02*
X0063654Y0187432D01*
X0039946Y0187432D02*
X0039562Y0187432D01*
X0025984Y0160257D02*
X0013600Y0160257D01*
X0013600Y0158659D02*
X0024385Y0158659D01*
X0023366Y0157060D02*
X0013600Y0157060D01*
X0013600Y0155462D02*
X0022600Y0155462D01*
X0022172Y0153863D02*
X0013600Y0153863D01*
X0013600Y0152265D02*
X0022000Y0152265D01*
X0022000Y0150666D02*
X0013600Y0150666D01*
X0013600Y0149068D02*
X0022351Y0149068D01*
X0022830Y0147469D02*
X0013600Y0147469D01*
X0013600Y0145870D02*
X0023753Y0145870D01*
X0025055Y0144272D02*
X0013600Y0144272D01*
X0013600Y0142673D02*
X0027008Y0142673D01*
X0035564Y0126688D02*
X0069400Y0126688D01*
X0070116Y0125090D02*
X0038081Y0125090D01*
X0039011Y0123491D02*
X0071715Y0123491D01*
X0073313Y0121893D02*
X0039300Y0121893D01*
X0039088Y0120294D02*
X0074912Y0120294D01*
X0076510Y0118696D02*
X0038267Y0118696D01*
X0056800Y0105908D02*
X0056800Y0105908D01*
X0056800Y0104309D02*
X0056800Y0104309D01*
X0056800Y0102711D02*
X0056800Y0102711D01*
X0056800Y0101112D02*
X0056800Y0101112D01*
X0056800Y0099514D02*
X0056800Y0099514D01*
X0056800Y0097915D02*
X0056800Y0097915D01*
X0060045Y0097915D02*
X0061950Y0097915D01*
X0061950Y0097887D02*
X0062887Y0096950D01*
X0070713Y0096950D01*
X0071650Y0097887D01*
X0071650Y0105713D01*
X0070713Y0106650D01*
X0062887Y0106650D01*
X0061950Y0105713D01*
X0061950Y0097887D01*
X0061950Y0099514D02*
X0061303Y0099514D01*
X0061804Y0101112D02*
X0061950Y0101112D01*
X0061950Y0102711D02*
X0061769Y0102711D01*
X0061950Y0104309D02*
X0061189Y0104309D01*
X0062145Y0105908D02*
X0059738Y0105908D01*
X0071455Y0105908D02*
X0078862Y0105908D01*
X0079153Y0106119D02*
X0078510Y0105652D01*
X0077948Y0105090D01*
X0077481Y0104447D01*
X0077120Y0103739D01*
X0076874Y0102983D01*
X0076750Y0102197D01*
X0076750Y0101800D01*
X0081800Y0101800D01*
X0086850Y0101800D01*
X0086850Y0102197D01*
X0086726Y0102983D01*
X0086480Y0103739D01*
X0086119Y0104447D01*
X0085652Y0105090D01*
X0085090Y0105652D01*
X0084447Y0106119D01*
X0083739Y0106480D01*
X0082983Y0106726D01*
X0082197Y0106850D01*
X0081800Y0106850D01*
X0081800Y0101800D01*
X0081800Y0101800D01*
X0081800Y0101800D01*
X0086850Y0101800D01*
X0086850Y0101403D01*
X0086726Y0100617D01*
X0086480Y0099861D01*
X0086119Y0099153D01*
X0085652Y0098510D01*
X0085090Y0097948D01*
X0084447Y0097481D01*
X0083739Y0097120D01*
X0082983Y0096874D01*
X0082197Y0096750D01*
X0081800Y0096750D01*
X0081800Y0101800D01*
X0081800Y0101800D01*
X0081800Y0101800D01*
X0081800Y0106850D01*
X0081403Y0106850D01*
X0080617Y0106726D01*
X0079861Y0106480D01*
X0079153Y0106119D01*
X0077411Y0104309D02*
X0071650Y0104309D01*
X0071650Y0102711D02*
X0076831Y0102711D01*
X0076750Y0101800D02*
X0076750Y0101403D01*
X0076874Y0100617D01*
X0077120Y0099861D01*
X0077481Y0099153D01*
X0077948Y0098510D01*
X0078510Y0097948D01*
X0079153Y0097481D01*
X0079861Y0097120D01*
X0080617Y0096874D01*
X0081403Y0096750D01*
X0081800Y0096750D01*
X0081800Y0101800D01*
X0076750Y0101800D01*
X0076796Y0101112D02*
X0071650Y0101112D01*
X0071650Y0099514D02*
X0077297Y0099514D01*
X0078555Y0097915D02*
X0071650Y0097915D01*
X0081800Y0097915D02*
X0081800Y0097915D01*
X0081800Y0099514D02*
X0081800Y0099514D01*
X0081800Y0101112D02*
X0081800Y0101112D01*
X0081800Y0102711D02*
X0081800Y0102711D01*
X0081800Y0104309D02*
X0081800Y0104309D01*
X0081800Y0105908D02*
X0081800Y0105908D01*
X0084738Y0105908D02*
X0087145Y0105908D01*
X0086950Y0104309D02*
X0086189Y0104309D01*
X0086769Y0102711D02*
X0086950Y0102711D01*
X0086950Y0101112D02*
X0086804Y0101112D01*
X0086950Y0099514D02*
X0086303Y0099514D01*
X0086950Y0097915D02*
X0085045Y0097915D01*
X0068838Y0065945D02*
X0066275Y0065945D01*
X0065663Y0064346D02*
X0065613Y0064346D01*
X0138896Y0142673D02*
X0144421Y0142673D01*
X0144895Y0142200D02*
X0146800Y0142200D01*
X0148705Y0142200D01*
X0151400Y0144895D01*
X0151400Y0146800D01*
X0151400Y0148705D01*
X0148705Y0151400D01*
X0146800Y0151400D01*
X0146800Y0146800D01*
X0151400Y0146800D01*
X0146800Y0146800D01*
X0146800Y0146800D01*
X0146800Y0146800D01*
X0146800Y0142200D01*
X0146800Y0146800D01*
X0146800Y0146800D01*
X0146800Y0146800D01*
X0142200Y0146800D01*
X0142200Y0148705D01*
X0144895Y0151400D01*
X0146800Y0151400D01*
X0146800Y0146800D01*
X0142200Y0146800D01*
X0142200Y0144895D01*
X0144895Y0142200D01*
X0146800Y0142673D02*
X0146800Y0142673D01*
X0146800Y0144272D02*
X0146800Y0144272D01*
X0146800Y0145870D02*
X0146800Y0145870D01*
X0146800Y0147469D02*
X0146800Y0147469D01*
X0146800Y0149068D02*
X0146800Y0149068D01*
X0146800Y0150666D02*
X0146800Y0150666D01*
X0149439Y0150666D02*
X0160843Y0150666D01*
X0158345Y0149068D02*
X0151038Y0149068D01*
X0151400Y0147469D02*
X0157522Y0147469D01*
X0157400Y0145870D02*
X0151400Y0145870D01*
X0150777Y0144272D02*
X0157877Y0144272D01*
X0159204Y0142673D02*
X0149179Y0142673D01*
X0142823Y0144272D02*
X0140495Y0144272D01*
X0141200Y0145870D02*
X0142200Y0145870D01*
X0142200Y0147469D02*
X0141200Y0147469D01*
X0140755Y0149068D02*
X0142562Y0149068D01*
X0144161Y0150666D02*
X0139156Y0150666D01*
X0091800Y0161800D02*
X0081800Y0161800D01*
X0082053Y0158659D02*
X0084470Y0158659D01*
X0086778Y0157060D02*
X0080454Y0157060D01*
X0078856Y0155462D02*
X0084708Y0155462D01*
X0144717Y0198621D02*
X0163632Y0198621D01*
X0162293Y0200220D02*
X0146127Y0200220D01*
X0146789Y0201818D02*
X0161703Y0201818D01*
X0161613Y0203417D02*
X0146800Y0203417D01*
X0146360Y0205015D02*
X0162005Y0205015D01*
X0163036Y0206614D02*
X0145281Y0206614D01*
X0144498Y0216205D02*
X0164102Y0216205D01*
X0162563Y0217803D02*
X0146037Y0217803D01*
X0146699Y0219402D02*
X0161901Y0219402D01*
X0161800Y0221001D02*
X0146800Y0221001D01*
X0146450Y0222599D02*
X0162150Y0222599D01*
X0163102Y0224198D02*
X0145498Y0224198D01*
X0143047Y0225796D02*
X0165553Y0225796D01*
X0179026Y0217803D02*
X0182151Y0217803D01*
X0199400Y0227395D02*
X0120094Y0227395D01*
X0121543Y0228993D02*
X0199400Y0228993D01*
X0199400Y0230592D02*
X0122177Y0230592D01*
X0122300Y0232190D02*
X0198016Y0232190D01*
X0196417Y0233789D02*
X0121937Y0233789D01*
X0120991Y0235387D02*
X0194819Y0235387D01*
X0195441Y0234765D02*
X0195441Y0234765D01*
X0196800Y0236800D02*
X0196800Y0250894D01*
X0199200Y0248175D02*
X0199341Y0248175D01*
X0199200Y0244978D02*
X0225652Y0244978D01*
X0227250Y0243380D02*
X0199200Y0243380D01*
X0199200Y0241781D02*
X0228849Y0241781D01*
X0229700Y0240183D02*
X0199200Y0240183D01*
X0199200Y0238584D02*
X0229700Y0238584D01*
X0229700Y0236986D02*
X0200008Y0236986D01*
X0201607Y0235387D02*
X0229700Y0235387D01*
X0229700Y0233789D02*
X0203205Y0233789D01*
X0204200Y0232190D02*
X0229700Y0232190D01*
X0229700Y0230592D02*
X0204200Y0230592D01*
X0204200Y0228993D02*
X0229700Y0228993D01*
X0229700Y0227395D02*
X0204200Y0227395D01*
X0201800Y0231800D02*
X0196800Y0236800D01*
X0201800Y0231800D02*
X0201800Y0146800D01*
X0206800Y0141800D01*
X0216800Y0141800D01*
X0212329Y0145870D02*
X0206124Y0145870D01*
X0207722Y0144272D02*
X0210261Y0144272D01*
X0212958Y0147469D02*
X0204525Y0147469D01*
X0204200Y0149068D02*
X0210510Y0149068D01*
X0209707Y0150666D02*
X0204200Y0150666D01*
X0204200Y0152265D02*
X0209600Y0152265D01*
X0210092Y0153863D02*
X0204200Y0153863D01*
X0204200Y0155462D02*
X0211439Y0155462D01*
X0210919Y0158659D02*
X0204200Y0158659D01*
X0204200Y0160257D02*
X0209877Y0160257D01*
X0209600Y0161856D02*
X0204200Y0161856D01*
X0204200Y0163454D02*
X0209923Y0163454D01*
X0204200Y0157060D02*
X0247500Y0157060D01*
X0216800Y0136279D02*
X0216800Y0136279D01*
X0216800Y0134681D02*
X0216800Y0134681D01*
X0216800Y0133082D02*
X0216800Y0133082D01*
X0216800Y0131484D02*
X0216800Y0131484D01*
X0216800Y0129885D02*
X0216800Y0129885D01*
X0216800Y0128287D02*
X0216800Y0128287D01*
X0206138Y0139476D02*
X0193400Y0139476D01*
X0194000Y0141075D02*
X0204131Y0141075D01*
X0202532Y0142673D02*
X0194000Y0142673D01*
X0193339Y0144272D02*
X0200934Y0144272D01*
X0199587Y0145870D02*
X0191271Y0145870D01*
X0191156Y0147469D02*
X0199400Y0147469D01*
X0199400Y0149068D02*
X0193301Y0149068D01*
X0194068Y0150666D02*
X0199400Y0150666D01*
X0199400Y0152265D02*
X0194184Y0152265D01*
X0193712Y0153863D02*
X0199400Y0153863D01*
X0199400Y0155462D02*
X0192386Y0155462D01*
X0186800Y0155462D02*
X0186800Y0155462D01*
X0186800Y0153863D02*
X0186800Y0153863D01*
X0186800Y0152265D02*
X0186800Y0152265D01*
X0186800Y0150666D02*
X0186800Y0150666D01*
X0186800Y0149068D02*
X0186800Y0149068D01*
X0186800Y0147469D02*
X0186800Y0147469D01*
X0179692Y0110703D02*
X0178973Y0110703D01*
X0180473Y0109105D02*
X0177375Y0109105D01*
X0175776Y0107506D02*
X0179736Y0107506D01*
X0178138Y0105908D02*
X0174178Y0105908D01*
X0172579Y0104309D02*
X0176539Y0104309D01*
X0179500Y0101112D02*
X0179600Y0101112D01*
X0179500Y0099514D02*
X0180184Y0099514D01*
X0179500Y0097915D02*
X0181881Y0097915D01*
X0183125Y0096200D02*
X0181508Y0095530D01*
X0180270Y0094292D01*
X0179600Y0092675D01*
X0179600Y0090925D01*
X0180270Y0089308D01*
X0181508Y0088070D01*
X0183125Y0087400D01*
X0190475Y0087400D01*
X0192092Y0088070D01*
X0193330Y0089308D01*
X0194000Y0090925D01*
X0194000Y0092675D01*
X0193330Y0094292D01*
X0192092Y0095530D01*
X0190475Y0096200D01*
X0183125Y0096200D01*
X0180696Y0094718D02*
X0179500Y0094718D01*
X0179500Y0093120D02*
X0179784Y0093120D01*
X0179600Y0091521D02*
X0179500Y0091521D01*
X0179500Y0089923D02*
X0180015Y0089923D01*
X0179500Y0088324D02*
X0181253Y0088324D01*
X0179500Y0086726D02*
X0194700Y0086726D01*
X0194700Y0088324D02*
X0192347Y0088324D01*
X0193585Y0089923D02*
X0194700Y0089923D01*
X0194700Y0091521D02*
X0194000Y0091521D01*
X0193816Y0093120D02*
X0194700Y0093120D01*
X0194700Y0094718D02*
X0192904Y0094718D01*
X0194314Y0096317D02*
X0179500Y0096317D01*
X0179500Y0085127D02*
X0194700Y0085127D01*
X0194700Y0083529D02*
X0179500Y0083529D01*
X0179500Y0081930D02*
X0194700Y0081930D01*
X0194700Y0080332D02*
X0179500Y0080332D01*
X0179500Y0078733D02*
X0194700Y0078733D01*
X0194165Y0077134D02*
X0179500Y0077134D01*
X0179500Y0075536D02*
X0192566Y0075536D01*
X0190968Y0073937D02*
X0189651Y0073937D01*
X0183949Y0073937D02*
X0179651Y0073937D01*
X0181027Y0072339D02*
X0182573Y0072339D01*
X0182000Y0070740D02*
X0181600Y0070740D01*
X0181600Y0069142D02*
X0182000Y0069142D01*
X0208900Y0075536D02*
X0222566Y0075536D01*
X0220968Y0073937D02*
X0219651Y0073937D01*
X0224165Y0077134D02*
X0208900Y0077134D01*
X0208900Y0078733D02*
X0224700Y0078733D01*
X0224700Y0080332D02*
X0208900Y0080332D01*
X0208900Y0081930D02*
X0224700Y0081930D01*
X0224700Y0083529D02*
X0208900Y0083529D01*
X0208900Y0085127D02*
X0224700Y0085127D01*
X0224700Y0086726D02*
X0208900Y0086726D01*
X0208900Y0088324D02*
X0211253Y0088324D01*
X0211508Y0088070D02*
X0213125Y0087400D01*
X0220475Y0087400D01*
X0222092Y0088070D01*
X0223330Y0089308D01*
X0224000Y0090925D01*
X0224000Y0092675D01*
X0223330Y0094292D01*
X0222092Y0095530D01*
X0220475Y0096200D01*
X0213125Y0096200D01*
X0211508Y0095530D01*
X0210270Y0094292D01*
X0209600Y0092675D01*
X0209600Y0090925D01*
X0210270Y0089308D01*
X0211508Y0088070D01*
X0210015Y0089923D02*
X0208900Y0089923D01*
X0208900Y0091521D02*
X0209600Y0091521D01*
X0209784Y0093120D02*
X0208900Y0093120D01*
X0208900Y0094718D02*
X0210696Y0094718D01*
X0209286Y0096317D02*
X0224700Y0096317D01*
X0224700Y0097915D02*
X0221719Y0097915D01*
X0223415Y0099514D02*
X0224700Y0099514D01*
X0224518Y0101112D02*
X0224000Y0101112D01*
X0224700Y0094718D02*
X0222904Y0094718D01*
X0223816Y0093120D02*
X0224700Y0093120D01*
X0224700Y0091521D02*
X0224000Y0091521D01*
X0223585Y0089923D02*
X0224700Y0089923D01*
X0224700Y0088324D02*
X0222347Y0088324D01*
X0228900Y0080332D02*
X0248473Y0080332D01*
X0247804Y0073937D02*
X0241907Y0073937D01*
X0239165Y0077134D02*
X0228900Y0077134D01*
X0228900Y0078733D02*
X0240763Y0078733D01*
X0237566Y0075536D02*
X0228506Y0075536D01*
X0229651Y0073937D02*
X0235968Y0073937D01*
X0234700Y0072339D02*
X0231027Y0072339D01*
X0231600Y0070740D02*
X0234700Y0070740D01*
X0234700Y0069142D02*
X0231600Y0069142D01*
X0231600Y0067543D02*
X0234700Y0067543D01*
X0234700Y0065945D02*
X0231600Y0065945D01*
X0231600Y0064346D02*
X0234700Y0064346D01*
X0234700Y0062748D02*
X0231600Y0062748D01*
X0230980Y0061149D02*
X0234700Y0061149D01*
X0236079Y0059551D02*
X0229539Y0059551D01*
X0224061Y0059551D02*
X0219539Y0059551D01*
X0220980Y0061149D02*
X0222620Y0061149D01*
X0222000Y0062748D02*
X0221600Y0062748D01*
X0221600Y0064346D02*
X0222000Y0064346D01*
X0222000Y0065945D02*
X0221600Y0065945D01*
X0221600Y0067543D02*
X0222000Y0067543D01*
X0212573Y0072339D02*
X0211027Y0072339D01*
X0211600Y0070740D02*
X0212000Y0070740D01*
X0212000Y0069142D02*
X0211600Y0069142D01*
X0211600Y0067543D02*
X0212000Y0067543D01*
X0212000Y0065945D02*
X0211600Y0065945D01*
X0211600Y0064346D02*
X0212000Y0064346D01*
X0212000Y0062748D02*
X0211600Y0062748D01*
X0210980Y0061149D02*
X0212620Y0061149D01*
X0214061Y0059551D02*
X0209539Y0059551D01*
X0209651Y0073937D02*
X0213949Y0073937D01*
X0211881Y0097915D02*
X0210885Y0097915D01*
X0192715Y0097915D02*
X0191719Y0097915D01*
X0281650Y0035573D02*
X0283714Y0035573D01*
X0284053Y0035912D02*
X0282688Y0034547D01*
X0281950Y0032765D01*
X0281950Y0030835D01*
X0282688Y0029053D01*
X0284053Y0027688D01*
X0285835Y0026950D01*
X0287765Y0026950D01*
X0289547Y0027688D01*
X0290912Y0029053D01*
X0291650Y0030835D01*
X0291650Y0032765D01*
X0290912Y0034547D01*
X0289547Y0035912D01*
X0287765Y0036650D01*
X0285835Y0036650D01*
X0284053Y0035912D01*
X0282451Y0033975D02*
X0281650Y0033975D01*
X0281650Y0032376D02*
X0281950Y0032376D01*
X0281974Y0030778D02*
X0281650Y0030778D01*
X0281650Y0029179D02*
X0282636Y0029179D01*
X0281343Y0027581D02*
X0284313Y0027581D01*
X0289287Y0027581D02*
X0297257Y0027581D01*
X0296950Y0027887D02*
X0297887Y0026950D01*
X0305713Y0026950D01*
X0306650Y0027887D01*
X0306650Y0035713D01*
X0305713Y0036650D01*
X0297887Y0036650D01*
X0296950Y0035713D01*
X0296950Y0027887D01*
X0296950Y0029179D02*
X0290964Y0029179D01*
X0291626Y0030778D02*
X0296950Y0030778D01*
X0296950Y0032376D02*
X0291650Y0032376D01*
X0291149Y0033975D02*
X0296950Y0033975D01*
X0296950Y0035573D02*
X0289886Y0035573D01*
X0306650Y0035573D02*
X0308714Y0035573D01*
X0309053Y0035912D02*
X0307688Y0034547D01*
X0306950Y0032765D01*
X0306950Y0030835D01*
X0307688Y0029053D01*
X0309053Y0027688D01*
X0310835Y0026950D01*
X0312765Y0026950D01*
X0314547Y0027688D01*
X0315912Y0029053D01*
X0316650Y0030835D01*
X0316650Y0032765D01*
X0315912Y0034547D01*
X0314547Y0035912D01*
X0312765Y0036650D01*
X0310835Y0036650D01*
X0309053Y0035912D01*
X0307451Y0033975D02*
X0306650Y0033975D01*
X0306650Y0032376D02*
X0306950Y0032376D01*
X0306974Y0030778D02*
X0306650Y0030778D01*
X0306650Y0029179D02*
X0307636Y0029179D01*
X0306343Y0027581D02*
X0309313Y0027581D01*
X0314287Y0027581D02*
X0322031Y0027581D01*
X0322110Y0027445D02*
X0322445Y0027110D01*
X0322855Y0026873D01*
X0323313Y0026750D01*
X0326800Y0026750D01*
X0330287Y0026750D01*
X0330745Y0026873D01*
X0331155Y0027110D01*
X0331490Y0027445D01*
X0331727Y0027855D01*
X0331850Y0028313D01*
X0331850Y0031800D01*
X0331850Y0035287D01*
X0331727Y0035745D01*
X0331490Y0036155D01*
X0331155Y0036490D01*
X0330745Y0036727D01*
X0330287Y0036850D01*
X0326800Y0036850D01*
X0326800Y0031800D01*
X0326800Y0031800D01*
X0331850Y0031800D01*
X0326800Y0031800D01*
X0326800Y0031800D01*
X0326800Y0031800D01*
X0321750Y0031800D01*
X0321750Y0035287D01*
X0321873Y0035745D01*
X0322110Y0036155D01*
X0322445Y0036490D01*
X0322855Y0036727D01*
X0323313Y0036850D01*
X0326800Y0036850D01*
X0326800Y0031800D01*
X0326800Y0026750D01*
X0326800Y0031800D01*
X0326800Y0031800D01*
X0321750Y0031800D01*
X0321750Y0028313D01*
X0321873Y0027855D01*
X0322110Y0027445D01*
X0321750Y0029179D02*
X0315964Y0029179D01*
X0316626Y0030778D02*
X0321750Y0030778D01*
X0321750Y0032376D02*
X0316650Y0032376D01*
X0316149Y0033975D02*
X0321750Y0033975D01*
X0321827Y0035573D02*
X0314886Y0035573D01*
X0326800Y0035573D02*
X0326800Y0035573D01*
X0326800Y0033975D02*
X0326800Y0033975D01*
X0326800Y0032376D02*
X0326800Y0032376D01*
X0326800Y0030778D02*
X0326800Y0030778D01*
X0326800Y0029179D02*
X0326800Y0029179D01*
X0326800Y0027581D02*
X0326800Y0027581D01*
X0331569Y0027581D02*
X0334313Y0027581D01*
X0332636Y0029179D02*
X0331850Y0029179D01*
X0331850Y0030778D02*
X0331974Y0030778D01*
X0331950Y0032376D02*
X0331850Y0032376D01*
X0331850Y0033975D02*
X0332451Y0033975D01*
X0331773Y0035573D02*
X0333714Y0035573D01*
X0287400Y0089923D02*
X0286400Y0089923D01*
X0285984Y0091521D02*
X0287833Y0091521D01*
X0289097Y0093120D02*
X0284782Y0093120D01*
X0342494Y0150666D02*
X0344500Y0150666D01*
X0344926Y0163454D02*
X0347339Y0163454D01*
X0348148Y0165053D02*
X0346043Y0165053D01*
X0346509Y0166651D02*
X0350253Y0166651D01*
X0349351Y0168250D02*
X0346509Y0168250D01*
X0345863Y0169848D02*
X0347837Y0169848D01*
X0347175Y0171447D02*
X0344491Y0171447D01*
X0342762Y0173045D02*
X0347091Y0173045D01*
X0347457Y0174644D02*
X0345210Y0174644D01*
X0346161Y0176242D02*
X0348432Y0176242D01*
X0346509Y0177841D02*
X0350938Y0177841D01*
X0348784Y0179439D02*
X0346407Y0179439D01*
X0345745Y0181038D02*
X0347529Y0181038D01*
X0346976Y0182636D02*
X0344201Y0182636D01*
X0356349Y0176242D02*
X0358701Y0176242D01*
X0358701Y0174644D02*
X0357324Y0174644D01*
X0357691Y0173045D02*
X0358701Y0173045D01*
X0358701Y0171447D02*
X0357606Y0171447D01*
X0356944Y0169848D02*
X0358701Y0169848D01*
X0358701Y0168250D02*
X0355430Y0168250D01*
X0354528Y0166651D02*
X0358701Y0166651D01*
X0358701Y0165053D02*
X0356633Y0165053D01*
X0357442Y0163454D02*
X0358701Y0163454D01*
X0358701Y0161856D02*
X0357691Y0161856D01*
X0357488Y0160257D02*
X0358701Y0160257D01*
X0358701Y0158659D02*
X0356744Y0158659D01*
X0358701Y0200220D02*
X0351306Y0200220D01*
X0354011Y0201818D02*
X0358701Y0201818D01*
X0358701Y0203417D02*
X0355609Y0203417D01*
X0356732Y0205015D02*
X0358701Y0205015D01*
X0358701Y0206614D02*
X0357631Y0206614D01*
X0358059Y0208212D02*
X0358701Y0208212D01*
X0358701Y0209811D02*
X0358400Y0209811D01*
X0358400Y0211409D02*
X0358701Y0211409D01*
X0358701Y0213008D02*
X0358275Y0213008D01*
X0358701Y0214606D02*
X0357846Y0214606D01*
X0357197Y0216205D02*
X0358701Y0216205D01*
X0358701Y0217803D02*
X0356274Y0217803D01*
X0354815Y0219402D02*
X0358701Y0219402D01*
X0358701Y0221001D02*
X0352700Y0221001D01*
X0348378Y0222599D02*
X0358701Y0222599D01*
X0358701Y0224198D02*
X0259202Y0224198D01*
X0259069Y0224519D02*
X0257719Y0225869D01*
X0255955Y0226600D01*
X0247645Y0226600D01*
X0245881Y0225869D01*
X0244531Y0224519D01*
X0243800Y0222755D01*
X0243800Y0220845D01*
X0244531Y0219081D01*
X0245881Y0217731D01*
X0247645Y0217000D01*
X0255955Y0217000D01*
X0257719Y0217731D01*
X0259069Y0219081D01*
X0259800Y0220845D01*
X0259800Y0222755D01*
X0259069Y0224519D01*
X0257792Y0225796D02*
X0358701Y0225796D01*
X0358701Y0227395D02*
X0233900Y0227395D01*
X0233900Y0228993D02*
X0358701Y0228993D01*
X0358701Y0230592D02*
X0233900Y0230592D01*
X0233900Y0232190D02*
X0358701Y0232190D01*
X0358701Y0233789D02*
X0233900Y0233789D01*
X0233900Y0235387D02*
X0358701Y0235387D01*
X0358701Y0236986D02*
X0233900Y0236986D01*
X0233900Y0238584D02*
X0358701Y0238584D01*
X0358701Y0240183D02*
X0233900Y0240183D01*
X0233900Y0241781D02*
X0358701Y0241781D01*
X0358701Y0243380D02*
X0233190Y0243380D01*
X0231592Y0244978D02*
X0358701Y0244978D01*
X0358701Y0246577D02*
X0229993Y0246577D01*
X0228395Y0248175D02*
X0358701Y0248175D01*
X0358701Y0249774D02*
X0226796Y0249774D01*
X0225198Y0251372D02*
X0358701Y0251372D01*
X0358701Y0252971D02*
X0223599Y0252971D01*
X0216750Y0254569D02*
X0358701Y0254569D01*
X0358701Y0259365D02*
X0355509Y0259365D01*
X0356159Y0260963D02*
X0358701Y0260963D01*
X0358701Y0262562D02*
X0356159Y0262562D01*
X0355541Y0264160D02*
X0358701Y0264160D01*
X0358701Y0265759D02*
X0353633Y0265759D01*
X0349967Y0265759D02*
X0023633Y0265759D01*
X0025541Y0264160D02*
X0348059Y0264160D01*
X0347441Y0262562D02*
X0026159Y0262562D01*
X0026159Y0260963D02*
X0347441Y0260963D01*
X0348090Y0259365D02*
X0025509Y0259365D01*
X0018090Y0259365D02*
X0013600Y0259365D01*
X0013600Y0260963D02*
X0017441Y0260963D01*
X0017441Y0262562D02*
X0013600Y0262562D01*
X0013600Y0264160D02*
X0018059Y0264160D01*
X0019967Y0265759D02*
X0013600Y0265759D01*
X0013600Y0267357D02*
X0358701Y0267357D01*
X0358701Y0268956D02*
X0013600Y0268956D01*
X0030209Y0243380D02*
X0033391Y0243380D01*
X0032342Y0241781D02*
X0031258Y0241781D01*
X0031600Y0240183D02*
X0032000Y0240183D01*
X0032000Y0233789D02*
X0031600Y0233789D01*
X0031411Y0232190D02*
X0032189Y0232190D01*
X0033020Y0230592D02*
X0030580Y0230592D01*
X0040580Y0230592D02*
X0043020Y0230592D01*
X0042189Y0232190D02*
X0041411Y0232190D01*
X0041600Y0233789D02*
X0042000Y0233789D01*
X0042000Y0235387D02*
X0041600Y0235387D01*
X0021700Y0225796D02*
X0139953Y0225796D01*
X0141079Y0238584D02*
X0153228Y0238584D01*
X0152000Y0240183D02*
X0141867Y0240183D01*
X0142100Y0241781D02*
X0152000Y0241781D01*
X0152000Y0243380D02*
X0141882Y0243380D01*
X0141117Y0244978D02*
X0153190Y0244978D01*
X0154788Y0246577D02*
X0139118Y0246577D01*
X0122100Y0251372D02*
X0172400Y0251372D01*
X0172400Y0249977D02*
X0174977Y0247400D01*
X0178623Y0247400D01*
X0181200Y0249977D01*
X0181200Y0253623D01*
X0178623Y0256200D01*
X0174977Y0256200D01*
X0172400Y0253623D01*
X0172400Y0249977D01*
X0172604Y0249774D02*
X0121697Y0249774D01*
X0120671Y0248175D02*
X0174202Y0248175D01*
X0179398Y0248175D02*
X0186195Y0248175D01*
X0185811Y0249774D02*
X0180996Y0249774D01*
X0181200Y0251372D02*
X0185811Y0251372D01*
X0185811Y0252971D02*
X0181200Y0252971D01*
X0180253Y0254569D02*
X0185811Y0254569D01*
X0178655Y0256168D02*
X0201391Y0256168D01*
X0174945Y0256168D02*
X0119928Y0256168D01*
X0121390Y0254569D02*
X0173347Y0254569D01*
X0172400Y0252971D02*
X0122052Y0252971D01*
X0222235Y0208212D02*
X0245399Y0208212D01*
X0244228Y0209811D02*
X0227781Y0209811D01*
X0229379Y0211409D02*
X0243800Y0211409D01*
X0243905Y0213008D02*
X0230978Y0213008D01*
X0232576Y0214606D02*
X0244618Y0214606D01*
X0246692Y0216205D02*
X0233900Y0216205D01*
X0233900Y0217803D02*
X0245808Y0217803D01*
X0244398Y0219402D02*
X0233900Y0219402D01*
X0233900Y0221001D02*
X0243800Y0221001D01*
X0243800Y0222599D02*
X0233900Y0222599D01*
X0233900Y0224198D02*
X0244398Y0224198D01*
X0245808Y0225796D02*
X0233900Y0225796D01*
X0256908Y0216205D02*
X0336403Y0216205D01*
X0335754Y0214606D02*
X0258982Y0214606D01*
X0259695Y0213008D02*
X0335325Y0213008D01*
X0335200Y0211409D02*
X0259800Y0211409D01*
X0259372Y0209811D02*
X0335200Y0209811D01*
X0337326Y0217803D02*
X0257792Y0217803D01*
X0259202Y0219402D02*
X0338785Y0219402D01*
X0340900Y0221001D02*
X0259800Y0221001D01*
X0259800Y0222599D02*
X0345222Y0222599D01*
X0245027Y0205015D02*
X0222607Y0205015D01*
X0223693Y0203417D02*
X0244074Y0203417D01*
X0243800Y0201818D02*
X0224000Y0201818D01*
X0223708Y0200220D02*
X0244059Y0200220D01*
X0244990Y0198621D02*
X0222644Y0198621D01*
M02*
