G75*
%MOIN*%
%OFA0B0*%
%FSLAX25Y25*%
%IPPOS*%
%LPD*%
%AMOC8*
5,1,8,0,0,1.08239X$1,22.5*
%
%ADD10C,0.05918*%
%ADD11OC8,0.06400*%
%ADD12R,0.07300X0.07300*%
%ADD13C,0.07300*%
%ADD14C,0.07600*%
%ADD15C,0.17398*%
%ADD16C,0.17000*%
%ADD17C,0.07200*%
%ADD18C,0.06400*%
%ADD19C,0.07600*%
%ADD20C,0.13800*%
%ADD21R,0.05956X0.05956*%
%ADD22C,0.05956*%
%ADD23OC8,0.07200*%
%ADD24R,0.08200X0.08200*%
%ADD25C,0.08200*%
%ADD26C,0.20800*%
%ADD27C,0.07400*%
%ADD28C,0.06400*%
D10*
X0021800Y0016800D03*
X0021800Y0261800D03*
X0351800Y0261800D03*
X0351800Y0016800D03*
D11*
X0251800Y0041800D03*
X0251800Y0051800D03*
X0231800Y0131800D03*
X0231800Y0141800D03*
X0146800Y0146800D03*
X0136800Y0146800D03*
X0136800Y0126800D03*
X0146800Y0126800D03*
X0091800Y0191800D03*
X0061800Y0191800D03*
X0041800Y0191800D03*
X0031800Y0191800D03*
X0176800Y0221800D03*
X0176800Y0251800D03*
D12*
X0091800Y0101800D03*
X0066800Y0101800D03*
X0251800Y0066800D03*
X0276800Y0031800D03*
X0301800Y0031800D03*
X0326800Y0031800D03*
D13*
X0336800Y0031800D03*
X0311800Y0031800D03*
X0286800Y0031800D03*
X0251800Y0076800D03*
X0081800Y0101800D03*
X0056800Y0101800D03*
D14*
X0034300Y0081800D03*
X0034300Y0121800D03*
D15*
X0056800Y0068937D03*
D16*
X0071609Y0056426D03*
X0056900Y0040115D03*
D17*
X0166800Y0063600D02*
X0166800Y0070000D01*
X0176800Y0070000D02*
X0176800Y0063600D01*
X0186800Y0063600D02*
X0186800Y0070000D01*
X0196800Y0070000D02*
X0196800Y0063600D01*
X0206800Y0063600D02*
X0206800Y0070000D01*
X0216800Y0070000D02*
X0216800Y0063600D01*
X0226800Y0063600D02*
X0226800Y0070000D01*
X0248600Y0111800D02*
X0255000Y0111800D01*
X0255000Y0121800D02*
X0248600Y0121800D01*
X0248600Y0131800D02*
X0255000Y0131800D01*
X0255000Y0151800D02*
X0248600Y0151800D01*
X0248600Y0161800D02*
X0255000Y0161800D01*
X0255000Y0171800D02*
X0248600Y0171800D01*
X0248600Y0181800D02*
X0255000Y0181800D01*
X0255000Y0191800D02*
X0248600Y0191800D01*
X0248600Y0201800D02*
X0255000Y0201800D01*
X0255000Y0211800D02*
X0248600Y0211800D01*
X0248600Y0221800D02*
X0255000Y0221800D01*
X0127500Y0211800D02*
X0121100Y0211800D01*
X0121100Y0201800D02*
X0127500Y0201800D01*
X0127500Y0191800D02*
X0121100Y0191800D01*
X0121100Y0181800D02*
X0127500Y0181800D01*
X0127500Y0171800D02*
X0121100Y0171800D01*
X0121100Y0161800D02*
X0127500Y0161800D01*
X0096800Y0213600D02*
X0096800Y0220000D01*
X0086800Y0220000D02*
X0086800Y0213600D01*
X0076800Y0213600D02*
X0076800Y0220000D01*
X0066800Y0220000D02*
X0066800Y0213600D01*
X0056800Y0213600D02*
X0056800Y0220000D01*
X0046800Y0220000D02*
X0046800Y0213600D01*
X0036800Y0213600D02*
X0036800Y0220000D01*
X0026800Y0220000D02*
X0026800Y0213600D01*
X0026800Y0233600D02*
X0026800Y0240000D01*
X0036800Y0240000D02*
X0036800Y0233600D01*
X0046800Y0233600D02*
X0046800Y0240000D01*
X0056800Y0240000D02*
X0056800Y0233600D01*
X0066800Y0233600D02*
X0066800Y0240000D01*
X0076800Y0240000D02*
X0076800Y0233600D01*
X0086800Y0233600D02*
X0086800Y0240000D01*
X0096800Y0240000D02*
X0096800Y0233600D01*
D18*
X0184000Y0221800D02*
X0189600Y0221800D01*
X0189600Y0211800D02*
X0184000Y0211800D01*
X0184000Y0201800D02*
X0189600Y0201800D01*
X0189600Y0191800D02*
X0184000Y0191800D01*
X0184000Y0181800D02*
X0189600Y0181800D01*
X0189600Y0171800D02*
X0184000Y0171800D01*
X0184000Y0161800D02*
X0189600Y0161800D01*
X0189600Y0151800D02*
X0184000Y0151800D01*
X0184000Y0141800D02*
X0189600Y0141800D01*
X0189600Y0131800D02*
X0184000Y0131800D01*
X0184000Y0121800D02*
X0189600Y0121800D01*
X0189600Y0111800D02*
X0184000Y0111800D01*
X0184000Y0101800D02*
X0189600Y0101800D01*
X0189600Y0091800D02*
X0184000Y0091800D01*
X0214000Y0091800D02*
X0219600Y0091800D01*
X0219600Y0101800D02*
X0214000Y0101800D01*
X0214000Y0111800D02*
X0219600Y0111800D01*
X0219600Y0121800D02*
X0214000Y0121800D01*
X0214000Y0131800D02*
X0219600Y0131800D01*
X0219600Y0141800D02*
X0214000Y0141800D01*
X0214000Y0151800D02*
X0219600Y0151800D01*
X0219600Y0161800D02*
X0214000Y0161800D01*
X0214000Y0171800D02*
X0219600Y0171800D01*
X0219600Y0181800D02*
X0214000Y0181800D01*
X0214000Y0191800D02*
X0219600Y0191800D01*
X0219600Y0201800D02*
X0214000Y0201800D01*
X0214000Y0211800D02*
X0219600Y0211800D01*
X0219600Y0221800D02*
X0214000Y0221800D01*
X0271800Y0089600D02*
X0271800Y0084000D01*
X0281800Y0084000D02*
X0281800Y0089600D01*
X0291800Y0089600D02*
X0291800Y0084000D01*
X0301800Y0084000D02*
X0301800Y0089600D01*
X0311800Y0089600D02*
X0311800Y0084000D01*
X0321800Y0084000D02*
X0321800Y0089600D01*
X0331800Y0089600D02*
X0331800Y0084000D01*
X0341800Y0084000D02*
X0341800Y0089600D01*
X0341800Y0059600D02*
X0341800Y0054000D01*
X0331800Y0054000D02*
X0331800Y0059600D01*
X0321800Y0059600D02*
X0321800Y0054000D01*
X0311800Y0054000D02*
X0311800Y0059600D01*
X0301800Y0059600D02*
X0301800Y0054000D01*
X0291800Y0054000D02*
X0291800Y0059600D01*
X0281800Y0059600D02*
X0281800Y0054000D01*
X0271800Y0054000D02*
X0271800Y0059600D01*
D19*
X0095200Y0141800D02*
X0088400Y0141800D01*
X0088400Y0151800D02*
X0095200Y0151800D01*
X0095200Y0161800D02*
X0088400Y0161800D01*
D20*
X0032800Y0151800D03*
X0093100Y0051100D03*
X0140500Y0051100D03*
D21*
X0189989Y0251800D03*
D22*
X0195894Y0251800D03*
X0201800Y0251800D03*
X0207706Y0251800D03*
X0213611Y0251800D03*
D23*
X0156800Y0241800D03*
D24*
X0352391Y0139989D03*
D25*
X0341209Y0145461D03*
X0352391Y0150894D03*
X0341209Y0156367D03*
X0341209Y0167233D03*
X0352391Y0161800D03*
X0352391Y0172706D03*
X0341209Y0178139D03*
X0352391Y0183611D03*
X0167100Y0202900D03*
X0167100Y0220700D03*
X0141500Y0220700D03*
X0141500Y0202900D03*
X0116800Y0231800D03*
X0136800Y0241800D03*
X0116800Y0251800D03*
D26*
X0346800Y0211013D03*
X0346800Y0112587D03*
D27*
X0121721Y0069600D03*
X0121721Y0061800D03*
X0111879Y0061800D03*
X0111879Y0069600D03*
D28*
X0161800Y0127300D03*
X0161800Y0146300D03*
M02*
