%
M48
M72
T01C0.03200
T02C0.04000
T03C0.04700
T04C0.05118
%
T01
X91800Y71800
X91800Y81800
X91800Y91800
X91800Y101800
X91800Y111800
X91800Y121800
X91800Y131800
X91800Y141800
X121800Y141800
X121800Y131800
X121800Y121800
X121800Y111800
X121800Y101800
X121800Y91800
X121800Y81800
X121800Y71800
X46800Y146800
X36800Y146800
X36800Y166800
X46800Y166800
T02
X81800Y171800
X91800Y171800
X101800Y171800
X111800Y171800
X146800Y171800
X156800Y171800
X166800Y171800
X176800Y171800
T03
X166800Y121643
X166800Y101957
X166800Y66643
X166800Y46957
X46800Y46957
X46800Y66643
X46800Y101957
X46800Y121643
T04
X16800Y26800
X16800Y191800
X196800Y191800
X196800Y26800
M30
