G75*
%MOIN*%
%OFA0B0*%
%FSLAX25Y25*%
%IPPOS*%
%LPD*%
%AMOC8*
5,1,8,0,0,1.08239X$1,22.5*
%
%ADD10C,0.00000*%
%ADD11C,0.05600*%
%ADD12C,0.06400*%
%ADD13C,0.07100*%
%ADD14OC8,0.06300*%
%ADD15C,0.01000*%
%ADD16C,0.01600*%
D10*
X0006800Y0016800D02*
X0006800Y0201761D01*
X0205501Y0201761D01*
X0205501Y0016800D01*
X0006800Y0016800D01*
X0014241Y0026800D02*
X0014243Y0026901D01*
X0014249Y0027002D01*
X0014259Y0027103D01*
X0014273Y0027203D01*
X0014291Y0027302D01*
X0014313Y0027401D01*
X0014338Y0027499D01*
X0014368Y0027596D01*
X0014401Y0027691D01*
X0014438Y0027785D01*
X0014479Y0027878D01*
X0014523Y0027969D01*
X0014571Y0028058D01*
X0014623Y0028145D01*
X0014678Y0028230D01*
X0014736Y0028312D01*
X0014797Y0028393D01*
X0014862Y0028471D01*
X0014929Y0028546D01*
X0014999Y0028618D01*
X0015073Y0028688D01*
X0015149Y0028755D01*
X0015227Y0028819D01*
X0015308Y0028879D01*
X0015391Y0028936D01*
X0015477Y0028990D01*
X0015565Y0029041D01*
X0015654Y0029088D01*
X0015745Y0029132D01*
X0015838Y0029171D01*
X0015933Y0029208D01*
X0016028Y0029240D01*
X0016125Y0029269D01*
X0016224Y0029293D01*
X0016322Y0029314D01*
X0016422Y0029331D01*
X0016522Y0029344D01*
X0016623Y0029353D01*
X0016724Y0029358D01*
X0016825Y0029359D01*
X0016926Y0029356D01*
X0017027Y0029349D01*
X0017128Y0029338D01*
X0017228Y0029323D01*
X0017327Y0029304D01*
X0017426Y0029281D01*
X0017523Y0029255D01*
X0017620Y0029224D01*
X0017715Y0029190D01*
X0017808Y0029152D01*
X0017901Y0029110D01*
X0017991Y0029065D01*
X0018080Y0029016D01*
X0018166Y0028964D01*
X0018250Y0028908D01*
X0018333Y0028849D01*
X0018412Y0028787D01*
X0018490Y0028722D01*
X0018564Y0028654D01*
X0018636Y0028582D01*
X0018705Y0028509D01*
X0018771Y0028432D01*
X0018834Y0028353D01*
X0018894Y0028271D01*
X0018950Y0028187D01*
X0019003Y0028101D01*
X0019053Y0028013D01*
X0019099Y0027923D01*
X0019142Y0027832D01*
X0019181Y0027738D01*
X0019216Y0027643D01*
X0019247Y0027547D01*
X0019275Y0027450D01*
X0019299Y0027352D01*
X0019319Y0027253D01*
X0019335Y0027153D01*
X0019347Y0027052D01*
X0019355Y0026952D01*
X0019359Y0026851D01*
X0019359Y0026749D01*
X0019355Y0026648D01*
X0019347Y0026548D01*
X0019335Y0026447D01*
X0019319Y0026347D01*
X0019299Y0026248D01*
X0019275Y0026150D01*
X0019247Y0026053D01*
X0019216Y0025957D01*
X0019181Y0025862D01*
X0019142Y0025768D01*
X0019099Y0025677D01*
X0019053Y0025587D01*
X0019003Y0025499D01*
X0018950Y0025413D01*
X0018894Y0025329D01*
X0018834Y0025247D01*
X0018771Y0025168D01*
X0018705Y0025091D01*
X0018636Y0025018D01*
X0018564Y0024946D01*
X0018490Y0024878D01*
X0018412Y0024813D01*
X0018333Y0024751D01*
X0018250Y0024692D01*
X0018166Y0024636D01*
X0018079Y0024584D01*
X0017991Y0024535D01*
X0017901Y0024490D01*
X0017808Y0024448D01*
X0017715Y0024410D01*
X0017620Y0024376D01*
X0017523Y0024345D01*
X0017426Y0024319D01*
X0017327Y0024296D01*
X0017228Y0024277D01*
X0017128Y0024262D01*
X0017027Y0024251D01*
X0016926Y0024244D01*
X0016825Y0024241D01*
X0016724Y0024242D01*
X0016623Y0024247D01*
X0016522Y0024256D01*
X0016422Y0024269D01*
X0016322Y0024286D01*
X0016224Y0024307D01*
X0016125Y0024331D01*
X0016028Y0024360D01*
X0015933Y0024392D01*
X0015838Y0024429D01*
X0015745Y0024468D01*
X0015654Y0024512D01*
X0015565Y0024559D01*
X0015477Y0024610D01*
X0015391Y0024664D01*
X0015308Y0024721D01*
X0015227Y0024781D01*
X0015149Y0024845D01*
X0015073Y0024912D01*
X0014999Y0024982D01*
X0014929Y0025054D01*
X0014862Y0025129D01*
X0014797Y0025207D01*
X0014736Y0025288D01*
X0014678Y0025370D01*
X0014623Y0025455D01*
X0014571Y0025542D01*
X0014523Y0025631D01*
X0014479Y0025722D01*
X0014438Y0025815D01*
X0014401Y0025909D01*
X0014368Y0026004D01*
X0014338Y0026101D01*
X0014313Y0026199D01*
X0014291Y0026298D01*
X0014273Y0026397D01*
X0014259Y0026497D01*
X0014249Y0026598D01*
X0014243Y0026699D01*
X0014241Y0026800D01*
X0014241Y0191800D02*
X0014243Y0191901D01*
X0014249Y0192002D01*
X0014259Y0192103D01*
X0014273Y0192203D01*
X0014291Y0192302D01*
X0014313Y0192401D01*
X0014338Y0192499D01*
X0014368Y0192596D01*
X0014401Y0192691D01*
X0014438Y0192785D01*
X0014479Y0192878D01*
X0014523Y0192969D01*
X0014571Y0193058D01*
X0014623Y0193145D01*
X0014678Y0193230D01*
X0014736Y0193312D01*
X0014797Y0193393D01*
X0014862Y0193471D01*
X0014929Y0193546D01*
X0014999Y0193618D01*
X0015073Y0193688D01*
X0015149Y0193755D01*
X0015227Y0193819D01*
X0015308Y0193879D01*
X0015391Y0193936D01*
X0015477Y0193990D01*
X0015565Y0194041D01*
X0015654Y0194088D01*
X0015745Y0194132D01*
X0015838Y0194171D01*
X0015933Y0194208D01*
X0016028Y0194240D01*
X0016125Y0194269D01*
X0016224Y0194293D01*
X0016322Y0194314D01*
X0016422Y0194331D01*
X0016522Y0194344D01*
X0016623Y0194353D01*
X0016724Y0194358D01*
X0016825Y0194359D01*
X0016926Y0194356D01*
X0017027Y0194349D01*
X0017128Y0194338D01*
X0017228Y0194323D01*
X0017327Y0194304D01*
X0017426Y0194281D01*
X0017523Y0194255D01*
X0017620Y0194224D01*
X0017715Y0194190D01*
X0017808Y0194152D01*
X0017901Y0194110D01*
X0017991Y0194065D01*
X0018080Y0194016D01*
X0018166Y0193964D01*
X0018250Y0193908D01*
X0018333Y0193849D01*
X0018412Y0193787D01*
X0018490Y0193722D01*
X0018564Y0193654D01*
X0018636Y0193582D01*
X0018705Y0193509D01*
X0018771Y0193432D01*
X0018834Y0193353D01*
X0018894Y0193271D01*
X0018950Y0193187D01*
X0019003Y0193101D01*
X0019053Y0193013D01*
X0019099Y0192923D01*
X0019142Y0192832D01*
X0019181Y0192738D01*
X0019216Y0192643D01*
X0019247Y0192547D01*
X0019275Y0192450D01*
X0019299Y0192352D01*
X0019319Y0192253D01*
X0019335Y0192153D01*
X0019347Y0192052D01*
X0019355Y0191952D01*
X0019359Y0191851D01*
X0019359Y0191749D01*
X0019355Y0191648D01*
X0019347Y0191548D01*
X0019335Y0191447D01*
X0019319Y0191347D01*
X0019299Y0191248D01*
X0019275Y0191150D01*
X0019247Y0191053D01*
X0019216Y0190957D01*
X0019181Y0190862D01*
X0019142Y0190768D01*
X0019099Y0190677D01*
X0019053Y0190587D01*
X0019003Y0190499D01*
X0018950Y0190413D01*
X0018894Y0190329D01*
X0018834Y0190247D01*
X0018771Y0190168D01*
X0018705Y0190091D01*
X0018636Y0190018D01*
X0018564Y0189946D01*
X0018490Y0189878D01*
X0018412Y0189813D01*
X0018333Y0189751D01*
X0018250Y0189692D01*
X0018166Y0189636D01*
X0018079Y0189584D01*
X0017991Y0189535D01*
X0017901Y0189490D01*
X0017808Y0189448D01*
X0017715Y0189410D01*
X0017620Y0189376D01*
X0017523Y0189345D01*
X0017426Y0189319D01*
X0017327Y0189296D01*
X0017228Y0189277D01*
X0017128Y0189262D01*
X0017027Y0189251D01*
X0016926Y0189244D01*
X0016825Y0189241D01*
X0016724Y0189242D01*
X0016623Y0189247D01*
X0016522Y0189256D01*
X0016422Y0189269D01*
X0016322Y0189286D01*
X0016224Y0189307D01*
X0016125Y0189331D01*
X0016028Y0189360D01*
X0015933Y0189392D01*
X0015838Y0189429D01*
X0015745Y0189468D01*
X0015654Y0189512D01*
X0015565Y0189559D01*
X0015477Y0189610D01*
X0015391Y0189664D01*
X0015308Y0189721D01*
X0015227Y0189781D01*
X0015149Y0189845D01*
X0015073Y0189912D01*
X0014999Y0189982D01*
X0014929Y0190054D01*
X0014862Y0190129D01*
X0014797Y0190207D01*
X0014736Y0190288D01*
X0014678Y0190370D01*
X0014623Y0190455D01*
X0014571Y0190542D01*
X0014523Y0190631D01*
X0014479Y0190722D01*
X0014438Y0190815D01*
X0014401Y0190909D01*
X0014368Y0191004D01*
X0014338Y0191101D01*
X0014313Y0191199D01*
X0014291Y0191298D01*
X0014273Y0191397D01*
X0014259Y0191497D01*
X0014249Y0191598D01*
X0014243Y0191699D01*
X0014241Y0191800D01*
X0194241Y0191800D02*
X0194243Y0191901D01*
X0194249Y0192002D01*
X0194259Y0192103D01*
X0194273Y0192203D01*
X0194291Y0192302D01*
X0194313Y0192401D01*
X0194338Y0192499D01*
X0194368Y0192596D01*
X0194401Y0192691D01*
X0194438Y0192785D01*
X0194479Y0192878D01*
X0194523Y0192969D01*
X0194571Y0193058D01*
X0194623Y0193145D01*
X0194678Y0193230D01*
X0194736Y0193312D01*
X0194797Y0193393D01*
X0194862Y0193471D01*
X0194929Y0193546D01*
X0194999Y0193618D01*
X0195073Y0193688D01*
X0195149Y0193755D01*
X0195227Y0193819D01*
X0195308Y0193879D01*
X0195391Y0193936D01*
X0195477Y0193990D01*
X0195565Y0194041D01*
X0195654Y0194088D01*
X0195745Y0194132D01*
X0195838Y0194171D01*
X0195933Y0194208D01*
X0196028Y0194240D01*
X0196125Y0194269D01*
X0196224Y0194293D01*
X0196322Y0194314D01*
X0196422Y0194331D01*
X0196522Y0194344D01*
X0196623Y0194353D01*
X0196724Y0194358D01*
X0196825Y0194359D01*
X0196926Y0194356D01*
X0197027Y0194349D01*
X0197128Y0194338D01*
X0197228Y0194323D01*
X0197327Y0194304D01*
X0197426Y0194281D01*
X0197523Y0194255D01*
X0197620Y0194224D01*
X0197715Y0194190D01*
X0197808Y0194152D01*
X0197901Y0194110D01*
X0197991Y0194065D01*
X0198080Y0194016D01*
X0198166Y0193964D01*
X0198250Y0193908D01*
X0198333Y0193849D01*
X0198412Y0193787D01*
X0198490Y0193722D01*
X0198564Y0193654D01*
X0198636Y0193582D01*
X0198705Y0193509D01*
X0198771Y0193432D01*
X0198834Y0193353D01*
X0198894Y0193271D01*
X0198950Y0193187D01*
X0199003Y0193101D01*
X0199053Y0193013D01*
X0199099Y0192923D01*
X0199142Y0192832D01*
X0199181Y0192738D01*
X0199216Y0192643D01*
X0199247Y0192547D01*
X0199275Y0192450D01*
X0199299Y0192352D01*
X0199319Y0192253D01*
X0199335Y0192153D01*
X0199347Y0192052D01*
X0199355Y0191952D01*
X0199359Y0191851D01*
X0199359Y0191749D01*
X0199355Y0191648D01*
X0199347Y0191548D01*
X0199335Y0191447D01*
X0199319Y0191347D01*
X0199299Y0191248D01*
X0199275Y0191150D01*
X0199247Y0191053D01*
X0199216Y0190957D01*
X0199181Y0190862D01*
X0199142Y0190768D01*
X0199099Y0190677D01*
X0199053Y0190587D01*
X0199003Y0190499D01*
X0198950Y0190413D01*
X0198894Y0190329D01*
X0198834Y0190247D01*
X0198771Y0190168D01*
X0198705Y0190091D01*
X0198636Y0190018D01*
X0198564Y0189946D01*
X0198490Y0189878D01*
X0198412Y0189813D01*
X0198333Y0189751D01*
X0198250Y0189692D01*
X0198166Y0189636D01*
X0198079Y0189584D01*
X0197991Y0189535D01*
X0197901Y0189490D01*
X0197808Y0189448D01*
X0197715Y0189410D01*
X0197620Y0189376D01*
X0197523Y0189345D01*
X0197426Y0189319D01*
X0197327Y0189296D01*
X0197228Y0189277D01*
X0197128Y0189262D01*
X0197027Y0189251D01*
X0196926Y0189244D01*
X0196825Y0189241D01*
X0196724Y0189242D01*
X0196623Y0189247D01*
X0196522Y0189256D01*
X0196422Y0189269D01*
X0196322Y0189286D01*
X0196224Y0189307D01*
X0196125Y0189331D01*
X0196028Y0189360D01*
X0195933Y0189392D01*
X0195838Y0189429D01*
X0195745Y0189468D01*
X0195654Y0189512D01*
X0195565Y0189559D01*
X0195477Y0189610D01*
X0195391Y0189664D01*
X0195308Y0189721D01*
X0195227Y0189781D01*
X0195149Y0189845D01*
X0195073Y0189912D01*
X0194999Y0189982D01*
X0194929Y0190054D01*
X0194862Y0190129D01*
X0194797Y0190207D01*
X0194736Y0190288D01*
X0194678Y0190370D01*
X0194623Y0190455D01*
X0194571Y0190542D01*
X0194523Y0190631D01*
X0194479Y0190722D01*
X0194438Y0190815D01*
X0194401Y0190909D01*
X0194368Y0191004D01*
X0194338Y0191101D01*
X0194313Y0191199D01*
X0194291Y0191298D01*
X0194273Y0191397D01*
X0194259Y0191497D01*
X0194249Y0191598D01*
X0194243Y0191699D01*
X0194241Y0191800D01*
X0194241Y0026800D02*
X0194243Y0026901D01*
X0194249Y0027002D01*
X0194259Y0027103D01*
X0194273Y0027203D01*
X0194291Y0027302D01*
X0194313Y0027401D01*
X0194338Y0027499D01*
X0194368Y0027596D01*
X0194401Y0027691D01*
X0194438Y0027785D01*
X0194479Y0027878D01*
X0194523Y0027969D01*
X0194571Y0028058D01*
X0194623Y0028145D01*
X0194678Y0028230D01*
X0194736Y0028312D01*
X0194797Y0028393D01*
X0194862Y0028471D01*
X0194929Y0028546D01*
X0194999Y0028618D01*
X0195073Y0028688D01*
X0195149Y0028755D01*
X0195227Y0028819D01*
X0195308Y0028879D01*
X0195391Y0028936D01*
X0195477Y0028990D01*
X0195565Y0029041D01*
X0195654Y0029088D01*
X0195745Y0029132D01*
X0195838Y0029171D01*
X0195933Y0029208D01*
X0196028Y0029240D01*
X0196125Y0029269D01*
X0196224Y0029293D01*
X0196322Y0029314D01*
X0196422Y0029331D01*
X0196522Y0029344D01*
X0196623Y0029353D01*
X0196724Y0029358D01*
X0196825Y0029359D01*
X0196926Y0029356D01*
X0197027Y0029349D01*
X0197128Y0029338D01*
X0197228Y0029323D01*
X0197327Y0029304D01*
X0197426Y0029281D01*
X0197523Y0029255D01*
X0197620Y0029224D01*
X0197715Y0029190D01*
X0197808Y0029152D01*
X0197901Y0029110D01*
X0197991Y0029065D01*
X0198080Y0029016D01*
X0198166Y0028964D01*
X0198250Y0028908D01*
X0198333Y0028849D01*
X0198412Y0028787D01*
X0198490Y0028722D01*
X0198564Y0028654D01*
X0198636Y0028582D01*
X0198705Y0028509D01*
X0198771Y0028432D01*
X0198834Y0028353D01*
X0198894Y0028271D01*
X0198950Y0028187D01*
X0199003Y0028101D01*
X0199053Y0028013D01*
X0199099Y0027923D01*
X0199142Y0027832D01*
X0199181Y0027738D01*
X0199216Y0027643D01*
X0199247Y0027547D01*
X0199275Y0027450D01*
X0199299Y0027352D01*
X0199319Y0027253D01*
X0199335Y0027153D01*
X0199347Y0027052D01*
X0199355Y0026952D01*
X0199359Y0026851D01*
X0199359Y0026749D01*
X0199355Y0026648D01*
X0199347Y0026548D01*
X0199335Y0026447D01*
X0199319Y0026347D01*
X0199299Y0026248D01*
X0199275Y0026150D01*
X0199247Y0026053D01*
X0199216Y0025957D01*
X0199181Y0025862D01*
X0199142Y0025768D01*
X0199099Y0025677D01*
X0199053Y0025587D01*
X0199003Y0025499D01*
X0198950Y0025413D01*
X0198894Y0025329D01*
X0198834Y0025247D01*
X0198771Y0025168D01*
X0198705Y0025091D01*
X0198636Y0025018D01*
X0198564Y0024946D01*
X0198490Y0024878D01*
X0198412Y0024813D01*
X0198333Y0024751D01*
X0198250Y0024692D01*
X0198166Y0024636D01*
X0198079Y0024584D01*
X0197991Y0024535D01*
X0197901Y0024490D01*
X0197808Y0024448D01*
X0197715Y0024410D01*
X0197620Y0024376D01*
X0197523Y0024345D01*
X0197426Y0024319D01*
X0197327Y0024296D01*
X0197228Y0024277D01*
X0197128Y0024262D01*
X0197027Y0024251D01*
X0196926Y0024244D01*
X0196825Y0024241D01*
X0196724Y0024242D01*
X0196623Y0024247D01*
X0196522Y0024256D01*
X0196422Y0024269D01*
X0196322Y0024286D01*
X0196224Y0024307D01*
X0196125Y0024331D01*
X0196028Y0024360D01*
X0195933Y0024392D01*
X0195838Y0024429D01*
X0195745Y0024468D01*
X0195654Y0024512D01*
X0195565Y0024559D01*
X0195477Y0024610D01*
X0195391Y0024664D01*
X0195308Y0024721D01*
X0195227Y0024781D01*
X0195149Y0024845D01*
X0195073Y0024912D01*
X0194999Y0024982D01*
X0194929Y0025054D01*
X0194862Y0025129D01*
X0194797Y0025207D01*
X0194736Y0025288D01*
X0194678Y0025370D01*
X0194623Y0025455D01*
X0194571Y0025542D01*
X0194523Y0025631D01*
X0194479Y0025722D01*
X0194438Y0025815D01*
X0194401Y0025909D01*
X0194368Y0026004D01*
X0194338Y0026101D01*
X0194313Y0026199D01*
X0194291Y0026298D01*
X0194273Y0026397D01*
X0194259Y0026497D01*
X0194249Y0026598D01*
X0194243Y0026699D01*
X0194241Y0026800D01*
D11*
X0124600Y0071800D02*
X0119000Y0071800D01*
X0119000Y0081800D02*
X0124600Y0081800D01*
X0124600Y0091800D02*
X0119000Y0091800D01*
X0119000Y0101800D02*
X0124600Y0101800D01*
X0124600Y0111800D02*
X0119000Y0111800D01*
X0119000Y0121800D02*
X0124600Y0121800D01*
X0124600Y0131800D02*
X0119000Y0131800D01*
X0119000Y0141800D02*
X0124600Y0141800D01*
X0094600Y0141800D02*
X0089000Y0141800D01*
X0089000Y0131800D02*
X0094600Y0131800D01*
X0094600Y0121800D02*
X0089000Y0121800D01*
X0089000Y0111800D02*
X0094600Y0111800D01*
X0094600Y0101800D02*
X0089000Y0101800D01*
X0089000Y0091800D02*
X0094600Y0091800D01*
X0094600Y0081800D02*
X0089000Y0081800D01*
X0089000Y0071800D02*
X0094600Y0071800D01*
D12*
X0091800Y0168600D02*
X0091800Y0175000D01*
X0081800Y0175000D02*
X0081800Y0168600D01*
X0101800Y0168600D02*
X0101800Y0175000D01*
X0111800Y0175000D02*
X0111800Y0168600D01*
X0146800Y0168600D02*
X0146800Y0175000D01*
X0156800Y0175000D02*
X0156800Y0168600D01*
X0166800Y0168600D02*
X0166800Y0175000D01*
X0176800Y0175000D02*
X0176800Y0168600D01*
D13*
X0170350Y0121643D02*
X0163250Y0121643D01*
X0163250Y0101957D02*
X0170350Y0101957D01*
X0170350Y0066643D02*
X0163250Y0066643D01*
X0163250Y0046957D02*
X0170350Y0046957D01*
X0050350Y0046957D02*
X0043250Y0046957D01*
X0043250Y0066643D02*
X0050350Y0066643D01*
X0050350Y0101957D02*
X0043250Y0101957D01*
X0043250Y0121643D02*
X0050350Y0121643D01*
D14*
X0046800Y0146800D03*
X0036800Y0146800D03*
X0036800Y0166800D03*
X0046800Y0166800D03*
D15*
X0046400Y0157200D02*
X0036800Y0166800D01*
X0046400Y0157200D02*
X0046400Y0147300D01*
X0046800Y0146800D01*
X0047300Y0146400D01*
X0081500Y0112200D01*
X0091400Y0112200D01*
X0091800Y0111800D01*
X0092300Y0111300D01*
X0092300Y0102300D01*
X0091800Y0101800D01*
X0091800Y0131800D02*
X0092300Y0132000D01*
X0103100Y0132000D01*
X0142700Y0171600D01*
X0146300Y0171600D01*
X0146800Y0171800D01*
X0176000Y0171600D02*
X0176800Y0171800D01*
X0176800Y0151800D01*
X0161800Y0136800D01*
X0151800Y0136800D01*
X0147000Y0132000D01*
X0122000Y0132000D01*
X0121800Y0131800D01*
X0121800Y0111800D02*
X0122000Y0111300D01*
X0122000Y0102300D01*
X0121800Y0101800D01*
X0111200Y0171600D02*
X0102200Y0171600D01*
X0101800Y0171800D01*
X0111200Y0171600D02*
X0111800Y0171800D01*
D16*
X0112000Y0171856D02*
X0139986Y0171856D01*
X0140600Y0172470D02*
X0102230Y0134100D01*
X0098410Y0134100D01*
X0098330Y0134292D01*
X0097092Y0135530D01*
X0095475Y0136200D01*
X0088125Y0136200D01*
X0086508Y0135530D01*
X0085270Y0134292D01*
X0084600Y0132675D01*
X0084600Y0130925D01*
X0085270Y0129308D01*
X0086508Y0128070D01*
X0088125Y0127400D01*
X0095475Y0127400D01*
X0097092Y0128070D01*
X0098330Y0129308D01*
X0098576Y0129900D01*
X0103970Y0129900D01*
X0114716Y0140646D01*
X0115270Y0139308D01*
X0115377Y0139200D01*
X0113823Y0139200D01*
X0112941Y0138835D01*
X0110441Y0136335D01*
X0109765Y0135659D01*
X0109400Y0134777D01*
X0109400Y0076323D01*
X0109765Y0075441D01*
X0114765Y0070441D01*
X0114825Y0070380D01*
X0115270Y0069308D01*
X0116508Y0068070D01*
X0118125Y0067400D01*
X0125475Y0067400D01*
X0127092Y0068070D01*
X0128330Y0069308D01*
X0129000Y0070925D01*
X0129000Y0072675D01*
X0128330Y0074292D01*
X0127092Y0075530D01*
X0125475Y0076200D01*
X0118125Y0076200D01*
X0116508Y0075530D01*
X0116486Y0075508D01*
X0114200Y0077794D01*
X0114200Y0133306D01*
X0115294Y0134400D01*
X0115377Y0134400D01*
X0115270Y0134292D01*
X0114600Y0132675D01*
X0114600Y0130925D01*
X0115270Y0129308D01*
X0116508Y0128070D01*
X0118125Y0127400D01*
X0125475Y0127400D01*
X0127092Y0128070D01*
X0128330Y0129308D01*
X0128576Y0129900D01*
X0147870Y0129900D01*
X0152670Y0134700D01*
X0162670Y0134700D01*
X0177670Y0149700D01*
X0178900Y0150930D01*
X0178900Y0164274D01*
X0179519Y0164531D01*
X0180869Y0165881D01*
X0181600Y0167645D01*
X0181600Y0175955D01*
X0180869Y0177719D01*
X0179519Y0179069D01*
X0177755Y0179800D01*
X0175845Y0179800D01*
X0174081Y0179069D01*
X0172731Y0177719D01*
X0172000Y0175955D01*
X0172000Y0167645D01*
X0172731Y0165881D01*
X0174081Y0164531D01*
X0174700Y0164274D01*
X0174700Y0152670D01*
X0160930Y0138900D01*
X0150930Y0138900D01*
X0149700Y0137670D01*
X0146130Y0134100D01*
X0128410Y0134100D01*
X0128330Y0134292D01*
X0127092Y0135530D01*
X0125475Y0136200D01*
X0119594Y0136200D01*
X0120794Y0137400D01*
X0125475Y0137400D01*
X0127092Y0138070D01*
X0128330Y0139308D01*
X0129000Y0140925D01*
X0129000Y0142675D01*
X0128330Y0144292D01*
X0127092Y0145530D01*
X0125475Y0146200D01*
X0120270Y0146200D01*
X0142000Y0167930D01*
X0142000Y0167645D01*
X0142731Y0165881D01*
X0144081Y0164531D01*
X0145845Y0163800D01*
X0147755Y0163800D01*
X0149519Y0164531D01*
X0150869Y0165881D01*
X0151600Y0167645D01*
X0151600Y0175955D01*
X0150869Y0177719D01*
X0149519Y0179069D01*
X0147755Y0179800D01*
X0145845Y0179800D01*
X0144081Y0179069D01*
X0142731Y0177719D01*
X0142000Y0175955D01*
X0142000Y0173700D01*
X0141830Y0173700D01*
X0140600Y0172470D01*
X0141584Y0173454D02*
X0116800Y0173454D01*
X0116800Y0172000D02*
X0116800Y0175394D01*
X0116677Y0176171D01*
X0116434Y0176919D01*
X0116076Y0177621D01*
X0115614Y0178257D01*
X0115057Y0178814D01*
X0114421Y0179276D01*
X0113719Y0179634D01*
X0112971Y0179877D01*
X0112194Y0180000D01*
X0112000Y0180000D01*
X0112000Y0172000D01*
X0116800Y0172000D01*
X0116800Y0171600D02*
X0112000Y0171600D01*
X0112000Y0172000D01*
X0111600Y0172000D01*
X0111600Y0180000D01*
X0111406Y0180000D01*
X0110629Y0179877D01*
X0109881Y0179634D01*
X0109179Y0179276D01*
X0108543Y0178814D01*
X0107986Y0178257D01*
X0107524Y0177621D01*
X0107166Y0176919D01*
X0106923Y0176171D01*
X0106800Y0175394D01*
X0106677Y0176171D01*
X0106434Y0176919D01*
X0106076Y0177621D01*
X0105614Y0178257D01*
X0105057Y0178814D01*
X0104421Y0179276D01*
X0103719Y0179634D01*
X0102971Y0179877D01*
X0102194Y0180000D01*
X0102000Y0180000D01*
X0102000Y0172000D01*
X0106800Y0172000D01*
X0111600Y0172000D01*
X0111600Y0171600D01*
X0112000Y0171600D01*
X0112000Y0163600D01*
X0112194Y0163600D01*
X0112971Y0163723D01*
X0113719Y0163966D01*
X0114421Y0164324D01*
X0115057Y0164786D01*
X0115614Y0165343D01*
X0116076Y0165979D01*
X0116434Y0166681D01*
X0116677Y0167429D01*
X0116800Y0168206D01*
X0116800Y0171600D01*
X0116800Y0170257D02*
X0138387Y0170257D01*
X0136789Y0168659D02*
X0116800Y0168659D01*
X0116557Y0167060D02*
X0135190Y0167060D01*
X0133592Y0165462D02*
X0115700Y0165462D01*
X0113401Y0163863D02*
X0131993Y0163863D01*
X0130395Y0162265D02*
X0079200Y0162265D01*
X0079200Y0163863D02*
X0080693Y0163863D01*
X0080845Y0163800D02*
X0082755Y0163800D01*
X0084519Y0164531D01*
X0085869Y0165881D01*
X0086600Y0167645D01*
X0086600Y0175955D01*
X0085869Y0177719D01*
X0084519Y0179069D01*
X0082755Y0179800D01*
X0080845Y0179800D01*
X0079081Y0179069D01*
X0077731Y0177719D01*
X0077000Y0175955D01*
X0077000Y0170394D01*
X0075806Y0169200D01*
X0051118Y0169200D01*
X0048768Y0171550D01*
X0044832Y0171550D01*
X0042050Y0168768D01*
X0042050Y0164832D01*
X0044832Y0162050D01*
X0048768Y0162050D01*
X0051118Y0164400D01*
X0074400Y0164400D01*
X0074400Y0156323D01*
X0074765Y0155441D01*
X0085592Y0144614D01*
X0085270Y0144292D01*
X0084600Y0142675D01*
X0084600Y0140925D01*
X0085270Y0139308D01*
X0086508Y0138070D01*
X0088125Y0137400D01*
X0095475Y0137400D01*
X0097092Y0138070D01*
X0098330Y0139308D01*
X0099000Y0140925D01*
X0099000Y0142675D01*
X0098330Y0144292D01*
X0097092Y0145530D01*
X0095475Y0146200D01*
X0090794Y0146200D01*
X0079200Y0157794D01*
X0079200Y0164481D01*
X0080845Y0163800D01*
X0082907Y0163863D02*
X0090693Y0163863D01*
X0090845Y0163800D02*
X0092755Y0163800D01*
X0094519Y0164531D01*
X0095869Y0165881D01*
X0096600Y0167645D01*
X0096600Y0175955D01*
X0095869Y0177719D01*
X0094519Y0179069D01*
X0092755Y0179800D01*
X0090845Y0179800D01*
X0089081Y0179069D01*
X0087731Y0177719D01*
X0087000Y0175955D01*
X0087000Y0167645D01*
X0087731Y0165881D01*
X0089081Y0164531D01*
X0090845Y0163800D01*
X0092907Y0163863D02*
X0100198Y0163863D01*
X0099881Y0163966D02*
X0100629Y0163723D01*
X0101406Y0163600D01*
X0101600Y0163600D01*
X0101600Y0171600D01*
X0102000Y0171600D01*
X0102000Y0172000D01*
X0101600Y0172000D01*
X0101600Y0180000D01*
X0101406Y0180000D01*
X0100629Y0179877D01*
X0099881Y0179634D01*
X0099179Y0179276D01*
X0098543Y0178814D01*
X0097986Y0178257D01*
X0097524Y0177621D01*
X0097166Y0176919D01*
X0096923Y0176171D01*
X0096800Y0175394D01*
X0096800Y0172000D01*
X0101600Y0172000D01*
X0101600Y0171600D01*
X0096800Y0171600D01*
X0096800Y0168206D01*
X0096923Y0167429D01*
X0097166Y0166681D01*
X0097524Y0165979D01*
X0097986Y0165343D01*
X0098543Y0164786D01*
X0099179Y0164324D01*
X0099881Y0163966D01*
X0101600Y0163863D02*
X0102000Y0163863D01*
X0102000Y0163600D02*
X0102194Y0163600D01*
X0102971Y0163723D01*
X0103719Y0163966D01*
X0104421Y0164324D01*
X0105057Y0164786D01*
X0105614Y0165343D01*
X0106076Y0165979D01*
X0106434Y0166681D01*
X0106677Y0167429D01*
X0106800Y0168206D01*
X0106800Y0171600D01*
X0102000Y0171600D01*
X0102000Y0163600D01*
X0103401Y0163863D02*
X0110198Y0163863D01*
X0109881Y0163966D02*
X0110629Y0163723D01*
X0111406Y0163600D01*
X0111600Y0163600D01*
X0111600Y0171600D01*
X0106800Y0171600D01*
X0106800Y0168206D01*
X0106923Y0167429D01*
X0107166Y0166681D01*
X0107524Y0165979D01*
X0107986Y0165343D01*
X0108543Y0164786D01*
X0109179Y0164324D01*
X0109881Y0163966D01*
X0111600Y0163863D02*
X0112000Y0163863D01*
X0112000Y0165462D02*
X0111600Y0165462D01*
X0111600Y0167060D02*
X0112000Y0167060D01*
X0112000Y0168659D02*
X0111600Y0168659D01*
X0111600Y0170257D02*
X0112000Y0170257D01*
X0111600Y0171856D02*
X0102000Y0171856D01*
X0101600Y0171856D02*
X0096600Y0171856D01*
X0096600Y0173454D02*
X0096800Y0173454D01*
X0096800Y0175053D02*
X0096600Y0175053D01*
X0096312Y0176651D02*
X0097079Y0176651D01*
X0097981Y0178250D02*
X0095339Y0178250D01*
X0100541Y0179848D02*
X0008600Y0179848D01*
X0008600Y0178250D02*
X0078261Y0178250D01*
X0077288Y0176651D02*
X0008600Y0176651D01*
X0008600Y0175053D02*
X0077000Y0175053D01*
X0077000Y0173454D02*
X0008600Y0173454D01*
X0008600Y0171856D02*
X0077000Y0171856D01*
X0076863Y0170257D02*
X0050060Y0170257D01*
X0046800Y0166800D02*
X0076800Y0166800D01*
X0076800Y0156800D01*
X0091800Y0141800D01*
X0090715Y0146279D02*
X0114410Y0146279D01*
X0116008Y0147878D02*
X0089116Y0147878D01*
X0087518Y0149476D02*
X0117607Y0149476D01*
X0119205Y0151075D02*
X0085919Y0151075D01*
X0084321Y0152673D02*
X0120804Y0152673D01*
X0122402Y0154272D02*
X0082722Y0154272D01*
X0081124Y0155870D02*
X0124001Y0155870D01*
X0125599Y0157469D02*
X0079525Y0157469D01*
X0079200Y0159068D02*
X0127198Y0159068D01*
X0128796Y0160666D02*
X0079200Y0160666D01*
X0074400Y0160666D02*
X0008600Y0160666D01*
X0008600Y0159068D02*
X0074400Y0159068D01*
X0074400Y0157469D02*
X0008600Y0157469D01*
X0008600Y0155870D02*
X0074587Y0155870D01*
X0075934Y0154272D02*
X0008600Y0154272D01*
X0008600Y0152673D02*
X0077532Y0152673D01*
X0079131Y0151075D02*
X0049525Y0151075D01*
X0048850Y0151750D02*
X0046800Y0151750D01*
X0046800Y0146800D01*
X0046800Y0146800D01*
X0051750Y0146800D01*
X0051750Y0148850D01*
X0048850Y0151750D01*
X0046800Y0151750D02*
X0044750Y0151750D01*
X0041850Y0148850D01*
X0041850Y0146800D01*
X0046800Y0146800D01*
X0046800Y0146800D01*
X0046800Y0146800D01*
X0046800Y0151750D01*
X0046800Y0151075D02*
X0046800Y0151075D01*
X0046800Y0149476D02*
X0046800Y0149476D01*
X0046800Y0147878D02*
X0046800Y0147878D01*
X0046800Y0146800D02*
X0041850Y0146800D01*
X0041850Y0145144D01*
X0041550Y0145444D01*
X0041550Y0148768D01*
X0038768Y0151550D01*
X0034832Y0151550D01*
X0032050Y0148768D01*
X0032050Y0144832D01*
X0034832Y0142050D01*
X0038156Y0142050D01*
X0084765Y0095441D01*
X0085441Y0094765D01*
X0085654Y0094677D01*
X0085270Y0094292D01*
X0085232Y0094200D01*
X0077637Y0094200D01*
X0053914Y0117923D01*
X0054716Y0118725D01*
X0055500Y0120618D01*
X0055500Y0122667D01*
X0054716Y0124560D01*
X0053267Y0126008D01*
X0051374Y0126793D01*
X0042226Y0126793D01*
X0040333Y0126008D01*
X0038884Y0124560D01*
X0038100Y0122667D01*
X0038100Y0120618D01*
X0038884Y0118725D01*
X0040333Y0117277D01*
X0042226Y0116493D01*
X0048556Y0116493D01*
X0071033Y0094015D01*
X0070598Y0093835D01*
X0048556Y0071793D01*
X0042226Y0071793D01*
X0040333Y0071008D01*
X0038884Y0069560D01*
X0038100Y0067667D01*
X0038100Y0065618D01*
X0038884Y0063725D01*
X0040333Y0062277D01*
X0042226Y0061493D01*
X0051374Y0061493D01*
X0053267Y0062277D01*
X0054716Y0063725D01*
X0055500Y0065618D01*
X0055500Y0067667D01*
X0054716Y0069560D01*
X0053914Y0070362D01*
X0072952Y0089400D01*
X0085232Y0089400D01*
X0085270Y0089308D01*
X0086508Y0088070D01*
X0088125Y0087400D01*
X0095475Y0087400D01*
X0097092Y0088070D01*
X0098330Y0089308D01*
X0099000Y0090925D01*
X0099000Y0091206D01*
X0099400Y0090806D01*
X0099400Y0077794D01*
X0097114Y0075508D01*
X0097092Y0075530D01*
X0095475Y0076200D01*
X0088125Y0076200D01*
X0086508Y0075530D01*
X0085270Y0074292D01*
X0084600Y0072675D01*
X0084600Y0070925D01*
X0085270Y0069308D01*
X0086508Y0068070D01*
X0088125Y0067400D01*
X0095475Y0067400D01*
X0097092Y0068070D01*
X0098330Y0069308D01*
X0098774Y0070380D01*
X0098835Y0070441D01*
X0103835Y0075441D01*
X0104200Y0076323D01*
X0104200Y0092277D01*
X0103835Y0093159D01*
X0103159Y0093835D01*
X0098159Y0098835D01*
X0098138Y0098844D01*
X0098534Y0099389D01*
X0098863Y0100034D01*
X0099087Y0100723D01*
X0099200Y0101438D01*
X0099200Y0101800D01*
X0099200Y0102162D01*
X0099087Y0102877D01*
X0098863Y0103566D01*
X0098534Y0104211D01*
X0098109Y0104797D01*
X0097597Y0105309D01*
X0097011Y0105734D01*
X0096366Y0106063D01*
X0095677Y0106287D01*
X0094962Y0106400D01*
X0091800Y0106400D01*
X0091800Y0101800D01*
X0091800Y0101800D01*
X0099200Y0101800D01*
X0091800Y0101800D01*
X0091800Y0101800D01*
X0091800Y0106400D01*
X0088638Y0106400D01*
X0087923Y0106287D01*
X0087234Y0106063D01*
X0086589Y0105734D01*
X0086003Y0105309D01*
X0085491Y0104797D01*
X0085066Y0104211D01*
X0084737Y0103566D01*
X0084513Y0102877D01*
X0084459Y0102535D01*
X0045144Y0141850D01*
X0046800Y0141850D01*
X0048850Y0141850D01*
X0051750Y0144750D01*
X0051750Y0146800D01*
X0046800Y0146800D01*
X0046800Y0141850D01*
X0046800Y0146800D01*
X0046800Y0146800D01*
X0046800Y0146279D02*
X0046800Y0146279D01*
X0046800Y0144681D02*
X0046800Y0144681D01*
X0046800Y0143082D02*
X0046800Y0143082D01*
X0045510Y0141484D02*
X0084600Y0141484D01*
X0084769Y0143082D02*
X0050083Y0143082D01*
X0051681Y0144681D02*
X0085525Y0144681D01*
X0083926Y0146279D02*
X0051750Y0146279D01*
X0051750Y0147878D02*
X0082328Y0147878D01*
X0080729Y0149476D02*
X0051124Y0149476D01*
X0044075Y0151075D02*
X0039243Y0151075D01*
X0040841Y0149476D02*
X0042476Y0149476D01*
X0041850Y0147878D02*
X0041550Y0147878D01*
X0041550Y0146279D02*
X0041850Y0146279D01*
X0038722Y0141484D02*
X0008600Y0141484D01*
X0008600Y0143082D02*
X0033800Y0143082D01*
X0032202Y0144681D02*
X0008600Y0144681D01*
X0008600Y0146279D02*
X0032050Y0146279D01*
X0032050Y0147878D02*
X0008600Y0147878D01*
X0008600Y0149476D02*
X0032759Y0149476D01*
X0034357Y0151075D02*
X0008600Y0151075D01*
X0008600Y0162265D02*
X0034335Y0162265D01*
X0034750Y0161850D02*
X0036800Y0161850D01*
X0038850Y0161850D01*
X0041750Y0164750D01*
X0041750Y0166800D01*
X0041750Y0168850D01*
X0038850Y0171750D01*
X0036800Y0171750D01*
X0036800Y0166800D01*
X0041750Y0166800D01*
X0036800Y0166800D01*
X0036800Y0166800D01*
X0036800Y0166800D01*
X0036800Y0161850D01*
X0036800Y0166800D01*
X0036800Y0166800D01*
X0036800Y0166800D01*
X0031850Y0166800D01*
X0031850Y0168850D01*
X0034750Y0171750D01*
X0036800Y0171750D01*
X0036800Y0166800D01*
X0031850Y0166800D01*
X0031850Y0164750D01*
X0034750Y0161850D01*
X0036800Y0162265D02*
X0036800Y0162265D01*
X0036800Y0163863D02*
X0036800Y0163863D01*
X0036800Y0165462D02*
X0036800Y0165462D01*
X0036800Y0167060D02*
X0036800Y0167060D01*
X0036800Y0168659D02*
X0036800Y0168659D01*
X0036800Y0170257D02*
X0036800Y0170257D01*
X0033257Y0170257D02*
X0008600Y0170257D01*
X0008600Y0168659D02*
X0031850Y0168659D01*
X0031850Y0167060D02*
X0008600Y0167060D01*
X0008600Y0165462D02*
X0031850Y0165462D01*
X0032737Y0163863D02*
X0008600Y0163863D01*
X0008600Y0181447D02*
X0203701Y0181447D01*
X0203701Y0183045D02*
X0008600Y0183045D01*
X0008600Y0184644D02*
X0203701Y0184644D01*
X0203701Y0186242D02*
X0008600Y0186242D01*
X0008600Y0187841D02*
X0014968Y0187841D01*
X0014331Y0188105D02*
X0013105Y0189331D01*
X0012441Y0190933D01*
X0012441Y0192667D01*
X0013105Y0194269D01*
X0014331Y0195495D01*
X0015933Y0196159D01*
X0017667Y0196159D01*
X0019269Y0195495D01*
X0020495Y0194269D01*
X0021159Y0192667D01*
X0021159Y0190933D01*
X0020495Y0189331D01*
X0019269Y0188105D01*
X0017667Y0187441D01*
X0015933Y0187441D01*
X0014331Y0188105D01*
X0013060Y0189439D02*
X0008600Y0189439D01*
X0008600Y0191038D02*
X0012441Y0191038D01*
X0012441Y0192636D02*
X0008600Y0192636D01*
X0008600Y0194235D02*
X0013090Y0194235D01*
X0015146Y0195833D02*
X0008600Y0195833D01*
X0008600Y0197432D02*
X0203701Y0197432D01*
X0203701Y0199030D02*
X0008600Y0199030D01*
X0008600Y0199961D02*
X0203701Y0199961D01*
X0203701Y0018600D01*
X0008600Y0018600D01*
X0008600Y0199961D01*
X0018454Y0195833D02*
X0195146Y0195833D01*
X0195933Y0196159D02*
X0194331Y0195495D01*
X0193105Y0194269D01*
X0192441Y0192667D01*
X0192441Y0190933D01*
X0193105Y0189331D01*
X0194331Y0188105D01*
X0195933Y0187441D01*
X0197667Y0187441D01*
X0199269Y0188105D01*
X0200495Y0189331D01*
X0201159Y0190933D01*
X0201159Y0192667D01*
X0200495Y0194269D01*
X0199269Y0195495D01*
X0197667Y0196159D01*
X0195933Y0196159D01*
X0198454Y0195833D02*
X0203701Y0195833D01*
X0203701Y0194235D02*
X0200510Y0194235D01*
X0201159Y0192636D02*
X0203701Y0192636D01*
X0203701Y0191038D02*
X0201159Y0191038D01*
X0200540Y0189439D02*
X0203701Y0189439D01*
X0203701Y0187841D02*
X0198632Y0187841D01*
X0194968Y0187841D02*
X0018632Y0187841D01*
X0020540Y0189439D02*
X0193060Y0189439D01*
X0192441Y0191038D02*
X0021159Y0191038D01*
X0021159Y0192636D02*
X0192441Y0192636D01*
X0193090Y0194235D02*
X0020510Y0194235D01*
X0040343Y0170257D02*
X0043540Y0170257D01*
X0042050Y0168659D02*
X0041750Y0168659D01*
X0041750Y0167060D02*
X0042050Y0167060D01*
X0042050Y0165462D02*
X0041750Y0165462D01*
X0040863Y0163863D02*
X0043019Y0163863D01*
X0044618Y0162265D02*
X0039265Y0162265D01*
X0048982Y0162265D02*
X0074400Y0162265D01*
X0074400Y0163863D02*
X0050581Y0163863D01*
X0036800Y0146800D02*
X0086800Y0096800D01*
X0096800Y0096800D01*
X0101800Y0091800D01*
X0101800Y0076800D01*
X0096800Y0071800D01*
X0091800Y0071800D01*
X0087509Y0075945D02*
X0059496Y0075945D01*
X0057898Y0074346D02*
X0085324Y0074346D01*
X0084630Y0072748D02*
X0056299Y0072748D01*
X0054701Y0071149D02*
X0084600Y0071149D01*
X0085169Y0069551D02*
X0054720Y0069551D01*
X0055382Y0067952D02*
X0086791Y0067952D01*
X0096091Y0075945D02*
X0097551Y0075945D01*
X0097092Y0078070D02*
X0095475Y0077400D01*
X0088125Y0077400D01*
X0086508Y0078070D01*
X0085270Y0079308D01*
X0084600Y0080925D01*
X0084600Y0082675D01*
X0085270Y0084292D01*
X0086508Y0085530D01*
X0088125Y0086200D01*
X0095475Y0086200D01*
X0097092Y0085530D01*
X0098330Y0084292D01*
X0099000Y0082675D01*
X0099000Y0080925D01*
X0098330Y0079308D01*
X0097092Y0078070D01*
X0095821Y0077543D02*
X0099149Y0077543D01*
X0099400Y0079142D02*
X0098164Y0079142D01*
X0098924Y0080740D02*
X0099400Y0080740D01*
X0099400Y0082339D02*
X0099000Y0082339D01*
X0099400Y0083937D02*
X0098477Y0083937D01*
X0099400Y0085536D02*
X0097078Y0085536D01*
X0099400Y0087134D02*
X0070686Y0087134D01*
X0069088Y0085536D02*
X0086522Y0085536D01*
X0085123Y0083937D02*
X0067489Y0083937D01*
X0065891Y0082339D02*
X0084600Y0082339D01*
X0084676Y0080740D02*
X0064292Y0080740D01*
X0062694Y0079142D02*
X0085436Y0079142D01*
X0087778Y0077543D02*
X0061095Y0077543D01*
X0057504Y0080740D02*
X0008600Y0080740D01*
X0008600Y0079142D02*
X0055905Y0079142D01*
X0054307Y0077543D02*
X0008600Y0077543D01*
X0008600Y0075945D02*
X0052708Y0075945D01*
X0051110Y0074346D02*
X0008600Y0074346D01*
X0008600Y0072748D02*
X0049511Y0072748D01*
X0046800Y0066643D02*
X0071957Y0091800D01*
X0091800Y0091800D01*
X0076643Y0091800D01*
X0046800Y0121643D01*
X0049141Y0115908D02*
X0008600Y0115908D01*
X0008600Y0117506D02*
X0040103Y0117506D01*
X0038727Y0119105D02*
X0008600Y0119105D01*
X0008600Y0120703D02*
X0038100Y0120703D01*
X0038100Y0122302D02*
X0008600Y0122302D01*
X0008600Y0123900D02*
X0038611Y0123900D01*
X0039823Y0125499D02*
X0008600Y0125499D01*
X0008600Y0127097D02*
X0053109Y0127097D01*
X0053777Y0125499D02*
X0054707Y0125499D01*
X0054989Y0123900D02*
X0056306Y0123900D01*
X0055500Y0122302D02*
X0057904Y0122302D01*
X0059503Y0120703D02*
X0055500Y0120703D01*
X0054873Y0119105D02*
X0061101Y0119105D01*
X0062700Y0117506D02*
X0054330Y0117506D01*
X0055929Y0115908D02*
X0064298Y0115908D01*
X0065897Y0114309D02*
X0057527Y0114309D01*
X0059126Y0112711D02*
X0067495Y0112711D01*
X0069094Y0111112D02*
X0060724Y0111112D01*
X0062323Y0109514D02*
X0070692Y0109514D01*
X0072291Y0107915D02*
X0063921Y0107915D01*
X0065520Y0106317D02*
X0073889Y0106317D01*
X0075488Y0104718D02*
X0067118Y0104718D01*
X0068717Y0103120D02*
X0077086Y0103120D01*
X0078685Y0101521D02*
X0070316Y0101521D01*
X0071914Y0099923D02*
X0080283Y0099923D01*
X0081882Y0098324D02*
X0073513Y0098324D01*
X0075111Y0096726D02*
X0083480Y0096726D01*
X0085079Y0095127D02*
X0076710Y0095127D01*
X0070292Y0093529D02*
X0008600Y0093529D01*
X0008600Y0095127D02*
X0069921Y0095127D01*
X0068323Y0096726D02*
X0008600Y0096726D01*
X0008600Y0098324D02*
X0039600Y0098324D01*
X0038884Y0099040D02*
X0038100Y0100933D01*
X0038100Y0102982D01*
X0038884Y0104875D01*
X0040333Y0106323D01*
X0042226Y0107107D01*
X0051374Y0107107D01*
X0053267Y0106323D01*
X0054716Y0104875D01*
X0055500Y0102982D01*
X0055500Y0100933D01*
X0054716Y0099040D01*
X0053267Y0097592D01*
X0051374Y0096807D01*
X0042226Y0096807D01*
X0040333Y0097592D01*
X0038884Y0099040D01*
X0038519Y0099923D02*
X0008600Y0099923D01*
X0008600Y0101521D02*
X0038100Y0101521D01*
X0038157Y0103120D02*
X0008600Y0103120D01*
X0008600Y0104718D02*
X0038819Y0104718D01*
X0040326Y0106317D02*
X0008600Y0106317D01*
X0008600Y0107915D02*
X0057133Y0107915D01*
X0055535Y0109514D02*
X0008600Y0109514D01*
X0008600Y0111112D02*
X0053936Y0111112D01*
X0052338Y0112711D02*
X0008600Y0112711D01*
X0008600Y0114309D02*
X0050739Y0114309D01*
X0053274Y0106317D02*
X0058732Y0106317D01*
X0060330Y0104718D02*
X0054781Y0104718D01*
X0055443Y0103120D02*
X0061929Y0103120D01*
X0063527Y0101521D02*
X0055500Y0101521D01*
X0055081Y0099923D02*
X0065126Y0099923D01*
X0066724Y0098324D02*
X0054000Y0098324D01*
X0065496Y0088733D02*
X0008600Y0088733D01*
X0008600Y0087134D02*
X0063898Y0087134D01*
X0062299Y0085536D02*
X0008600Y0085536D01*
X0008600Y0083937D02*
X0060701Y0083937D01*
X0059102Y0082339D02*
X0008600Y0082339D01*
X0008600Y0090332D02*
X0067095Y0090332D01*
X0068693Y0091930D02*
X0008600Y0091930D01*
X0008600Y0071149D02*
X0040673Y0071149D01*
X0038880Y0069551D02*
X0008600Y0069551D01*
X0008600Y0067952D02*
X0038218Y0067952D01*
X0038100Y0066354D02*
X0008600Y0066354D01*
X0008600Y0064755D02*
X0038457Y0064755D01*
X0039452Y0063157D02*
X0008600Y0063157D01*
X0008600Y0061558D02*
X0042067Y0061558D01*
X0042226Y0052107D02*
X0040333Y0051323D01*
X0038884Y0049875D01*
X0038100Y0047982D01*
X0038100Y0045933D01*
X0038884Y0044040D01*
X0040333Y0042592D01*
X0042226Y0041807D01*
X0051374Y0041807D01*
X0053267Y0042592D01*
X0054716Y0044040D01*
X0055500Y0045933D01*
X0055500Y0047982D01*
X0054716Y0049875D01*
X0053267Y0051323D01*
X0051374Y0052107D01*
X0042226Y0052107D01*
X0041887Y0051967D02*
X0008600Y0051967D01*
X0008600Y0050369D02*
X0039378Y0050369D01*
X0038427Y0048770D02*
X0008600Y0048770D01*
X0008600Y0047172D02*
X0038100Y0047172D01*
X0038249Y0045573D02*
X0008600Y0045573D01*
X0008600Y0043975D02*
X0038950Y0043975D01*
X0040853Y0042376D02*
X0008600Y0042376D01*
X0008600Y0040778D02*
X0203701Y0040778D01*
X0203701Y0042376D02*
X0172747Y0042376D01*
X0173267Y0042592D02*
X0174716Y0044040D01*
X0175500Y0045933D01*
X0175500Y0047982D01*
X0174716Y0049875D01*
X0173267Y0051323D01*
X0171374Y0052107D01*
X0162226Y0052107D01*
X0160333Y0051323D01*
X0158884Y0049875D01*
X0158100Y0047982D01*
X0158100Y0045933D01*
X0158884Y0044040D01*
X0160333Y0042592D01*
X0162226Y0041807D01*
X0171374Y0041807D01*
X0173267Y0042592D01*
X0174650Y0043975D02*
X0203701Y0043975D01*
X0203701Y0045573D02*
X0175351Y0045573D01*
X0175500Y0047172D02*
X0203701Y0047172D01*
X0203701Y0048770D02*
X0175173Y0048770D01*
X0174222Y0050369D02*
X0203701Y0050369D01*
X0203701Y0051967D02*
X0171713Y0051967D01*
X0171374Y0061493D02*
X0162226Y0061493D01*
X0160333Y0062277D01*
X0158884Y0063725D01*
X0158100Y0065618D01*
X0158100Y0067106D01*
X0140441Y0084765D01*
X0139765Y0085441D01*
X0139400Y0086323D01*
X0139400Y0115806D01*
X0135806Y0119400D01*
X0128368Y0119400D01*
X0128330Y0119308D01*
X0127092Y0118070D01*
X0125475Y0117400D01*
X0118125Y0117400D01*
X0116508Y0118070D01*
X0115270Y0119308D01*
X0114600Y0120925D01*
X0114600Y0122675D01*
X0115270Y0124292D01*
X0116508Y0125530D01*
X0118125Y0126200D01*
X0125475Y0126200D01*
X0127092Y0125530D01*
X0128330Y0124292D01*
X0128368Y0124200D01*
X0158735Y0124200D01*
X0158884Y0124560D01*
X0160333Y0126008D01*
X0162226Y0126793D01*
X0171374Y0126793D01*
X0173267Y0126008D01*
X0174716Y0124560D01*
X0175500Y0122667D01*
X0175500Y0120618D01*
X0174716Y0118725D01*
X0173267Y0117277D01*
X0171374Y0116493D01*
X0162226Y0116493D01*
X0160333Y0117277D01*
X0158884Y0118725D01*
X0158605Y0119400D01*
X0142594Y0119400D01*
X0143835Y0118159D01*
X0144200Y0117277D01*
X0144200Y0087794D01*
X0160794Y0071200D01*
X0162226Y0071793D01*
X0171374Y0071793D01*
X0173267Y0071008D01*
X0174716Y0069560D01*
X0175500Y0067667D01*
X0175500Y0065618D01*
X0174716Y0063725D01*
X0173267Y0062277D01*
X0171374Y0061493D01*
X0171533Y0061558D02*
X0203701Y0061558D01*
X0203701Y0059960D02*
X0008600Y0059960D01*
X0008600Y0058361D02*
X0203701Y0058361D01*
X0203701Y0056763D02*
X0008600Y0056763D01*
X0008600Y0055164D02*
X0203701Y0055164D01*
X0203701Y0053566D02*
X0008600Y0053566D01*
X0008600Y0039179D02*
X0203701Y0039179D01*
X0203701Y0037581D02*
X0008600Y0037581D01*
X0008600Y0035982D02*
X0203701Y0035982D01*
X0203701Y0034384D02*
X0008600Y0034384D01*
X0008600Y0032785D02*
X0203701Y0032785D01*
X0203701Y0031187D02*
X0008600Y0031187D01*
X0008600Y0029588D02*
X0013423Y0029588D01*
X0013105Y0029269D02*
X0012441Y0027667D01*
X0012441Y0025933D01*
X0013105Y0024331D01*
X0014331Y0023105D01*
X0015933Y0022441D01*
X0017667Y0022441D01*
X0019269Y0023105D01*
X0020495Y0024331D01*
X0021159Y0025933D01*
X0021159Y0027667D01*
X0020495Y0029269D01*
X0019269Y0030495D01*
X0017667Y0031159D01*
X0015933Y0031159D01*
X0014331Y0030495D01*
X0013105Y0029269D01*
X0012575Y0027990D02*
X0008600Y0027990D01*
X0008600Y0026391D02*
X0012441Y0026391D01*
X0012913Y0024793D02*
X0008600Y0024793D01*
X0008600Y0023194D02*
X0014241Y0023194D01*
X0019359Y0023194D02*
X0194241Y0023194D01*
X0194331Y0023105D02*
X0195933Y0022441D01*
X0197667Y0022441D01*
X0199269Y0023105D01*
X0200495Y0024331D01*
X0201159Y0025933D01*
X0201159Y0027667D01*
X0200495Y0029269D01*
X0199269Y0030495D01*
X0197667Y0031159D01*
X0195933Y0031159D01*
X0194331Y0030495D01*
X0193105Y0029269D01*
X0192441Y0027667D01*
X0192441Y0025933D01*
X0193105Y0024331D01*
X0194331Y0023105D01*
X0192913Y0024793D02*
X0020687Y0024793D01*
X0021159Y0026391D02*
X0192441Y0026391D01*
X0192575Y0027990D02*
X0021025Y0027990D01*
X0020177Y0029588D02*
X0193423Y0029588D01*
X0200177Y0029588D02*
X0203701Y0029588D01*
X0203701Y0027990D02*
X0201025Y0027990D01*
X0201159Y0026391D02*
X0203701Y0026391D01*
X0203701Y0024793D02*
X0200687Y0024793D01*
X0199359Y0023194D02*
X0203701Y0023194D01*
X0203701Y0021596D02*
X0008600Y0021596D01*
X0008600Y0019997D02*
X0203701Y0019997D01*
X0161887Y0051967D02*
X0051713Y0051967D01*
X0054222Y0050369D02*
X0159378Y0050369D01*
X0158427Y0048770D02*
X0055173Y0048770D01*
X0055500Y0047172D02*
X0158100Y0047172D01*
X0158249Y0045573D02*
X0055351Y0045573D01*
X0054650Y0043975D02*
X0158950Y0043975D01*
X0160853Y0042376D02*
X0052747Y0042376D01*
X0051533Y0061558D02*
X0162067Y0061558D01*
X0159452Y0063157D02*
X0054148Y0063157D01*
X0055143Y0064755D02*
X0158457Y0064755D01*
X0158100Y0066354D02*
X0055500Y0066354D01*
X0072285Y0088733D02*
X0085844Y0088733D01*
X0097756Y0088733D02*
X0099400Y0088733D01*
X0099400Y0090332D02*
X0098754Y0090332D01*
X0104200Y0090332D02*
X0109400Y0090332D01*
X0109400Y0091930D02*
X0104200Y0091930D01*
X0103466Y0093529D02*
X0109400Y0093529D01*
X0109400Y0095127D02*
X0101867Y0095127D01*
X0100269Y0096726D02*
X0109400Y0096726D01*
X0109400Y0098324D02*
X0098670Y0098324D01*
X0098806Y0099923D02*
X0109400Y0099923D01*
X0109400Y0101521D02*
X0099200Y0101521D01*
X0099008Y0103120D02*
X0109400Y0103120D01*
X0109400Y0104718D02*
X0098166Y0104718D01*
X0095488Y0106317D02*
X0109400Y0106317D01*
X0109400Y0107915D02*
X0097079Y0107915D01*
X0097011Y0107866D02*
X0097597Y0108291D01*
X0098109Y0108803D01*
X0098534Y0109389D01*
X0098863Y0110034D01*
X0099087Y0110723D01*
X0099200Y0111438D01*
X0099200Y0111800D01*
X0099200Y0112162D01*
X0099087Y0112877D01*
X0098863Y0113566D01*
X0098534Y0114211D01*
X0098109Y0114797D01*
X0097597Y0115309D01*
X0097011Y0115734D01*
X0096366Y0116063D01*
X0095677Y0116287D01*
X0094962Y0116400D01*
X0091800Y0116400D01*
X0091800Y0111800D01*
X0091800Y0111800D01*
X0099200Y0111800D01*
X0091800Y0111800D01*
X0091800Y0111800D01*
X0091800Y0107200D01*
X0094962Y0107200D01*
X0095677Y0107313D01*
X0096366Y0107537D01*
X0097011Y0107866D01*
X0098598Y0109514D02*
X0109400Y0109514D01*
X0109400Y0111112D02*
X0099148Y0111112D01*
X0099113Y0112711D02*
X0109400Y0112711D01*
X0109400Y0114309D02*
X0098463Y0114309D01*
X0096671Y0115908D02*
X0109400Y0115908D01*
X0109400Y0117506D02*
X0095732Y0117506D01*
X0095475Y0117400D02*
X0097092Y0118070D01*
X0098330Y0119308D01*
X0099000Y0120925D01*
X0099000Y0122675D01*
X0098330Y0124292D01*
X0097092Y0125530D01*
X0095475Y0126200D01*
X0088125Y0126200D01*
X0086508Y0125530D01*
X0085270Y0124292D01*
X0084600Y0122675D01*
X0084600Y0120925D01*
X0085270Y0119308D01*
X0086508Y0118070D01*
X0088125Y0117400D01*
X0095475Y0117400D01*
X0098127Y0119105D02*
X0109400Y0119105D01*
X0109400Y0120703D02*
X0098908Y0120703D01*
X0099000Y0122302D02*
X0109400Y0122302D01*
X0109400Y0123900D02*
X0098493Y0123900D01*
X0097124Y0125499D02*
X0109400Y0125499D01*
X0109400Y0127097D02*
X0059897Y0127097D01*
X0061495Y0125499D02*
X0086476Y0125499D01*
X0085107Y0123900D02*
X0063094Y0123900D01*
X0064692Y0122302D02*
X0084600Y0122302D01*
X0084692Y0120703D02*
X0066291Y0120703D01*
X0067889Y0119105D02*
X0085473Y0119105D01*
X0087868Y0117506D02*
X0069488Y0117506D01*
X0071086Y0115908D02*
X0086929Y0115908D01*
X0087234Y0116063D02*
X0086589Y0115734D01*
X0086003Y0115309D01*
X0085491Y0114797D01*
X0085066Y0114211D01*
X0084737Y0113566D01*
X0084513Y0112877D01*
X0084400Y0112162D01*
X0084400Y0111800D01*
X0091800Y0111800D01*
X0091800Y0111800D01*
X0091800Y0111800D01*
X0091800Y0116400D01*
X0088638Y0116400D01*
X0087923Y0116287D01*
X0087234Y0116063D01*
X0085137Y0114309D02*
X0072685Y0114309D01*
X0074283Y0112711D02*
X0084487Y0112711D01*
X0084400Y0111800D02*
X0084400Y0111438D01*
X0084513Y0110723D01*
X0084737Y0110034D01*
X0085066Y0109389D01*
X0085491Y0108803D01*
X0086003Y0108291D01*
X0086589Y0107866D01*
X0087234Y0107537D01*
X0087923Y0107313D01*
X0088638Y0107200D01*
X0091800Y0107200D01*
X0091800Y0111800D01*
X0084400Y0111800D01*
X0084452Y0111112D02*
X0075882Y0111112D01*
X0077480Y0109514D02*
X0085002Y0109514D01*
X0086521Y0107915D02*
X0079079Y0107915D01*
X0080677Y0106317D02*
X0088112Y0106317D01*
X0085434Y0104718D02*
X0082276Y0104718D01*
X0083874Y0103120D02*
X0084592Y0103120D01*
X0091800Y0103120D02*
X0091800Y0103120D01*
X0091800Y0104718D02*
X0091800Y0104718D01*
X0091800Y0106317D02*
X0091800Y0106317D01*
X0091800Y0107915D02*
X0091800Y0107915D01*
X0091800Y0109514D02*
X0091800Y0109514D01*
X0091800Y0111112D02*
X0091800Y0111112D01*
X0091800Y0112711D02*
X0091800Y0112711D01*
X0091800Y0114309D02*
X0091800Y0114309D01*
X0091800Y0115908D02*
X0091800Y0115908D01*
X0097718Y0128696D02*
X0109400Y0128696D01*
X0109400Y0130294D02*
X0104364Y0130294D01*
X0105963Y0131893D02*
X0109400Y0131893D01*
X0109400Y0133491D02*
X0107561Y0133491D01*
X0109160Y0135090D02*
X0109529Y0135090D01*
X0110758Y0136688D02*
X0110794Y0136688D01*
X0112357Y0138287D02*
X0112393Y0138287D01*
X0113955Y0139885D02*
X0115031Y0139885D01*
X0114300Y0136800D02*
X0111800Y0134300D01*
X0111800Y0076800D01*
X0116800Y0071800D01*
X0121800Y0071800D01*
X0117509Y0075945D02*
X0116049Y0075945D01*
X0116508Y0078070D02*
X0118125Y0077400D01*
X0125475Y0077400D01*
X0127092Y0078070D01*
X0128330Y0079308D01*
X0129000Y0080925D01*
X0129000Y0082675D01*
X0128330Y0084292D01*
X0127092Y0085530D01*
X0125475Y0086200D01*
X0118125Y0086200D01*
X0116508Y0085530D01*
X0115270Y0084292D01*
X0114600Y0082675D01*
X0114600Y0080925D01*
X0115270Y0079308D01*
X0116508Y0078070D01*
X0117778Y0077543D02*
X0114451Y0077543D01*
X0114200Y0079142D02*
X0115436Y0079142D01*
X0114676Y0080740D02*
X0114200Y0080740D01*
X0114200Y0082339D02*
X0114600Y0082339D01*
X0114200Y0083937D02*
X0115123Y0083937D01*
X0114200Y0085536D02*
X0116522Y0085536D01*
X0118125Y0087400D02*
X0116508Y0088070D01*
X0115270Y0089308D01*
X0114600Y0090925D01*
X0114600Y0092675D01*
X0115270Y0094292D01*
X0116508Y0095530D01*
X0118125Y0096200D01*
X0125475Y0096200D01*
X0127092Y0095530D01*
X0128330Y0094292D01*
X0129000Y0092675D01*
X0129000Y0090925D01*
X0128330Y0089308D01*
X0127092Y0088070D01*
X0125475Y0087400D01*
X0118125Y0087400D01*
X0115844Y0088733D02*
X0114200Y0088733D01*
X0114200Y0087134D02*
X0139400Y0087134D01*
X0139400Y0088733D02*
X0127756Y0088733D01*
X0128754Y0090332D02*
X0139400Y0090332D01*
X0139400Y0091930D02*
X0129000Y0091930D01*
X0128647Y0093529D02*
X0139400Y0093529D01*
X0139400Y0095127D02*
X0127495Y0095127D01*
X0126366Y0097537D02*
X0127011Y0097866D01*
X0127597Y0098291D01*
X0128109Y0098803D01*
X0128534Y0099389D01*
X0128863Y0100034D01*
X0129087Y0100723D01*
X0129200Y0101438D01*
X0129200Y0101800D01*
X0129200Y0102162D01*
X0129087Y0102877D01*
X0128863Y0103566D01*
X0128534Y0104211D01*
X0128109Y0104797D01*
X0127597Y0105309D01*
X0127011Y0105734D01*
X0126366Y0106063D01*
X0125677Y0106287D01*
X0124962Y0106400D01*
X0121800Y0106400D01*
X0121800Y0101800D01*
X0121800Y0101800D01*
X0129200Y0101800D01*
X0121800Y0101800D01*
X0121800Y0101800D01*
X0121800Y0097200D01*
X0124962Y0097200D01*
X0125677Y0097313D01*
X0126366Y0097537D01*
X0127629Y0098324D02*
X0139400Y0098324D01*
X0139400Y0096726D02*
X0114200Y0096726D01*
X0114200Y0098324D02*
X0115971Y0098324D01*
X0116003Y0098291D02*
X0116589Y0097866D01*
X0117234Y0097537D01*
X0117923Y0097313D01*
X0118638Y0097200D01*
X0121800Y0097200D01*
X0121800Y0101800D01*
X0121800Y0101800D01*
X0121800Y0101800D01*
X0114400Y0101800D01*
X0114400Y0102162D01*
X0114513Y0102877D01*
X0114737Y0103566D01*
X0115066Y0104211D01*
X0115491Y0104797D01*
X0116003Y0105309D01*
X0116589Y0105734D01*
X0117234Y0106063D01*
X0117923Y0106287D01*
X0118638Y0106400D01*
X0121800Y0106400D01*
X0121800Y0101800D01*
X0114400Y0101800D01*
X0114400Y0101438D01*
X0114513Y0100723D01*
X0114737Y0100034D01*
X0115066Y0099389D01*
X0115491Y0098803D01*
X0116003Y0098291D01*
X0114794Y0099923D02*
X0114200Y0099923D01*
X0114200Y0101521D02*
X0114400Y0101521D01*
X0114592Y0103120D02*
X0114200Y0103120D01*
X0114200Y0104718D02*
X0115434Y0104718D01*
X0114200Y0106317D02*
X0118112Y0106317D01*
X0117923Y0107313D02*
X0118638Y0107200D01*
X0121800Y0107200D01*
X0124962Y0107200D01*
X0125677Y0107313D01*
X0126366Y0107537D01*
X0127011Y0107866D01*
X0127597Y0108291D01*
X0128109Y0108803D01*
X0128534Y0109389D01*
X0128863Y0110034D01*
X0129087Y0110723D01*
X0129200Y0111438D01*
X0129200Y0111800D01*
X0129200Y0112162D01*
X0129087Y0112877D01*
X0128863Y0113566D01*
X0128534Y0114211D01*
X0128109Y0114797D01*
X0127597Y0115309D01*
X0127011Y0115734D01*
X0126366Y0116063D01*
X0125677Y0116287D01*
X0124962Y0116400D01*
X0121800Y0116400D01*
X0121800Y0111800D01*
X0121800Y0111800D01*
X0129200Y0111800D01*
X0121800Y0111800D01*
X0121800Y0111800D01*
X0121800Y0107200D01*
X0121800Y0111800D01*
X0121800Y0111800D01*
X0121800Y0111800D01*
X0114400Y0111800D01*
X0114400Y0112162D01*
X0114513Y0112877D01*
X0114737Y0113566D01*
X0115066Y0114211D01*
X0115491Y0114797D01*
X0116003Y0115309D01*
X0116589Y0115734D01*
X0117234Y0116063D01*
X0117923Y0116287D01*
X0118638Y0116400D01*
X0121800Y0116400D01*
X0121800Y0111800D01*
X0114400Y0111800D01*
X0114400Y0111438D01*
X0114513Y0110723D01*
X0114737Y0110034D01*
X0115066Y0109389D01*
X0115491Y0108803D01*
X0116003Y0108291D01*
X0116589Y0107866D01*
X0117234Y0107537D01*
X0117923Y0107313D01*
X0116521Y0107915D02*
X0114200Y0107915D01*
X0114200Y0109514D02*
X0115002Y0109514D01*
X0114452Y0111112D02*
X0114200Y0111112D01*
X0114200Y0112711D02*
X0114487Y0112711D01*
X0114200Y0114309D02*
X0115137Y0114309D01*
X0114200Y0115908D02*
X0116929Y0115908D01*
X0117868Y0117506D02*
X0114200Y0117506D01*
X0114200Y0119105D02*
X0115473Y0119105D01*
X0114692Y0120703D02*
X0114200Y0120703D01*
X0114200Y0122302D02*
X0114600Y0122302D01*
X0114200Y0123900D02*
X0115107Y0123900D01*
X0114200Y0125499D02*
X0116476Y0125499D01*
X0114200Y0127097D02*
X0203701Y0127097D01*
X0203701Y0125499D02*
X0173777Y0125499D01*
X0174989Y0123900D02*
X0203701Y0123900D01*
X0203701Y0122302D02*
X0175500Y0122302D01*
X0175500Y0120703D02*
X0203701Y0120703D01*
X0203701Y0119105D02*
X0174873Y0119105D01*
X0173497Y0117506D02*
X0203701Y0117506D01*
X0203701Y0115908D02*
X0144200Y0115908D01*
X0144200Y0114309D02*
X0203701Y0114309D01*
X0203701Y0112711D02*
X0144200Y0112711D01*
X0144200Y0111112D02*
X0203701Y0111112D01*
X0203701Y0109514D02*
X0144200Y0109514D01*
X0144200Y0107915D02*
X0203701Y0107915D01*
X0203701Y0106317D02*
X0173274Y0106317D01*
X0173267Y0106323D02*
X0171374Y0107107D01*
X0162226Y0107107D01*
X0160333Y0106323D01*
X0158884Y0104875D01*
X0158100Y0102982D01*
X0158100Y0100933D01*
X0158884Y0099040D01*
X0160333Y0097592D01*
X0162226Y0096807D01*
X0171374Y0096807D01*
X0173267Y0097592D01*
X0174716Y0099040D01*
X0175500Y0100933D01*
X0175500Y0102982D01*
X0174716Y0104875D01*
X0173267Y0106323D01*
X0174781Y0104718D02*
X0203701Y0104718D01*
X0203701Y0103120D02*
X0175443Y0103120D01*
X0175500Y0101521D02*
X0203701Y0101521D01*
X0203701Y0099923D02*
X0175081Y0099923D01*
X0174000Y0098324D02*
X0203701Y0098324D01*
X0203701Y0096726D02*
X0144200Y0096726D01*
X0144200Y0098324D02*
X0159600Y0098324D01*
X0158519Y0099923D02*
X0144200Y0099923D01*
X0144200Y0101521D02*
X0158100Y0101521D01*
X0158157Y0103120D02*
X0144200Y0103120D01*
X0144200Y0104718D02*
X0158819Y0104718D01*
X0160326Y0106317D02*
X0144200Y0106317D01*
X0139400Y0106317D02*
X0125488Y0106317D01*
X0127079Y0107915D02*
X0139400Y0107915D01*
X0139400Y0109514D02*
X0128598Y0109514D01*
X0129148Y0111112D02*
X0139400Y0111112D01*
X0139400Y0112711D02*
X0129113Y0112711D01*
X0128463Y0114309D02*
X0139400Y0114309D01*
X0139298Y0115908D02*
X0126671Y0115908D01*
X0125732Y0117506D02*
X0137700Y0117506D01*
X0136101Y0119105D02*
X0128127Y0119105D01*
X0127124Y0125499D02*
X0159823Y0125499D01*
X0158727Y0119105D02*
X0142889Y0119105D01*
X0144105Y0117506D02*
X0160103Y0117506D01*
X0166643Y0121800D02*
X0166800Y0121643D01*
X0166643Y0121800D02*
X0136800Y0121800D01*
X0141800Y0116800D01*
X0141800Y0086800D01*
X0161957Y0066643D01*
X0166800Y0066643D01*
X0172927Y0071149D02*
X0203701Y0071149D01*
X0203701Y0069551D02*
X0174720Y0069551D01*
X0175382Y0067952D02*
X0203701Y0067952D01*
X0203701Y0066354D02*
X0175500Y0066354D01*
X0175143Y0064755D02*
X0203701Y0064755D01*
X0203701Y0063157D02*
X0174148Y0063157D01*
X0159246Y0072748D02*
X0203701Y0072748D01*
X0203701Y0074346D02*
X0157648Y0074346D01*
X0156049Y0075945D02*
X0203701Y0075945D01*
X0203701Y0077543D02*
X0154451Y0077543D01*
X0152852Y0079142D02*
X0203701Y0079142D01*
X0203701Y0080740D02*
X0151254Y0080740D01*
X0149655Y0082339D02*
X0203701Y0082339D01*
X0203701Y0083937D02*
X0148057Y0083937D01*
X0146458Y0085536D02*
X0203701Y0085536D01*
X0203701Y0087134D02*
X0144860Y0087134D01*
X0144200Y0088733D02*
X0203701Y0088733D01*
X0203701Y0090332D02*
X0144200Y0090332D01*
X0144200Y0091930D02*
X0203701Y0091930D01*
X0203701Y0093529D02*
X0144200Y0093529D01*
X0144200Y0095127D02*
X0203701Y0095127D01*
X0203701Y0128696D02*
X0127718Y0128696D01*
X0127533Y0135090D02*
X0147120Y0135090D01*
X0148719Y0136688D02*
X0120082Y0136688D01*
X0116800Y0136800D02*
X0114300Y0136800D01*
X0116800Y0136800D02*
X0121800Y0141800D01*
X0120349Y0146279D02*
X0168310Y0146279D01*
X0169908Y0147878D02*
X0121948Y0147878D01*
X0123546Y0149476D02*
X0171507Y0149476D01*
X0173105Y0151075D02*
X0125145Y0151075D01*
X0126743Y0152673D02*
X0174700Y0152673D01*
X0174700Y0154272D02*
X0128342Y0154272D01*
X0129940Y0155870D02*
X0174700Y0155870D01*
X0174700Y0157469D02*
X0131539Y0157469D01*
X0133137Y0159068D02*
X0174700Y0159068D01*
X0174700Y0160666D02*
X0134736Y0160666D01*
X0136334Y0162265D02*
X0174700Y0162265D01*
X0174700Y0163863D02*
X0167907Y0163863D01*
X0167755Y0163800D02*
X0169519Y0164531D01*
X0170869Y0165881D01*
X0171600Y0167645D01*
X0171600Y0175955D01*
X0170869Y0177719D01*
X0169519Y0179069D01*
X0167755Y0179800D01*
X0165845Y0179800D01*
X0164081Y0179069D01*
X0162731Y0177719D01*
X0162000Y0175955D01*
X0162000Y0167645D01*
X0162731Y0165881D01*
X0164081Y0164531D01*
X0165845Y0163800D01*
X0167755Y0163800D01*
X0165693Y0163863D02*
X0157907Y0163863D01*
X0157755Y0163800D02*
X0159519Y0164531D01*
X0160869Y0165881D01*
X0161600Y0167645D01*
X0161600Y0175955D01*
X0160869Y0177719D01*
X0159519Y0179069D01*
X0157755Y0179800D01*
X0155845Y0179800D01*
X0154081Y0179069D01*
X0152731Y0177719D01*
X0152000Y0175955D01*
X0152000Y0167645D01*
X0152731Y0165881D01*
X0154081Y0164531D01*
X0155845Y0163800D01*
X0157755Y0163800D01*
X0155693Y0163863D02*
X0147907Y0163863D01*
X0145693Y0163863D02*
X0137933Y0163863D01*
X0139531Y0165462D02*
X0143150Y0165462D01*
X0142242Y0167060D02*
X0141130Y0167060D01*
X0142000Y0175053D02*
X0116800Y0175053D01*
X0116521Y0176651D02*
X0142288Y0176651D01*
X0143261Y0178250D02*
X0115619Y0178250D01*
X0113059Y0179848D02*
X0203701Y0179848D01*
X0203701Y0178250D02*
X0180339Y0178250D01*
X0181312Y0176651D02*
X0203701Y0176651D01*
X0203701Y0175053D02*
X0181600Y0175053D01*
X0181600Y0173454D02*
X0203701Y0173454D01*
X0203701Y0171856D02*
X0181600Y0171856D01*
X0181600Y0170257D02*
X0203701Y0170257D01*
X0203701Y0168659D02*
X0181600Y0168659D01*
X0181358Y0167060D02*
X0203701Y0167060D01*
X0203701Y0165462D02*
X0180450Y0165462D01*
X0178900Y0163863D02*
X0203701Y0163863D01*
X0203701Y0162265D02*
X0178900Y0162265D01*
X0178900Y0160666D02*
X0203701Y0160666D01*
X0203701Y0159068D02*
X0178900Y0159068D01*
X0178900Y0157469D02*
X0203701Y0157469D01*
X0203701Y0155870D02*
X0178900Y0155870D01*
X0178900Y0154272D02*
X0203701Y0154272D01*
X0203701Y0152673D02*
X0178900Y0152673D01*
X0178900Y0151075D02*
X0203701Y0151075D01*
X0203701Y0149476D02*
X0177446Y0149476D01*
X0175848Y0147878D02*
X0203701Y0147878D01*
X0203701Y0146279D02*
X0174249Y0146279D01*
X0172651Y0144681D02*
X0203701Y0144681D01*
X0203701Y0143082D02*
X0171052Y0143082D01*
X0169454Y0141484D02*
X0203701Y0141484D01*
X0203701Y0139885D02*
X0167855Y0139885D01*
X0166257Y0138287D02*
X0203701Y0138287D01*
X0203701Y0136688D02*
X0164658Y0136688D01*
X0163060Y0135090D02*
X0203701Y0135090D01*
X0203701Y0133491D02*
X0151461Y0133491D01*
X0149863Y0131893D02*
X0203701Y0131893D01*
X0203701Y0130294D02*
X0148264Y0130294D01*
X0150317Y0138287D02*
X0127309Y0138287D01*
X0128569Y0139885D02*
X0161916Y0139885D01*
X0163514Y0141484D02*
X0129000Y0141484D01*
X0128831Y0143082D02*
X0165113Y0143082D01*
X0166711Y0144681D02*
X0127942Y0144681D01*
X0114938Y0133491D02*
X0114385Y0133491D01*
X0114200Y0131893D02*
X0114600Y0131893D01*
X0114861Y0130294D02*
X0114200Y0130294D01*
X0114200Y0128696D02*
X0115882Y0128696D01*
X0121800Y0121800D02*
X0136800Y0121800D01*
X0121800Y0115908D02*
X0121800Y0115908D01*
X0121800Y0114309D02*
X0121800Y0114309D01*
X0121800Y0112711D02*
X0121800Y0112711D01*
X0121800Y0111112D02*
X0121800Y0111112D01*
X0121800Y0109514D02*
X0121800Y0109514D01*
X0121800Y0107915D02*
X0121800Y0107915D01*
X0121800Y0106317D02*
X0121800Y0106317D01*
X0121800Y0104718D02*
X0121800Y0104718D01*
X0121800Y0103120D02*
X0121800Y0103120D01*
X0121800Y0101521D02*
X0121800Y0101521D01*
X0121800Y0099923D02*
X0121800Y0099923D01*
X0121800Y0098324D02*
X0121800Y0098324D01*
X0116105Y0095127D02*
X0114200Y0095127D01*
X0114200Y0093529D02*
X0114953Y0093529D01*
X0114600Y0091930D02*
X0114200Y0091930D01*
X0114200Y0090332D02*
X0114846Y0090332D01*
X0109400Y0088733D02*
X0104200Y0088733D01*
X0104200Y0087134D02*
X0109400Y0087134D01*
X0109400Y0085536D02*
X0104200Y0085536D01*
X0104200Y0083937D02*
X0109400Y0083937D01*
X0109400Y0082339D02*
X0104200Y0082339D01*
X0104200Y0080740D02*
X0109400Y0080740D01*
X0109400Y0079142D02*
X0104200Y0079142D01*
X0104200Y0077543D02*
X0109400Y0077543D01*
X0109556Y0075945D02*
X0104044Y0075945D01*
X0102741Y0074346D02*
X0110859Y0074346D01*
X0112458Y0072748D02*
X0101142Y0072748D01*
X0099543Y0071149D02*
X0114056Y0071149D01*
X0115169Y0069551D02*
X0098431Y0069551D01*
X0096809Y0067952D02*
X0116791Y0067952D01*
X0126091Y0075945D02*
X0149261Y0075945D01*
X0147662Y0077543D02*
X0125821Y0077543D01*
X0128164Y0079142D02*
X0146064Y0079142D01*
X0144465Y0080740D02*
X0128924Y0080740D01*
X0129000Y0082339D02*
X0142867Y0082339D01*
X0141268Y0083937D02*
X0128477Y0083937D01*
X0127078Y0085536D02*
X0139726Y0085536D01*
X0139400Y0099923D02*
X0128806Y0099923D01*
X0129200Y0101521D02*
X0139400Y0101521D01*
X0139400Y0103120D02*
X0129008Y0103120D01*
X0128166Y0104718D02*
X0139400Y0104718D01*
X0128276Y0074346D02*
X0150859Y0074346D01*
X0152458Y0072748D02*
X0128970Y0072748D01*
X0129000Y0071149D02*
X0154056Y0071149D01*
X0155655Y0069551D02*
X0128431Y0069551D01*
X0126809Y0067952D02*
X0157254Y0067952D01*
X0103220Y0135090D02*
X0097533Y0135090D01*
X0097309Y0138287D02*
X0106417Y0138287D01*
X0108016Y0139885D02*
X0098569Y0139885D01*
X0099000Y0141484D02*
X0109614Y0141484D01*
X0111213Y0143082D02*
X0098831Y0143082D01*
X0097942Y0144681D02*
X0112811Y0144681D01*
X0104819Y0136688D02*
X0050306Y0136688D01*
X0051904Y0135090D02*
X0086067Y0135090D01*
X0084938Y0133491D02*
X0053503Y0133491D01*
X0055101Y0131893D02*
X0084600Y0131893D01*
X0084861Y0130294D02*
X0056700Y0130294D01*
X0058298Y0128696D02*
X0085882Y0128696D01*
X0086291Y0138287D02*
X0048707Y0138287D01*
X0047109Y0139885D02*
X0085031Y0139885D01*
X0085450Y0165462D02*
X0088150Y0165462D01*
X0087242Y0167060D02*
X0086358Y0167060D01*
X0086600Y0168659D02*
X0087000Y0168659D01*
X0087000Y0170257D02*
X0086600Y0170257D01*
X0086600Y0171856D02*
X0087000Y0171856D01*
X0087000Y0173454D02*
X0086600Y0173454D01*
X0086600Y0175053D02*
X0087000Y0175053D01*
X0087288Y0176651D02*
X0086312Y0176651D01*
X0085339Y0178250D02*
X0088261Y0178250D01*
X0081800Y0171800D02*
X0076800Y0166800D01*
X0095450Y0165462D02*
X0097900Y0165462D01*
X0097043Y0167060D02*
X0096358Y0167060D01*
X0096600Y0168659D02*
X0096800Y0168659D01*
X0096800Y0170257D02*
X0096600Y0170257D01*
X0101600Y0170257D02*
X0102000Y0170257D01*
X0102000Y0168659D02*
X0101600Y0168659D01*
X0101600Y0167060D02*
X0102000Y0167060D01*
X0102000Y0165462D02*
X0101600Y0165462D01*
X0105700Y0165462D02*
X0107900Y0165462D01*
X0107043Y0167060D02*
X0106557Y0167060D01*
X0106800Y0168659D02*
X0106800Y0168659D01*
X0106800Y0170257D02*
X0106800Y0170257D01*
X0106800Y0172000D02*
X0106800Y0175394D01*
X0106800Y0172000D01*
X0106800Y0173454D02*
X0106800Y0173454D01*
X0106800Y0175053D02*
X0106800Y0175053D01*
X0106521Y0176651D02*
X0107079Y0176651D01*
X0107981Y0178250D02*
X0105619Y0178250D01*
X0103059Y0179848D02*
X0110541Y0179848D01*
X0111600Y0179848D02*
X0112000Y0179848D01*
X0112000Y0178250D02*
X0111600Y0178250D01*
X0111600Y0176651D02*
X0112000Y0176651D01*
X0112000Y0175053D02*
X0111600Y0175053D01*
X0111600Y0173454D02*
X0112000Y0173454D01*
X0102000Y0173454D02*
X0101600Y0173454D01*
X0101600Y0175053D02*
X0102000Y0175053D01*
X0102000Y0176651D02*
X0101600Y0176651D01*
X0101600Y0178250D02*
X0102000Y0178250D01*
X0102000Y0179848D02*
X0101600Y0179848D01*
X0150339Y0178250D02*
X0153261Y0178250D01*
X0152288Y0176651D02*
X0151312Y0176651D01*
X0151600Y0175053D02*
X0152000Y0175053D01*
X0152000Y0173454D02*
X0151600Y0173454D01*
X0151600Y0171856D02*
X0152000Y0171856D01*
X0152000Y0170257D02*
X0151600Y0170257D01*
X0151600Y0168659D02*
X0152000Y0168659D01*
X0152242Y0167060D02*
X0151358Y0167060D01*
X0150450Y0165462D02*
X0153150Y0165462D01*
X0160450Y0165462D02*
X0163150Y0165462D01*
X0162242Y0167060D02*
X0161358Y0167060D01*
X0161600Y0168659D02*
X0162000Y0168659D01*
X0162000Y0170257D02*
X0161600Y0170257D01*
X0161600Y0171856D02*
X0162000Y0171856D01*
X0162000Y0173454D02*
X0161600Y0173454D01*
X0161600Y0175053D02*
X0162000Y0175053D01*
X0162288Y0176651D02*
X0161312Y0176651D01*
X0160339Y0178250D02*
X0163261Y0178250D01*
X0170339Y0178250D02*
X0173261Y0178250D01*
X0172288Y0176651D02*
X0171312Y0176651D01*
X0171600Y0175053D02*
X0172000Y0175053D01*
X0172000Y0173454D02*
X0171600Y0173454D01*
X0171600Y0171856D02*
X0172000Y0171856D01*
X0172000Y0170257D02*
X0171600Y0170257D01*
X0171600Y0168659D02*
X0172000Y0168659D01*
X0172242Y0167060D02*
X0171358Y0167060D01*
X0170450Y0165462D02*
X0173150Y0165462D01*
X0051510Y0128696D02*
X0008600Y0128696D01*
X0008600Y0130294D02*
X0049912Y0130294D01*
X0048313Y0131893D02*
X0008600Y0131893D01*
X0008600Y0133491D02*
X0046715Y0133491D01*
X0045116Y0135090D02*
X0008600Y0135090D01*
X0008600Y0136688D02*
X0043518Y0136688D01*
X0041919Y0138287D02*
X0008600Y0138287D01*
X0008600Y0139885D02*
X0040321Y0139885D01*
M02*
