G75*
%MOIN*%
%OFA0B0*%
%FSLAX25Y25*%
%IPPOS*%
%LPD*%
%AMOC8*
5,1,8,0,0,1.08239X$1,22.5*
%
%ADD10C,0.05918*%
%ADD11C,0.06400*%
%ADD12C,0.07200*%
%ADD13C,0.07900*%
%ADD14OC8,0.07100*%
D10*
X0016800Y0026800D03*
X0016800Y0191800D03*
X0196800Y0191800D03*
X0196800Y0026800D03*
D11*
X0124600Y0071800D02*
X0119000Y0071800D01*
X0119000Y0081800D02*
X0124600Y0081800D01*
X0124600Y0091800D02*
X0119000Y0091800D01*
X0119000Y0101800D02*
X0124600Y0101800D01*
X0124600Y0111800D02*
X0119000Y0111800D01*
X0119000Y0121800D02*
X0124600Y0121800D01*
X0124600Y0131800D02*
X0119000Y0131800D01*
X0119000Y0141800D02*
X0124600Y0141800D01*
X0094600Y0141800D02*
X0089000Y0141800D01*
X0089000Y0131800D02*
X0094600Y0131800D01*
X0094600Y0121800D02*
X0089000Y0121800D01*
X0089000Y0111800D02*
X0094600Y0111800D01*
X0094600Y0101800D02*
X0089000Y0101800D01*
X0089000Y0091800D02*
X0094600Y0091800D01*
X0094600Y0081800D02*
X0089000Y0081800D01*
X0089000Y0071800D02*
X0094600Y0071800D01*
D12*
X0091800Y0168600D02*
X0091800Y0175000D01*
X0081800Y0175000D02*
X0081800Y0168600D01*
X0101800Y0168600D02*
X0101800Y0175000D01*
X0111800Y0175000D02*
X0111800Y0168600D01*
X0146800Y0168600D02*
X0146800Y0175000D01*
X0156800Y0175000D02*
X0156800Y0168600D01*
X0166800Y0168600D02*
X0166800Y0175000D01*
X0176800Y0175000D02*
X0176800Y0168600D01*
D13*
X0170350Y0121643D02*
X0163250Y0121643D01*
X0163250Y0101957D02*
X0170350Y0101957D01*
X0170350Y0066643D02*
X0163250Y0066643D01*
X0163250Y0046957D02*
X0170350Y0046957D01*
X0050350Y0046957D02*
X0043250Y0046957D01*
X0043250Y0066643D02*
X0050350Y0066643D01*
X0050350Y0101957D02*
X0043250Y0101957D01*
X0043250Y0121643D02*
X0050350Y0121643D01*
D14*
X0046800Y0146800D03*
X0036800Y0146800D03*
X0036800Y0166800D03*
X0046800Y0166800D03*
M02*
