%
M48
M72
T01C0.03200
T02C0.04000
T03C0.04400
T04C0.05118
%
T01
X76800Y134300
X76800Y144300
X76800Y154300
X76800Y164300
X61800Y164300
X61800Y154300
X96800Y184300
X106800Y184300
X106800Y164300
X106800Y154300
X106800Y144300
X106800Y134300
X121800Y114300
X141800Y114300
X141800Y64300
X121800Y64300
T02
X126800Y134300
X126800Y144300
X126800Y154300
X126800Y164300
X126800Y174300
T03
X86800Y111800
X46800Y111800
X66800Y41800
T04
X21800Y26800
X154300Y26800
X154300Y196800
X21800Y196800
M30
