G75*
%MOIN*%
%OFA0B0*%
%FSLAX25Y25*%
%IPPOS*%
%LPD*%
%AMOC8*
5,1,8,0,0,1.08239X$1,22.5*
%
%ADD10OC8,0.10000*%
%ADD11OC8,0.06300*%
%ADD12C,0.05600*%
%ADD13OC8,0.05600*%
%ADD14C,0.06400*%
%ADD15C,0.05600*%
%ADD16C,0.01600*%
%ADD17C,0.01000*%
D10*
X0066800Y0041800D03*
X0046800Y0111800D03*
X0086800Y0111800D03*
D11*
X0096800Y0184300D03*
X0106800Y0184300D03*
D12*
X0104000Y0164300D02*
X0109600Y0164300D01*
X0109600Y0154300D02*
X0104000Y0154300D01*
X0104000Y0144300D02*
X0109600Y0144300D01*
X0109600Y0134300D02*
X0104000Y0134300D01*
X0079600Y0134300D02*
X0074000Y0134300D01*
X0074000Y0144300D02*
X0079600Y0144300D01*
X0079600Y0154300D02*
X0074000Y0154300D01*
X0074000Y0164300D02*
X0079600Y0164300D01*
D13*
X0121800Y0114300D03*
X0141800Y0114300D03*
X0141800Y0064300D03*
X0121800Y0064300D03*
D14*
X0123600Y0134300D02*
X0130000Y0134300D01*
X0130000Y0144300D02*
X0123600Y0144300D01*
X0123600Y0154300D02*
X0130000Y0154300D01*
X0130000Y0164300D02*
X0123600Y0164300D01*
X0123600Y0174300D02*
X0130000Y0174300D01*
D15*
X0061800Y0164300D03*
X0061800Y0154300D03*
D16*
X0013600Y0204961D02*
X0013600Y0018600D01*
X0163701Y0018600D01*
X0163701Y0204961D01*
X0013600Y0204961D01*
X0013600Y0203417D02*
X0163701Y0203417D01*
X0163701Y0201818D02*
X0013600Y0201818D01*
X0013600Y0200220D02*
X0019055Y0200220D01*
X0019331Y0200495D02*
X0018105Y0199269D01*
X0017441Y0197667D01*
X0017441Y0195933D01*
X0018105Y0194331D01*
X0019331Y0193105D01*
X0020933Y0192441D01*
X0022667Y0192441D01*
X0024269Y0193105D01*
X0025495Y0194331D01*
X0026159Y0195933D01*
X0026159Y0197667D01*
X0025495Y0199269D01*
X0024269Y0200495D01*
X0022667Y0201159D01*
X0020933Y0201159D01*
X0019331Y0200495D01*
X0017836Y0198621D02*
X0013600Y0198621D01*
X0013600Y0197023D02*
X0017441Y0197023D01*
X0017652Y0195424D02*
X0013600Y0195424D01*
X0013600Y0193826D02*
X0018610Y0193826D01*
X0013600Y0192227D02*
X0163701Y0192227D01*
X0163701Y0190629D02*
X0013600Y0190629D01*
X0013600Y0189030D02*
X0094813Y0189030D01*
X0094832Y0189050D02*
X0092050Y0186268D01*
X0092050Y0182332D01*
X0094832Y0179550D01*
X0098768Y0179550D01*
X0101550Y0182332D01*
X0101550Y0186268D01*
X0098768Y0189050D01*
X0094832Y0189050D01*
X0093214Y0187432D02*
X0013600Y0187432D01*
X0013600Y0185833D02*
X0092050Y0185833D01*
X0092050Y0184235D02*
X0013600Y0184235D01*
X0013600Y0182636D02*
X0092050Y0182636D01*
X0093345Y0181038D02*
X0013600Y0181038D01*
X0013600Y0179439D02*
X0104660Y0179439D01*
X0104750Y0179350D02*
X0106800Y0179350D01*
X0108850Y0179350D01*
X0111750Y0182250D01*
X0111750Y0184300D01*
X0111750Y0186350D01*
X0108850Y0189250D01*
X0106800Y0189250D01*
X0106800Y0184300D01*
X0111750Y0184300D01*
X0106800Y0184300D01*
X0106800Y0184300D01*
X0106800Y0184300D01*
X0106800Y0179350D01*
X0106800Y0184300D01*
X0106800Y0184300D01*
X0106800Y0184300D01*
X0101850Y0184300D01*
X0101850Y0186350D01*
X0104750Y0189250D01*
X0106800Y0189250D01*
X0106800Y0184300D01*
X0101850Y0184300D01*
X0101850Y0182250D01*
X0104750Y0179350D01*
X0106800Y0179439D02*
X0106800Y0179439D01*
X0106800Y0181038D02*
X0106800Y0181038D01*
X0106800Y0182636D02*
X0106800Y0182636D01*
X0106800Y0184235D02*
X0106800Y0184235D01*
X0106800Y0185833D02*
X0106800Y0185833D01*
X0106800Y0187432D02*
X0106800Y0187432D01*
X0106800Y0189030D02*
X0106800Y0189030D01*
X0104530Y0189030D02*
X0098787Y0189030D01*
X0100386Y0187432D02*
X0102931Y0187432D01*
X0101850Y0185833D02*
X0101550Y0185833D01*
X0101550Y0184235D02*
X0101850Y0184235D01*
X0101850Y0182636D02*
X0101550Y0182636D01*
X0100255Y0181038D02*
X0103062Y0181038D01*
X0108940Y0179439D02*
X0163701Y0179439D01*
X0163701Y0177841D02*
X0133247Y0177841D01*
X0132719Y0178369D02*
X0130955Y0179100D01*
X0122645Y0179100D01*
X0120881Y0178369D01*
X0119531Y0177019D01*
X0119399Y0176700D01*
X0116323Y0176700D01*
X0115441Y0176335D01*
X0107806Y0168700D01*
X0103125Y0168700D01*
X0101508Y0168030D01*
X0100270Y0166792D01*
X0099600Y0165175D01*
X0099600Y0163425D01*
X0100270Y0161808D01*
X0101508Y0160570D01*
X0103125Y0159900D01*
X0110475Y0159900D01*
X0112092Y0160570D01*
X0113330Y0161808D01*
X0113474Y0162156D01*
X0114700Y0160930D01*
X0114700Y0129330D01*
X0115930Y0128100D01*
X0115930Y0128100D01*
X0119500Y0124530D01*
X0119500Y0118223D01*
X0117400Y0116123D01*
X0117400Y0112477D01*
X0119977Y0109900D01*
X0123623Y0109900D01*
X0124000Y0110277D01*
X0124000Y0098070D01*
X0120400Y0094470D01*
X0120400Y0068700D01*
X0119977Y0068700D01*
X0117400Y0066123D01*
X0117400Y0062477D01*
X0119977Y0059900D01*
X0123623Y0059900D01*
X0126200Y0062477D01*
X0126200Y0066123D01*
X0124600Y0067723D01*
X0124600Y0092730D01*
X0126970Y0095100D01*
X0128200Y0096330D01*
X0128200Y0129500D01*
X0130955Y0129500D01*
X0132719Y0130231D01*
X0134069Y0131581D01*
X0134800Y0133345D01*
X0134800Y0135255D01*
X0134393Y0136237D01*
X0139700Y0130930D01*
X0139700Y0127670D01*
X0133430Y0121400D01*
X0132200Y0120170D01*
X0132200Y0116770D01*
X0132100Y0116670D01*
X0132100Y0114930D01*
X0132200Y0114830D01*
X0132200Y0070930D01*
X0137400Y0065730D01*
X0137400Y0062477D01*
X0139977Y0059900D01*
X0143623Y0059900D01*
X0146200Y0062477D01*
X0146200Y0066123D01*
X0143623Y0068700D01*
X0140370Y0068700D01*
X0136400Y0072670D01*
X0136400Y0118430D01*
X0143900Y0125930D01*
X0143900Y0132670D01*
X0142670Y0133900D01*
X0134339Y0142231D01*
X0134800Y0143345D01*
X0134800Y0145255D01*
X0134069Y0147019D01*
X0132719Y0148369D01*
X0130955Y0149100D01*
X0122645Y0149100D01*
X0120881Y0148369D01*
X0119531Y0147019D01*
X0118900Y0145496D01*
X0118900Y0153104D01*
X0119531Y0151581D01*
X0120881Y0150231D01*
X0122645Y0149500D01*
X0130955Y0149500D01*
X0132719Y0150231D01*
X0134069Y0151581D01*
X0134800Y0153345D01*
X0134800Y0155255D01*
X0134069Y0157019D01*
X0132719Y0158369D01*
X0130955Y0159100D01*
X0122645Y0159100D01*
X0120881Y0158369D01*
X0119531Y0157019D01*
X0118900Y0155496D01*
X0118900Y0162585D01*
X0118966Y0162381D01*
X0119324Y0161679D01*
X0119786Y0161043D01*
X0120343Y0160486D01*
X0120979Y0160024D01*
X0121681Y0159666D01*
X0122429Y0159423D01*
X0123206Y0159300D01*
X0126600Y0159300D01*
X0126600Y0164100D01*
X0118600Y0164100D01*
X0118600Y0163906D01*
X0118723Y0163129D01*
X0118859Y0162711D01*
X0117670Y0163900D01*
X0114870Y0166700D01*
X0113368Y0166700D01*
X0113330Y0166792D01*
X0113008Y0167114D01*
X0117794Y0171900D01*
X0119399Y0171900D01*
X0119531Y0171581D01*
X0120881Y0170231D01*
X0122645Y0169500D01*
X0130955Y0169500D01*
X0132719Y0170231D01*
X0134069Y0171581D01*
X0134800Y0173345D01*
X0134800Y0175255D01*
X0134069Y0177019D01*
X0132719Y0178369D01*
X0134391Y0176242D02*
X0163701Y0176242D01*
X0163701Y0174644D02*
X0134800Y0174644D01*
X0134676Y0173045D02*
X0163701Y0173045D01*
X0163701Y0171447D02*
X0133935Y0171447D01*
X0131795Y0169848D02*
X0163701Y0169848D01*
X0163701Y0168250D02*
X0133070Y0168250D01*
X0133257Y0168114D02*
X0132621Y0168576D01*
X0131919Y0168934D01*
X0131171Y0169177D01*
X0130394Y0169300D01*
X0127000Y0169300D01*
X0127000Y0164500D01*
X0126600Y0164500D01*
X0126600Y0169300D01*
X0123206Y0169300D01*
X0122429Y0169177D01*
X0121681Y0168934D01*
X0120979Y0168576D01*
X0120343Y0168114D01*
X0119786Y0167557D01*
X0119324Y0166921D01*
X0118966Y0166219D01*
X0118723Y0165471D01*
X0118600Y0164694D01*
X0118600Y0164500D01*
X0126600Y0164500D01*
X0126600Y0164100D01*
X0127000Y0164100D01*
X0127000Y0164500D01*
X0135000Y0164500D01*
X0135000Y0164694D01*
X0134877Y0165471D01*
X0134634Y0166219D01*
X0134276Y0166921D01*
X0133814Y0167557D01*
X0133257Y0168114D01*
X0134414Y0166651D02*
X0163701Y0166651D01*
X0163701Y0165053D02*
X0134943Y0165053D01*
X0135000Y0164100D02*
X0127000Y0164100D01*
X0127000Y0159300D01*
X0130394Y0159300D01*
X0131171Y0159423D01*
X0131919Y0159666D01*
X0132621Y0160024D01*
X0133257Y0160486D01*
X0133814Y0161043D01*
X0134276Y0161679D01*
X0134634Y0162381D01*
X0134877Y0163129D01*
X0135000Y0163906D01*
X0135000Y0164100D01*
X0134928Y0163454D02*
X0163701Y0163454D01*
X0163701Y0161856D02*
X0134366Y0161856D01*
X0132942Y0160257D02*
X0163701Y0160257D01*
X0163701Y0158659D02*
X0132020Y0158659D01*
X0134028Y0157060D02*
X0163701Y0157060D01*
X0163701Y0155462D02*
X0134714Y0155462D01*
X0134800Y0153863D02*
X0163701Y0153863D01*
X0163701Y0152265D02*
X0134352Y0152265D01*
X0133154Y0150666D02*
X0163701Y0150666D01*
X0163701Y0149068D02*
X0131033Y0149068D01*
X0133619Y0147469D02*
X0163701Y0147469D01*
X0163701Y0145870D02*
X0134545Y0145870D01*
X0134800Y0144272D02*
X0163701Y0144272D01*
X0163701Y0142673D02*
X0134522Y0142673D01*
X0135495Y0141075D02*
X0163701Y0141075D01*
X0163701Y0139476D02*
X0137093Y0139476D01*
X0138692Y0137878D02*
X0163701Y0137878D01*
X0163701Y0136279D02*
X0140290Y0136279D01*
X0141889Y0134681D02*
X0163701Y0134681D01*
X0163701Y0133082D02*
X0143487Y0133082D01*
X0143900Y0131484D02*
X0163701Y0131484D01*
X0163701Y0129885D02*
X0143900Y0129885D01*
X0143900Y0128287D02*
X0163701Y0128287D01*
X0163701Y0126688D02*
X0143900Y0126688D01*
X0143060Y0125090D02*
X0163701Y0125090D01*
X0163701Y0123491D02*
X0141461Y0123491D01*
X0139863Y0121893D02*
X0163701Y0121893D01*
X0163701Y0120294D02*
X0138264Y0120294D01*
X0136666Y0118696D02*
X0139973Y0118696D01*
X0139977Y0118700D02*
X0137400Y0116123D01*
X0137400Y0112477D01*
X0139977Y0109900D01*
X0143623Y0109900D01*
X0146200Y0112477D01*
X0146200Y0116123D01*
X0143623Y0118700D01*
X0139977Y0118700D01*
X0138375Y0117097D02*
X0136400Y0117097D01*
X0136400Y0115499D02*
X0137400Y0115499D01*
X0137400Y0113900D02*
X0136400Y0113900D01*
X0136400Y0112302D02*
X0137576Y0112302D01*
X0136400Y0110703D02*
X0139174Y0110703D01*
X0136400Y0109105D02*
X0163701Y0109105D01*
X0163701Y0110703D02*
X0144426Y0110703D01*
X0146024Y0112302D02*
X0163701Y0112302D01*
X0163701Y0113900D02*
X0146200Y0113900D01*
X0146200Y0115499D02*
X0163701Y0115499D01*
X0163701Y0117097D02*
X0145225Y0117097D01*
X0143627Y0118696D02*
X0163701Y0118696D01*
X0163701Y0107506D02*
X0136400Y0107506D01*
X0136400Y0105908D02*
X0163701Y0105908D01*
X0163701Y0104309D02*
X0136400Y0104309D01*
X0136400Y0102711D02*
X0163701Y0102711D01*
X0163701Y0101112D02*
X0136400Y0101112D01*
X0136400Y0099514D02*
X0163701Y0099514D01*
X0163701Y0097915D02*
X0136400Y0097915D01*
X0136400Y0096317D02*
X0163701Y0096317D01*
X0163701Y0094718D02*
X0136400Y0094718D01*
X0136400Y0093120D02*
X0163701Y0093120D01*
X0163701Y0091521D02*
X0136400Y0091521D01*
X0136400Y0089923D02*
X0163701Y0089923D01*
X0163701Y0088324D02*
X0136400Y0088324D01*
X0136400Y0086726D02*
X0163701Y0086726D01*
X0163701Y0085127D02*
X0136400Y0085127D01*
X0136400Y0083529D02*
X0163701Y0083529D01*
X0163701Y0081930D02*
X0136400Y0081930D01*
X0136400Y0080332D02*
X0163701Y0080332D01*
X0163701Y0078733D02*
X0136400Y0078733D01*
X0136400Y0077134D02*
X0163701Y0077134D01*
X0163701Y0075536D02*
X0136400Y0075536D01*
X0136400Y0073937D02*
X0163701Y0073937D01*
X0163701Y0072339D02*
X0136731Y0072339D01*
X0138329Y0070740D02*
X0163701Y0070740D01*
X0163701Y0069142D02*
X0139928Y0069142D01*
X0137185Y0065945D02*
X0126200Y0065945D01*
X0126200Y0064346D02*
X0137400Y0064346D01*
X0137400Y0062748D02*
X0126200Y0062748D01*
X0124872Y0061149D02*
X0138728Y0061149D01*
X0135587Y0067543D02*
X0124779Y0067543D01*
X0124600Y0069142D02*
X0133988Y0069142D01*
X0132390Y0070740D02*
X0124600Y0070740D01*
X0124600Y0072339D02*
X0132200Y0072339D01*
X0132200Y0073937D02*
X0124600Y0073937D01*
X0124600Y0075536D02*
X0132200Y0075536D01*
X0132200Y0077134D02*
X0124600Y0077134D01*
X0124600Y0078733D02*
X0132200Y0078733D01*
X0132200Y0080332D02*
X0124600Y0080332D01*
X0124600Y0081930D02*
X0132200Y0081930D01*
X0132200Y0083529D02*
X0124600Y0083529D01*
X0124600Y0085127D02*
X0132200Y0085127D01*
X0132200Y0086726D02*
X0124600Y0086726D01*
X0124600Y0088324D02*
X0132200Y0088324D01*
X0132200Y0089923D02*
X0124600Y0089923D01*
X0124600Y0091521D02*
X0132200Y0091521D01*
X0132200Y0093120D02*
X0124989Y0093120D01*
X0126588Y0094718D02*
X0132200Y0094718D01*
X0132200Y0096317D02*
X0128186Y0096317D01*
X0128200Y0097915D02*
X0132200Y0097915D01*
X0132200Y0099514D02*
X0128200Y0099514D01*
X0128200Y0101112D02*
X0132200Y0101112D01*
X0132200Y0102711D02*
X0128200Y0102711D01*
X0128200Y0104309D02*
X0132200Y0104309D01*
X0132200Y0105908D02*
X0128200Y0105908D01*
X0128200Y0107506D02*
X0132200Y0107506D01*
X0132200Y0109105D02*
X0128200Y0109105D01*
X0128200Y0110703D02*
X0132200Y0110703D01*
X0132200Y0112302D02*
X0128200Y0112302D01*
X0128200Y0113900D02*
X0132200Y0113900D01*
X0132100Y0115499D02*
X0128200Y0115499D01*
X0128200Y0117097D02*
X0132200Y0117097D01*
X0132200Y0118696D02*
X0128200Y0118696D01*
X0128200Y0120294D02*
X0132324Y0120294D01*
X0133923Y0121893D02*
X0128200Y0121893D01*
X0128200Y0123491D02*
X0135521Y0123491D01*
X0137120Y0125090D02*
X0128200Y0125090D01*
X0128200Y0126688D02*
X0138719Y0126688D01*
X0139700Y0128287D02*
X0128200Y0128287D01*
X0131885Y0129885D02*
X0139700Y0129885D01*
X0139146Y0131484D02*
X0133972Y0131484D01*
X0134691Y0133082D02*
X0137548Y0133082D01*
X0135949Y0134681D02*
X0134800Y0134681D01*
X0122567Y0149068D02*
X0118900Y0149068D01*
X0118900Y0150666D02*
X0120446Y0150666D01*
X0119248Y0152265D02*
X0118900Y0152265D01*
X0114700Y0152265D02*
X0113519Y0152265D01*
X0113330Y0151808D02*
X0114000Y0153425D01*
X0114000Y0155175D01*
X0113330Y0156792D01*
X0112092Y0158030D01*
X0110475Y0158700D01*
X0103125Y0158700D01*
X0101508Y0158030D01*
X0100270Y0156792D01*
X0099600Y0155175D01*
X0099600Y0153425D01*
X0100270Y0151808D01*
X0101508Y0150570D01*
X0103125Y0149900D01*
X0110475Y0149900D01*
X0112092Y0150570D01*
X0113330Y0151808D01*
X0112189Y0150666D02*
X0114700Y0150666D01*
X0114700Y0149068D02*
X0013600Y0149068D01*
X0013600Y0150666D02*
X0059211Y0150666D01*
X0059308Y0150570D02*
X0060925Y0149900D01*
X0062675Y0149900D01*
X0064292Y0150570D01*
X0065530Y0151808D01*
X0066200Y0153425D01*
X0066200Y0155175D01*
X0065530Y0156792D01*
X0064292Y0158030D01*
X0062675Y0158700D01*
X0060925Y0158700D01*
X0059308Y0158030D01*
X0058070Y0156792D01*
X0057400Y0155175D01*
X0057400Y0153425D01*
X0058070Y0151808D01*
X0059308Y0150570D01*
X0057881Y0152265D02*
X0013600Y0152265D01*
X0013600Y0153863D02*
X0057400Y0153863D01*
X0057519Y0155462D02*
X0013600Y0155462D01*
X0013600Y0157060D02*
X0058338Y0157060D01*
X0060825Y0158659D02*
X0013600Y0158659D01*
X0013600Y0160257D02*
X0060063Y0160257D01*
X0059308Y0160570D02*
X0060925Y0159900D01*
X0062675Y0159900D01*
X0064292Y0160570D01*
X0065530Y0161808D01*
X0066200Y0163425D01*
X0066200Y0165175D01*
X0065530Y0166792D01*
X0064292Y0168030D01*
X0062675Y0168700D01*
X0060925Y0168700D01*
X0059308Y0168030D01*
X0058070Y0166792D01*
X0057400Y0165175D01*
X0057400Y0163425D01*
X0058070Y0161808D01*
X0059308Y0160570D01*
X0058050Y0161856D02*
X0013600Y0161856D01*
X0013600Y0163454D02*
X0057400Y0163454D01*
X0057400Y0165053D02*
X0013600Y0165053D01*
X0013600Y0166651D02*
X0058011Y0166651D01*
X0059838Y0168250D02*
X0013600Y0168250D01*
X0013600Y0169848D02*
X0108954Y0169848D01*
X0110553Y0171447D02*
X0013600Y0171447D01*
X0013600Y0173045D02*
X0112151Y0173045D01*
X0113750Y0174644D02*
X0013600Y0174644D01*
X0013600Y0176242D02*
X0115348Y0176242D01*
X0116800Y0174300D02*
X0106800Y0164300D01*
X0102263Y0160257D02*
X0081337Y0160257D01*
X0082092Y0160570D02*
X0083330Y0161808D01*
X0084000Y0163425D01*
X0084000Y0165175D01*
X0083330Y0166792D01*
X0082092Y0168030D01*
X0080475Y0168700D01*
X0073125Y0168700D01*
X0071508Y0168030D01*
X0070270Y0166792D01*
X0069600Y0165175D01*
X0069600Y0163425D01*
X0070270Y0161808D01*
X0071508Y0160570D01*
X0073125Y0159900D01*
X0080475Y0159900D01*
X0082092Y0160570D01*
X0083350Y0161856D02*
X0100250Y0161856D01*
X0099600Y0163454D02*
X0084000Y0163454D01*
X0084000Y0165053D02*
X0099600Y0165053D01*
X0100211Y0166651D02*
X0083389Y0166651D01*
X0081562Y0168250D02*
X0102038Y0168250D01*
X0103025Y0158659D02*
X0080575Y0158659D01*
X0080475Y0158700D02*
X0082092Y0158030D01*
X0083330Y0156792D01*
X0084000Y0155175D01*
X0084000Y0153425D01*
X0083330Y0151808D01*
X0082092Y0150570D01*
X0080475Y0149900D01*
X0073125Y0149900D01*
X0071508Y0150570D01*
X0070270Y0151808D01*
X0069600Y0153425D01*
X0069600Y0155175D01*
X0070270Y0156792D01*
X0071508Y0158030D01*
X0073125Y0158700D01*
X0080475Y0158700D01*
X0083062Y0157060D02*
X0100538Y0157060D01*
X0099719Y0155462D02*
X0083881Y0155462D01*
X0084000Y0153863D02*
X0099600Y0153863D01*
X0100081Y0152265D02*
X0083519Y0152265D01*
X0082189Y0150666D02*
X0101411Y0150666D01*
X0103125Y0148700D02*
X0101508Y0148030D01*
X0100270Y0146792D01*
X0099600Y0145175D01*
X0099600Y0143425D01*
X0100270Y0141808D01*
X0101508Y0140570D01*
X0103125Y0139900D01*
X0110475Y0139900D01*
X0112092Y0140570D01*
X0113330Y0141808D01*
X0114000Y0143425D01*
X0114000Y0145175D01*
X0113330Y0146792D01*
X0112092Y0148030D01*
X0110475Y0148700D01*
X0103125Y0148700D01*
X0100946Y0147469D02*
X0082654Y0147469D01*
X0082092Y0148030D02*
X0083330Y0146792D01*
X0084000Y0145175D01*
X0084000Y0143425D01*
X0083330Y0141808D01*
X0082092Y0140570D01*
X0080475Y0139900D01*
X0073125Y0139900D01*
X0071508Y0140570D01*
X0070270Y0141808D01*
X0069600Y0143425D01*
X0069600Y0145175D01*
X0070270Y0146792D01*
X0071508Y0148030D01*
X0073125Y0148700D01*
X0080475Y0148700D01*
X0082092Y0148030D01*
X0083712Y0145870D02*
X0099888Y0145870D01*
X0099600Y0144272D02*
X0084000Y0144272D01*
X0083689Y0142673D02*
X0099911Y0142673D01*
X0101002Y0141075D02*
X0082597Y0141075D01*
X0081366Y0138563D02*
X0080677Y0138787D01*
X0079962Y0138900D01*
X0076800Y0138900D01*
X0076800Y0134300D01*
X0076800Y0134300D01*
X0084200Y0134300D01*
X0084200Y0134662D01*
X0084087Y0135377D01*
X0083863Y0136066D01*
X0083534Y0136711D01*
X0083109Y0137297D01*
X0082597Y0137809D01*
X0082011Y0138234D01*
X0081366Y0138563D01*
X0082501Y0137878D02*
X0101355Y0137878D01*
X0101508Y0138030D02*
X0100270Y0136792D01*
X0099600Y0135175D01*
X0099600Y0133425D01*
X0100270Y0131808D01*
X0101508Y0130570D01*
X0103125Y0129900D01*
X0110475Y0129900D01*
X0112092Y0130570D01*
X0113330Y0131808D01*
X0114000Y0133425D01*
X0114000Y0135175D01*
X0113330Y0136792D01*
X0112092Y0138030D01*
X0110475Y0138700D01*
X0103125Y0138700D01*
X0101508Y0138030D01*
X0100057Y0136279D02*
X0083754Y0136279D01*
X0084197Y0134681D02*
X0099600Y0134681D01*
X0099742Y0133082D02*
X0084041Y0133082D01*
X0084087Y0133223D02*
X0084200Y0133938D01*
X0084200Y0134300D01*
X0076800Y0134300D01*
X0076800Y0134300D01*
X0076800Y0129700D01*
X0079962Y0129700D01*
X0080677Y0129813D01*
X0081366Y0130037D01*
X0082011Y0130366D01*
X0082597Y0130791D01*
X0083109Y0131303D01*
X0083534Y0131889D01*
X0083863Y0132534D01*
X0084087Y0133223D01*
X0083240Y0131484D02*
X0100594Y0131484D01*
X0112245Y0137878D02*
X0114700Y0137878D01*
X0114700Y0139476D02*
X0013600Y0139476D01*
X0013600Y0137878D02*
X0071099Y0137878D01*
X0071003Y0137809D02*
X0070491Y0137297D01*
X0070066Y0136711D01*
X0069737Y0136066D01*
X0069513Y0135377D01*
X0069400Y0134662D01*
X0069400Y0134300D01*
X0076800Y0134300D01*
X0076800Y0134300D01*
X0076800Y0134300D01*
X0076800Y0138900D01*
X0073638Y0138900D01*
X0072923Y0138787D01*
X0072234Y0138563D01*
X0071589Y0138234D01*
X0071003Y0137809D01*
X0069846Y0136279D02*
X0013600Y0136279D01*
X0013600Y0134681D02*
X0069403Y0134681D01*
X0069400Y0134300D02*
X0069400Y0133938D01*
X0069513Y0133223D01*
X0069737Y0132534D01*
X0070066Y0131889D01*
X0070491Y0131303D01*
X0071003Y0130791D01*
X0071589Y0130366D01*
X0072234Y0130037D01*
X0072923Y0129813D01*
X0073638Y0129700D01*
X0076800Y0129700D01*
X0076800Y0134300D01*
X0069400Y0134300D01*
X0069559Y0133082D02*
X0013600Y0133082D01*
X0013600Y0131484D02*
X0070360Y0131484D01*
X0072701Y0129885D02*
X0013600Y0129885D01*
X0013600Y0128287D02*
X0115743Y0128287D01*
X0114700Y0129885D02*
X0080899Y0129885D01*
X0076800Y0129885D02*
X0076800Y0129885D01*
X0076800Y0131484D02*
X0076800Y0131484D01*
X0076800Y0133082D02*
X0076800Y0133082D01*
X0076800Y0134681D02*
X0076800Y0134681D01*
X0076800Y0136279D02*
X0076800Y0136279D01*
X0076800Y0137878D02*
X0076800Y0137878D01*
X0071002Y0141075D02*
X0013600Y0141075D01*
X0013600Y0142673D02*
X0069911Y0142673D01*
X0069600Y0144272D02*
X0013600Y0144272D01*
X0013600Y0145870D02*
X0069888Y0145870D01*
X0070946Y0147469D02*
X0013600Y0147469D01*
X0013600Y0126688D02*
X0117342Y0126688D01*
X0118940Y0125090D02*
X0013600Y0125090D01*
X0013600Y0123491D02*
X0119500Y0123491D01*
X0119500Y0121893D02*
X0013600Y0121893D01*
X0013600Y0120294D02*
X0119500Y0120294D01*
X0119500Y0118696D02*
X0013600Y0118696D01*
X0013600Y0117097D02*
X0042763Y0117097D01*
X0044066Y0118400D02*
X0040200Y0114534D01*
X0040200Y0109066D01*
X0044066Y0105200D01*
X0049534Y0105200D01*
X0053400Y0109066D01*
X0053400Y0114534D01*
X0049534Y0118400D01*
X0044066Y0118400D01*
X0041165Y0115499D02*
X0013600Y0115499D01*
X0013600Y0113900D02*
X0040200Y0113900D01*
X0040200Y0112302D02*
X0013600Y0112302D01*
X0013600Y0110703D02*
X0040200Y0110703D01*
X0040200Y0109105D02*
X0013600Y0109105D01*
X0013600Y0107506D02*
X0041760Y0107506D01*
X0043358Y0105908D02*
X0013600Y0105908D01*
X0013600Y0104309D02*
X0124000Y0104309D01*
X0124000Y0102711D02*
X0013600Y0102711D01*
X0013600Y0101112D02*
X0124000Y0101112D01*
X0124000Y0099514D02*
X0013600Y0099514D01*
X0013600Y0097915D02*
X0123845Y0097915D01*
X0122247Y0096317D02*
X0013600Y0096317D01*
X0013600Y0094718D02*
X0120648Y0094718D01*
X0120400Y0093120D02*
X0013600Y0093120D01*
X0013600Y0091521D02*
X0120400Y0091521D01*
X0120400Y0089923D02*
X0013600Y0089923D01*
X0013600Y0088324D02*
X0120400Y0088324D01*
X0120400Y0086726D02*
X0013600Y0086726D01*
X0013600Y0085127D02*
X0120400Y0085127D01*
X0120400Y0083529D02*
X0013600Y0083529D01*
X0013600Y0081930D02*
X0120400Y0081930D01*
X0120400Y0080332D02*
X0013600Y0080332D01*
X0013600Y0078733D02*
X0120400Y0078733D01*
X0120400Y0077134D02*
X0013600Y0077134D01*
X0013600Y0075536D02*
X0120400Y0075536D01*
X0120400Y0073937D02*
X0013600Y0073937D01*
X0013600Y0072339D02*
X0120400Y0072339D01*
X0120400Y0070740D02*
X0013600Y0070740D01*
X0013600Y0069142D02*
X0120400Y0069142D01*
X0118821Y0067543D02*
X0013600Y0067543D01*
X0013600Y0065945D02*
X0117400Y0065945D01*
X0117400Y0064346D02*
X0013600Y0064346D01*
X0013600Y0062748D02*
X0117400Y0062748D01*
X0118728Y0061149D02*
X0013600Y0061149D01*
X0013600Y0059551D02*
X0163701Y0059551D01*
X0163701Y0061149D02*
X0144872Y0061149D01*
X0146200Y0062748D02*
X0163701Y0062748D01*
X0163701Y0064346D02*
X0146200Y0064346D01*
X0146200Y0065945D02*
X0163701Y0065945D01*
X0163701Y0067543D02*
X0144779Y0067543D01*
X0163701Y0057952D02*
X0013600Y0057952D01*
X0013600Y0056354D02*
X0163701Y0056354D01*
X0163701Y0054755D02*
X0013600Y0054755D01*
X0013600Y0053157D02*
X0163701Y0053157D01*
X0163701Y0051558D02*
X0013600Y0051558D01*
X0013600Y0049960D02*
X0163701Y0049960D01*
X0163701Y0048361D02*
X0069855Y0048361D01*
X0069617Y0048600D02*
X0067100Y0048600D01*
X0067100Y0042100D01*
X0073600Y0042100D01*
X0073600Y0044617D01*
X0069617Y0048600D01*
X0067100Y0048361D02*
X0066500Y0048361D01*
X0066500Y0048600D02*
X0063983Y0048600D01*
X0060000Y0044617D01*
X0060000Y0042100D01*
X0066500Y0042100D01*
X0066500Y0048600D01*
X0066500Y0046763D02*
X0067100Y0046763D01*
X0067100Y0045164D02*
X0066500Y0045164D01*
X0066500Y0043566D02*
X0067100Y0043566D01*
X0067100Y0042100D02*
X0066500Y0042100D01*
X0066500Y0041500D01*
X0067100Y0041500D01*
X0067100Y0042100D01*
X0067100Y0041967D02*
X0163701Y0041967D01*
X0163701Y0040369D02*
X0073600Y0040369D01*
X0073600Y0041500D02*
X0073600Y0038983D01*
X0069617Y0035000D01*
X0067100Y0035000D01*
X0067100Y0041500D01*
X0073600Y0041500D01*
X0073600Y0043566D02*
X0163701Y0043566D01*
X0163701Y0045164D02*
X0073052Y0045164D01*
X0071454Y0046763D02*
X0163701Y0046763D01*
X0163701Y0038770D02*
X0073387Y0038770D01*
X0071788Y0037172D02*
X0163701Y0037172D01*
X0163701Y0035573D02*
X0070190Y0035573D01*
X0067100Y0035573D02*
X0066500Y0035573D01*
X0066500Y0035000D02*
X0066500Y0041500D01*
X0060000Y0041500D01*
X0060000Y0038983D01*
X0063983Y0035000D01*
X0066500Y0035000D01*
X0066500Y0037172D02*
X0067100Y0037172D01*
X0067100Y0038770D02*
X0066500Y0038770D01*
X0066500Y0040369D02*
X0067100Y0040369D01*
X0066500Y0041967D02*
X0013600Y0041967D01*
X0013600Y0040369D02*
X0060000Y0040369D01*
X0060213Y0038770D02*
X0013600Y0038770D01*
X0013600Y0037172D02*
X0061812Y0037172D01*
X0063410Y0035573D02*
X0013600Y0035573D01*
X0013600Y0033975D02*
X0163701Y0033975D01*
X0163701Y0032376D02*
X0013600Y0032376D01*
X0013600Y0030778D02*
X0020012Y0030778D01*
X0019331Y0030495D02*
X0020933Y0031159D01*
X0022667Y0031159D01*
X0024269Y0030495D01*
X0025495Y0029269D01*
X0026159Y0027667D01*
X0026159Y0025933D01*
X0025495Y0024331D01*
X0024269Y0023105D01*
X0022667Y0022441D01*
X0020933Y0022441D01*
X0019331Y0023105D01*
X0018105Y0024331D01*
X0017441Y0025933D01*
X0017441Y0027667D01*
X0018105Y0029269D01*
X0019331Y0030495D01*
X0018067Y0029179D02*
X0013600Y0029179D01*
X0013600Y0027581D02*
X0017441Y0027581D01*
X0017441Y0025982D02*
X0013600Y0025982D01*
X0013600Y0024384D02*
X0018083Y0024384D01*
X0020102Y0022785D02*
X0013600Y0022785D01*
X0013600Y0021187D02*
X0163701Y0021187D01*
X0163701Y0022785D02*
X0155998Y0022785D01*
X0156769Y0023105D02*
X0157995Y0024331D01*
X0158659Y0025933D01*
X0158659Y0027667D01*
X0157995Y0029269D01*
X0156769Y0030495D01*
X0155167Y0031159D01*
X0153433Y0031159D01*
X0151831Y0030495D01*
X0150605Y0029269D01*
X0149941Y0027667D01*
X0149941Y0025933D01*
X0150605Y0024331D01*
X0151831Y0023105D01*
X0153433Y0022441D01*
X0155167Y0022441D01*
X0156769Y0023105D01*
X0158017Y0024384D02*
X0163701Y0024384D01*
X0163701Y0025982D02*
X0158659Y0025982D01*
X0158659Y0027581D02*
X0163701Y0027581D01*
X0163701Y0029179D02*
X0158033Y0029179D01*
X0156088Y0030778D02*
X0163701Y0030778D01*
X0163701Y0019588D02*
X0013600Y0019588D01*
X0023498Y0022785D02*
X0152602Y0022785D01*
X0150583Y0024384D02*
X0025517Y0024384D01*
X0026159Y0025982D02*
X0149941Y0025982D01*
X0149941Y0027581D02*
X0026159Y0027581D01*
X0025533Y0029179D02*
X0150567Y0029179D01*
X0152512Y0030778D02*
X0023588Y0030778D01*
X0013600Y0043566D02*
X0060000Y0043566D01*
X0060548Y0045164D02*
X0013600Y0045164D01*
X0013600Y0046763D02*
X0062146Y0046763D01*
X0063745Y0048361D02*
X0013600Y0048361D01*
X0050241Y0105908D02*
X0083358Y0105908D01*
X0084066Y0105200D02*
X0089534Y0105200D01*
X0093400Y0109066D01*
X0093400Y0114534D01*
X0089534Y0118400D01*
X0084066Y0118400D01*
X0080200Y0114534D01*
X0080200Y0109066D01*
X0084066Y0105200D01*
X0081760Y0107506D02*
X0051840Y0107506D01*
X0053400Y0109105D02*
X0080200Y0109105D01*
X0080200Y0110703D02*
X0053400Y0110703D01*
X0053400Y0112302D02*
X0080200Y0112302D01*
X0080200Y0113900D02*
X0053400Y0113900D01*
X0052435Y0115499D02*
X0081165Y0115499D01*
X0082763Y0117097D02*
X0050837Y0117097D01*
X0064389Y0150666D02*
X0071411Y0150666D01*
X0070081Y0152265D02*
X0065719Y0152265D01*
X0066200Y0153863D02*
X0069600Y0153863D01*
X0069719Y0155462D02*
X0066081Y0155462D01*
X0065262Y0157060D02*
X0070538Y0157060D01*
X0073025Y0158659D02*
X0062775Y0158659D01*
X0063537Y0160257D02*
X0072263Y0160257D01*
X0070250Y0161856D02*
X0065550Y0161856D01*
X0066200Y0163454D02*
X0069600Y0163454D01*
X0069600Y0165053D02*
X0066200Y0165053D01*
X0065589Y0166651D02*
X0070211Y0166651D01*
X0072038Y0168250D02*
X0063762Y0168250D01*
X0025948Y0195424D02*
X0150152Y0195424D01*
X0149941Y0195933D02*
X0150605Y0194331D01*
X0151831Y0193105D01*
X0153433Y0192441D01*
X0155167Y0192441D01*
X0156769Y0193105D01*
X0157995Y0194331D01*
X0158659Y0195933D01*
X0158659Y0197667D01*
X0157995Y0199269D01*
X0156769Y0200495D01*
X0155167Y0201159D01*
X0153433Y0201159D01*
X0151831Y0200495D01*
X0150605Y0199269D01*
X0149941Y0197667D01*
X0149941Y0195933D01*
X0149941Y0197023D02*
X0026159Y0197023D01*
X0025764Y0198621D02*
X0150336Y0198621D01*
X0151555Y0200220D02*
X0024545Y0200220D01*
X0024990Y0193826D02*
X0151110Y0193826D01*
X0157045Y0200220D02*
X0163701Y0200220D01*
X0163701Y0198621D02*
X0158264Y0198621D01*
X0158659Y0197023D02*
X0163701Y0197023D01*
X0163701Y0195424D02*
X0158448Y0195424D01*
X0157490Y0193826D02*
X0163701Y0193826D01*
X0163701Y0189030D02*
X0109070Y0189030D01*
X0110669Y0187432D02*
X0163701Y0187432D01*
X0163701Y0185833D02*
X0111750Y0185833D01*
X0111750Y0184235D02*
X0163701Y0184235D01*
X0163701Y0182636D02*
X0111750Y0182636D01*
X0110538Y0181038D02*
X0163701Y0181038D01*
X0127000Y0168250D02*
X0126600Y0168250D01*
X0126600Y0166651D02*
X0127000Y0166651D01*
X0127000Y0165053D02*
X0126600Y0165053D01*
X0126600Y0163454D02*
X0127000Y0163454D01*
X0127000Y0161856D02*
X0126600Y0161856D01*
X0126600Y0160257D02*
X0127000Y0160257D01*
X0121580Y0158659D02*
X0118900Y0158659D01*
X0118900Y0160257D02*
X0120658Y0160257D01*
X0119234Y0161856D02*
X0118900Y0161856D01*
X0118672Y0163454D02*
X0118116Y0163454D01*
X0118657Y0165053D02*
X0116517Y0165053D01*
X0114919Y0166651D02*
X0119186Y0166651D01*
X0120530Y0168250D02*
X0114144Y0168250D01*
X0115742Y0169848D02*
X0121805Y0169848D01*
X0119665Y0171447D02*
X0117341Y0171447D01*
X0116800Y0174300D02*
X0126800Y0174300D01*
X0120352Y0177841D02*
X0013600Y0177841D01*
X0090837Y0117097D02*
X0118375Y0117097D01*
X0117400Y0115499D02*
X0092435Y0115499D01*
X0093400Y0113900D02*
X0117400Y0113900D01*
X0117576Y0112302D02*
X0093400Y0112302D01*
X0093400Y0110703D02*
X0119174Y0110703D01*
X0124000Y0109105D02*
X0093400Y0109105D01*
X0091840Y0107506D02*
X0124000Y0107506D01*
X0124000Y0105908D02*
X0090241Y0105908D01*
X0113006Y0131484D02*
X0114700Y0131484D01*
X0114700Y0133082D02*
X0113858Y0133082D01*
X0114000Y0134681D02*
X0114700Y0134681D01*
X0114700Y0136279D02*
X0113543Y0136279D01*
X0112597Y0141075D02*
X0114700Y0141075D01*
X0114700Y0142673D02*
X0113689Y0142673D01*
X0114000Y0144272D02*
X0114700Y0144272D01*
X0114700Y0145870D02*
X0113712Y0145870D01*
X0114700Y0147469D02*
X0112654Y0147469D01*
X0118900Y0147469D02*
X0119981Y0147469D01*
X0119055Y0145870D02*
X0118900Y0145870D01*
X0114700Y0153863D02*
X0114000Y0153863D01*
X0113881Y0155462D02*
X0114700Y0155462D01*
X0114700Y0157060D02*
X0113062Y0157060D01*
X0114700Y0158659D02*
X0110575Y0158659D01*
X0111337Y0160257D02*
X0114700Y0160257D01*
X0113775Y0161856D02*
X0113350Y0161856D01*
X0118900Y0157060D02*
X0119572Y0157060D01*
D17*
X0116800Y0161800D02*
X0116800Y0130200D01*
X0121600Y0125400D01*
X0121600Y0114900D01*
X0121800Y0114300D01*
X0134200Y0115800D02*
X0134300Y0115700D01*
X0134300Y0071800D01*
X0141800Y0064300D01*
X0141400Y0064500D01*
X0122500Y0064500D02*
X0121800Y0064300D01*
X0122500Y0064500D02*
X0122500Y0093600D01*
X0126100Y0097200D01*
X0126100Y0134000D01*
X0126800Y0134300D01*
X0127000Y0143900D02*
X0129700Y0143900D01*
X0141800Y0131800D01*
X0141800Y0126800D01*
X0134300Y0119300D01*
X0134300Y0115700D01*
X0127000Y0143900D02*
X0126800Y0144300D01*
X0116800Y0161800D02*
X0114000Y0164600D01*
X0107200Y0164600D01*
X0106800Y0164300D01*
M02*
