G75*
%MOIN*%
%OFA0B0*%
%FSLAX25Y25*%
%IPPOS*%
%LPD*%
%AMOC8*
5,1,8,0,0,1.08239X$1,22.5*
%
%ADD10C,0.00600*%
%ADD11C,0.00500*%
%ADD12C,0.00700*%
%ADD13C,0.01000*%
%ADD14C,0.02400*%
%ADD15R,0.02400X0.03400*%
%ADD16C,0.01600*%
%ADD17R,0.02300X0.01600*%
D10*
X0040800Y0059300D02*
X0061800Y0059300D01*
X0061800Y0081800D01*
X0071800Y0081800D01*
X0071800Y0059300D01*
X0092800Y0059300D01*
X0092800Y0112800D01*
X0080800Y0112800D02*
X0052800Y0112800D01*
X0040800Y0112800D02*
X0040800Y0059300D01*
X0092864Y0099484D02*
X0093568Y0098851D01*
X0094257Y0098201D01*
X0094930Y0097535D01*
X0095587Y0096853D01*
X0096227Y0096155D01*
X0096850Y0095442D01*
X0097456Y0094715D01*
X0098044Y0093973D01*
X0098615Y0093217D01*
X0099167Y0092448D01*
X0099700Y0091665D01*
X0100215Y0090871D01*
X0100710Y0090064D01*
X0101186Y0089245D01*
X0101642Y0088415D01*
X0102079Y0087575D01*
X0102494Y0086724D01*
X0102890Y0085864D01*
X0103265Y0084994D01*
X0103618Y0084116D01*
X0103951Y0083230D01*
X0104262Y0082335D01*
X0104552Y0081434D01*
X0104820Y0080526D01*
X0105066Y0079611D01*
X0105290Y0078692D01*
X0105492Y0077766D01*
X0105672Y0076837D01*
X0105830Y0075903D01*
X0105965Y0074966D01*
X0106077Y0074026D01*
X0106167Y0073083D01*
X0106235Y0072139D01*
X0106279Y0071193D01*
X0106301Y0070246D01*
X0106301Y0069300D01*
X0117300Y0077800D02*
X0117300Y0079300D01*
X0117800Y0079800D01*
X0117800Y0098800D01*
X0117300Y0099300D01*
X0117300Y0100800D01*
X0117302Y0100860D01*
X0117307Y0100921D01*
X0117316Y0100980D01*
X0117329Y0101039D01*
X0117345Y0101098D01*
X0117365Y0101155D01*
X0117388Y0101210D01*
X0117415Y0101265D01*
X0117444Y0101317D01*
X0117477Y0101368D01*
X0117513Y0101417D01*
X0117551Y0101463D01*
X0117593Y0101507D01*
X0117637Y0101549D01*
X0117683Y0101587D01*
X0117732Y0101623D01*
X0117783Y0101656D01*
X0117835Y0101685D01*
X0117890Y0101712D01*
X0117945Y0101735D01*
X0118002Y0101755D01*
X0118061Y0101771D01*
X0118120Y0101784D01*
X0118179Y0101793D01*
X0118240Y0101798D01*
X0118300Y0101800D01*
X0125300Y0101800D01*
X0125360Y0101798D01*
X0125421Y0101793D01*
X0125480Y0101784D01*
X0125539Y0101771D01*
X0125598Y0101755D01*
X0125655Y0101735D01*
X0125710Y0101712D01*
X0125765Y0101685D01*
X0125817Y0101656D01*
X0125868Y0101623D01*
X0125917Y0101587D01*
X0125963Y0101549D01*
X0126007Y0101507D01*
X0126049Y0101463D01*
X0126087Y0101417D01*
X0126123Y0101368D01*
X0126156Y0101317D01*
X0126185Y0101265D01*
X0126212Y0101210D01*
X0126235Y0101155D01*
X0126255Y0101098D01*
X0126271Y0101039D01*
X0126284Y0100980D01*
X0126293Y0100921D01*
X0126298Y0100860D01*
X0126300Y0100800D01*
X0126300Y0099300D01*
X0125800Y0098800D01*
X0125800Y0079800D01*
X0126300Y0079300D01*
X0126300Y0077800D01*
X0126298Y0077740D01*
X0126293Y0077679D01*
X0126284Y0077620D01*
X0126271Y0077561D01*
X0126255Y0077502D01*
X0126235Y0077445D01*
X0126212Y0077390D01*
X0126185Y0077335D01*
X0126156Y0077283D01*
X0126123Y0077232D01*
X0126087Y0077183D01*
X0126049Y0077137D01*
X0126007Y0077093D01*
X0125963Y0077051D01*
X0125917Y0077013D01*
X0125868Y0076977D01*
X0125817Y0076944D01*
X0125765Y0076915D01*
X0125710Y0076888D01*
X0125655Y0076865D01*
X0125598Y0076845D01*
X0125539Y0076829D01*
X0125480Y0076816D01*
X0125421Y0076807D01*
X0125360Y0076802D01*
X0125300Y0076800D01*
X0118300Y0076800D01*
X0118240Y0076802D01*
X0118179Y0076807D01*
X0118120Y0076816D01*
X0118061Y0076829D01*
X0118002Y0076845D01*
X0117945Y0076865D01*
X0117890Y0076888D01*
X0117835Y0076915D01*
X0117783Y0076944D01*
X0117732Y0076977D01*
X0117683Y0077013D01*
X0117637Y0077051D01*
X0117593Y0077093D01*
X0117551Y0077137D01*
X0117513Y0077183D01*
X0117477Y0077232D01*
X0117444Y0077283D01*
X0117415Y0077335D01*
X0117388Y0077390D01*
X0117365Y0077445D01*
X0117345Y0077502D01*
X0117329Y0077561D01*
X0117316Y0077620D01*
X0117307Y0077679D01*
X0117302Y0077740D01*
X0117300Y0077800D01*
X0137300Y0077800D02*
X0137300Y0079300D01*
X0137800Y0079800D01*
X0137800Y0098800D01*
X0137300Y0099300D01*
X0137300Y0100800D01*
X0137302Y0100860D01*
X0137307Y0100921D01*
X0137316Y0100980D01*
X0137329Y0101039D01*
X0137345Y0101098D01*
X0137365Y0101155D01*
X0137388Y0101210D01*
X0137415Y0101265D01*
X0137444Y0101317D01*
X0137477Y0101368D01*
X0137513Y0101417D01*
X0137551Y0101463D01*
X0137593Y0101507D01*
X0137637Y0101549D01*
X0137683Y0101587D01*
X0137732Y0101623D01*
X0137783Y0101656D01*
X0137835Y0101685D01*
X0137890Y0101712D01*
X0137945Y0101735D01*
X0138002Y0101755D01*
X0138061Y0101771D01*
X0138120Y0101784D01*
X0138179Y0101793D01*
X0138240Y0101798D01*
X0138300Y0101800D01*
X0145300Y0101800D01*
X0145360Y0101798D01*
X0145421Y0101793D01*
X0145480Y0101784D01*
X0145539Y0101771D01*
X0145598Y0101755D01*
X0145655Y0101735D01*
X0145710Y0101712D01*
X0145765Y0101685D01*
X0145817Y0101656D01*
X0145868Y0101623D01*
X0145917Y0101587D01*
X0145963Y0101549D01*
X0146007Y0101507D01*
X0146049Y0101463D01*
X0146087Y0101417D01*
X0146123Y0101368D01*
X0146156Y0101317D01*
X0146185Y0101265D01*
X0146212Y0101210D01*
X0146235Y0101155D01*
X0146255Y0101098D01*
X0146271Y0101039D01*
X0146284Y0100980D01*
X0146293Y0100921D01*
X0146298Y0100860D01*
X0146300Y0100800D01*
X0146300Y0099300D01*
X0145800Y0098800D01*
X0145800Y0079800D01*
X0146300Y0079300D01*
X0146300Y0077800D01*
X0146298Y0077740D01*
X0146293Y0077679D01*
X0146284Y0077620D01*
X0146271Y0077561D01*
X0146255Y0077502D01*
X0146235Y0077445D01*
X0146212Y0077390D01*
X0146185Y0077335D01*
X0146156Y0077283D01*
X0146123Y0077232D01*
X0146087Y0077183D01*
X0146049Y0077137D01*
X0146007Y0077093D01*
X0145963Y0077051D01*
X0145917Y0077013D01*
X0145868Y0076977D01*
X0145817Y0076944D01*
X0145765Y0076915D01*
X0145710Y0076888D01*
X0145655Y0076865D01*
X0145598Y0076845D01*
X0145539Y0076829D01*
X0145480Y0076816D01*
X0145421Y0076807D01*
X0145360Y0076802D01*
X0145300Y0076800D01*
X0138300Y0076800D01*
X0138240Y0076802D01*
X0138179Y0076807D01*
X0138120Y0076816D01*
X0138061Y0076829D01*
X0138002Y0076845D01*
X0137945Y0076865D01*
X0137890Y0076888D01*
X0137835Y0076915D01*
X0137783Y0076944D01*
X0137732Y0076977D01*
X0137683Y0077013D01*
X0137637Y0077051D01*
X0137593Y0077093D01*
X0137551Y0077137D01*
X0137513Y0077183D01*
X0137477Y0077232D01*
X0137444Y0077283D01*
X0137415Y0077335D01*
X0137388Y0077390D01*
X0137365Y0077445D01*
X0137345Y0077502D01*
X0137329Y0077561D01*
X0137316Y0077620D01*
X0137307Y0077679D01*
X0137302Y0077740D01*
X0137300Y0077800D01*
X0129300Y0129300D02*
X0124300Y0129300D01*
X0121800Y0131800D01*
X0121800Y0136800D01*
X0124300Y0139300D01*
X0121800Y0141800D01*
X0121800Y0146800D01*
X0124300Y0149300D01*
X0121800Y0151800D01*
X0121800Y0156800D01*
X0124300Y0159300D01*
X0121800Y0161800D01*
X0121800Y0166800D01*
X0124300Y0169300D01*
X0121800Y0171800D01*
X0121800Y0176800D01*
X0124300Y0179300D01*
X0129300Y0179300D01*
X0131800Y0176800D01*
X0131800Y0171800D01*
X0129300Y0169300D01*
X0131800Y0166800D01*
X0131800Y0161800D01*
X0129300Y0159300D01*
X0131800Y0156800D01*
X0131800Y0151800D01*
X0129300Y0149300D01*
X0131800Y0146800D01*
X0131800Y0141800D01*
X0129300Y0139300D01*
X0131800Y0136800D01*
X0131800Y0131800D01*
X0129300Y0129300D01*
X0111800Y0129300D02*
X0101800Y0129300D01*
X0081800Y0129300D01*
X0071800Y0129300D01*
X0071800Y0169300D01*
X0081800Y0169300D01*
X0087800Y0169300D01*
X0087802Y0169174D01*
X0087808Y0169049D01*
X0087818Y0168924D01*
X0087832Y0168799D01*
X0087849Y0168674D01*
X0087871Y0168550D01*
X0087896Y0168427D01*
X0087926Y0168305D01*
X0087959Y0168184D01*
X0087996Y0168064D01*
X0088036Y0167945D01*
X0088081Y0167828D01*
X0088129Y0167711D01*
X0088181Y0167597D01*
X0088236Y0167484D01*
X0088295Y0167373D01*
X0088357Y0167264D01*
X0088423Y0167157D01*
X0088492Y0167052D01*
X0088564Y0166949D01*
X0088639Y0166848D01*
X0088718Y0166750D01*
X0088800Y0166655D01*
X0088884Y0166562D01*
X0088972Y0166472D01*
X0089062Y0166384D01*
X0089155Y0166300D01*
X0089250Y0166218D01*
X0089348Y0166139D01*
X0089449Y0166064D01*
X0089552Y0165992D01*
X0089657Y0165923D01*
X0089764Y0165857D01*
X0089873Y0165795D01*
X0089984Y0165736D01*
X0090097Y0165681D01*
X0090211Y0165629D01*
X0090328Y0165581D01*
X0090445Y0165536D01*
X0090564Y0165496D01*
X0090684Y0165459D01*
X0090805Y0165426D01*
X0090927Y0165396D01*
X0091050Y0165371D01*
X0091174Y0165349D01*
X0091299Y0165332D01*
X0091424Y0165318D01*
X0091549Y0165308D01*
X0091674Y0165302D01*
X0091800Y0165300D01*
X0091926Y0165302D01*
X0092051Y0165308D01*
X0092176Y0165318D01*
X0092301Y0165332D01*
X0092426Y0165349D01*
X0092550Y0165371D01*
X0092673Y0165396D01*
X0092795Y0165426D01*
X0092916Y0165459D01*
X0093036Y0165496D01*
X0093155Y0165536D01*
X0093272Y0165581D01*
X0093389Y0165629D01*
X0093503Y0165681D01*
X0093616Y0165736D01*
X0093727Y0165795D01*
X0093836Y0165857D01*
X0093943Y0165923D01*
X0094048Y0165992D01*
X0094151Y0166064D01*
X0094252Y0166139D01*
X0094350Y0166218D01*
X0094445Y0166300D01*
X0094538Y0166384D01*
X0094628Y0166472D01*
X0094716Y0166562D01*
X0094800Y0166655D01*
X0094882Y0166750D01*
X0094961Y0166848D01*
X0095036Y0166949D01*
X0095108Y0167052D01*
X0095177Y0167157D01*
X0095243Y0167264D01*
X0095305Y0167373D01*
X0095364Y0167484D01*
X0095419Y0167597D01*
X0095471Y0167711D01*
X0095519Y0167828D01*
X0095564Y0167945D01*
X0095604Y0168064D01*
X0095641Y0168184D01*
X0095674Y0168305D01*
X0095704Y0168427D01*
X0095729Y0168550D01*
X0095751Y0168674D01*
X0095768Y0168799D01*
X0095782Y0168924D01*
X0095792Y0169049D01*
X0095798Y0169174D01*
X0095800Y0169300D01*
X0101800Y0169300D01*
X0101800Y0129300D01*
X0111800Y0129300D02*
X0111800Y0169300D01*
X0101800Y0169300D01*
X0110300Y0175300D02*
X0093300Y0175300D01*
X0093240Y0175302D01*
X0093179Y0175307D01*
X0093120Y0175316D01*
X0093061Y0175329D01*
X0093002Y0175345D01*
X0092945Y0175365D01*
X0092890Y0175388D01*
X0092835Y0175415D01*
X0092783Y0175444D01*
X0092732Y0175477D01*
X0092683Y0175513D01*
X0092637Y0175551D01*
X0092593Y0175593D01*
X0092551Y0175637D01*
X0092513Y0175683D01*
X0092477Y0175732D01*
X0092444Y0175783D01*
X0092415Y0175835D01*
X0092388Y0175890D01*
X0092365Y0175945D01*
X0092345Y0176002D01*
X0092329Y0176061D01*
X0092316Y0176120D01*
X0092307Y0176179D01*
X0092302Y0176240D01*
X0092300Y0176300D01*
X0092300Y0192300D01*
X0092302Y0192360D01*
X0092307Y0192421D01*
X0092316Y0192480D01*
X0092329Y0192539D01*
X0092345Y0192598D01*
X0092365Y0192655D01*
X0092388Y0192710D01*
X0092415Y0192765D01*
X0092444Y0192817D01*
X0092477Y0192868D01*
X0092513Y0192917D01*
X0092551Y0192963D01*
X0092593Y0193007D01*
X0092637Y0193049D01*
X0092683Y0193087D01*
X0092732Y0193123D01*
X0092783Y0193156D01*
X0092835Y0193185D01*
X0092890Y0193212D01*
X0092945Y0193235D01*
X0093002Y0193255D01*
X0093061Y0193271D01*
X0093120Y0193284D01*
X0093179Y0193293D01*
X0093240Y0193298D01*
X0093300Y0193300D01*
X0110300Y0193300D01*
X0110360Y0193298D01*
X0110421Y0193293D01*
X0110480Y0193284D01*
X0110539Y0193271D01*
X0110598Y0193255D01*
X0110655Y0193235D01*
X0110710Y0193212D01*
X0110765Y0193185D01*
X0110817Y0193156D01*
X0110868Y0193123D01*
X0110917Y0193087D01*
X0110963Y0193049D01*
X0111007Y0193007D01*
X0111049Y0192963D01*
X0111087Y0192917D01*
X0111123Y0192868D01*
X0111156Y0192817D01*
X0111185Y0192765D01*
X0111212Y0192710D01*
X0111235Y0192655D01*
X0111255Y0192598D01*
X0111271Y0192539D01*
X0111284Y0192480D01*
X0111293Y0192421D01*
X0111298Y0192360D01*
X0111300Y0192300D01*
X0111300Y0176300D01*
X0111298Y0176240D01*
X0111293Y0176179D01*
X0111284Y0176120D01*
X0111271Y0176061D01*
X0111255Y0176002D01*
X0111235Y0175945D01*
X0111212Y0175890D01*
X0111185Y0175835D01*
X0111156Y0175783D01*
X0111123Y0175732D01*
X0111087Y0175683D01*
X0111049Y0175637D01*
X0111007Y0175593D01*
X0110963Y0175551D01*
X0110917Y0175513D01*
X0110868Y0175477D01*
X0110817Y0175444D01*
X0110765Y0175415D01*
X0110710Y0175388D01*
X0110655Y0175365D01*
X0110598Y0175345D01*
X0110539Y0175329D01*
X0110480Y0175316D01*
X0110421Y0175307D01*
X0110360Y0175302D01*
X0110300Y0175300D01*
X0103300Y0184300D02*
X0102800Y0184300D01*
X0100800Y0184300D02*
X0100300Y0184300D01*
X0089042Y0186370D02*
X0086906Y0186370D01*
X0087974Y0187438D02*
X0087974Y0183168D01*
X0089042Y0182100D01*
X0084731Y0182100D02*
X0084731Y0186370D01*
X0084731Y0182100D02*
X0081529Y0182100D01*
X0080461Y0183168D01*
X0080461Y0186370D01*
X0078286Y0187438D02*
X0078286Y0183168D01*
X0077218Y0182100D01*
X0075083Y0182100D01*
X0074015Y0183168D01*
X0074015Y0187438D01*
X0075083Y0188505D01*
X0077218Y0188505D01*
X0078286Y0187438D01*
X0071840Y0185303D02*
X0067570Y0185303D01*
X0065401Y0186370D02*
X0062199Y0184235D01*
X0065401Y0182100D01*
X0062199Y0182100D02*
X0062199Y0188505D01*
X0060030Y0186370D02*
X0058963Y0186370D01*
X0056827Y0184235D01*
X0056827Y0182100D02*
X0056827Y0186370D01*
X0054652Y0186370D02*
X0053585Y0185303D01*
X0050382Y0185303D01*
X0050382Y0188505D02*
X0053585Y0188505D01*
X0054652Y0187438D01*
X0054652Y0186370D01*
X0053585Y0185303D02*
X0054652Y0184235D01*
X0054652Y0183168D01*
X0053585Y0182100D01*
X0050382Y0182100D01*
X0050382Y0188505D01*
X0041761Y0187438D02*
X0040694Y0188505D01*
X0038559Y0188505D01*
X0037491Y0187438D01*
X0037491Y0183168D01*
X0038559Y0182100D01*
X0040694Y0182100D01*
X0041761Y0183168D01*
X0035316Y0188505D02*
X0031045Y0188505D01*
X0033181Y0188505D02*
X0033181Y0182100D01*
X0028870Y0182100D02*
X0026735Y0184235D01*
X0027803Y0184235D02*
X0024600Y0184235D01*
X0024600Y0182100D02*
X0024600Y0188505D01*
X0027803Y0188505D01*
X0028870Y0187438D01*
X0028870Y0185303D01*
X0027803Y0184235D01*
X0032300Y0163300D02*
X0053800Y0163300D01*
X0053800Y0162800D01*
X0053800Y0155800D01*
X0053800Y0155300D01*
X0032300Y0155300D01*
X0032240Y0155302D01*
X0032179Y0155307D01*
X0032120Y0155316D01*
X0032061Y0155329D01*
X0032002Y0155345D01*
X0031945Y0155365D01*
X0031890Y0155388D01*
X0031835Y0155415D01*
X0031783Y0155444D01*
X0031732Y0155477D01*
X0031683Y0155513D01*
X0031637Y0155551D01*
X0031593Y0155593D01*
X0031551Y0155637D01*
X0031513Y0155683D01*
X0031477Y0155732D01*
X0031444Y0155783D01*
X0031415Y0155835D01*
X0031388Y0155890D01*
X0031365Y0155945D01*
X0031345Y0156002D01*
X0031329Y0156061D01*
X0031316Y0156120D01*
X0031307Y0156179D01*
X0031302Y0156240D01*
X0031300Y0156300D01*
X0031300Y0162300D01*
X0031302Y0162360D01*
X0031307Y0162421D01*
X0031316Y0162480D01*
X0031329Y0162539D01*
X0031345Y0162598D01*
X0031365Y0162655D01*
X0031388Y0162710D01*
X0031415Y0162765D01*
X0031444Y0162817D01*
X0031477Y0162868D01*
X0031513Y0162917D01*
X0031551Y0162963D01*
X0031593Y0163007D01*
X0031637Y0163049D01*
X0031683Y0163087D01*
X0031732Y0163123D01*
X0031783Y0163156D01*
X0031835Y0163185D01*
X0031890Y0163212D01*
X0031945Y0163235D01*
X0032002Y0163255D01*
X0032061Y0163271D01*
X0032120Y0163284D01*
X0032179Y0163293D01*
X0032240Y0163298D01*
X0032300Y0163300D01*
X0038800Y0159300D02*
X0040800Y0159300D01*
X0040800Y0161300D01*
X0042300Y0161300D02*
X0042300Y0157300D01*
X0043800Y0157300D01*
X0043800Y0161300D01*
X0042300Y0161300D01*
X0040800Y0159300D02*
X0040800Y0157300D01*
X0045300Y0157300D02*
X0045300Y0159300D01*
X0045300Y0161300D01*
X0045300Y0159300D02*
X0047300Y0159300D01*
X0053800Y0155800D02*
X0055300Y0155800D01*
X0055300Y0162800D01*
X0053800Y0162800D01*
X0081800Y0169300D02*
X0081800Y0129300D01*
X0040430Y0099213D02*
X0039717Y0098558D01*
X0039021Y0097886D01*
X0038341Y0097197D01*
X0037679Y0096492D01*
X0037034Y0095770D01*
X0036407Y0095033D01*
X0035798Y0094281D01*
X0035207Y0093514D01*
X0034636Y0092733D01*
X0034084Y0091939D01*
X0033551Y0091131D01*
X0033038Y0090310D01*
X0032546Y0089476D01*
X0032074Y0088631D01*
X0031624Y0087775D01*
X0031194Y0086908D01*
X0030785Y0086031D01*
X0030399Y0085144D01*
X0030034Y0084247D01*
X0029691Y0083342D01*
X0029370Y0082429D01*
X0029072Y0081509D01*
X0028797Y0080581D01*
X0028544Y0079647D01*
X0028314Y0078707D01*
X0028108Y0077761D01*
X0027924Y0076811D01*
X0027764Y0075856D01*
X0027627Y0074898D01*
X0027514Y0073937D01*
X0027425Y0072974D01*
X0027359Y0072008D01*
X0027317Y0071041D01*
X0027298Y0070074D01*
X0027303Y0069106D01*
X0027332Y0068139D01*
X0027384Y0067172D01*
X0027461Y0066208D01*
X0027560Y0065245D01*
X0027684Y0064285D01*
X0027831Y0063329D01*
X0028001Y0062376D01*
X0028194Y0061428D01*
X0028411Y0060485D01*
X0028651Y0059547D01*
X0028913Y0058615D01*
X0029199Y0057691D01*
X0029507Y0056773D01*
X0029837Y0055864D01*
X0030189Y0054962D01*
X0030564Y0054070D01*
X0030960Y0053187D01*
X0031378Y0052314D01*
X0031817Y0051452D01*
X0032277Y0050600D01*
X0032757Y0049760D01*
X0033259Y0048932D01*
X0033780Y0048117D01*
X0034321Y0047315D01*
X0034881Y0046526D01*
X0035461Y0045751D01*
X0036060Y0044990D01*
X0036677Y0044245D01*
X0037312Y0043514D01*
X0037965Y0042800D01*
X0038635Y0042102D01*
X0039322Y0041420D01*
X0040025Y0040755D01*
X0040745Y0040108D01*
X0041480Y0039479D01*
X0042230Y0038868D01*
X0042995Y0038275D01*
X0043775Y0037701D01*
X0044568Y0037147D01*
X0045374Y0036612D01*
X0046194Y0036097D01*
X0047025Y0035603D01*
X0047869Y0035129D01*
X0048724Y0034675D01*
X0049590Y0034243D01*
X0050466Y0033832D01*
X0051352Y0033443D01*
X0052247Y0033075D01*
X0053151Y0032730D01*
X0054064Y0032407D01*
X0054983Y0032106D01*
X0055910Y0031828D01*
X0056844Y0031572D01*
X0057783Y0031340D01*
X0058728Y0031130D01*
X0059678Y0030944D01*
X0060632Y0030782D01*
X0061589Y0030642D01*
X0062550Y0030526D01*
X0063514Y0030434D01*
X0064479Y0030365D01*
X0065446Y0030320D01*
X0066413Y0030299D01*
X0067381Y0030301D01*
X0068348Y0030327D01*
X0069315Y0030377D01*
X0070280Y0030451D01*
X0071243Y0030548D01*
X0072203Y0030668D01*
X0073160Y0030812D01*
X0074113Y0030980D01*
X0075062Y0031171D01*
X0076006Y0031385D01*
X0076944Y0031622D01*
X0077876Y0031882D01*
X0078802Y0032164D01*
X0079720Y0032470D01*
X0080630Y0032797D01*
X0081533Y0033147D01*
X0082426Y0033519D01*
X0083310Y0033913D01*
X0084184Y0034328D01*
X0085048Y0034764D01*
X0085901Y0035222D01*
X0086742Y0035700D01*
X0087572Y0036199D01*
X0088388Y0036718D01*
X0089192Y0037257D01*
X0089983Y0037815D01*
X0090759Y0038392D01*
X0091522Y0038989D01*
X0092269Y0039604D01*
X0093001Y0040237D01*
X0093717Y0040887D01*
X0094418Y0041555D01*
X0095101Y0042240D01*
X0095768Y0042942D01*
X0096417Y0043660D01*
X0097048Y0044393D01*
X0097662Y0045142D01*
X0098257Y0045905D01*
X0098832Y0046683D01*
X0099389Y0047474D01*
X0099926Y0048279D01*
X0100443Y0049097D01*
X0100941Y0049928D01*
X0101417Y0050770D01*
X0101873Y0051624D01*
X0102308Y0052488D01*
X0102721Y0053363D01*
X0103113Y0054248D01*
X0103483Y0055142D01*
X0103831Y0056045D01*
X0104157Y0056957D01*
X0104460Y0057876D01*
X0104741Y0058802D01*
X0104999Y0059734D01*
X0105234Y0060673D01*
X0105446Y0061617D01*
X0105635Y0062567D01*
X0105801Y0063520D01*
X0105943Y0064477D01*
X0106061Y0065438D01*
X0106156Y0066401D01*
X0106228Y0067366D01*
X0106276Y0068333D01*
X0106300Y0069300D01*
D11*
X0076201Y0054054D02*
X0076201Y0051051D01*
X0074700Y0049550D01*
X0073198Y0051051D01*
X0073198Y0054054D01*
X0071597Y0053303D02*
X0071597Y0052553D01*
X0070846Y0051802D01*
X0071597Y0051051D01*
X0071597Y0050301D01*
X0070846Y0049550D01*
X0069345Y0049550D01*
X0068594Y0050301D01*
X0067043Y0050301D02*
X0067043Y0049550D01*
X0066292Y0049550D01*
X0066292Y0050301D01*
X0067043Y0050301D01*
X0064724Y0049550D02*
X0063974Y0050301D01*
X0063974Y0053303D01*
X0064724Y0052553D02*
X0063223Y0052553D01*
X0060905Y0052553D02*
X0060905Y0049550D01*
X0061655Y0049550D02*
X0060154Y0049550D01*
X0058553Y0049550D02*
X0055550Y0049550D01*
X0055550Y0054054D01*
X0060154Y0052553D02*
X0060905Y0052553D01*
X0060905Y0054054D02*
X0060905Y0054804D01*
X0068594Y0053303D02*
X0069345Y0054054D01*
X0070846Y0054054D01*
X0071597Y0053303D01*
X0070846Y0051802D02*
X0070096Y0051802D01*
X0133546Y0132446D02*
X0135798Y0132446D01*
X0135047Y0133947D01*
X0135047Y0134698D01*
X0135798Y0135449D01*
X0137299Y0135449D01*
X0138050Y0134698D01*
X0138050Y0133197D01*
X0137299Y0132446D01*
X0139550Y0132801D02*
X0140301Y0132050D01*
X0141802Y0132050D01*
X0142553Y0132801D01*
X0142553Y0133551D01*
X0141802Y0134302D01*
X0140301Y0134302D01*
X0139550Y0135053D01*
X0139550Y0135803D01*
X0140301Y0136554D01*
X0141802Y0136554D01*
X0142553Y0135803D01*
X0144154Y0136554D02*
X0146406Y0136554D01*
X0147156Y0135803D01*
X0147156Y0132801D01*
X0146406Y0132050D01*
X0144154Y0132050D01*
X0144154Y0136554D01*
X0148758Y0135053D02*
X0148758Y0132050D01*
X0148758Y0134302D02*
X0151760Y0134302D01*
X0151760Y0135053D02*
X0151760Y0132050D01*
X0151760Y0135053D02*
X0150259Y0136554D01*
X0148758Y0135053D01*
X0149260Y0142050D02*
X0146258Y0142050D01*
X0146258Y0146554D01*
X0144656Y0145803D02*
X0143906Y0146554D01*
X0142405Y0146554D01*
X0141654Y0145803D01*
X0141654Y0142801D01*
X0142405Y0142050D01*
X0143906Y0142050D01*
X0144656Y0142801D01*
X0140053Y0142801D02*
X0139302Y0142050D01*
X0137801Y0142050D01*
X0137050Y0142801D01*
X0137801Y0144302D02*
X0137050Y0145053D01*
X0137050Y0145803D01*
X0137801Y0146554D01*
X0139302Y0146554D01*
X0140053Y0145803D01*
X0139302Y0144302D02*
X0140053Y0143551D01*
X0140053Y0142801D01*
X0139302Y0144302D02*
X0137801Y0144302D01*
X0137801Y0152050D02*
X0137050Y0152801D01*
X0137801Y0152050D02*
X0139302Y0152050D01*
X0140053Y0152801D01*
X0140053Y0153551D01*
X0139302Y0154302D01*
X0137801Y0154302D01*
X0137050Y0155053D01*
X0137050Y0155803D01*
X0137801Y0156554D01*
X0139302Y0156554D01*
X0140053Y0155803D01*
X0141654Y0155803D02*
X0142405Y0156554D01*
X0143906Y0156554D01*
X0144656Y0155803D01*
X0144656Y0152801D01*
X0143906Y0152050D01*
X0142405Y0152050D01*
X0141654Y0152801D01*
X0141654Y0155803D01*
X0143155Y0153551D02*
X0144656Y0152050D01*
X0146258Y0152050D02*
X0147759Y0153551D01*
X0149260Y0152050D01*
X0149260Y0156554D01*
X0146258Y0156554D02*
X0146258Y0152050D01*
X0146258Y0162050D02*
X0148510Y0162050D01*
X0149260Y0162801D01*
X0149260Y0165803D01*
X0148510Y0166554D01*
X0146258Y0166554D01*
X0146258Y0162050D01*
X0144656Y0162050D02*
X0144656Y0166554D01*
X0141654Y0166554D02*
X0144656Y0162050D01*
X0141654Y0162050D02*
X0141654Y0166554D01*
X0140053Y0165803D02*
X0139302Y0166554D01*
X0137801Y0166554D01*
X0137050Y0165803D01*
X0137050Y0162801D01*
X0137801Y0162050D01*
X0139302Y0162050D01*
X0140053Y0162801D01*
X0140053Y0164302D01*
X0138551Y0164302D01*
X0138551Y0172050D02*
X0137050Y0173551D01*
X0137050Y0176554D01*
X0140053Y0176554D02*
X0140053Y0173551D01*
X0138551Y0172050D01*
X0141654Y0172801D02*
X0142405Y0172050D01*
X0143906Y0172050D01*
X0144656Y0172801D01*
X0146258Y0172801D02*
X0146258Y0175803D01*
X0147008Y0176554D01*
X0148510Y0176554D01*
X0149260Y0175803D01*
X0149260Y0172801D02*
X0148510Y0172050D01*
X0147008Y0172050D01*
X0146258Y0172801D01*
X0144656Y0175803D02*
X0143906Y0176554D01*
X0142405Y0176554D01*
X0141654Y0175803D01*
X0141654Y0172801D01*
X0120050Y0172446D02*
X0120050Y0175449D01*
X0120050Y0173947D02*
X0115546Y0173947D01*
X0117047Y0172446D01*
X0133546Y0135449D02*
X0133546Y0132446D01*
D12*
X0130697Y0043455D02*
X0130697Y0037150D01*
X0128595Y0037150D02*
X0132799Y0037150D01*
X0135041Y0037150D02*
X0136092Y0037150D01*
X0136092Y0038201D01*
X0135041Y0038201D01*
X0135041Y0037150D01*
X0138264Y0038201D02*
X0138264Y0042404D01*
X0139315Y0043455D01*
X0141416Y0043455D01*
X0142467Y0042404D01*
X0138264Y0038201D01*
X0139315Y0037150D01*
X0141416Y0037150D01*
X0142467Y0038201D01*
X0142467Y0042404D01*
X0130697Y0043455D02*
X0128595Y0041354D01*
X0126354Y0042404D02*
X0126354Y0040303D01*
X0125303Y0039252D01*
X0122150Y0039252D01*
X0124252Y0039252D02*
X0126354Y0037150D01*
X0122150Y0037150D02*
X0122150Y0043455D01*
X0125303Y0043455D01*
X0126354Y0042404D01*
D13*
X0069300Y0034300D02*
X0064300Y0034300D01*
X0066800Y0099300D02*
X0066800Y0104300D01*
X0064300Y0101800D02*
X0069300Y0101800D01*
X0100800Y0181300D02*
X0100800Y0184300D01*
X0100800Y0187300D01*
X0102800Y0187300D02*
X0102800Y0184300D01*
X0102800Y0181300D01*
D14*
X0121800Y0106800D02*
X0121800Y0105300D01*
X0141800Y0105300D02*
X0141800Y0106800D01*
X0141800Y0073300D02*
X0141800Y0071800D01*
X0121800Y0071800D02*
X0121800Y0073300D01*
D15*
X0121800Y0075100D03*
X0121800Y0070100D03*
X0141800Y0070100D03*
X0141800Y0075100D03*
X0141800Y0103500D03*
X0141800Y0108500D03*
X0121800Y0108500D03*
X0121800Y0103500D03*
D16*
X0058800Y0157300D02*
X0056800Y0157300D01*
X0057300Y0161300D02*
X0058800Y0161300D01*
D17*
X0056650Y0161300D03*
X0056650Y0157300D03*
M02*
